M48
;Layer_Color=9474304
;FILE_FORMAT=2:5
INCH,LZ
;TYPE=PLATED
T1F00S00C0.01181
T2F00S00C0.02953
T3F00S00C0.02988
T4F00S00C0.03087
T5F00S00C0.03110
T6F00S00C0.03228
T7F00S00C0.03346
T8F00S00C0.03425
T9F00S00C0.03937
T10F00S00C0.04134
T11F00S00C0.04331
T12F00S00C0.05000
T13F00S00C0.05039
T14F00S00C0.05118
T15F00S00C0.06142
T17F00S00C0.11811
%
T01
X0675Y03085
X07437Y02495
X05188Y01917
Y01825
Y01644
X0505137Y01917
X04705Y01968
X0417274Y02213
X03145Y03399
X06819Y03127
T02
X04725Y0239394
Y0259079
X03005Y0249606
Y0229921
X0201106Y026
X0181421
T03
X04755Y0196752
X04855
X04955
Y02275
X04855
X04755
X04655
Y0196752
T04
X0335Y01195
Y01295
Y01395
Y01495
X0395748
Y01395
Y01295
Y01195
Y01595
Y01695
Y01795
Y01895
Y01995
Y02095
Y02195
Y02295
Y02395
Y02495
Y02595
Y02695
Y02795
Y02895
Y02995
Y03095
X0335
Y02995
Y02895
Y02795
Y02695
Y02595
Y02495
Y02395
Y02295
Y02195
Y02095
Y01995
Y01895
Y01795
Y01695
Y01595
T05
X065987Y02485
Y02585
Y02685
Y02785
Y02885
Y02985
Y03085
X06905
Y02985
Y02885
Y02785
Y02685
Y02585
Y02485
Y03185
Y03285
Y03385
X065987
Y03285
Y03185
T06
X0296185Y0135
X0303Y01405
Y01295
X02908Y03459
Y03559
X0285485Y03509
X0265915Y03558
Y03458
X02606Y03508
T07
X0443Y0174783
Y0210217
T08
X0665Y0149
X0675
X0685
X0695
X0705
X0724Y01495
X0734
X0744
X0754
X0764
X0783Y0149
X0793
X0803
X0813
X0823
X0842
X0852
X0862
X0872
X0882
Y0209
X0872
X0862
X0852
X0842
X0823
X0813
X0803
X0793
X0783
X0764Y02095
X0754
X0744
X0734
X0724
X0705Y0209
X0695
X0685
X0675
X0665
T09
X0839157Y0235441
X0858843
Y0292528
X0849
X0839157
X0525Y030063
Y034
T10
X03015Y01505
Y0206012
T11
X0411Y01235
Y01335
Y01435
Y01535
X07255Y02915
Y03015
X07355
Y02915
X07455
Y03015
X07555
Y02915
X07655
Y03015
X0454Y02995
Y02895
Y02795
Y02695
X0444
Y02795
Y02895
Y02995
Y03095
X0454
X0411Y01635
X03235Y01595
Y01695
Y01795
Y01895
Y01995
X0322Y02395
Y02495
X0204736Y02335
X01945
X0184657
T12
X01865Y0291
Y0301
X02165
Y0291
T13
X0221Y03265
Y03365
Y03465
T14
X01505Y012652
X0179579Y0129972
X0199579
X0219579
X02795
X055Y013002
Y01675
X02795Y01595
X0219579
X0199579
X0179579
X01505Y0164
Y0216
Y025348
Y0306
Y034348
T15
X0179945Y01845
X018Y0206
X0209528
X0209472Y01845
X0239
X0239055Y0206
X0268583
X0268528Y01845
T17
X02Y011
X05
X065
X088
X02Y038
X05
X065
X088
M30
