G04*
G04 #@! TF.GenerationSoftware,Altium Limited,Altium Designer,22.4.2 (48)*
G04*
G04 Layer_Color=65535*
%FSLAX24Y24*%
%MOIN*%
G70*
G04*
G04 #@! TF.SameCoordinates,A9630A7D-A4A5-49CB-BB12-AA859E33B044*
G04*
G04*
G04 #@! TF.FilePolarity,Positive*
G04*
G01*
G75*
%ADD10C,0.0079*%
%ADD11C,0.0039*%
%ADD12C,0.0098*%
%ADD13C,0.0050*%
%ADD14C,0.0100*%
%ADD15R,0.0728X0.0387*%
D10*
X56831Y32032D02*
G03*
X56831Y32032I-4331J0D01*
G01*
X30150Y12331D02*
G03*
X30150Y12370I0J20D01*
G01*
D02*
G03*
X30150Y12331I0J-20D01*
G01*
D02*
G03*
X30150Y12370I0J20D01*
G01*
X29080Y33921D02*
G03*
X29080Y33960I0J20D01*
G01*
D02*
G03*
X29080Y33921I0J-20D01*
G01*
D02*
G03*
X29080Y33960I0J20D01*
G01*
X26591Y33911D02*
G03*
X26591Y33950I0J20D01*
G01*
D02*
G03*
X26591Y33911I0J-20D01*
G01*
D02*
G03*
X26591Y33950I0J20D01*
G01*
X30272Y29016D02*
G03*
X30193Y29016I-39J0D01*
G01*
D02*
G03*
X30272Y29016I39J0D01*
G01*
X42793Y11666D02*
G03*
X42872Y11666I39J0D01*
G01*
D02*
G03*
X42793Y11666I-39J0D01*
G01*
X21650Y27919D02*
G03*
X21650Y27998I0J39D01*
G01*
D02*
G03*
X21650Y27919I0J-39D01*
G01*
X37684Y32822D02*
G03*
X37684Y32743I0J-39D01*
G01*
D02*
G03*
X37684Y32822I0J39D01*
G01*
X65398Y33850D02*
G03*
X65398Y33850I-39J0D01*
G01*
X30504Y12563D02*
X30713D01*
Y14437D01*
X30504D02*
X30713D01*
X29434Y34153D02*
X29643D01*
Y36027D01*
X29434D02*
X29643D01*
X70704Y26271D02*
Y26329D01*
X71196Y26271D02*
Y26329D01*
X74304Y26285D02*
Y26342D01*
X74796Y26285D02*
Y26342D01*
X78004Y26271D02*
Y26329D01*
X78496Y26271D02*
Y26329D01*
X79996Y23821D02*
Y23879D01*
X79504Y23821D02*
Y23879D01*
X33267Y31925D02*
X39437D01*
X33637Y10975D02*
X39437D01*
X20842Y31575D02*
X22100D01*
X20842D02*
Y35725D01*
X22689D01*
X53396Y23671D02*
Y23729D01*
X52904Y23671D02*
Y23729D01*
X26946Y36017D02*
X27154D01*
Y34143D02*
Y36017D01*
X26946Y34143D02*
X27154D01*
X31700Y23950D02*
Y25450D01*
X32700D01*
Y23450D02*
Y25450D01*
X32200Y23450D02*
X32700D01*
X24921Y35061D02*
Y35239D01*
X23779Y35061D02*
X24921D01*
X23779D02*
Y35239D01*
X24921D01*
X24941Y35376D02*
Y35790D01*
X27882Y31066D02*
X28118D01*
X29296Y31335D02*
Y31392D01*
X28804Y31335D02*
Y31392D01*
X31146Y33821D02*
Y33879D01*
X30654Y33821D02*
Y33879D01*
X32646Y33821D02*
Y33879D01*
X32154Y33821D02*
Y33879D01*
X23821Y32454D02*
X23879D01*
X23821Y32946D02*
X23879D01*
X24554Y30085D02*
Y30142D01*
X25046Y30085D02*
Y30142D01*
X29556Y26855D02*
X30344D01*
X29556Y27445D02*
X30344D01*
X24554Y27608D02*
Y27665D01*
X25046Y27608D02*
Y27665D01*
X27846Y27635D02*
Y27692D01*
X27354Y27635D02*
Y27692D01*
X28621Y29404D02*
X28679D01*
X28621Y29896D02*
X28679D01*
X25954Y30085D02*
Y30142D01*
X26446Y30085D02*
Y30142D01*
X23383Y21833D02*
X28147D01*
X23383Y25967D02*
X26483D01*
X23204Y28341D02*
Y28399D01*
X23696Y28341D02*
Y28399D01*
X50058Y14596D02*
X50115D01*
X50058Y14104D02*
X50115D01*
X46158Y16746D02*
X46215D01*
X46158Y16254D02*
X46215D01*
X49558Y25796D02*
X49615D01*
X49558Y25304D02*
X49615D01*
X52096Y16408D02*
Y16465D01*
X51604Y16408D02*
Y16465D01*
X52096Y18221D02*
Y18279D01*
X51604Y18221D02*
Y18279D01*
X50085Y16254D02*
X50142D01*
X50085Y16746D02*
X50142D01*
X46050Y19813D02*
Y22613D01*
X50050Y19813D02*
Y22978D01*
X51996Y24658D02*
Y24715D01*
X51504Y24658D02*
Y24715D01*
X51996Y22808D02*
Y22865D01*
X51504Y22808D02*
Y22865D01*
X49558Y24104D02*
X49615D01*
X49558Y24596D02*
X49615D01*
X51554Y20908D02*
Y20965D01*
X52046Y20908D02*
Y20965D01*
X48108Y18846D02*
X48165D01*
X48108Y18354D02*
X48165D01*
X50071Y18846D02*
X50129D01*
X50071Y18354D02*
X50129D01*
X46171D02*
X46229D01*
X46171Y18846D02*
X46229D01*
X48121Y16746D02*
X48179D01*
X48121Y16254D02*
X48179D01*
X40191Y24942D02*
X45400D01*
X40191D02*
Y32958D01*
X43676D01*
X32071Y14346D02*
X32129D01*
X32071Y13854D02*
X32129D01*
X27390Y19301D02*
Y20600D01*
X17469Y19301D02*
X27390D01*
X17469D02*
Y21191D01*
X27384Y17151D02*
Y18450D01*
X17463Y17151D02*
X27384D01*
X17463D02*
Y19041D01*
X32085Y13196D02*
X32142D01*
X32085Y12704D02*
X32142D01*
X70542Y29150D02*
Y34359D01*
X78558D01*
Y30874D02*
Y34359D01*
X43971Y24396D02*
X44029D01*
X43971Y23904D02*
X44029D01*
X78546Y23835D02*
Y23892D01*
X78054Y23835D02*
Y23892D01*
X40561Y12350D02*
Y16948D01*
X41639D01*
Y11752D02*
Y16948D01*
X41100Y11752D02*
X41639D01*
X41328Y17519D02*
X42902D01*
X41328Y19881D02*
X42902D01*
X30150Y15498D02*
Y16913D01*
Y18738D02*
Y20153D01*
Y18738D02*
X30615Y18274D01*
X29685Y18738D02*
X30615D01*
X29685Y16913D02*
Y18738D01*
Y16913D02*
X30615D01*
Y18738D01*
X41285Y21046D02*
X41342D01*
X41285Y20554D02*
X41342D01*
X79996Y26271D02*
Y26329D01*
X79504Y26271D02*
Y26329D01*
X72596Y26271D02*
Y26329D01*
X72104Y26271D02*
Y26329D01*
X76296Y26271D02*
Y26329D01*
X75804Y26271D02*
Y26329D01*
X41285Y22654D02*
X41342D01*
X41285Y23146D02*
X41342D01*
X28875Y11974D02*
Y16974D01*
X17458D02*
X28875D01*
X17458Y11974D02*
Y12456D01*
Y13539D02*
Y15409D01*
Y16491D02*
Y16974D01*
Y11974D02*
X28875D01*
X46354Y27521D02*
Y27579D01*
X46846Y27521D02*
Y27579D01*
X31811Y20548D02*
X32350D01*
X31811Y15352D02*
Y20548D01*
Y15352D02*
X32889D01*
Y19950D01*
X17403Y24452D02*
X21497D01*
X17403Y21460D02*
X21497D01*
Y24452D01*
X17403Y21460D02*
Y24452D01*
X44664Y18413D02*
Y20087D01*
X43936D02*
X44664D01*
X43936Y18413D02*
X44664D01*
X43936D02*
Y20087D01*
X82597Y27127D02*
Y28859D01*
Y23446D02*
Y25473D01*
Y23446D02*
X83522D01*
X84309D02*
X85491D01*
X86278D02*
X87203D01*
X82597Y28859D02*
X87203D01*
Y23446D02*
Y25473D01*
Y27127D02*
Y28859D01*
D11*
X55079Y10600D02*
G03*
X55079Y10561I0J-20D01*
G01*
D02*
G03*
X55079Y10600I0J20D01*
G01*
X14971Y18802D02*
G03*
X14971Y18841I0J20D01*
G01*
D02*
G03*
X14971Y18802I0J-20D01*
G01*
Y36750D02*
G03*
X14971Y36789I0J20D01*
G01*
D02*
G03*
X14971Y36750I0J-20D01*
G01*
Y27750D02*
G03*
X14971Y27789I0J20D01*
G01*
D02*
G03*
X14971Y27750I0J-20D01*
G01*
X40698Y19487D02*
G03*
X40658Y19487I-20J0D01*
G01*
D02*
G03*
X40698Y19487I20J0D01*
G01*
X30365Y22894D02*
X30837Y22906D01*
Y25059D01*
X30333D02*
X30837D01*
X29263Y22906D02*
X29704Y22894D01*
X29263Y22906D02*
Y25059D01*
X29704D01*
X31176Y28500D02*
X32124D01*
X31176Y31500D02*
X32124D01*
X18044Y25685D02*
X18056Y25213D01*
X20209D01*
Y25717D01*
X18044Y26346D02*
X18056Y26787D01*
X20209D01*
Y26346D02*
Y26787D01*
X46463Y25994D02*
X46935Y26006D01*
X46463Y23841D02*
Y25994D01*
Y23841D02*
X46967D01*
X47596Y26006D02*
X48037Y25994D01*
Y23841D02*
Y25994D01*
X47596Y23841D02*
X48037D01*
X53189Y11128D02*
X58110D01*
Y18624D01*
X53189D02*
X58110D01*
X53189Y11128D02*
Y18624D01*
X11940Y18274D02*
X16861D01*
X11940Y10778D02*
Y18274D01*
Y10778D02*
X16861D01*
Y18274D01*
X11940Y36222D02*
X16861D01*
X11940Y28726D02*
Y36222D01*
Y28726D02*
X16861D01*
Y36222D01*
X11940Y27222D02*
X16861D01*
X11940Y19726D02*
Y27222D01*
Y19726D02*
X16861D01*
Y27222D01*
X43776Y14150D02*
X44724D01*
X43776Y11150D02*
X44724D01*
X83759Y14534D02*
X88641D01*
X83759D02*
Y21266D01*
X88641D01*
Y14534D02*
Y21266D01*
X77859Y14534D02*
X82741D01*
X77859D02*
Y21266D01*
X82741D01*
Y14534D02*
Y21266D01*
X71959Y14584D02*
X76841D01*
X71959D02*
Y21316D01*
X76841D01*
Y14584D02*
Y21316D01*
X66059Y14534D02*
X70941D01*
X66059D02*
Y21266D01*
X70941D01*
Y14534D02*
Y21266D01*
X17910Y28360D02*
Y30840D01*
X22390D01*
Y28360D02*
Y30840D01*
X17910Y28360D02*
X22390D01*
X38200Y33726D02*
Y34674D01*
X35200Y33726D02*
Y34674D01*
D12*
X29111Y15999D02*
G03*
X29111Y15999I-49J0D01*
G01*
X21783Y23350D02*
G03*
X21783Y23350I-49J0D01*
G01*
D13*
X66259Y24232D02*
X68778D01*
X66259Y34468D02*
X68778D01*
X66259Y24232D02*
Y24478D01*
Y34222D02*
Y34468D01*
X68778Y24232D02*
Y24478D01*
Y34222D02*
Y34468D01*
D14*
X29640Y21920D02*
Y21320D01*
X29940D01*
X30040Y21420D01*
Y21820D01*
X29940Y21920D01*
X29640D01*
X30240Y21320D02*
X30440D01*
X30340D01*
Y21920D01*
X30240Y21820D01*
X40930Y22130D02*
X40830Y22230D01*
X40630D01*
X40530Y22130D01*
Y21730D01*
X40630Y21630D01*
X40830D01*
X40930Y21730D01*
X41130Y21630D02*
X41330D01*
X41230D01*
Y22230D01*
X41130Y22130D01*
X41930Y21630D02*
Y22230D01*
X41630Y21930D01*
X42030D01*
X79320Y27490D02*
Y28090D01*
X79620D01*
X79720Y27990D01*
Y27790D01*
X79620Y27690D01*
X79320D01*
X79520D02*
X79720Y27490D01*
X80320D02*
X79920D01*
X80320Y27890D01*
Y27990D01*
X80220Y28090D01*
X80020D01*
X79920Y27990D01*
X80919Y28090D02*
X80520D01*
Y27790D01*
X80720Y27890D01*
X80820D01*
X80919Y27790D01*
Y27590D01*
X80820Y27490D01*
X80620D01*
X80520Y27590D01*
X71920Y27490D02*
Y28090D01*
X72220D01*
X72320Y27990D01*
Y27790D01*
X72220Y27690D01*
X71920D01*
X72120D02*
X72320Y27490D01*
X72920D02*
X72520D01*
X72920Y27890D01*
Y27990D01*
X72820Y28090D01*
X72620D01*
X72520Y27990D01*
X73420Y27490D02*
Y28090D01*
X73120Y27790D01*
X73519D01*
X75620Y27490D02*
Y28090D01*
X75920D01*
X76020Y27990D01*
Y27790D01*
X75920Y27690D01*
X75620D01*
X75820D02*
X76020Y27490D01*
X76620D02*
X76220D01*
X76620Y27890D01*
Y27990D01*
X76520Y28090D01*
X76320D01*
X76220Y27990D01*
X76820D02*
X76920Y28090D01*
X77120D01*
X77219Y27990D01*
Y27890D01*
X77120Y27790D01*
X77020D01*
X77120D01*
X77219Y27690D01*
Y27590D01*
X77120Y27490D01*
X76920D01*
X76820Y27590D01*
X30300Y35300D02*
Y35900D01*
X30600D01*
X30700Y35800D01*
Y35600D01*
X30600Y35500D01*
X30300D01*
X30500D02*
X30700Y35300D01*
X31300D02*
X30900D01*
X31300Y35700D01*
Y35800D01*
X31200Y35900D01*
X31000D01*
X30900Y35800D01*
X31500D02*
X31600Y35900D01*
X31800D01*
X31900Y35800D01*
Y35400D01*
X31800Y35300D01*
X31600D01*
X31500Y35400D01*
Y35800D01*
X32350Y35300D02*
Y35900D01*
X32650D01*
X32750Y35800D01*
Y35600D01*
X32650Y35500D01*
X32350D01*
X32550D02*
X32750Y35300D01*
X32950D02*
X33150D01*
X33050D01*
Y35900D01*
X32950Y35800D01*
X33450Y35400D02*
X33550Y35300D01*
X33750D01*
X33850Y35400D01*
Y35800D01*
X33750Y35900D01*
X33550D01*
X33450Y35800D01*
Y35700D01*
X33550Y35600D01*
X33850D01*
X22700Y29580D02*
Y30180D01*
X23000D01*
X23100Y30080D01*
Y29880D01*
X23000Y29780D01*
X22700D01*
X22900D02*
X23100Y29580D01*
X23300D02*
X23500D01*
X23400D01*
Y30180D01*
X23300Y30080D01*
X23800Y30180D02*
X24200D01*
Y30080D01*
X23800Y29680D01*
Y29580D01*
X47400Y17300D02*
Y17900D01*
X47700D01*
X47800Y17800D01*
Y17600D01*
X47700Y17500D01*
X47400D01*
X47600D02*
X47800Y17300D01*
X48000D02*
X48200D01*
X48100D01*
Y17900D01*
X48000Y17800D01*
X48800Y17300D02*
Y17900D01*
X48500Y17600D01*
X48900D01*
X49350Y13000D02*
Y13600D01*
X49650D01*
X49750Y13500D01*
Y13300D01*
X49650Y13200D01*
X49350D01*
X49550D02*
X49750Y13000D01*
X49950D02*
X50150D01*
X50050D01*
Y13600D01*
X49950Y13500D01*
X50450D02*
X50550Y13600D01*
X50750D01*
X50850Y13500D01*
Y13400D01*
X50750Y13300D01*
X50650D01*
X50750D01*
X50850Y13200D01*
Y13100D01*
X50750Y13000D01*
X50550D01*
X50450Y13100D01*
X52600Y20650D02*
Y21250D01*
X52900D01*
X53000Y21150D01*
Y20950D01*
X52900Y20850D01*
X52600D01*
X52800D02*
X53000Y20650D01*
X53200D02*
X53400D01*
X53300D01*
Y21250D01*
X53200Y21150D01*
X54100Y20650D02*
X53700D01*
X54100Y21050D01*
Y21150D01*
X54000Y21250D01*
X53800D01*
X53700Y21150D01*
X49664Y17300D02*
Y17900D01*
X49964D01*
X50064Y17800D01*
Y17600D01*
X49964Y17500D01*
X49664D01*
X49864D02*
X50064Y17300D01*
X50264D02*
X50464D01*
X50364D01*
Y17900D01*
X50264Y17800D01*
X50764Y17300D02*
X50964D01*
X50864D01*
Y17900D01*
X50764Y17800D01*
X31350Y14700D02*
Y15300D01*
X31650D01*
X31750Y15200D01*
Y15000D01*
X31650Y14900D01*
X31350D01*
X31550D02*
X31750Y14700D01*
X31950D02*
X32150D01*
X32050D01*
Y15300D01*
X31950Y15200D01*
X32450D02*
X32550Y15300D01*
X32750D01*
X32850Y15200D01*
Y14800D01*
X32750Y14700D01*
X32550D01*
X32450Y14800D01*
Y15200D01*
X51400Y14800D02*
Y15400D01*
X51700D01*
X51800Y15300D01*
Y15100D01*
X51700Y15000D01*
X51400D01*
X51600D02*
X51800Y14800D01*
X52000Y14900D02*
X52100Y14800D01*
X52300D01*
X52400Y14900D01*
Y15300D01*
X52300Y15400D01*
X52100D01*
X52000Y15300D01*
Y15200D01*
X52100Y15100D01*
X52400D01*
X31350Y11600D02*
Y12200D01*
X31650D01*
X31750Y12100D01*
Y11900D01*
X31650Y11800D01*
X31350D01*
X31550D02*
X31750Y11600D01*
X31950Y12200D02*
X32350D01*
Y12100D01*
X31950Y11700D01*
Y11600D01*
X27050Y26030D02*
Y26630D01*
X27350D01*
X27450Y26530D01*
Y26330D01*
X27350Y26230D01*
X27050D01*
X27250D02*
X27450Y26030D01*
X28050Y26630D02*
X27850Y26530D01*
X27650Y26330D01*
Y26130D01*
X27750Y26030D01*
X27950D01*
X28050Y26130D01*
Y26230D01*
X27950Y26330D01*
X27650D01*
X40530Y23730D02*
Y24330D01*
X40830D01*
X40930Y24230D01*
Y24030D01*
X40830Y23930D01*
X40530D01*
X40730D02*
X40930Y23730D01*
X41530Y24330D02*
X41130D01*
Y24030D01*
X41330Y24130D01*
X41430D01*
X41530Y24030D01*
Y23830D01*
X41430Y23730D01*
X41230D01*
X41130Y23830D01*
X52550Y22050D02*
Y22650D01*
X52850D01*
X52950Y22550D01*
Y22350D01*
X52850Y22250D01*
X52550D01*
X52750D02*
X52950Y22050D01*
X53450D02*
Y22650D01*
X53150Y22350D01*
X53550D01*
X51400Y19350D02*
Y19950D01*
X51700D01*
X51800Y19850D01*
Y19650D01*
X51700Y19550D01*
X51400D01*
X51600D02*
X51800Y19350D01*
X52400D02*
X52000D01*
X52400Y19750D01*
Y19850D01*
X52300Y19950D01*
X52100D01*
X52000Y19850D01*
X49050Y23100D02*
Y23700D01*
X49350D01*
X49450Y23600D01*
Y23400D01*
X49350Y23300D01*
X49050D01*
X49250D02*
X49450Y23100D01*
X49650D02*
X49850D01*
X49750D01*
Y23700D01*
X49650Y23600D01*
X74150Y28000D02*
X74050Y28100D01*
X73850D01*
X73750Y28000D01*
Y27600D01*
X73850Y27500D01*
X74050D01*
X74150Y27600D01*
X74750Y27500D02*
X74350D01*
X74750Y27900D01*
Y28000D01*
X74650Y28100D01*
X74450D01*
X74350Y28000D01*
X75350Y28100D02*
X74950D01*
Y27800D01*
X75150Y27900D01*
X75250D01*
X75350Y27800D01*
Y27600D01*
X75250Y27500D01*
X75050D01*
X74950Y27600D01*
X77900Y28000D02*
X77800Y28100D01*
X77600D01*
X77500Y28000D01*
Y27600D01*
X77600Y27500D01*
X77800D01*
X77900Y27600D01*
X78500Y27500D02*
X78100D01*
X78500Y27900D01*
Y28000D01*
X78400Y28100D01*
X78200D01*
X78100Y28000D01*
X79000Y27500D02*
Y28100D01*
X78700Y27800D01*
X79100D01*
X70450Y28000D02*
X70350Y28100D01*
X70150D01*
X70050Y28000D01*
Y27600D01*
X70150Y27500D01*
X70350D01*
X70450Y27600D01*
X71050Y27500D02*
X70650D01*
X71050Y27900D01*
Y28000D01*
X70950Y28100D01*
X70750D01*
X70650Y28000D01*
X71250D02*
X71350Y28100D01*
X71550D01*
X71650Y28000D01*
Y27900D01*
X71550Y27800D01*
X71450D01*
X71550D01*
X71650Y27700D01*
Y27600D01*
X71550Y27500D01*
X71350D01*
X71250Y27600D01*
X80450Y22000D02*
X80550Y21900D01*
X80750D01*
X80850Y22000D01*
Y22400D01*
X80750Y22500D01*
X80550D01*
X80450Y22400D01*
X79850Y22500D02*
X80250D01*
X79850Y22100D01*
Y22000D01*
X79950Y21900D01*
X80150D01*
X80250Y22000D01*
X79250Y22500D02*
X79650D01*
X79250Y22100D01*
Y22000D01*
X79350Y21900D01*
X79550D01*
X79650Y22000D01*
X49728Y15600D02*
X49628Y15700D01*
X49428D01*
X49328Y15600D01*
Y15200D01*
X49428Y15100D01*
X49628D01*
X49728Y15200D01*
X49927Y15100D02*
X50127D01*
X50027D01*
Y15700D01*
X49927Y15600D01*
X50427D02*
X50527Y15700D01*
X50727D01*
X50827Y15600D01*
Y15500D01*
X50727Y15400D01*
X50627D01*
X50727D01*
X50827Y15300D01*
Y15200D01*
X50727Y15100D01*
X50527D01*
X50427Y15200D01*
X45800Y17750D02*
X45700Y17850D01*
X45500D01*
X45400Y17750D01*
Y17350D01*
X45500Y17250D01*
X45700D01*
X45800Y17350D01*
X46000Y17250D02*
X46200D01*
X46100D01*
Y17850D01*
X46000Y17750D01*
X46900Y17250D02*
X46500D01*
X46900Y17650D01*
Y17750D01*
X46800Y17850D01*
X46600D01*
X46500Y17750D01*
X28350Y28900D02*
X28250Y29000D01*
X28050D01*
X27950Y28900D01*
Y28500D01*
X28050Y28400D01*
X28250D01*
X28350Y28500D01*
X28550Y28400D02*
X28750D01*
X28650D01*
Y29000D01*
X28550Y28900D01*
X29050Y28400D02*
X29250D01*
X29150D01*
Y29000D01*
X29050Y28900D01*
X32000Y22850D02*
X32100Y22950D01*
Y23150D01*
X32000Y23250D01*
X31600D01*
X31500Y23150D01*
Y22950D01*
X31600Y22850D01*
X31500Y22650D02*
Y22450D01*
Y22550D01*
X32100D01*
X32000Y22650D01*
Y22150D02*
X32100Y22050D01*
Y21850D01*
X32000Y21750D01*
X31600D01*
X31500Y21850D01*
Y22050D01*
X31600Y22150D01*
X32000D01*
X24650Y31814D02*
X24550Y31914D01*
X24350D01*
X24250Y31814D01*
Y31414D01*
X24350Y31314D01*
X24550D01*
X24650Y31414D01*
X24850D02*
X24950Y31314D01*
X25150D01*
X25250Y31414D01*
Y31814D01*
X25150Y31914D01*
X24950D01*
X24850Y31814D01*
Y31714D01*
X24950Y31614D01*
X25250D01*
X26100Y31814D02*
X26000Y31914D01*
X25800D01*
X25700Y31814D01*
Y31414D01*
X25800Y31314D01*
X26000D01*
X26100Y31414D01*
X26300Y31814D02*
X26400Y31914D01*
X26600D01*
X26700Y31814D01*
Y31714D01*
X26600Y31614D01*
X26700Y31514D01*
Y31414D01*
X26600Y31314D01*
X26400D01*
X26300Y31414D01*
Y31514D01*
X26400Y31614D01*
X26300Y31714D01*
Y31814D01*
X26400Y31614D02*
X26600D01*
X54450Y23900D02*
X54350Y24000D01*
X54150D01*
X54050Y23900D01*
Y23500D01*
X54150Y23400D01*
X54350D01*
X54450Y23500D01*
X54650Y24000D02*
X55050D01*
Y23900D01*
X54650Y23500D01*
Y23400D01*
X49450Y26900D02*
X49350Y27000D01*
X49150D01*
X49050Y26900D01*
Y26500D01*
X49150Y26400D01*
X49350D01*
X49450Y26500D01*
X50050Y27000D02*
X49850Y26900D01*
X49650Y26700D01*
Y26500D01*
X49750Y26400D01*
X49950D01*
X50050Y26500D01*
Y26600D01*
X49950Y26700D01*
X49650D01*
X17990Y28000D02*
X17890Y28100D01*
X17690D01*
X17590Y28000D01*
Y27600D01*
X17690Y27500D01*
X17890D01*
X17990Y27600D01*
X18590Y28100D02*
X18190D01*
Y27800D01*
X18390Y27900D01*
X18490D01*
X18590Y27800D01*
Y27600D01*
X18490Y27500D01*
X18290D01*
X18190Y27600D01*
X45986Y15600D02*
X45886Y15700D01*
X45686D01*
X45586Y15600D01*
Y15200D01*
X45686Y15100D01*
X45886D01*
X45986Y15200D01*
X46186Y15600D02*
X46286Y15700D01*
X46486D01*
X46586Y15600D01*
Y15500D01*
X46486Y15400D01*
X46386D01*
X46486D01*
X46586Y15300D01*
Y15200D01*
X46486Y15100D01*
X46286D01*
X46186Y15200D01*
X47435Y28335D02*
X48035D01*
Y28035D01*
X47935Y27935D01*
X47735D01*
X47635Y28035D01*
Y28335D01*
Y28135D02*
X47435Y27935D01*
Y27335D02*
Y27735D01*
X47835Y27335D01*
X47935D01*
X48035Y27435D01*
Y27635D01*
X47935Y27735D01*
X47435Y26736D02*
Y27135D01*
X47835Y26736D01*
X47935D01*
X48035Y26835D01*
Y27035D01*
X47935Y27135D01*
X42800Y22850D02*
Y23450D01*
X43100D01*
X43200Y23350D01*
Y23150D01*
X43100Y23050D01*
X42800D01*
X43000D02*
X43200Y22850D01*
X43400D02*
X43600D01*
X43500D01*
Y23450D01*
X43400Y23350D01*
X43900D02*
X44000Y23450D01*
X44200D01*
X44300Y23350D01*
Y22950D01*
X44200Y22850D01*
X44000D01*
X43900Y22950D01*
Y23350D01*
X44500D02*
X44600Y23450D01*
X44800D01*
X44900Y23350D01*
Y22950D01*
X44800Y22850D01*
X44600D01*
X44500Y22950D01*
Y23350D01*
X28550Y32914D02*
Y33514D01*
X28850D01*
X28950Y33414D01*
Y33214D01*
X28850Y33114D01*
X28550D01*
X28750D02*
X28950Y32914D01*
X29150D02*
X29350D01*
X29250D01*
Y33514D01*
X29150Y33414D01*
X30050Y33514D02*
X29850Y33414D01*
X29650Y33214D01*
Y33014D01*
X29750Y32914D01*
X29950D01*
X30050Y33014D01*
Y33114D01*
X29950Y33214D01*
X29650D01*
X17800Y11000D02*
Y11600D01*
X18100D01*
X18200Y11500D01*
Y11300D01*
X18100Y11200D01*
X17800D01*
X18000D02*
X18200Y11000D01*
X18800Y11600D02*
X18400D01*
Y11000D01*
X18800D01*
X18400Y11300D02*
X18600D01*
X19000Y11000D02*
X19200D01*
X19100D01*
Y11600D01*
X19000Y11500D01*
X22500Y23800D02*
Y23600D01*
Y23700D01*
X21900D01*
Y23800D01*
Y23600D01*
X22400Y22900D02*
X22500Y23000D01*
Y23200D01*
X22400Y23300D01*
X22000D01*
X21900Y23200D01*
Y23000D01*
X22000Y22900D01*
X21900Y22700D02*
Y22500D01*
Y22600D01*
X22500D01*
X22400Y22700D01*
X44000Y17000D02*
Y16400D01*
X44300D01*
X44400Y16500D01*
Y16900D01*
X44300Y17000D01*
X44000D01*
X44600Y16900D02*
X44700Y17000D01*
X44900D01*
X45000Y16900D01*
Y16800D01*
X44900Y16700D01*
X44800D01*
X44900D01*
X45000Y16600D01*
Y16500D01*
X44900Y16400D01*
X44700D01*
X44600Y16500D01*
X45400Y23950D02*
X45300Y23850D01*
Y23650D01*
X45400Y23550D01*
X45800D01*
X45900Y23650D01*
Y23850D01*
X45800Y23950D01*
X45900Y24550D02*
Y24150D01*
X45500Y24550D01*
X45400D01*
X45300Y24450D01*
Y24250D01*
X45400Y24150D01*
X23750Y36800D02*
X24150D01*
X23950D01*
Y36200D01*
X24750Y36800D02*
X24350D01*
Y36500D01*
X24550Y36600D01*
X24650D01*
X24750Y36500D01*
Y36300D01*
X24650Y36200D01*
X24450D01*
X24350Y36300D01*
X27900Y37340D02*
X28300D01*
X28100D01*
Y36740D01*
X28800D02*
Y37340D01*
X28500Y37040D01*
X28900D01*
X20830Y36730D02*
X21230D01*
X21030D01*
Y36130D01*
X21430Y36630D02*
X21530Y36730D01*
X21730D01*
X21830Y36630D01*
Y36530D01*
X21730Y36430D01*
X21630D01*
X21730D01*
X21830Y36330D01*
Y36230D01*
X21730Y36130D01*
X21530D01*
X21430Y36230D01*
X25900Y37300D02*
X26300D01*
X26100D01*
Y36700D01*
X26900D02*
X26500D01*
X26900Y37100D01*
Y37200D01*
X26800Y37300D01*
X26600D01*
X26500Y37200D01*
X29250Y12150D02*
X29650D01*
X29450D01*
Y11550D01*
X29850D02*
X30050D01*
X29950D01*
Y12150D01*
X29850Y12050D01*
X82950Y30440D02*
X82850Y30540D01*
X82650D01*
X82550Y30440D01*
Y30340D01*
X82650Y30240D01*
X82850D01*
X82950Y30140D01*
Y30040D01*
X82850Y29940D01*
X82650D01*
X82550Y30040D01*
X83150Y29940D02*
X83350D01*
X83250D01*
Y30540D01*
X83150Y30440D01*
X23060Y33530D02*
Y34130D01*
X23360D01*
X23460Y34030D01*
Y33830D01*
X23360Y33730D01*
X23060D01*
X23260D02*
X23460Y33530D01*
X23660D02*
X23860D01*
X23760D01*
Y34130D01*
X23660Y34030D01*
X24160D02*
X24260Y34130D01*
X24460D01*
X24560Y34030D01*
Y33930D01*
X24460Y33830D01*
X24560Y33730D01*
Y33630D01*
X24460Y33530D01*
X24260D01*
X24160Y33630D01*
Y33730D01*
X24260Y33830D01*
X24160Y33930D01*
Y34030D01*
X24260Y33830D02*
X24460D01*
X47350Y15100D02*
Y15700D01*
X47650D01*
X47750Y15600D01*
Y15400D01*
X47650Y15300D01*
X47350D01*
X47550D02*
X47750Y15100D01*
X47950D02*
X48150D01*
X48050D01*
Y15700D01*
X47950Y15600D01*
X48850Y15700D02*
X48450D01*
Y15400D01*
X48650Y15500D01*
X48750D01*
X48850Y15400D01*
Y15200D01*
X48750Y15100D01*
X48550D01*
X48450Y15200D01*
X51350Y25800D02*
Y26400D01*
X51650D01*
X51750Y26300D01*
Y26100D01*
X51650Y26000D01*
X51350D01*
X51550D02*
X51750Y25800D01*
X51950Y26300D02*
X52050Y26400D01*
X52250D01*
X52350Y26300D01*
Y26200D01*
X52250Y26100D01*
X52350Y26000D01*
Y25900D01*
X52250Y25800D01*
X52050D01*
X51950Y25900D01*
Y26000D01*
X52050Y26100D01*
X51950Y26200D01*
Y26300D01*
X52050Y26100D02*
X52250D01*
X24250Y26000D02*
Y26600D01*
X24550D01*
X24650Y26500D01*
Y26300D01*
X24550Y26200D01*
X24250D01*
X24450D02*
X24650Y26000D01*
X24850Y26500D02*
X24950Y26600D01*
X25150D01*
X25250Y26500D01*
Y26400D01*
X25150Y26300D01*
X25050D01*
X25150D01*
X25250Y26200D01*
Y26100D01*
X25150Y26000D01*
X24950D01*
X24850Y26100D01*
X65380Y35480D02*
Y34880D01*
X65780D01*
X66380Y35480D02*
X65980D01*
Y34880D01*
X66380D01*
X65980Y35180D02*
X66180D01*
X66580Y35480D02*
Y34880D01*
X66880D01*
X66979Y34980D01*
Y35380D01*
X66880Y35480D01*
X66580D01*
X67579Y35380D02*
X67479Y35480D01*
X67279D01*
X67179Y35380D01*
Y34980D01*
X67279Y34880D01*
X67479D01*
X67579Y34980D01*
X68079Y35480D02*
X67879D01*
X67779Y35380D01*
Y34980D01*
X67879Y34880D01*
X68079D01*
X68179Y34980D01*
Y35380D01*
X68079Y35480D01*
X68379Y34880D02*
Y35480D01*
X68779Y34880D01*
Y35480D01*
X68979D02*
X69379D01*
X69179D01*
Y34880D01*
X69579D02*
Y35480D01*
X69879D01*
X69979Y35380D01*
Y35180D01*
X69879Y35080D01*
X69579D01*
X69779D02*
X69979Y34880D01*
X70478Y35480D02*
X70278D01*
X70178Y35380D01*
Y34980D01*
X70278Y34880D01*
X70478D01*
X70578Y34980D01*
Y35380D01*
X70478Y35480D01*
X70778D02*
Y34880D01*
X71178D01*
X83450Y22580D02*
Y21980D01*
X83850D01*
X84450Y22580D02*
X84050D01*
Y21980D01*
X84450D01*
X84050Y22280D02*
X84250D01*
X84650Y22580D02*
Y21980D01*
X84950D01*
X85049Y22080D01*
Y22480D01*
X84950Y22580D01*
X84650D01*
X85549Y21980D02*
Y22580D01*
X85249Y22280D01*
X85649D01*
X77550Y22580D02*
Y21980D01*
X77950D01*
X78550Y22580D02*
X78150D01*
Y21980D01*
X78550D01*
X78150Y22280D02*
X78350D01*
X78750Y22580D02*
Y21980D01*
X79050D01*
X79149Y22080D01*
Y22480D01*
X79050Y22580D01*
X78750D01*
X79349Y22480D02*
X79449Y22580D01*
X79649D01*
X79749Y22480D01*
Y22380D01*
X79649Y22280D01*
X79549D01*
X79649D01*
X79749Y22180D01*
Y22080D01*
X79649Y21980D01*
X79449D01*
X79349Y22080D01*
X71650Y22630D02*
Y22030D01*
X72050D01*
X72650Y22630D02*
X72250D01*
Y22030D01*
X72650D01*
X72250Y22330D02*
X72450D01*
X72850Y22630D02*
Y22030D01*
X73150D01*
X73249Y22130D01*
Y22530D01*
X73150Y22630D01*
X72850D01*
X73849Y22030D02*
X73449D01*
X73849Y22430D01*
Y22530D01*
X73749Y22630D01*
X73549D01*
X73449Y22530D01*
X65750Y22580D02*
Y21980D01*
X66150D01*
X66750Y22580D02*
X66350D01*
Y21980D01*
X66750D01*
X66350Y22280D02*
X66550D01*
X66950Y22580D02*
Y21980D01*
X67250D01*
X67349Y22080D01*
Y22480D01*
X67250Y22580D01*
X66950D01*
X67549Y21980D02*
X67749D01*
X67649D01*
Y22580D01*
X67549Y22480D01*
X17600Y32150D02*
Y31550D01*
X18000D01*
X18600D02*
X18200D01*
X18600Y31950D01*
Y32050D01*
X18500Y32150D01*
X18300D01*
X18200Y32050D01*
X27550Y32566D02*
Y31966D01*
X27950D01*
X28150D02*
X28350D01*
X28250D01*
Y32566D01*
X28150Y32466D01*
X70530Y35370D02*
Y34770D01*
Y34970D01*
X70930Y35370D01*
X70630Y35070D01*
X70930Y34770D01*
X71530D02*
X71130D01*
X71530Y35170D01*
Y35270D01*
X71430Y35370D01*
X71230D01*
X71130Y35270D01*
X71730Y34770D02*
X71930D01*
X71830D01*
Y35370D01*
X71730Y35270D01*
X44700Y34000D02*
Y33400D01*
Y33600D01*
X45100Y34000D01*
X44800Y33700D01*
X45100Y33400D01*
X45300D02*
X45500D01*
X45400D01*
Y34000D01*
X45300Y33900D01*
X46200Y33400D02*
X45800D01*
X46200Y33800D01*
Y33900D01*
X46100Y34000D01*
X45900D01*
X45800Y33900D01*
X42500Y20400D02*
Y21000D01*
Y20600D02*
X42800Y20800D01*
X42500Y20600D02*
X42800Y20400D01*
X43100D02*
X43300D01*
X43200D01*
Y21000D01*
X43100Y20900D01*
X43600Y20400D02*
X43800D01*
X43700D01*
Y21000D01*
X43600Y20900D01*
X34890Y36590D02*
Y35990D01*
Y36190D01*
X35290Y36590D01*
X34990Y36290D01*
X35290Y35990D01*
X35490D02*
X35690D01*
X35590D01*
Y36590D01*
X35490Y36490D01*
X35990D02*
X36090Y36590D01*
X36290D01*
X36390Y36490D01*
Y36090D01*
X36290Y35990D01*
X36090D01*
X35990Y36090D01*
Y36490D01*
X31550Y21560D02*
Y20960D01*
Y21160D01*
X31950Y21560D01*
X31650Y21260D01*
X31950Y20960D01*
X32150Y21060D02*
X32250Y20960D01*
X32450D01*
X32550Y21060D01*
Y21460D01*
X32450Y21560D01*
X32250D01*
X32150Y21460D01*
Y21360D01*
X32250Y21260D01*
X32550D01*
X10350Y36950D02*
Y36350D01*
Y36550D01*
X10750Y36950D01*
X10450Y36650D01*
X10750Y36350D01*
X10950Y36850D02*
X11050Y36950D01*
X11250D01*
X11350Y36850D01*
Y36750D01*
X11250Y36650D01*
X11350Y36550D01*
Y36450D01*
X11250Y36350D01*
X11050D01*
X10950Y36450D01*
Y36550D01*
X11050Y36650D01*
X10950Y36750D01*
Y36850D01*
X11050Y36650D02*
X11250D01*
X30875Y32100D02*
Y32700D01*
Y32300D02*
X31175Y32500D01*
X30875Y32300D02*
X31175Y32100D01*
X31475Y32700D02*
X31875D01*
Y32600D01*
X31475Y32200D01*
Y32100D01*
X42250Y16700D02*
Y16100D01*
Y16300D01*
X42650Y16700D01*
X42350Y16400D01*
X42650Y16100D01*
X43250Y16700D02*
X43050Y16600D01*
X42850Y16400D01*
Y16200D01*
X42950Y16100D01*
X43150D01*
X43250Y16200D01*
Y16300D01*
X43150Y16400D01*
X42850D01*
X31690Y26460D02*
Y25860D01*
Y26060D01*
X32090Y26460D01*
X31790Y26160D01*
X32090Y25860D01*
X32690Y26460D02*
X32290D01*
Y26160D01*
X32490Y26260D01*
X32590D01*
X32690Y26160D01*
Y25960D01*
X32590Y25860D01*
X32390D01*
X32290Y25960D01*
X43150Y15350D02*
Y14750D01*
Y14950D01*
X43550Y15350D01*
X43250Y15050D01*
X43550Y14750D01*
X44050D02*
Y15350D01*
X43750Y15050D01*
X44150D01*
X58950Y15100D02*
Y14500D01*
Y14700D01*
X59350Y15100D01*
X59050Y14800D01*
X59350Y14500D01*
X59550Y15000D02*
X59650Y15100D01*
X59850D01*
X59950Y15000D01*
Y14900D01*
X59850Y14800D01*
X59750D01*
X59850D01*
X59950Y14700D01*
Y14600D01*
X59850Y14500D01*
X59650D01*
X59550Y14600D01*
X10250Y27650D02*
Y27050D01*
Y27250D01*
X10650Y27650D01*
X10350Y27350D01*
X10650Y27050D01*
X11250D02*
X10850D01*
X11250Y27450D01*
Y27550D01*
X11150Y27650D01*
X10950D01*
X10850Y27550D01*
X10500Y18850D02*
Y18250D01*
Y18450D01*
X10900Y18850D01*
X10600Y18550D01*
X10900Y18250D01*
X11100D02*
X11300D01*
X11200D01*
Y18850D01*
X11100Y18750D01*
X40050Y33650D02*
Y33450D01*
Y33550D01*
X39450D01*
Y33650D01*
Y33450D01*
X39950Y32750D02*
X40050Y32850D01*
Y33050D01*
X39950Y33150D01*
X39550D01*
X39450Y33050D01*
Y32850D01*
X39550Y32750D01*
X39950Y32550D02*
X40050Y32450D01*
Y32250D01*
X39950Y32150D01*
X39850D01*
X39750Y32250D01*
Y32350D01*
Y32250D01*
X39650Y32150D01*
X39550D01*
X39450Y32250D01*
Y32450D01*
X39550Y32550D01*
X44250Y22125D02*
X44450D01*
X44350D01*
Y21525D01*
X44250D01*
X44450D01*
X45150Y22025D02*
X45050Y22125D01*
X44850D01*
X44750Y22025D01*
Y21625D01*
X44850Y21525D01*
X45050D01*
X45150Y21625D01*
X45750Y21525D02*
X45350D01*
X45750Y21925D01*
Y22025D01*
X45650Y22125D01*
X45450D01*
X45350Y22025D01*
X31600Y27600D02*
Y27000D01*
X31900D01*
X32000Y27100D01*
Y27500D01*
X31900Y27600D01*
X31600D01*
X32600Y27000D02*
X32200D01*
X32600Y27400D01*
Y27500D01*
X32500Y27600D01*
X32300D01*
X32200Y27500D01*
X78550Y21964D02*
X78650Y21864D01*
X78850D01*
X78950Y21964D01*
Y22364D01*
X78850Y22464D01*
X78650D01*
X78550Y22364D01*
X77950Y22464D02*
X78350D01*
X77950Y22064D01*
Y21964D01*
X78050Y21864D01*
X78250D01*
X78350Y21964D01*
X77750Y22464D02*
X77550D01*
X77650D01*
Y21864D01*
X77750Y21964D01*
X23050Y26970D02*
X22950Y27070D01*
X22750D01*
X22650Y26970D01*
Y26570D01*
X22750Y26470D01*
X22950D01*
X23050Y26570D01*
X23550Y26470D02*
Y27070D01*
X23250Y26770D01*
X23650D01*
X52500Y37300D02*
X52600Y37200D01*
X52800D01*
X52900Y37300D01*
Y37700D01*
X52800Y37800D01*
X52600D01*
X52500Y37700D01*
X52300Y37800D02*
X52100D01*
X52200D01*
Y37200D01*
X52300Y37300D01*
X27650Y18550D02*
Y17950D01*
X27950D01*
X28050Y18050D01*
Y18150D01*
X27950Y18250D01*
X27650D01*
X27950D01*
X28050Y18350D01*
Y18450D01*
X27950Y18550D01*
X27650D01*
X28650Y17950D02*
X28250D01*
X28650Y18350D01*
Y18450D01*
X28550Y18550D01*
X28350D01*
X28250Y18450D01*
X27700Y20550D02*
Y19950D01*
X28000D01*
X28100Y20050D01*
Y20150D01*
X28000Y20250D01*
X27700D01*
X28000D01*
X28100Y20350D01*
Y20450D01*
X28000Y20550D01*
X27700D01*
X28300Y19950D02*
X28500D01*
X28400D01*
Y20550D01*
X28300Y20450D01*
D15*
X44300Y18607D02*
D03*
M02*
