G04*
G04 #@! TF.GenerationSoftware,Altium Limited,Altium Designer,22.4.2 (48)*
G04*
G04 Layer_Color=8388736*
%FSLAX24Y24*%
%MOIN*%
G70*
G04*
G04 #@! TF.SameCoordinates,A9630A7D-A4A5-49CB-BB12-AA859E33B044*
G04*
G04*
G04 #@! TF.FilePolarity,Negative*
G04*
G01*
G75*
%ADD16R,0.0594X0.0475*%
%ADD20R,0.0475X0.0594*%
%ADD25R,0.0295X0.0472*%
%ADD26R,0.0335X0.0315*%
%ADD27R,0.0858X0.0559*%
%ADD28R,0.0551X0.0846*%
%ADD29R,0.2067X0.0906*%
%ADD30R,0.0709X0.0453*%
%ADD31R,0.0559X0.0858*%
%ADD32C,0.1559*%
%ADD33C,0.0650*%
%ADD34R,0.0650X0.0650*%
%ADD35C,0.0584*%
%ADD36R,0.0584X0.0584*%
%ADD37R,0.0525X0.0525*%
%ADD38C,0.0525*%
%ADD39C,0.0815*%
%ADD40R,0.0815X0.0815*%
%ADD41C,0.0531*%
%ADD42C,0.0709*%
%ADD43R,0.0709X0.0709*%
%ADD44C,0.0515*%
%ADD45R,0.0515X0.0515*%
%ADD46C,0.0827*%
%ADD47C,0.0980*%
%ADD48R,0.0980X0.0980*%
%ADD49R,0.0709X0.0709*%
%ADD50C,0.0679*%
%ADD51R,0.0679X0.0679*%
%ADD52C,0.0787*%
%ADD53R,0.0787X0.0787*%
%ADD54C,0.0616*%
%ADD55C,0.0809*%
%ADD56C,0.0689*%
%ADD57C,0.0591*%
%ADD58C,0.0528*%
%ADD59R,0.0528X0.0528*%
G04:AMPARAMS|DCode=60|XSize=159.4mil|YSize=112.2mil|CornerRadius=29.5mil|HoleSize=0mil|Usage=FLASHONLY|Rotation=90.000|XOffset=0mil|YOffset=0mil|HoleType=Round|Shape=RoundedRectangle|*
%AMROUNDEDRECTD60*
21,1,0.1594,0.0531,0,0,90.0*
21,1,0.1004,0.1122,0,0,90.0*
1,1,0.0591,0.0266,0.0502*
1,1,0.0591,0.0266,-0.0502*
1,1,0.0591,-0.0266,-0.0502*
1,1,0.0591,-0.0266,0.0502*
%
%ADD60ROUNDEDRECTD60*%
%ADD61C,0.0295*%
D16*
X70950Y25886D02*
D03*
Y26714D02*
D03*
X74550Y25900D02*
D03*
Y26727D02*
D03*
X78250Y25886D02*
D03*
Y26714D02*
D03*
X79750Y24264D02*
D03*
Y23436D02*
D03*
X53150Y24114D02*
D03*
Y23286D02*
D03*
X29050Y31777D02*
D03*
Y30950D02*
D03*
X30900Y34264D02*
D03*
Y33436D02*
D03*
X32400Y34264D02*
D03*
Y33436D02*
D03*
X24800Y29700D02*
D03*
Y30527D02*
D03*
Y27223D02*
D03*
Y28050D02*
D03*
X27600Y28077D02*
D03*
Y27250D02*
D03*
X26200Y29700D02*
D03*
Y30527D02*
D03*
X23450Y27956D02*
D03*
Y28784D02*
D03*
X51850Y16850D02*
D03*
Y16023D02*
D03*
Y18664D02*
D03*
Y17836D02*
D03*
X51750Y25100D02*
D03*
Y24273D02*
D03*
Y23250D02*
D03*
Y22423D02*
D03*
X51800Y20523D02*
D03*
Y21350D02*
D03*
X78300Y24277D02*
D03*
Y23450D02*
D03*
X79750Y26714D02*
D03*
Y25886D02*
D03*
X72350Y26714D02*
D03*
Y25886D02*
D03*
X76050Y26714D02*
D03*
Y25886D02*
D03*
X46600Y27136D02*
D03*
Y27964D02*
D03*
D20*
X24264Y32700D02*
D03*
X23436D02*
D03*
X29064Y29650D02*
D03*
X28236D02*
D03*
X49673Y14350D02*
D03*
X50500D02*
D03*
X45773Y16500D02*
D03*
X46600D02*
D03*
X49173Y25550D02*
D03*
X50000D02*
D03*
X50527Y16500D02*
D03*
X49700D02*
D03*
X50000Y24350D02*
D03*
X49173D02*
D03*
X47723Y18600D02*
D03*
X48550D02*
D03*
X49686D02*
D03*
X50514D02*
D03*
X46614D02*
D03*
X45786D02*
D03*
X47736Y16500D02*
D03*
X48564D02*
D03*
X31686Y14100D02*
D03*
X32514D02*
D03*
X31700Y12950D02*
D03*
X32527D02*
D03*
X43586Y24150D02*
D03*
X44414D02*
D03*
X40900Y20800D02*
D03*
X41727D02*
D03*
Y22900D02*
D03*
X40900D02*
D03*
D25*
X24724Y35583D02*
D03*
X23976D02*
D03*
X24350Y34717D02*
D03*
D26*
X28000Y30800D02*
D03*
Y31332D02*
D03*
D27*
X30975Y29000D02*
D03*
X32325Y30000D02*
D03*
X30975Y31000D02*
D03*
X43575Y13650D02*
D03*
X44925Y12650D02*
D03*
X43575Y11650D02*
D03*
D28*
X30688Y27150D02*
D03*
X29212D02*
D03*
D29*
X27143Y23900D02*
D03*
X23757D02*
D03*
D30*
X41180Y19487D02*
D03*
X43050D02*
D03*
X41180Y18700D02*
D03*
X43050D02*
D03*
X41180Y17913D02*
D03*
X43050D02*
D03*
D31*
X37700Y33525D02*
D03*
X36700Y34875D02*
D03*
X35700Y33525D02*
D03*
D32*
X20000Y11000D02*
D03*
X88000Y38000D02*
D03*
Y11000D02*
D03*
X65000D02*
D03*
Y38000D02*
D03*
X50000D02*
D03*
Y11000D02*
D03*
X20000Y38000D02*
D03*
D33*
X52500Y30063D02*
D03*
X84900Y29253D02*
D03*
X83916D02*
D03*
X85884D02*
D03*
X83916Y23544D02*
D03*
X85884D02*
D03*
D34*
X52500Y34000D02*
D03*
D35*
X30300Y14050D02*
D03*
X29618Y13500D02*
D03*
X29080Y35590D02*
D03*
X28549Y35090D02*
D03*
X26060Y35080D02*
D03*
X26591Y35580D02*
D03*
D36*
X30300Y12950D02*
D03*
X29080Y34590D02*
D03*
X26591Y34580D02*
D03*
D37*
X33500Y30950D02*
D03*
D38*
Y29950D02*
D03*
Y28950D02*
D03*
Y27950D02*
D03*
Y26950D02*
D03*
Y25950D02*
D03*
Y24950D02*
D03*
Y23950D02*
D03*
Y22950D02*
D03*
Y21950D02*
D03*
Y20950D02*
D03*
Y19950D02*
D03*
Y18950D02*
D03*
Y17950D02*
D03*
Y16950D02*
D03*
Y15950D02*
D03*
Y14950D02*
D03*
Y13950D02*
D03*
Y12950D02*
D03*
Y11950D02*
D03*
X39575D02*
D03*
Y12950D02*
D03*
Y13950D02*
D03*
Y14950D02*
D03*
Y15950D02*
D03*
Y16950D02*
D03*
Y17950D02*
D03*
Y18950D02*
D03*
Y19950D02*
D03*
Y20950D02*
D03*
Y21950D02*
D03*
Y22950D02*
D03*
Y23950D02*
D03*
Y24950D02*
D03*
Y25950D02*
D03*
Y26950D02*
D03*
Y27950D02*
D03*
Y28950D02*
D03*
Y29950D02*
D03*
Y30950D02*
D03*
D39*
X22100Y34650D02*
D03*
Y33650D02*
D03*
D40*
Y32650D02*
D03*
D41*
X30050Y22992D02*
D03*
Y24961D02*
D03*
X18142Y26000D02*
D03*
X20111D02*
D03*
X47250Y25908D02*
D03*
Y23939D02*
D03*
D42*
X32200Y24950D02*
D03*
X44400Y26950D02*
D03*
X45400Y27950D02*
D03*
X44400D02*
D03*
X45400Y28950D02*
D03*
X44400D02*
D03*
X45400Y29950D02*
D03*
X44400D02*
D03*
X45400Y30950D02*
D03*
X44400D02*
D03*
X72550Y30150D02*
D03*
X73550Y29150D02*
D03*
Y30150D02*
D03*
X74550Y29150D02*
D03*
Y30150D02*
D03*
X75550Y29150D02*
D03*
Y30150D02*
D03*
X76550Y29150D02*
D03*
Y30150D02*
D03*
X41100Y16350D02*
D03*
Y15350D02*
D03*
Y14350D02*
D03*
Y13350D02*
D03*
X32350Y18950D02*
D03*
Y17950D02*
D03*
Y16950D02*
D03*
Y15950D02*
D03*
D43*
X32200Y23950D02*
D03*
X45400Y26950D02*
D03*
X41100Y12350D02*
D03*
X32350Y19950D02*
D03*
D44*
X49550Y19675D02*
D03*
X48550D02*
D03*
X47550D02*
D03*
X46550D02*
D03*
Y22750D02*
D03*
X47550D02*
D03*
X48550D02*
D03*
D45*
X49550D02*
D03*
D46*
X55000Y16750D02*
D03*
Y13002D02*
D03*
X15050Y12652D02*
D03*
Y16400D02*
D03*
Y30600D02*
D03*
Y34348D02*
D03*
Y21600D02*
D03*
Y25348D02*
D03*
D47*
X18000Y20600D02*
D03*
X20953D02*
D03*
X23906D02*
D03*
X17994Y18450D02*
D03*
X20947D02*
D03*
X23900D02*
D03*
D48*
X26858Y20600D02*
D03*
X26853Y18450D02*
D03*
D49*
X72550Y29150D02*
D03*
D50*
X30150Y15050D02*
D03*
D51*
Y20601D02*
D03*
D52*
X21958Y12997D02*
D03*
X19958D02*
D03*
X17958D02*
D03*
Y15950D02*
D03*
X21958D02*
D03*
X19958D02*
D03*
X27950Y12997D02*
D03*
D53*
Y15950D02*
D03*
D54*
X88200Y20900D02*
D03*
X87200D02*
D03*
X86200D02*
D03*
X85200D02*
D03*
X84200D02*
D03*
Y14900D02*
D03*
X85200D02*
D03*
X86200D02*
D03*
X87200D02*
D03*
X88200D02*
D03*
X82300Y20900D02*
D03*
X81300D02*
D03*
X80300D02*
D03*
X79300D02*
D03*
X78300D02*
D03*
Y14900D02*
D03*
X79300D02*
D03*
X80300D02*
D03*
X81300D02*
D03*
X82300D02*
D03*
X76400Y20950D02*
D03*
X75400D02*
D03*
X74400D02*
D03*
X73400D02*
D03*
X72400D02*
D03*
Y14950D02*
D03*
X73400D02*
D03*
X74400D02*
D03*
X75400D02*
D03*
X76400D02*
D03*
X70500Y20900D02*
D03*
X69500D02*
D03*
X68500D02*
D03*
X67500D02*
D03*
X66500D02*
D03*
Y14900D02*
D03*
X67500D02*
D03*
X68500D02*
D03*
X69500D02*
D03*
X70500D02*
D03*
D55*
X21650Y29100D02*
D03*
Y30100D02*
D03*
X18650D02*
D03*
Y29100D02*
D03*
D56*
X20474Y23350D02*
D03*
X18466D02*
D03*
X19450D02*
D03*
D57*
X44300Y21022D02*
D03*
Y17478D02*
D03*
D58*
X69050Y33850D02*
D03*
Y32850D02*
D03*
Y31850D02*
D03*
Y30850D02*
D03*
Y29850D02*
D03*
Y28850D02*
D03*
Y27850D02*
D03*
Y26850D02*
D03*
Y25850D02*
D03*
Y24850D02*
D03*
X65987D02*
D03*
Y25850D02*
D03*
Y26850D02*
D03*
Y27850D02*
D03*
Y28850D02*
D03*
Y29850D02*
D03*
Y30850D02*
D03*
Y31850D02*
D03*
Y32850D02*
D03*
D59*
Y33850D02*
D03*
D60*
X86731Y26300D02*
D03*
X83069D02*
D03*
D61*
X51880Y18250D02*
D03*
X41727Y22130D02*
D03*
X68190Y31270D02*
D03*
X31450Y33990D02*
D03*
X47050Y19680D02*
D03*
X51880Y16440D02*
D03*
X50514Y19170D02*
D03*
X51880D02*
D03*
X74370Y24950D02*
D03*
X67500Y30850D02*
D03*
M02*
