G04*
G04 #@! TF.GenerationSoftware,Altium Limited,Altium Designer,22.4.2 (48)*
G04*
G04 Layer_Physical_Order=1*
G04 Layer_Color=255*
%FSLAX24Y24*%
%MOIN*%
G70*
G04*
G04 #@! TF.SameCoordinates,A9630A7D-A4A5-49CB-BB12-AA859E33B044*
G04*
G04*
G04 #@! TF.FilePolarity,Positive*
G04*
G01*
G75*
%ADD16R,0.0594X0.0475*%
%ADD17R,0.0236X0.0413*%
%ADD18R,0.0276X0.0256*%
%ADD19R,0.0799X0.0500*%
%ADD20R,0.0475X0.0594*%
%ADD21R,0.0492X0.0787*%
%ADD22R,0.2008X0.0846*%
%ADD23R,0.0650X0.0394*%
%ADD24R,0.0500X0.0799*%
%ADD52C,0.0787*%
%ADD53R,0.0787X0.0787*%
%ADD62C,0.0500*%
%ADD63C,0.0200*%
%ADD64C,0.1500*%
%ADD65C,0.0591*%
%ADD66R,0.0591X0.0591*%
%ADD67C,0.0525*%
%ADD68R,0.0525X0.0525*%
%ADD69R,0.0466X0.0466*%
%ADD70C,0.0466*%
%ADD71C,0.0756*%
%ADD72R,0.0756X0.0756*%
%ADD73C,0.0472*%
%ADD74C,0.0650*%
%ADD75R,0.0650X0.0650*%
%ADD76C,0.0456*%
%ADD77R,0.0456X0.0456*%
%ADD78C,0.0768*%
%ADD79C,0.0921*%
%ADD80R,0.0921X0.0921*%
%ADD81R,0.0650X0.0650*%
%ADD82C,0.0620*%
%ADD83R,0.0620X0.0620*%
%ADD84C,0.0557*%
%ADD85C,0.0750*%
%ADD86C,0.0630*%
%ADD87C,0.0531*%
%ADD88C,0.0469*%
%ADD89R,0.0469X0.0469*%
G04:AMPARAMS|DCode=90|XSize=153.5mil|YSize=106.3mil|CornerRadius=26.6mil|HoleSize=0mil|Usage=FLASHONLY|Rotation=90.000|XOffset=0mil|YOffset=0mil|HoleType=Round|Shape=RoundedRectangle|*
%AMROUNDEDRECTD90*
21,1,0.1535,0.0531,0,0,90.0*
21,1,0.1004,0.1063,0,0,90.0*
1,1,0.0531,0.0266,0.0502*
1,1,0.0531,0.0266,-0.0502*
1,1,0.0531,-0.0266,-0.0502*
1,1,0.0531,-0.0266,0.0502*
%
%ADD90ROUNDEDRECTD90*%
%ADD91C,0.0236*%
G36*
X89500Y9500D02*
X63000D01*
Y39000D01*
X89500D01*
Y9500D01*
D02*
G37*
G36*
X60000D02*
X10000D01*
Y39000D01*
X60000D01*
Y9500D01*
D02*
G37*
%LPC*%
G36*
X88079Y38800D02*
X87921D01*
X87767Y38769D01*
X87621Y38709D01*
X87490Y38621D01*
X87379Y38510D01*
X87291Y38379D01*
X87231Y38233D01*
X87200Y38079D01*
Y37921D01*
X87231Y37767D01*
X87291Y37621D01*
X87379Y37490D01*
X87490Y37379D01*
X87621Y37291D01*
X87767Y37231D01*
X87921Y37200D01*
X88079D01*
X88233Y37231D01*
X88379Y37291D01*
X88510Y37379D01*
X88621Y37490D01*
X88709Y37621D01*
X88769Y37767D01*
X88800Y37921D01*
Y38079D01*
X88769Y38233D01*
X88709Y38379D01*
X88621Y38510D01*
X88510Y38621D01*
X88379Y38709D01*
X88233Y38769D01*
X88079Y38800D01*
D02*
G37*
G36*
X65079D02*
X64921D01*
X64767Y38769D01*
X64621Y38709D01*
X64490Y38621D01*
X64379Y38510D01*
X64291Y38379D01*
X64231Y38233D01*
X64200Y38079D01*
Y37921D01*
X64231Y37767D01*
X64291Y37621D01*
X64379Y37490D01*
X64490Y37379D01*
X64621Y37291D01*
X64767Y37231D01*
X64921Y37200D01*
X65079D01*
X65233Y37231D01*
X65379Y37291D01*
X65510Y37379D01*
X65621Y37490D01*
X65709Y37621D01*
X65769Y37767D01*
X65800Y37921D01*
Y38079D01*
X65769Y38233D01*
X65709Y38379D01*
X65621Y38510D01*
X65510Y38621D01*
X65379Y38709D01*
X65233Y38769D01*
X65079Y38800D01*
D02*
G37*
G36*
X66271Y34134D02*
X66012D01*
Y33875D01*
X66271D01*
Y34134D01*
D02*
G37*
G36*
X65962D02*
X65703D01*
Y33875D01*
X65962D01*
Y34134D01*
D02*
G37*
G36*
X69087D02*
X69013D01*
X68940Y34115D01*
X68875Y34077D01*
X68823Y34025D01*
X68785Y33960D01*
X68766Y33887D01*
Y33813D01*
X68785Y33740D01*
X68823Y33675D01*
X68875Y33623D01*
X68940Y33585D01*
X69013Y33566D01*
X69087D01*
X69160Y33585D01*
X69225Y33623D01*
X69277Y33675D01*
X69315Y33740D01*
X69334Y33813D01*
Y33887D01*
X69315Y33960D01*
X69277Y34025D01*
X69225Y34077D01*
X69160Y34115D01*
X69087Y34134D01*
D02*
G37*
G36*
X66271Y33825D02*
X66012D01*
Y33566D01*
X66271D01*
Y33825D01*
D02*
G37*
G36*
X65962D02*
X65703D01*
Y33566D01*
X65962D01*
Y33825D01*
D02*
G37*
G36*
X69087Y33134D02*
X69013D01*
X68940Y33115D01*
X68875Y33077D01*
X68823Y33025D01*
X68785Y32960D01*
X68766Y32887D01*
Y32813D01*
X68785Y32740D01*
X68823Y32675D01*
X68875Y32623D01*
X68940Y32585D01*
X69013Y32566D01*
X69087D01*
X69160Y32585D01*
X69225Y32623D01*
X69277Y32675D01*
X69315Y32740D01*
X69334Y32813D01*
Y32887D01*
X69315Y32960D01*
X69277Y33025D01*
X69225Y33077D01*
X69160Y33115D01*
X69087Y33134D01*
D02*
G37*
G36*
X66024D02*
X65950D01*
X65877Y33115D01*
X65812Y33077D01*
X65760Y33025D01*
X65722Y32960D01*
X65703Y32887D01*
Y32813D01*
X65709Y32788D01*
X65245Y32324D01*
X65211Y32274D01*
X65200Y32216D01*
Y14691D01*
X65211Y14632D01*
X65245Y14582D01*
X65714Y14114D01*
X65763Y14080D01*
X65822Y14069D01*
X67014D01*
X67072Y14080D01*
X67122Y14114D01*
X67400Y14392D01*
X67433Y14441D01*
X67445Y14500D01*
Y14563D01*
X67457Y14572D01*
X67543D01*
X67627Y14594D01*
X67702Y14637D01*
X67763Y14698D01*
X67806Y14773D01*
X67828Y14857D01*
Y14943D01*
X67806Y15027D01*
X67763Y15102D01*
X67737Y15127D01*
X67758Y15177D01*
X68242D01*
X68263Y15127D01*
X68237Y15102D01*
X68194Y15027D01*
X68172Y14943D01*
Y14857D01*
X68194Y14773D01*
X68237Y14698D01*
X68298Y14637D01*
X68373Y14594D01*
X68457Y14572D01*
X68543D01*
X68627Y14594D01*
X68702Y14637D01*
X68763Y14698D01*
X68806Y14773D01*
X68828Y14857D01*
Y14943D01*
X68806Y15027D01*
X68763Y15102D01*
X68737Y15127D01*
X68758Y15177D01*
X69007D01*
X69186Y14998D01*
X69172Y14943D01*
Y14857D01*
X69194Y14773D01*
X69237Y14698D01*
X69298Y14637D01*
X69373Y14594D01*
X69457Y14572D01*
X69543D01*
X69627Y14594D01*
X69702Y14637D01*
X69763Y14698D01*
X69806Y14773D01*
X69828Y14857D01*
Y14943D01*
X69806Y15027D01*
X69763Y15102D01*
X69702Y15163D01*
X69627Y15206D01*
X69543Y15228D01*
X69457D01*
X69402Y15214D01*
X69178Y15438D01*
X69129Y15471D01*
X69070Y15483D01*
X67250D01*
X67191Y15471D01*
X67142Y15438D01*
X66892Y15188D01*
X66859Y15139D01*
X66847Y15080D01*
Y15056D01*
X66797Y15042D01*
X66763Y15102D01*
X66702Y15163D01*
X66653Y15191D01*
Y17837D01*
X67038Y18222D01*
X67071Y18271D01*
X67083Y18330D01*
Y30907D01*
X67071Y30966D01*
X67038Y31015D01*
X66265Y31788D01*
X66271Y31813D01*
Y31887D01*
X66252Y31960D01*
X66214Y32025D01*
X66202Y32037D01*
X66223Y32087D01*
X68814D01*
X68835Y32037D01*
X68823Y32025D01*
X68785Y31960D01*
X68766Y31887D01*
Y31813D01*
X68785Y31740D01*
X68823Y31675D01*
X68875Y31623D01*
X68940Y31585D01*
X69013Y31566D01*
X69087D01*
X69160Y31585D01*
X69225Y31623D01*
X69277Y31675D01*
X69315Y31740D01*
X69334Y31813D01*
Y31887D01*
X69315Y31960D01*
X69277Y32025D01*
X69265Y32037D01*
X69286Y32087D01*
X69677D01*
X70347Y31417D01*
Y21191D01*
X70298Y21163D01*
X70237Y21102D01*
X70194Y21027D01*
X70172Y20943D01*
Y20857D01*
X70194Y20773D01*
X70237Y20698D01*
X70298Y20637D01*
X70373Y20594D01*
X70457Y20572D01*
X70543D01*
X70598Y20586D01*
X71862Y19322D01*
X71911Y19289D01*
X71970Y19277D01*
X74880D01*
X74939Y19289D01*
X74988Y19322D01*
X76302Y20636D01*
X76357Y20622D01*
X76443D01*
X76498Y20636D01*
X77732Y19402D01*
X77781Y19369D01*
X77840Y19357D01*
X80910D01*
X80969Y19369D01*
X81018Y19402D01*
X82202Y20586D01*
X82257Y20572D01*
X82343D01*
X82427Y20594D01*
X82502Y20637D01*
X82563Y20698D01*
X82606Y20773D01*
X82628Y20857D01*
Y20943D01*
X82606Y21027D01*
X82563Y21102D01*
X82537Y21127D01*
X82558Y21177D01*
X83942D01*
X83963Y21127D01*
X83937Y21102D01*
X83894Y21027D01*
X83872Y20943D01*
Y20857D01*
X83894Y20773D01*
X83937Y20698D01*
X83998Y20637D01*
X84073Y20594D01*
X84157Y20572D01*
X84243D01*
X84327Y20594D01*
X84402Y20637D01*
X84463Y20698D01*
X84506Y20773D01*
X84528Y20857D01*
Y20943D01*
X84506Y21027D01*
X84463Y21102D01*
X84437Y21127D01*
X84458Y21177D01*
X84942D01*
X84963Y21127D01*
X84937Y21102D01*
X84894Y21027D01*
X84872Y20943D01*
Y20857D01*
X84894Y20773D01*
X84937Y20698D01*
X84998Y20637D01*
X85073Y20594D01*
X85157Y20572D01*
X85243D01*
X85327Y20594D01*
X85402Y20637D01*
X85463Y20698D01*
X85506Y20773D01*
X85528Y20857D01*
Y20943D01*
X85506Y21027D01*
X85463Y21102D01*
X85437Y21127D01*
X85458Y21177D01*
X85942D01*
X85963Y21127D01*
X85937Y21102D01*
X85894Y21027D01*
X85872Y20943D01*
Y20857D01*
X85894Y20773D01*
X85937Y20698D01*
X85998Y20637D01*
X86073Y20594D01*
X86157Y20572D01*
X86243D01*
X86327Y20594D01*
X86402Y20637D01*
X86463Y20698D01*
X86506Y20773D01*
X86528Y20857D01*
Y20943D01*
X86506Y21027D01*
X86463Y21102D01*
X86437Y21127D01*
X86458Y21177D01*
X86707D01*
X86886Y20998D01*
X86872Y20943D01*
Y20857D01*
X86894Y20773D01*
X86937Y20698D01*
X86998Y20637D01*
X87073Y20594D01*
X87157Y20572D01*
X87243D01*
X87327Y20594D01*
X87402Y20637D01*
X87463Y20698D01*
X87506Y20773D01*
X87528Y20857D01*
Y20943D01*
X87506Y21027D01*
X87463Y21102D01*
X87402Y21163D01*
X87327Y21206D01*
X87243Y21228D01*
X87157D01*
X87102Y21214D01*
X86878Y21438D01*
X86829Y21471D01*
X86770Y21483D01*
X81730D01*
X81671Y21471D01*
X81622Y21438D01*
X81398Y21214D01*
X81343Y21228D01*
X81257D01*
X81202Y21214D01*
X80918Y21498D01*
X80869Y21531D01*
X80810Y21543D01*
X75840D01*
X75781Y21531D01*
X75732Y21498D01*
X75498Y21264D01*
X75443Y21278D01*
X75357D01*
X75273Y21256D01*
X75198Y21213D01*
X75137Y21152D01*
X75094Y21077D01*
X75072Y20993D01*
Y20907D01*
X75094Y20823D01*
X75137Y20748D01*
X75198Y20687D01*
X75273Y20644D01*
X75357Y20622D01*
X75443D01*
X75527Y20644D01*
X75602Y20687D01*
X75663Y20748D01*
X75706Y20823D01*
X75728Y20907D01*
Y20993D01*
X75714Y21048D01*
X75903Y21237D01*
X76152D01*
X76173Y21187D01*
X76137Y21152D01*
X76094Y21077D01*
X76072Y20993D01*
Y20907D01*
X76086Y20852D01*
X74817Y19583D01*
X72033D01*
X70814Y20802D01*
X70828Y20857D01*
Y20943D01*
X70806Y21027D01*
X70763Y21102D01*
X70702Y21163D01*
X70653Y21191D01*
Y25599D01*
X71297D01*
Y25733D01*
X72003D01*
Y25599D01*
X72697D01*
Y25738D01*
X73465Y25747D01*
X74203D01*
Y25612D01*
X74897D01*
Y25705D01*
X74933Y25740D01*
X75311Y25733D01*
X75312Y25734D01*
X75314Y25733D01*
X75703D01*
Y25599D01*
X76397D01*
Y25733D01*
X77903D01*
Y25599D01*
X78597D01*
Y25733D01*
X79403D01*
Y25599D01*
X79597D01*
Y24551D01*
X79403D01*
Y24417D01*
X79072D01*
X79069Y24419D01*
X79010Y24430D01*
X78647D01*
Y24565D01*
X77953D01*
Y23990D01*
X78647D01*
Y24125D01*
X78962D01*
X78965Y24122D01*
X79024Y24111D01*
X79403D01*
Y23976D01*
X80097D01*
Y24551D01*
X79903D01*
Y25599D01*
X80097D01*
Y26174D01*
X79403D01*
Y26039D01*
X78597D01*
Y26174D01*
X77903D01*
Y26039D01*
X76397D01*
Y26174D01*
X75703D01*
Y26039D01*
X75315D01*
X74897Y26047D01*
Y26188D01*
X74203D01*
Y26053D01*
X73464D01*
X73463Y26053D01*
X73462Y26053D01*
X72790Y26045D01*
X72771Y26091D01*
X72908Y26228D01*
X72941Y26278D01*
X72953Y26336D01*
Y27890D01*
X72941Y27949D01*
X72908Y27998D01*
X72703Y28203D01*
Y28775D01*
X72925D01*
Y29477D01*
X73276D01*
X73297Y29427D01*
X73250Y29380D01*
X73201Y29295D01*
X73175Y29199D01*
Y29101D01*
X73201Y29005D01*
X73250Y28920D01*
X73320Y28850D01*
X73397Y28806D01*
Y27000D01*
X73409Y26941D01*
X73442Y26892D01*
X73714Y26619D01*
X73764Y26586D01*
X73823Y26574D01*
X74203D01*
Y26440D01*
X74897D01*
Y26574D01*
X75242D01*
X75245Y26572D01*
X75304Y26561D01*
X75703D01*
Y26426D01*
X76397D01*
Y27001D01*
X75703D01*
Y26867D01*
X75352D01*
X75349Y26869D01*
X75290Y26880D01*
X74897D01*
Y27015D01*
X74203D01*
Y26880D01*
X73886D01*
X73703Y27063D01*
Y28806D01*
X73780Y28850D01*
X73850Y28920D01*
X73899Y29005D01*
X73925Y29101D01*
Y29199D01*
X73899Y29295D01*
X73850Y29380D01*
X73803Y29427D01*
X73824Y29477D01*
X74276D01*
X74297Y29427D01*
X74250Y29380D01*
X74201Y29295D01*
X74175Y29199D01*
Y29101D01*
X74201Y29005D01*
X74250Y28920D01*
X74320Y28850D01*
X74405Y28801D01*
X74501Y28775D01*
X74599D01*
X74685Y28798D01*
X76878Y26606D01*
X76928Y26572D01*
X76986Y26561D01*
X77903D01*
Y26426D01*
X78597D01*
Y26561D01*
X79403D01*
Y26426D01*
X80097D01*
Y26844D01*
X81090Y27837D01*
X83406D01*
X83464Y27849D01*
X83514Y27882D01*
X84024Y28392D01*
X84057Y28441D01*
X84069Y28500D01*
Y28942D01*
X84128Y28976D01*
X84192Y29041D01*
X84237Y29119D01*
X84261Y29207D01*
Y29298D01*
X84237Y29386D01*
X84192Y29465D01*
X84128Y29529D01*
X84049Y29574D01*
X83961Y29598D01*
X83870D01*
X83782Y29574D01*
X83704Y29529D01*
X83639Y29465D01*
X83594Y29386D01*
X83570Y29298D01*
Y29207D01*
X83594Y29119D01*
X83639Y29041D01*
X83704Y28976D01*
X83763Y28942D01*
Y28563D01*
X83342Y28143D01*
X81026D01*
X80968Y28131D01*
X80918Y28098D01*
X79821Y27001D01*
X79403D01*
Y26867D01*
X78597D01*
Y27001D01*
X77903D01*
Y26867D01*
X77050D01*
X74933Y28983D01*
X74934Y28987D01*
X74991Y29009D01*
X75050Y28997D01*
X75206D01*
X75250Y28920D01*
X75320Y28850D01*
X75405Y28801D01*
X75501Y28775D01*
X75599D01*
X75695Y28801D01*
X75780Y28850D01*
X75850Y28920D01*
X75899Y29005D01*
X75925Y29101D01*
Y29199D01*
X75899Y29295D01*
X75850Y29380D01*
X75780Y29450D01*
X75695Y29499D01*
X75599Y29525D01*
X75501D01*
X75405Y29499D01*
X75320Y29450D01*
X75250Y29380D01*
X75246Y29372D01*
X75193Y29381D01*
X75191Y29389D01*
X75158Y29438D01*
X74858Y29738D01*
X74809Y29771D01*
X74760Y29781D01*
X74750Y29809D01*
X74750Y29833D01*
X74780Y29850D01*
X74850Y29920D01*
X74899Y30005D01*
X74925Y30101D01*
Y30199D01*
X74899Y30295D01*
X74850Y30380D01*
X74780Y30450D01*
X74695Y30499D01*
X74599Y30525D01*
X74501D01*
X74405Y30499D01*
X74320Y30450D01*
X74250Y30380D01*
X74201Y30295D01*
X74175Y30199D01*
Y30101D01*
X74201Y30005D01*
X74250Y29920D01*
X74320Y29850D01*
X74350Y29833D01*
X74336Y29783D01*
X73764D01*
X73750Y29833D01*
X73780Y29850D01*
X73850Y29920D01*
X73899Y30005D01*
X73925Y30101D01*
Y30199D01*
X73899Y30295D01*
X73850Y30380D01*
X73780Y30450D01*
X73695Y30499D01*
X73599Y30525D01*
X73501D01*
X73405Y30499D01*
X73320Y30450D01*
X73250Y30380D01*
X73201Y30295D01*
X73175Y30199D01*
Y30101D01*
X73201Y30005D01*
X73250Y29920D01*
X73320Y29850D01*
X73350Y29833D01*
X73336Y29783D01*
X72764D01*
X72750Y29833D01*
X72780Y29850D01*
X72850Y29920D01*
X72899Y30005D01*
X72925Y30101D01*
Y30199D01*
X72899Y30295D01*
X72850Y30380D01*
X72780Y30450D01*
X72695Y30499D01*
X72599Y30525D01*
X72501D01*
X72405Y30499D01*
X72320Y30450D01*
X72250Y30380D01*
X72201Y30295D01*
X72175Y30199D01*
Y30101D01*
X72201Y30005D01*
X72250Y29920D01*
X72320Y29850D01*
X72350Y29833D01*
X72336Y29783D01*
X72070D01*
X72011Y29771D01*
X71962Y29738D01*
X71929Y29689D01*
X71917Y29630D01*
Y26867D01*
X71297D01*
Y27001D01*
X70653D01*
Y31480D01*
X70641Y31539D01*
X70608Y31588D01*
X69848Y32348D01*
X69799Y32381D01*
X69740Y32393D01*
X65817D01*
X65796Y32443D01*
X65925Y32572D01*
X65950Y32566D01*
X66024D01*
X66097Y32585D01*
X66162Y32623D01*
X66214Y32675D01*
X66252Y32740D01*
X66271Y32813D01*
Y32887D01*
X66252Y32960D01*
X66214Y33025D01*
X66162Y33077D01*
X66097Y33115D01*
X66024Y33134D01*
D02*
G37*
G36*
X76599Y30525D02*
X76575D01*
Y30175D01*
X76925D01*
Y30199D01*
X76899Y30295D01*
X76850Y30380D01*
X76780Y30450D01*
X76695Y30499D01*
X76599Y30525D01*
D02*
G37*
G36*
X76525D02*
X76501D01*
X76405Y30499D01*
X76320Y30450D01*
X76250Y30380D01*
X76201Y30295D01*
X76175Y30199D01*
Y30175D01*
X76525D01*
Y30525D01*
D02*
G37*
G36*
X68223Y31438D02*
X68157D01*
X68095Y31413D01*
X68047Y31365D01*
X68022Y31303D01*
Y31237D01*
X68047Y31175D01*
X68095Y31127D01*
X68157Y31102D01*
X68223D01*
X68260Y31117D01*
X68848D01*
X68852Y31110D01*
X68865Y31067D01*
X68823Y31025D01*
X68785Y30960D01*
X68766Y30887D01*
Y30813D01*
X68785Y30740D01*
X68823Y30675D01*
X68875Y30623D01*
X68940Y30585D01*
X69013Y30566D01*
X69087D01*
X69160Y30585D01*
X69225Y30623D01*
X69277Y30675D01*
X69297Y30709D01*
X69347Y30696D01*
Y30004D01*
X69297Y29991D01*
X69277Y30025D01*
X69225Y30077D01*
X69160Y30115D01*
X69087Y30134D01*
X69013D01*
X68940Y30115D01*
X68875Y30077D01*
X68823Y30025D01*
X68785Y29960D01*
X68766Y29887D01*
Y29813D01*
X68785Y29740D01*
X68823Y29675D01*
X68875Y29623D01*
X68940Y29585D01*
X69013Y29566D01*
X69087D01*
X69160Y29585D01*
X69225Y29623D01*
X69277Y29675D01*
X69297Y29709D01*
X69347Y29696D01*
Y29004D01*
X69297Y28991D01*
X69277Y29025D01*
X69225Y29077D01*
X69160Y29115D01*
X69087Y29134D01*
X69013D01*
X68940Y29115D01*
X68875Y29077D01*
X68823Y29025D01*
X68785Y28960D01*
X68766Y28887D01*
Y28813D01*
X68772Y28788D01*
X68392Y28408D01*
X68359Y28359D01*
X68347Y28300D01*
Y21191D01*
X68298Y21163D01*
X68237Y21102D01*
X68194Y21027D01*
X68172Y20943D01*
Y20857D01*
X68194Y20773D01*
X68237Y20698D01*
X68298Y20637D01*
X68373Y20594D01*
X68457Y20572D01*
X68543D01*
X68627Y20594D01*
X68702Y20637D01*
X68763Y20698D01*
X68806Y20773D01*
X68828Y20857D01*
Y20943D01*
X68806Y21027D01*
X68763Y21102D01*
X68702Y21163D01*
X68653Y21191D01*
Y28237D01*
X68988Y28572D01*
X69013Y28566D01*
X69087D01*
X69160Y28585D01*
X69225Y28623D01*
X69277Y28675D01*
X69297Y28709D01*
X69347Y28696D01*
Y28004D01*
X69297Y27991D01*
X69277Y28025D01*
X69225Y28077D01*
X69160Y28115D01*
X69087Y28134D01*
X69013D01*
X68940Y28115D01*
X68875Y28077D01*
X68823Y28025D01*
X68785Y27960D01*
X68766Y27887D01*
Y27813D01*
X68785Y27740D01*
X68823Y27675D01*
X68875Y27623D01*
X68940Y27585D01*
X69013Y27566D01*
X69087D01*
X69160Y27585D01*
X69225Y27623D01*
X69277Y27675D01*
X69297Y27709D01*
X69347Y27696D01*
Y27004D01*
X69297Y26991D01*
X69277Y27025D01*
X69225Y27077D01*
X69160Y27115D01*
X69087Y27134D01*
X69013D01*
X68940Y27115D01*
X68875Y27077D01*
X68823Y27025D01*
X68785Y26960D01*
X68766Y26887D01*
Y26813D01*
X68785Y26740D01*
X68823Y26675D01*
X68875Y26623D01*
X68940Y26585D01*
X69013Y26566D01*
X69087D01*
X69160Y26585D01*
X69225Y26623D01*
X69277Y26675D01*
X69297Y26709D01*
X69347Y26696D01*
Y26004D01*
X69297Y25991D01*
X69277Y26025D01*
X69225Y26077D01*
X69160Y26115D01*
X69087Y26134D01*
X69013D01*
X68940Y26115D01*
X68875Y26077D01*
X68823Y26025D01*
X68785Y25960D01*
X68766Y25887D01*
Y25813D01*
X68785Y25740D01*
X68823Y25675D01*
X68875Y25623D01*
X68940Y25585D01*
X69013Y25566D01*
X69087D01*
X69160Y25585D01*
X69225Y25623D01*
X69277Y25675D01*
X69297Y25709D01*
X69347Y25696D01*
Y25004D01*
X69297Y24991D01*
X69277Y25025D01*
X69225Y25077D01*
X69160Y25115D01*
X69087Y25134D01*
X69013D01*
X68940Y25115D01*
X68875Y25077D01*
X68823Y25025D01*
X68785Y24960D01*
X68766Y24887D01*
Y24813D01*
X68785Y24740D01*
X68823Y24675D01*
X68875Y24623D01*
X68940Y24585D01*
X69013Y24566D01*
X69087D01*
X69160Y24585D01*
X69225Y24623D01*
X69277Y24675D01*
X69297Y24709D01*
X69347Y24696D01*
Y21191D01*
X69298Y21163D01*
X69237Y21102D01*
X69194Y21027D01*
X69172Y20943D01*
Y20857D01*
X69194Y20773D01*
X69237Y20698D01*
X69298Y20637D01*
X69373Y20594D01*
X69457Y20572D01*
X69543D01*
X69627Y20594D01*
X69702Y20637D01*
X69763Y20698D01*
X69806Y20773D01*
X69828Y20857D01*
Y20943D01*
X69806Y21027D01*
X69763Y21102D01*
X69702Y21163D01*
X69653Y21191D01*
Y31020D01*
X69641Y31079D01*
X69608Y31128D01*
X69358Y31378D01*
X69309Y31411D01*
X69250Y31423D01*
X68260D01*
X68223Y31438D01*
D02*
G37*
G36*
X76925Y30125D02*
X76575D01*
Y29775D01*
X76599D01*
X76695Y29801D01*
X76780Y29850D01*
X76850Y29920D01*
X76899Y30005D01*
X76925Y30101D01*
Y30125D01*
D02*
G37*
G36*
X76525D02*
X76175D01*
Y30101D01*
X76201Y30005D01*
X76250Y29920D01*
X76320Y29850D01*
X76405Y29801D01*
X76501Y29775D01*
X76525D01*
Y30125D01*
D02*
G37*
G36*
X75599Y30525D02*
X75501D01*
X75405Y30499D01*
X75320Y30450D01*
X75250Y30380D01*
X75201Y30295D01*
X75175Y30199D01*
Y30101D01*
X75201Y30005D01*
X75250Y29920D01*
X75320Y29850D01*
X75405Y29801D01*
X75501Y29775D01*
X75599D01*
X75695Y29801D01*
X75780Y29850D01*
X75850Y29920D01*
X75899Y30005D01*
X75925Y30101D01*
Y30199D01*
X75899Y30295D01*
X75850Y30380D01*
X75780Y30450D01*
X75695Y30499D01*
X75599Y30525D01*
D02*
G37*
G36*
X84945Y29598D02*
X84925D01*
Y29278D01*
X85245D01*
Y29298D01*
X85222Y29386D01*
X85176Y29465D01*
X85112Y29529D01*
X85033Y29574D01*
X84945Y29598D01*
D02*
G37*
G36*
X84875D02*
X84855D01*
X84767Y29574D01*
X84688Y29529D01*
X84624Y29465D01*
X84578Y29386D01*
X84555Y29298D01*
Y29278D01*
X84875D01*
Y29598D01*
D02*
G37*
G36*
X85930D02*
X85839D01*
X85751Y29574D01*
X85672Y29529D01*
X85608Y29465D01*
X85563Y29386D01*
X85539Y29298D01*
Y29207D01*
X85563Y29119D01*
X85608Y29041D01*
X85672Y28976D01*
X85751Y28931D01*
X85839Y28907D01*
X85930D01*
X86018Y28931D01*
X86096Y28976D01*
X86161Y29041D01*
X86206Y29119D01*
X86230Y29207D01*
Y29298D01*
X86206Y29386D01*
X86161Y29465D01*
X86096Y29529D01*
X86018Y29574D01*
X85930Y29598D01*
D02*
G37*
G36*
X76599Y29525D02*
X76501D01*
X76405Y29499D01*
X76320Y29450D01*
X76250Y29380D01*
X76201Y29295D01*
X76175Y29199D01*
Y29101D01*
X76201Y29005D01*
X76250Y28920D01*
X76320Y28850D01*
X76405Y28801D01*
X76501Y28775D01*
X76599D01*
X76695Y28801D01*
X76780Y28850D01*
X76850Y28920D01*
X76899Y29005D01*
X76925Y29101D01*
Y29199D01*
X76899Y29295D01*
X76850Y29380D01*
X76780Y29450D01*
X76695Y29499D01*
X76599Y29525D01*
D02*
G37*
G36*
X86996Y27120D02*
X86465D01*
X86383Y27110D01*
X86306Y27078D01*
X86240Y27027D01*
X86189Y26961D01*
X86157Y26884D01*
X86146Y26802D01*
Y25798D01*
X86157Y25716D01*
X86189Y25639D01*
X86240Y25573D01*
X86306Y25522D01*
X86383Y25490D01*
X86465Y25480D01*
X86996D01*
X87079Y25490D01*
X87156Y25522D01*
X87222Y25573D01*
X87272Y25639D01*
X87304Y25716D01*
X87315Y25798D01*
Y26802D01*
X87304Y26884D01*
X87272Y26961D01*
X87222Y27027D01*
X87156Y27078D01*
X87079Y27110D01*
X86996Y27120D01*
D02*
G37*
G36*
X83335D02*
X82804D01*
X82721Y27110D01*
X82644Y27078D01*
X82578Y27027D01*
X82528Y26961D01*
X82496Y26884D01*
X82485Y26802D01*
Y25798D01*
X82496Y25716D01*
X82528Y25639D01*
X82578Y25573D01*
X82644Y25522D01*
X82721Y25490D01*
X82804Y25480D01*
X83335D01*
X83417Y25490D01*
X83494Y25522D01*
X83560Y25573D01*
X83611Y25639D01*
X83643Y25716D01*
X83654Y25798D01*
Y26802D01*
X83643Y26884D01*
X83611Y26961D01*
X83560Y27027D01*
X83494Y27078D01*
X83417Y27110D01*
X83335Y27120D01*
D02*
G37*
G36*
X85245Y29228D02*
X84900D01*
X84555D01*
Y29207D01*
X84578Y29119D01*
X84624Y29041D01*
X84688Y28976D01*
X84747Y28942D01*
Y24592D01*
X84027Y23872D01*
X83961Y23889D01*
X83941D01*
Y23569D01*
X84261D01*
Y23590D01*
X84243Y23655D01*
X85008Y24420D01*
X85041Y24470D01*
X85053Y24528D01*
Y28942D01*
X85112Y28976D01*
X85176Y29041D01*
X85222Y29119D01*
X85245Y29207D01*
Y29228D01*
D02*
G37*
G36*
X83891Y23889D02*
X83870D01*
X83782Y23866D01*
X83704Y23820D01*
X83639Y23756D01*
X83605Y23697D01*
X81878D01*
X81819Y23685D01*
X81770Y23652D01*
X81707Y23589D01*
X80097D01*
Y23724D01*
X79775D01*
Y23436D01*
Y23149D01*
X80097D01*
Y23283D01*
X81770D01*
X81829Y23295D01*
X81878Y23328D01*
X81941Y23391D01*
X83605D01*
X83639Y23332D01*
X83704Y23268D01*
X83782Y23222D01*
X83870Y23199D01*
X83891D01*
Y23544D01*
Y23889D01*
D02*
G37*
G36*
X78275Y23737D02*
X77953D01*
Y23475D01*
X78275D01*
Y23737D01*
D02*
G37*
G36*
X85930Y23889D02*
X85839D01*
X85751Y23866D01*
X85672Y23820D01*
X85608Y23756D01*
X85563Y23677D01*
X85539Y23590D01*
Y23499D01*
X85563Y23411D01*
X85608Y23332D01*
X85672Y23268D01*
X85751Y23222D01*
X85839Y23199D01*
X85930D01*
X86018Y23222D01*
X86096Y23268D01*
X86161Y23332D01*
X86206Y23411D01*
X86230Y23499D01*
Y23590D01*
X86206Y23677D01*
X86161Y23756D01*
X86096Y23820D01*
X86018Y23866D01*
X85930Y23889D01*
D02*
G37*
G36*
X84261Y23519D02*
X83941D01*
Y23199D01*
X83961D01*
X84049Y23222D01*
X84128Y23268D01*
X84192Y23332D01*
X84237Y23411D01*
X84261Y23499D01*
Y23519D01*
D02*
G37*
G36*
X78275Y23425D02*
X77953D01*
Y23163D01*
X78275D01*
Y23425D01*
D02*
G37*
G36*
X78647Y23737D02*
X78325D01*
Y23450D01*
Y23163D01*
X78647D01*
Y23297D01*
X78962D01*
X78965Y23295D01*
X79024Y23283D01*
X79403D01*
Y23149D01*
X79725D01*
Y23436D01*
Y23724D01*
X79403D01*
Y23589D01*
X79072D01*
X79069Y23591D01*
X79010Y23603D01*
X78647D01*
Y23737D01*
D02*
G37*
G36*
X74403Y25118D02*
X74337D01*
X74275Y25093D01*
X74227Y25045D01*
X74202Y24983D01*
Y24917D01*
X74227Y24855D01*
X74247Y24835D01*
Y21241D01*
X74198Y21213D01*
X74137Y21152D01*
X74094Y21077D01*
X74072Y20993D01*
Y20907D01*
X74094Y20823D01*
X74137Y20748D01*
X74198Y20687D01*
X74273Y20644D01*
X74357Y20622D01*
X74443D01*
X74527Y20644D01*
X74602Y20687D01*
X74663Y20748D01*
X74706Y20823D01*
X74728Y20907D01*
Y20993D01*
X74706Y21077D01*
X74663Y21152D01*
X74602Y21213D01*
X74553Y21241D01*
Y24920D01*
X74541Y24979D01*
X74538Y24983D01*
Y24983D01*
X74513Y25045D01*
X74465Y25093D01*
X74403Y25118D01*
D02*
G37*
G36*
X73443Y21278D02*
X73357D01*
X73273Y21256D01*
X73198Y21213D01*
X73137Y21152D01*
X73094Y21077D01*
X73072Y20993D01*
Y20907D01*
X73094Y20823D01*
X73137Y20748D01*
X73198Y20687D01*
X73273Y20644D01*
X73357Y20622D01*
X73443D01*
X73527Y20644D01*
X73602Y20687D01*
X73663Y20748D01*
X73706Y20823D01*
X73728Y20907D01*
Y20993D01*
X73706Y21077D01*
X73663Y21152D01*
X73602Y21213D01*
X73527Y21256D01*
X73443Y21278D01*
D02*
G37*
G36*
X72443D02*
X72357D01*
X72273Y21256D01*
X72198Y21213D01*
X72137Y21152D01*
X72094Y21077D01*
X72072Y20993D01*
Y20907D01*
X72094Y20823D01*
X72137Y20748D01*
X72198Y20687D01*
X72273Y20644D01*
X72357Y20622D01*
X72443D01*
X72527Y20644D01*
X72602Y20687D01*
X72663Y20748D01*
X72706Y20823D01*
X72728Y20907D01*
Y20993D01*
X72706Y21077D01*
X72663Y21152D01*
X72602Y21213D01*
X72527Y21256D01*
X72443Y21278D01*
D02*
G37*
G36*
X88243Y21228D02*
X88157D01*
X88073Y21206D01*
X87998Y21163D01*
X87937Y21102D01*
X87894Y21027D01*
X87872Y20943D01*
Y20857D01*
X87894Y20773D01*
X87937Y20698D01*
X87998Y20637D01*
X88073Y20594D01*
X88157Y20572D01*
X88243D01*
X88327Y20594D01*
X88402Y20637D01*
X88463Y20698D01*
X88506Y20773D01*
X88528Y20857D01*
Y20943D01*
X88506Y21027D01*
X88463Y21102D01*
X88402Y21163D01*
X88327Y21206D01*
X88243Y21228D01*
D02*
G37*
G36*
X67533Y31018D02*
X67467D01*
X67405Y30993D01*
X67357Y30945D01*
X67332Y30883D01*
Y30817D01*
X67347Y30780D01*
Y21191D01*
X67298Y21163D01*
X67237Y21102D01*
X67194Y21027D01*
X67172Y20943D01*
Y20857D01*
X67194Y20773D01*
X67237Y20698D01*
X67298Y20637D01*
X67373Y20594D01*
X67457Y20572D01*
X67543D01*
X67627Y20594D01*
X67702Y20637D01*
X67763Y20698D01*
X67806Y20773D01*
X67828Y20857D01*
Y20943D01*
X67806Y21027D01*
X67763Y21102D01*
X67702Y21163D01*
X67653Y21191D01*
Y30780D01*
X67668Y30817D01*
Y30883D01*
X67643Y30945D01*
X67595Y30993D01*
X67533Y31018D01*
D02*
G37*
G36*
X88243Y15228D02*
X88157D01*
X88073Y15206D01*
X87998Y15163D01*
X87937Y15102D01*
X87894Y15027D01*
X87872Y14943D01*
Y14857D01*
X87894Y14773D01*
X87937Y14698D01*
X87998Y14637D01*
X88073Y14594D01*
X88157Y14572D01*
X88243D01*
X88327Y14594D01*
X88402Y14637D01*
X88463Y14698D01*
X88506Y14773D01*
X88528Y14857D01*
Y14943D01*
X88506Y15027D01*
X88463Y15102D01*
X88402Y15163D01*
X88327Y15206D01*
X88243Y15228D01*
D02*
G37*
G36*
X87243D02*
X87157D01*
X87073Y15206D01*
X86998Y15163D01*
X86937Y15102D01*
X86894Y15027D01*
X86872Y14943D01*
Y14857D01*
X86894Y14773D01*
X86937Y14698D01*
X86998Y14637D01*
X87073Y14594D01*
X87157Y14572D01*
X87243D01*
X87327Y14594D01*
X87402Y14637D01*
X87463Y14698D01*
X87506Y14773D01*
X87528Y14857D01*
Y14943D01*
X87506Y15027D01*
X87463Y15102D01*
X87402Y15163D01*
X87327Y15206D01*
X87243Y15228D01*
D02*
G37*
G36*
X86243D02*
X86157D01*
X86073Y15206D01*
X85998Y15163D01*
X85937Y15102D01*
X85894Y15027D01*
X85872Y14943D01*
Y14857D01*
X85894Y14773D01*
X85937Y14698D01*
X85998Y14637D01*
X86073Y14594D01*
X86157Y14572D01*
X86243D01*
X86327Y14594D01*
X86402Y14637D01*
X86463Y14698D01*
X86506Y14773D01*
X86528Y14857D01*
Y14943D01*
X86506Y15027D01*
X86463Y15102D01*
X86402Y15163D01*
X86327Y15206D01*
X86243Y15228D01*
D02*
G37*
G36*
X85243D02*
X85157D01*
X85073Y15206D01*
X84998Y15163D01*
X84937Y15102D01*
X84894Y15027D01*
X84872Y14943D01*
Y14857D01*
X84894Y14773D01*
X84937Y14698D01*
X84998Y14637D01*
X85073Y14594D01*
X85157Y14572D01*
X85243D01*
X85327Y14594D01*
X85402Y14637D01*
X85463Y14698D01*
X85506Y14773D01*
X85528Y14857D01*
Y14943D01*
X85506Y15027D01*
X85463Y15102D01*
X85402Y15163D01*
X85327Y15206D01*
X85243Y15228D01*
D02*
G37*
G36*
X84243D02*
X84157D01*
X84073Y15206D01*
X83998Y15163D01*
X83937Y15102D01*
X83894Y15027D01*
X83872Y14943D01*
Y14857D01*
X83894Y14773D01*
X83937Y14698D01*
X83998Y14637D01*
X84073Y14594D01*
X84157Y14572D01*
X84243D01*
X84327Y14594D01*
X84402Y14637D01*
X84463Y14698D01*
X84506Y14773D01*
X84528Y14857D01*
Y14943D01*
X84506Y15027D01*
X84463Y15102D01*
X84402Y15163D01*
X84327Y15206D01*
X84243Y15228D01*
D02*
G37*
G36*
X80730Y16623D02*
X77920D01*
X77861Y16611D01*
X77812Y16578D01*
X76498Y15264D01*
X76443Y15278D01*
X76357D01*
X76302Y15264D01*
X76058Y15508D01*
X76009Y15541D01*
X75950Y15553D01*
X71000D01*
X70941Y15541D01*
X70892Y15508D01*
X70598Y15214D01*
X70543Y15228D01*
X70457D01*
X70373Y15206D01*
X70298Y15163D01*
X70237Y15102D01*
X70194Y15027D01*
X70172Y14943D01*
Y14857D01*
X70194Y14773D01*
X70237Y14698D01*
X70298Y14637D01*
X70373Y14594D01*
X70457Y14572D01*
X70543D01*
X70627Y14594D01*
X70702Y14637D01*
X70763Y14698D01*
X70806Y14773D01*
X70828Y14857D01*
Y14943D01*
X70814Y14998D01*
X71063Y15247D01*
X72162D01*
X72183Y15197D01*
X72137Y15152D01*
X72094Y15077D01*
X72072Y14993D01*
Y14907D01*
X72094Y14823D01*
X72137Y14748D01*
X72198Y14687D01*
X72273Y14644D01*
X72357Y14622D01*
X72443D01*
X72527Y14644D01*
X72602Y14687D01*
X72663Y14748D01*
X72706Y14823D01*
X72728Y14907D01*
Y14993D01*
X72706Y15077D01*
X72663Y15152D01*
X72617Y15197D01*
X72638Y15247D01*
X73162D01*
X73183Y15197D01*
X73137Y15152D01*
X73094Y15077D01*
X73072Y14993D01*
Y14907D01*
X73094Y14823D01*
X73137Y14748D01*
X73198Y14687D01*
X73273Y14644D01*
X73357Y14622D01*
X73443D01*
X73498Y14636D01*
X76162Y11972D01*
X76211Y11939D01*
X76270Y11927D01*
X76480D01*
X76539Y11939D01*
X76588Y11972D01*
X79202Y14586D01*
X79257Y14572D01*
X79343D01*
X79427Y14594D01*
X79502Y14637D01*
X79563Y14698D01*
X79606Y14773D01*
X79628Y14857D01*
Y14943D01*
X79606Y15027D01*
X79563Y15102D01*
X79502Y15163D01*
X79427Y15206D01*
X79343Y15228D01*
X79257D01*
X79173Y15206D01*
X79098Y15163D01*
X79037Y15102D01*
X78994Y15027D01*
X78972Y14943D01*
Y14857D01*
X78986Y14802D01*
X76417Y12233D01*
X76333D01*
X73714Y14852D01*
X73728Y14907D01*
Y14993D01*
X73706Y15077D01*
X73663Y15152D01*
X73617Y15197D01*
X73638Y15247D01*
X74162D01*
X74183Y15197D01*
X74137Y15152D01*
X74094Y15077D01*
X74072Y14993D01*
Y14907D01*
X74094Y14823D01*
X74137Y14748D01*
X74198Y14687D01*
X74273Y14644D01*
X74357Y14622D01*
X74443D01*
X74527Y14644D01*
X74602Y14687D01*
X74663Y14748D01*
X74706Y14823D01*
X74728Y14907D01*
Y14993D01*
X74706Y15077D01*
X74663Y15152D01*
X74617Y15197D01*
X74638Y15247D01*
X75162D01*
X75183Y15197D01*
X75137Y15152D01*
X75094Y15077D01*
X75072Y14993D01*
Y14907D01*
X75094Y14823D01*
X75137Y14748D01*
X75198Y14687D01*
X75273Y14644D01*
X75357Y14622D01*
X75443D01*
X75527Y14644D01*
X75602Y14687D01*
X75663Y14748D01*
X75706Y14823D01*
X75728Y14907D01*
Y14993D01*
X75706Y15077D01*
X75663Y15152D01*
X75617Y15197D01*
X75638Y15247D01*
X75887D01*
X76086Y15048D01*
X76072Y14993D01*
Y14907D01*
X76094Y14823D01*
X76137Y14748D01*
X76198Y14687D01*
X76273Y14644D01*
X76357Y14622D01*
X76443D01*
X76527Y14644D01*
X76602Y14687D01*
X76663Y14748D01*
X76706Y14823D01*
X76728Y14907D01*
Y14993D01*
X76714Y15048D01*
X77983Y16317D01*
X80667D01*
X81986Y14998D01*
X81972Y14943D01*
Y14857D01*
X81994Y14773D01*
X82037Y14698D01*
X82098Y14637D01*
X82173Y14594D01*
X82257Y14572D01*
X82343D01*
X82427Y14594D01*
X82502Y14637D01*
X82563Y14698D01*
X82606Y14773D01*
X82628Y14857D01*
Y14943D01*
X82606Y15027D01*
X82563Y15102D01*
X82502Y15163D01*
X82427Y15206D01*
X82343Y15228D01*
X82257D01*
X82202Y15214D01*
X80838Y16578D01*
X80789Y16611D01*
X80730Y16623D01*
D02*
G37*
G36*
X81343Y15228D02*
X81257D01*
X81173Y15206D01*
X81098Y15163D01*
X81037Y15102D01*
X80994Y15027D01*
X80972Y14943D01*
Y14857D01*
X80994Y14773D01*
X81037Y14698D01*
X81098Y14637D01*
X81173Y14594D01*
X81257Y14572D01*
X81343D01*
X81427Y14594D01*
X81502Y14637D01*
X81563Y14698D01*
X81606Y14773D01*
X81628Y14857D01*
Y14943D01*
X81606Y15027D01*
X81563Y15102D01*
X81502Y15163D01*
X81427Y15206D01*
X81343Y15228D01*
D02*
G37*
G36*
X80343D02*
X80257D01*
X80173Y15206D01*
X80098Y15163D01*
X80037Y15102D01*
X79994Y15027D01*
X79972Y14943D01*
Y14857D01*
X79994Y14773D01*
X80037Y14698D01*
X80098Y14637D01*
X80173Y14594D01*
X80257Y14572D01*
X80343D01*
X80427Y14594D01*
X80502Y14637D01*
X80563Y14698D01*
X80606Y14773D01*
X80628Y14857D01*
Y14943D01*
X80606Y15027D01*
X80563Y15102D01*
X80502Y15163D01*
X80427Y15206D01*
X80343Y15228D01*
D02*
G37*
G36*
X78343D02*
X78257D01*
X78173Y15206D01*
X78098Y15163D01*
X78037Y15102D01*
X77994Y15027D01*
X77972Y14943D01*
Y14857D01*
X77994Y14773D01*
X78037Y14698D01*
X78098Y14637D01*
X78173Y14594D01*
X78257Y14572D01*
X78343D01*
X78427Y14594D01*
X78502Y14637D01*
X78563Y14698D01*
X78606Y14773D01*
X78628Y14857D01*
Y14943D01*
X78606Y15027D01*
X78563Y15102D01*
X78502Y15163D01*
X78427Y15206D01*
X78343Y15228D01*
D02*
G37*
G36*
X88079Y11800D02*
X87921D01*
X87767Y11769D01*
X87621Y11709D01*
X87490Y11621D01*
X87379Y11510D01*
X87291Y11379D01*
X87231Y11233D01*
X87200Y11079D01*
Y10921D01*
X87231Y10767D01*
X87291Y10621D01*
X87379Y10490D01*
X87490Y10379D01*
X87621Y10291D01*
X87767Y10231D01*
X87921Y10200D01*
X88079D01*
X88233Y10231D01*
X88379Y10291D01*
X88510Y10379D01*
X88621Y10490D01*
X88709Y10621D01*
X88769Y10767D01*
X88800Y10921D01*
Y11079D01*
X88769Y11233D01*
X88709Y11379D01*
X88621Y11510D01*
X88510Y11621D01*
X88379Y11709D01*
X88233Y11769D01*
X88079Y11800D01*
D02*
G37*
G36*
X65079D02*
X64921D01*
X64767Y11769D01*
X64621Y11709D01*
X64490Y11621D01*
X64379Y11510D01*
X64291Y11379D01*
X64231Y11233D01*
X64200Y11079D01*
Y10921D01*
X64231Y10767D01*
X64291Y10621D01*
X64379Y10490D01*
X64490Y10379D01*
X64621Y10291D01*
X64767Y10231D01*
X64921Y10200D01*
X65079D01*
X65233Y10231D01*
X65379Y10291D01*
X65510Y10379D01*
X65621Y10490D01*
X65709Y10621D01*
X65769Y10767D01*
X65800Y10921D01*
Y11079D01*
X65769Y11233D01*
X65709Y11379D01*
X65621Y11510D01*
X65510Y11621D01*
X65379Y11709D01*
X65233Y11769D01*
X65079Y11800D01*
D02*
G37*
%LPD*%
G36*
X65812Y31623D02*
X65877Y31585D01*
X65950Y31566D01*
X66024D01*
X66049Y31572D01*
X66777Y30844D01*
Y21158D01*
X66727Y21137D01*
X66702Y21163D01*
X66653Y21191D01*
Y25337D01*
X66641Y25396D01*
X66608Y25445D01*
X66265Y25788D01*
X66271Y25813D01*
Y25887D01*
X66252Y25960D01*
X66214Y26025D01*
X66162Y26077D01*
X66097Y26115D01*
X66024Y26134D01*
X65950D01*
X65877Y26115D01*
X65812Y26077D01*
X65806Y26071D01*
X65756Y26091D01*
Y26609D01*
X65806Y26629D01*
X65812Y26623D01*
X65877Y26585D01*
X65950Y26566D01*
X66024D01*
X66097Y26585D01*
X66162Y26623D01*
X66214Y26675D01*
X66252Y26740D01*
X66271Y26813D01*
Y26887D01*
X66252Y26960D01*
X66214Y27025D01*
X66162Y27077D01*
X66097Y27115D01*
X66024Y27134D01*
X65950D01*
X65877Y27115D01*
X65812Y27077D01*
X65806Y27071D01*
X65756Y27091D01*
Y27402D01*
X65925Y27572D01*
X65950Y27566D01*
X66024D01*
X66097Y27585D01*
X66162Y27623D01*
X66214Y27675D01*
X66252Y27740D01*
X66271Y27813D01*
Y27887D01*
X66252Y27960D01*
X66214Y28025D01*
X66162Y28077D01*
X66097Y28115D01*
X66024Y28134D01*
X65950D01*
X65877Y28115D01*
X65812Y28077D01*
X65760Y28025D01*
X65722Y27960D01*
X65703Y27887D01*
Y27813D01*
X65709Y27788D01*
X65552Y27631D01*
X65506Y27650D01*
Y29050D01*
X65552Y29069D01*
X65709Y28912D01*
X65703Y28887D01*
Y28813D01*
X65722Y28740D01*
X65760Y28675D01*
X65812Y28623D01*
X65877Y28585D01*
X65950Y28566D01*
X66024D01*
X66097Y28585D01*
X66162Y28623D01*
X66214Y28675D01*
X66252Y28740D01*
X66271Y28813D01*
Y28887D01*
X66252Y28960D01*
X66214Y29025D01*
X66162Y29077D01*
X66097Y29115D01*
X66024Y29134D01*
X65950D01*
X65925Y29128D01*
X65756Y29298D01*
Y29609D01*
X65806Y29629D01*
X65812Y29623D01*
X65877Y29585D01*
X65950Y29566D01*
X66024D01*
X66097Y29585D01*
X66162Y29623D01*
X66214Y29675D01*
X66252Y29740D01*
X66271Y29813D01*
Y29887D01*
X66252Y29960D01*
X66214Y30025D01*
X66162Y30077D01*
X66097Y30115D01*
X66024Y30134D01*
X65950D01*
X65877Y30115D01*
X65812Y30077D01*
X65806Y30071D01*
X65756Y30091D01*
Y30609D01*
X65806Y30629D01*
X65812Y30623D01*
X65877Y30585D01*
X65950Y30566D01*
X66024D01*
X66097Y30585D01*
X66162Y30623D01*
X66214Y30675D01*
X66252Y30740D01*
X66271Y30813D01*
Y30887D01*
X66252Y30960D01*
X66214Y31025D01*
X66162Y31077D01*
X66097Y31115D01*
X66024Y31134D01*
X65950D01*
X65877Y31115D01*
X65812Y31077D01*
X65806Y31071D01*
X65756Y31091D01*
Y31609D01*
X65806Y31629D01*
X65812Y31623D01*
D02*
G37*
G36*
X72397Y28140D02*
X72409Y28081D01*
X72442Y28032D01*
X72647Y27827D01*
Y27001D01*
X72223D01*
Y28775D01*
X72397D01*
Y28140D01*
D02*
G37*
G36*
X72003Y26426D02*
X72603D01*
X72624Y26376D01*
X72421Y26174D01*
X72003D01*
Y26039D01*
X71297D01*
Y26174D01*
X70653D01*
Y26426D01*
X71297D01*
Y26561D01*
X72003D01*
Y26426D01*
D02*
G37*
G36*
X65812Y25623D02*
X65877Y25585D01*
X65950Y25566D01*
X66024D01*
X66049Y25572D01*
X66347Y25274D01*
Y21191D01*
X66298Y21163D01*
X66237Y21102D01*
X66194Y21027D01*
X66172Y20943D01*
Y20857D01*
X66194Y20773D01*
X66237Y20698D01*
X66298Y20637D01*
X66373Y20594D01*
X66457Y20572D01*
X66543D01*
X66627Y20594D01*
X66702Y20637D01*
X66727Y20663D01*
X66777Y20642D01*
Y18393D01*
X66392Y18008D01*
X66359Y17959D01*
X66347Y17900D01*
Y15191D01*
X66298Y15163D01*
X66237Y15102D01*
X66194Y15027D01*
X66172Y14943D01*
Y14857D01*
X66188Y14796D01*
X66143Y14770D01*
X65756Y15157D01*
Y24609D01*
X65806Y24629D01*
X65812Y24623D01*
X65877Y24585D01*
X65950Y24566D01*
X66024D01*
X66097Y24585D01*
X66162Y24623D01*
X66214Y24675D01*
X66252Y24740D01*
X66271Y24813D01*
Y24887D01*
X66252Y24960D01*
X66214Y25025D01*
X66162Y25077D01*
X66097Y25115D01*
X66024Y25134D01*
X65950D01*
X65877Y25115D01*
X65812Y25077D01*
X65806Y25071D01*
X65756Y25091D01*
Y25609D01*
X65806Y25629D01*
X65812Y25623D01*
D02*
G37*
G36*
X80986Y20998D02*
X80972Y20943D01*
Y20857D01*
X80994Y20773D01*
X81037Y20698D01*
X81098Y20637D01*
X81173Y20594D01*
X81257Y20572D01*
X81343D01*
X81427Y20594D01*
X81502Y20637D01*
X81563Y20698D01*
X81606Y20773D01*
X81628Y20857D01*
Y20943D01*
X81614Y20998D01*
X81793Y21177D01*
X82042D01*
X82063Y21127D01*
X82037Y21102D01*
X81994Y21027D01*
X81972Y20943D01*
Y20857D01*
X81986Y20802D01*
X80847Y19663D01*
X77903D01*
X76714Y20852D01*
X76728Y20907D01*
Y20993D01*
X76706Y21077D01*
X76663Y21152D01*
X76627Y21187D01*
X76648Y21237D01*
X78127D01*
X78141Y21187D01*
X78098Y21163D01*
X78037Y21102D01*
X77994Y21027D01*
X77972Y20943D01*
Y20857D01*
X77994Y20773D01*
X78037Y20698D01*
X78098Y20637D01*
X78173Y20594D01*
X78257Y20572D01*
X78343D01*
X78427Y20594D01*
X78502Y20637D01*
X78563Y20698D01*
X78606Y20773D01*
X78628Y20857D01*
Y20943D01*
X78606Y21027D01*
X78563Y21102D01*
X78502Y21163D01*
X78459Y21187D01*
X78473Y21237D01*
X79127D01*
X79141Y21187D01*
X79098Y21163D01*
X79037Y21102D01*
X78994Y21027D01*
X78972Y20943D01*
Y20857D01*
X78994Y20773D01*
X79037Y20698D01*
X79098Y20637D01*
X79173Y20594D01*
X79257Y20572D01*
X79343D01*
X79427Y20594D01*
X79502Y20637D01*
X79563Y20698D01*
X79606Y20773D01*
X79628Y20857D01*
Y20943D01*
X79606Y21027D01*
X79563Y21102D01*
X79502Y21163D01*
X79459Y21187D01*
X79473Y21237D01*
X80127D01*
X80141Y21187D01*
X80098Y21163D01*
X80037Y21102D01*
X79994Y21027D01*
X79972Y20943D01*
Y20857D01*
X79994Y20773D01*
X80037Y20698D01*
X80098Y20637D01*
X80173Y20594D01*
X80257Y20572D01*
X80343D01*
X80427Y20594D01*
X80502Y20637D01*
X80563Y20698D01*
X80606Y20773D01*
X80628Y20857D01*
Y20943D01*
X80606Y21027D01*
X80563Y21102D01*
X80502Y21163D01*
X80459Y21187D01*
X80473Y21237D01*
X80747D01*
X80986Y20998D01*
D02*
G37*
%LPC*%
G36*
X50079Y38800D02*
X49921D01*
X49767Y38769D01*
X49621Y38709D01*
X49490Y38621D01*
X49379Y38510D01*
X49291Y38379D01*
X49231Y38233D01*
X49200Y38079D01*
Y37921D01*
X49231Y37767D01*
X49291Y37621D01*
X49379Y37490D01*
X49490Y37379D01*
X49621Y37291D01*
X49767Y37231D01*
X49921Y37200D01*
X50079D01*
X50233Y37231D01*
X50379Y37291D01*
X50510Y37379D01*
X50621Y37490D01*
X50709Y37621D01*
X50769Y37767D01*
X50800Y37921D01*
Y38079D01*
X50769Y38233D01*
X50709Y38379D01*
X50621Y38510D01*
X50510Y38621D01*
X50379Y38709D01*
X50233Y38769D01*
X50079Y38800D01*
D02*
G37*
G36*
X20079D02*
X19921D01*
X19767Y38769D01*
X19621Y38709D01*
X19490Y38621D01*
X19379Y38510D01*
X19291Y38379D01*
X19231Y38233D01*
X19200Y38079D01*
Y37921D01*
X19231Y37767D01*
X19291Y37621D01*
X19379Y37490D01*
X19490Y37379D01*
X19621Y37291D01*
X19767Y37231D01*
X19921Y37200D01*
X20079D01*
X20233Y37231D01*
X20379Y37291D01*
X20510Y37379D01*
X20621Y37490D01*
X20709Y37621D01*
X20769Y37767D01*
X20800Y37921D01*
Y38079D01*
X20769Y38233D01*
X20709Y38379D01*
X20621Y38510D01*
X20510Y38621D01*
X20379Y38709D01*
X20233Y38769D01*
X20079Y38800D01*
D02*
G37*
G36*
X29121Y35902D02*
X29105D01*
Y35615D01*
X29392D01*
Y35631D01*
X29371Y35711D01*
X29330Y35782D01*
X29272Y35840D01*
X29201Y35881D01*
X29121Y35902D01*
D02*
G37*
G36*
X28328Y36495D02*
X24500D01*
X24441Y36483D01*
X24392Y36450D01*
X23868Y35926D01*
X23835Y35876D01*
X23827Y35840D01*
X23808D01*
Y35608D01*
X23976D01*
X24144D01*
Y35724D01*
X24147Y35726D01*
X24197Y35698D01*
Y34974D01*
X24182D01*
Y34460D01*
X24197D01*
Y33810D01*
X24156Y33768D01*
X24122Y33719D01*
X24111Y33660D01*
Y33047D01*
X23976D01*
Y32403D01*
X23724D01*
Y32610D01*
X23729Y32622D01*
X23739Y32700D01*
X23729Y32778D01*
X23724Y32790D01*
Y33047D01*
X23149D01*
Y33003D01*
X22790D01*
X22712Y32992D01*
X22639Y32962D01*
X22626Y32953D01*
X22528D01*
Y33078D01*
X21672D01*
Y32222D01*
X22528D01*
Y32347D01*
X22740D01*
X22818Y32358D01*
X22822Y32359D01*
X22851Y32317D01*
X21223Y30689D01*
X21173Y30710D01*
Y33145D01*
X21622Y33594D01*
X21639Y33594D01*
X21668Y33584D01*
X21676Y33578D01*
X21701Y33485D01*
X21758Y33387D01*
X21837Y33308D01*
X21935Y33251D01*
X22044Y33222D01*
X22156D01*
X22265Y33251D01*
X22363Y33308D01*
X22442Y33387D01*
X22499Y33485D01*
X22528Y33594D01*
Y33650D01*
X23064Y34186D01*
X23112Y34249D01*
X23142Y34322D01*
X23153Y34400D01*
Y35157D01*
X23153Y35157D01*
X23142Y35235D01*
X23112Y35308D01*
X23064Y35371D01*
X23064Y35371D01*
X22771Y35664D01*
X22708Y35712D01*
X22635Y35742D01*
X22557Y35753D01*
X21680D01*
X21602Y35742D01*
X21529Y35712D01*
X21466Y35664D01*
X21466Y35664D01*
X20106Y34304D01*
X20058Y34241D01*
X20028Y34168D01*
X20017Y34090D01*
Y31039D01*
X19301Y30322D01*
X19252Y30259D01*
X19222Y30186D01*
X19212Y30108D01*
Y30090D01*
X19112Y29990D01*
X19068Y30016D01*
X19075Y30044D01*
Y30156D01*
X19046Y30264D01*
X18990Y30361D01*
X18911Y30440D01*
X18814Y30496D01*
X18706Y30525D01*
X18653D01*
X15353Y33825D01*
Y34037D01*
X15397Y34082D01*
X15454Y34181D01*
X15484Y34291D01*
Y34405D01*
X15454Y34516D01*
X15397Y34614D01*
X15316Y34695D01*
X15217Y34752D01*
X15107Y34782D01*
X14993D01*
X14883Y34752D01*
X14784Y34695D01*
X14703Y34614D01*
X14646Y34516D01*
X14616Y34405D01*
Y34291D01*
X14646Y34181D01*
X14703Y34082D01*
X14747Y34037D01*
Y33700D01*
X14758Y33622D01*
X14788Y33549D01*
X14836Y33486D01*
X18225Y30097D01*
Y30044D01*
X18254Y29936D01*
X18310Y29839D01*
X18389Y29760D01*
X18486Y29704D01*
X18594Y29675D01*
X18706D01*
X18734Y29682D01*
X18760Y29638D01*
X18647Y29525D01*
X18594D01*
X18486Y29496D01*
X18389Y29440D01*
X18310Y29361D01*
X18254Y29264D01*
X18225Y29156D01*
Y29044D01*
X18254Y28936D01*
X18310Y28839D01*
X18389Y28760D01*
X18486Y28704D01*
X18594Y28675D01*
X18706D01*
X18814Y28704D01*
X18911Y28760D01*
X18990Y28839D01*
X19046Y28936D01*
X19075Y29044D01*
Y29097D01*
X19728Y29751D01*
X19777Y29813D01*
X19807Y29886D01*
X19817Y29964D01*
Y29983D01*
X20367Y30533D01*
X20417Y30512D01*
Y28584D01*
X20428Y28506D01*
X20458Y28433D01*
X20506Y28370D01*
X20623Y28253D01*
X20623Y28253D01*
X21134Y27742D01*
X21197Y27694D01*
X21270Y27664D01*
X21348Y27654D01*
X23450D01*
X23528Y27664D01*
X23540Y27669D01*
X23797D01*
X23797Y27669D01*
Y27669D01*
X23840Y27650D01*
X23900Y27590D01*
Y27310D01*
X23912Y27251D01*
X23945Y27202D01*
X24032Y27114D01*
X24082Y27081D01*
X24140Y27070D01*
X24453D01*
Y26935D01*
X24981D01*
X26304Y25612D01*
X26354Y25579D01*
X26413Y25567D01*
X27517D01*
X28147Y24937D01*
Y24373D01*
X26089D01*
Y24203D01*
X25875D01*
X25014Y25064D01*
X24951Y25112D01*
X24878Y25142D01*
X24800Y25153D01*
X21974D01*
X21895Y25142D01*
X21822Y25112D01*
X21760Y25064D01*
X21760Y25064D01*
X20405Y23709D01*
X20333Y23690D01*
X20250Y23642D01*
X20182Y23574D01*
X20134Y23491D01*
X20109Y23398D01*
Y23302D01*
X20134Y23209D01*
X20182Y23126D01*
X20250Y23058D01*
X20333Y23010D01*
X20426Y22985D01*
X20522D01*
X20614Y23010D01*
X20698Y23058D01*
X20766Y23126D01*
X20814Y23209D01*
X20833Y23282D01*
X22099Y24547D01*
X24675D01*
X24799Y24423D01*
X24778Y24373D01*
X22703D01*
Y24203D01*
X22640D01*
X22640Y24203D01*
X22562Y24192D01*
X22489Y24162D01*
X22426Y24114D01*
X22426Y24114D01*
X21215Y22903D01*
X20325D01*
X19878Y23350D01*
X20325Y23797D01*
X20373Y23859D01*
X20403Y23932D01*
X20413Y24011D01*
Y26000D01*
X20403Y26078D01*
X20373Y26151D01*
X20325Y26214D01*
X20262Y26262D01*
X20189Y26292D01*
X20111Y26303D01*
X20032Y26292D01*
X19959Y26262D01*
X19897Y26214D01*
X19849Y26151D01*
X19818Y26078D01*
X19808Y26000D01*
Y24136D01*
X19382Y23709D01*
X19309Y23690D01*
X19226Y23642D01*
X19158Y23574D01*
X19110Y23491D01*
X19085Y23398D01*
Y23302D01*
X19110Y23209D01*
X19147Y23144D01*
Y22175D01*
X18079Y21107D01*
X18067Y21111D01*
X17933D01*
X17803Y21076D01*
X17686Y21009D01*
X17591Y20914D01*
X17524Y20797D01*
X17489Y20667D01*
Y20533D01*
X17524Y20403D01*
X17591Y20286D01*
X17686Y20191D01*
X17697Y20185D01*
Y19562D01*
X17692Y19520D01*
Y18865D01*
X17681Y18859D01*
X17586Y18764D01*
X17519Y18647D01*
X17484Y18517D01*
Y18383D01*
X17519Y18253D01*
X17586Y18136D01*
X17681Y18041D01*
X17797Y17974D01*
X17927Y17939D01*
X18062D01*
X18192Y17974D01*
X18308Y18041D01*
X18403Y18136D01*
X18470Y18253D01*
X18505Y18383D01*
Y18517D01*
X18470Y18647D01*
X18403Y18764D01*
X18308Y18859D01*
X18297Y18865D01*
Y19484D01*
X18303Y19526D01*
Y20185D01*
X18314Y20191D01*
X18409Y20286D01*
X18476Y20403D01*
X18511Y20533D01*
Y20667D01*
X18507Y20679D01*
X19664Y21836D01*
X19664Y21836D01*
X19712Y21899D01*
X19742Y21972D01*
X19753Y22050D01*
X19753Y22050D01*
Y22554D01*
X19799Y22573D01*
X19986Y22386D01*
X20049Y22338D01*
X20122Y22308D01*
X20200Y22297D01*
X21340D01*
X21418Y22308D01*
X21491Y22338D01*
X21554Y22386D01*
X22657Y23489D01*
X22703Y23470D01*
Y23427D01*
X24811D01*
Y24340D01*
X24861Y24361D01*
X25536Y23686D01*
X25599Y23638D01*
X25672Y23608D01*
X25750Y23597D01*
X26089D01*
Y23427D01*
X26840D01*
Y22838D01*
X25986Y21984D01*
X25938Y21921D01*
X25908Y21848D01*
X25897Y21770D01*
Y21413D01*
X25884Y21399D01*
X25836Y21336D01*
X25805Y21263D01*
X25795Y21185D01*
Y19205D01*
X25805Y19127D01*
X25836Y19054D01*
X25884Y18991D01*
X26342Y18533D01*
Y17939D01*
X27272D01*
X27293Y17889D01*
X27292Y17888D01*
X27259Y17839D01*
X27247Y17780D01*
Y15500D01*
X27259Y15441D01*
X27292Y15392D01*
X27622Y15062D01*
X27671Y15029D01*
X27730Y15017D01*
X29360D01*
X29419Y15029D01*
X29468Y15062D01*
X30848Y16442D01*
X30881Y16491D01*
X30893Y16550D01*
Y19607D01*
X32083Y20797D01*
X33261D01*
X33273Y20776D01*
X33326Y20723D01*
X33391Y20686D01*
X33463Y20667D01*
X33537D01*
X33609Y20686D01*
X33674Y20723D01*
X33727Y20776D01*
X33764Y20841D01*
X33783Y20913D01*
Y20987D01*
X33764Y21059D01*
X33727Y21124D01*
X33674Y21177D01*
X33609Y21214D01*
X33537Y21233D01*
X33463D01*
X33391Y21214D01*
X33326Y21177D01*
X33273Y21124D01*
X33261Y21103D01*
X32020D01*
X31961Y21091D01*
X31912Y21058D01*
X30632Y19778D01*
X30599Y19729D01*
X30587Y19670D01*
Y16613D01*
X29297Y15323D01*
X27793D01*
X27656Y15460D01*
X27675Y15506D01*
X28394D01*
Y16394D01*
X28253D01*
Y18276D01*
X30218Y20241D01*
X30510D01*
Y20961D01*
X30303D01*
Y21740D01*
X30291Y21799D01*
X30258Y21848D01*
X30203Y21903D01*
Y22750D01*
X30226Y22763D01*
X30279Y22816D01*
X30317Y22882D01*
X30336Y22954D01*
Y23030D01*
X30329Y23055D01*
X31198Y23924D01*
X31231Y23974D01*
X31243Y24032D01*
Y24480D01*
Y28700D01*
X31424D01*
Y29249D01*
X31474Y29269D01*
X31767Y28977D01*
Y26000D01*
X31779Y25941D01*
X31812Y25892D01*
X32332Y25372D01*
X32381Y25339D01*
X32440Y25327D01*
X33620D01*
X33679Y25339D01*
X33728Y25372D01*
X33998Y25642D01*
X34031Y25691D01*
X34043Y25750D01*
Y29560D01*
X34031Y29619D01*
X33998Y29668D01*
X33777Y29889D01*
X33783Y29913D01*
Y29987D01*
X33764Y30059D01*
X33727Y30124D01*
X33674Y30177D01*
X33609Y30214D01*
X33537Y30233D01*
X33463D01*
X33391Y30214D01*
X33326Y30177D01*
X33273Y30124D01*
X33236Y30059D01*
X33217Y29987D01*
Y29913D01*
X33236Y29841D01*
X33273Y29776D01*
X33326Y29723D01*
X33391Y29686D01*
X33463Y29667D01*
X33537D01*
X33561Y29673D01*
X33737Y29497D01*
Y29184D01*
X33687Y29163D01*
X33674Y29177D01*
X33609Y29214D01*
X33537Y29233D01*
X33463D01*
X33391Y29214D01*
X33326Y29177D01*
X33273Y29124D01*
X33236Y29059D01*
X33217Y28987D01*
Y28913D01*
X33236Y28841D01*
X33273Y28776D01*
X33326Y28723D01*
X33391Y28686D01*
X33463Y28667D01*
X33537D01*
X33609Y28686D01*
X33674Y28723D01*
X33687Y28737D01*
X33737Y28716D01*
Y28184D01*
X33687Y28163D01*
X33674Y28177D01*
X33609Y28214D01*
X33537Y28233D01*
X33463D01*
X33391Y28214D01*
X33326Y28177D01*
X33273Y28124D01*
X33236Y28059D01*
X33217Y27987D01*
Y27913D01*
X33236Y27841D01*
X33273Y27776D01*
X33326Y27723D01*
X33391Y27686D01*
X33463Y27667D01*
X33537D01*
X33609Y27686D01*
X33674Y27723D01*
X33687Y27737D01*
X33737Y27716D01*
Y27184D01*
X33687Y27163D01*
X33674Y27177D01*
X33609Y27214D01*
X33537Y27233D01*
X33463D01*
X33391Y27214D01*
X33326Y27177D01*
X33273Y27124D01*
X33236Y27059D01*
X33217Y26987D01*
Y26913D01*
X33236Y26841D01*
X33273Y26776D01*
X33326Y26723D01*
X33391Y26686D01*
X33463Y26667D01*
X33537D01*
X33609Y26686D01*
X33674Y26723D01*
X33687Y26737D01*
X33737Y26716D01*
Y26184D01*
X33687Y26163D01*
X33674Y26177D01*
X33609Y26214D01*
X33537Y26233D01*
X33525D01*
Y25950D01*
X33500D01*
Y25925D01*
X33217D01*
Y25913D01*
X33236Y25841D01*
X33273Y25776D01*
X33326Y25723D01*
X33391Y25686D01*
X33403Y25683D01*
X33396Y25633D01*
X32503D01*
X32073Y26063D01*
Y29040D01*
X32061Y29099D01*
X32028Y29148D01*
X31553Y29623D01*
Y31000D01*
X31541Y31059D01*
X31508Y31108D01*
X31459Y31141D01*
X31424Y31148D01*
Y31300D01*
X30525D01*
Y31153D01*
X30461D01*
X29728Y31886D01*
X29679Y31919D01*
X29620Y31930D01*
X29397D01*
Y32065D01*
X28703D01*
Y31490D01*
X29397D01*
Y31625D01*
X29557D01*
X30032Y31150D01*
X30013Y31109D01*
X30008Y31103D01*
X29397D01*
Y31237D01*
X28703D01*
Y31237D01*
X28659Y31219D01*
X28438Y31440D01*
X28389Y31473D01*
X28330Y31484D01*
X28188D01*
Y31509D01*
X27812D01*
Y31484D01*
X27004D01*
X26946Y31473D01*
X26896Y31440D01*
X26271Y30815D01*
X25853D01*
Y30680D01*
X25147D01*
Y30815D01*
X24453D01*
Y30240D01*
X25147D01*
Y30375D01*
X25853D01*
Y30240D01*
X26547D01*
Y30658D01*
X27067Y31179D01*
X27812D01*
Y31154D01*
X28188D01*
Y31179D01*
X28267D01*
X28603Y30842D01*
X28653Y30809D01*
X28703Y30799D01*
Y30663D01*
X29397D01*
Y30797D01*
X29947D01*
X30937Y29807D01*
Y29300D01*
X30525D01*
Y28700D01*
X30937D01*
Y27594D01*
X30392D01*
Y27303D01*
X30303D01*
X29768Y27838D01*
X29719Y27871D01*
X29660Y27883D01*
X28880D01*
X28821Y27871D01*
X28772Y27838D01*
X28337Y27403D01*
X27947D01*
Y27538D01*
X27253D01*
Y27403D01*
X27063D01*
X26308Y28158D01*
X26259Y28191D01*
X26200Y28203D01*
X25147D01*
Y28327D01*
X27054D01*
X27057Y28076D01*
X27063Y28047D01*
X27069Y28019D01*
X27069Y28018D01*
X27069Y28017D01*
X27086Y27993D01*
X27102Y27969D01*
X27103Y27969D01*
X27103Y27968D01*
X27127Y27952D01*
X27151Y27936D01*
X27152Y27936D01*
X27153Y27936D01*
X27181Y27930D01*
X27210Y27924D01*
X27253D01*
Y27790D01*
X27575D01*
Y28077D01*
X27600D01*
Y28102D01*
X27947D01*
Y28327D01*
X28544D01*
X28602Y28339D01*
X28652Y28372D01*
X29172Y28892D01*
X29205Y28941D01*
X29217Y29000D01*
Y29303D01*
X29351D01*
Y29625D01*
X28776D01*
Y29303D01*
X28776D01*
X28788Y29274D01*
X28686Y29173D01*
X27263Y29163D01*
X26618Y29808D01*
X26569Y29841D01*
X26547Y29846D01*
Y29987D01*
X26225D01*
Y29700D01*
Y29413D01*
X26547D01*
X26547Y29413D01*
Y29413D01*
X26594Y29400D01*
X27048Y28946D01*
X27051Y28668D01*
X27016Y28633D01*
X24350D01*
X24291Y28621D01*
X24242Y28588D01*
X24209Y28539D01*
X24197Y28480D01*
Y27795D01*
X24147Y27776D01*
X23858Y28064D01*
X23809Y28098D01*
X23797Y28100D01*
Y28244D01*
X23540D01*
X23528Y28249D01*
X23450Y28259D01*
X21475D01*
X21447Y28293D01*
X21466Y28337D01*
X22910D01*
X22969Y28349D01*
X23018Y28382D01*
X23133Y28496D01*
X23797D01*
Y29071D01*
X23103D01*
Y28897D01*
X23096Y28892D01*
X22847Y28643D01*
X21779D01*
X21773Y28693D01*
X21814Y28704D01*
X21911Y28760D01*
X21990Y28839D01*
X22046Y28936D01*
X22075Y29044D01*
Y29075D01*
X21650D01*
Y29100D01*
X21625D01*
Y29525D01*
X21594D01*
X21486Y29496D01*
X21389Y29440D01*
X21323Y29374D01*
X21273Y29392D01*
Y29808D01*
X21323Y29826D01*
X21389Y29760D01*
X21486Y29704D01*
X21594Y29675D01*
X21706D01*
X21814Y29704D01*
X21911Y29760D01*
X21990Y29839D01*
X22046Y29936D01*
X22075Y30044D01*
Y30156D01*
X22046Y30264D01*
X21990Y30361D01*
X21911Y30440D01*
X21814Y30496D01*
X21706Y30525D01*
X21594D01*
X21550Y30513D01*
X21524Y30558D01*
X23063Y32097D01*
X24599D01*
X24658Y32109D01*
X24707Y32142D01*
X24832Y32267D01*
X24865Y32316D01*
X24877Y32375D01*
Y35149D01*
X24923Y35168D01*
X25119Y34972D01*
X25169Y34939D01*
X25227Y34927D01*
X25788D01*
X25810Y34888D01*
X25868Y34830D01*
X25939Y34789D01*
X26019Y34768D01*
X26101D01*
X26181Y34789D01*
X26229Y34817D01*
X26279Y34790D01*
Y34268D01*
X26904D01*
Y34892D01*
X26362D01*
X26337Y34936D01*
X26351Y34959D01*
X26372Y35039D01*
Y35121D01*
X26351Y35201D01*
X26310Y35272D01*
X26252Y35330D01*
X26181Y35371D01*
X26101Y35392D01*
X26019D01*
X25939Y35371D01*
X25868Y35330D01*
X25810Y35272D01*
X25788Y35233D01*
X25290D01*
X24892Y35631D01*
Y35840D01*
X24939Y35847D01*
X26108D01*
X26291Y35664D01*
X26279Y35621D01*
Y35539D01*
X26300Y35459D01*
X26342Y35388D01*
X26400Y35330D01*
X26471Y35289D01*
X26550Y35268D01*
X26633D01*
X26712Y35289D01*
X26783Y35330D01*
X26841Y35388D01*
X26883Y35459D01*
X26904Y35539D01*
Y35621D01*
X26883Y35701D01*
X26841Y35772D01*
X26783Y35830D01*
X26712Y35871D01*
X26633Y35892D01*
X26550D01*
X26507Y35881D01*
X26280Y36108D01*
X26233Y36139D01*
X26233Y36143D01*
X26263Y36189D01*
X28265D01*
X28779Y35674D01*
X28768Y35631D01*
Y35615D01*
X29055D01*
Y35902D01*
X29039D01*
X28996Y35891D01*
X28436Y36450D01*
X28387Y36483D01*
X28328Y36495D01*
D02*
G37*
G36*
X24144Y35558D02*
X24001D01*
Y35326D01*
X24144D01*
Y35558D01*
D02*
G37*
G36*
X23951D02*
X23808D01*
Y35326D01*
X23951D01*
Y35558D01*
D02*
G37*
G36*
X29055Y35565D02*
X28768D01*
Y35549D01*
X28789Y35469D01*
X28830Y35398D01*
X28888Y35340D01*
X28959Y35299D01*
X29039Y35278D01*
X29055D01*
Y35565D01*
D02*
G37*
G36*
X37000Y35325D02*
X36725D01*
Y34900D01*
X37000D01*
Y35325D01*
D02*
G37*
G36*
Y34850D02*
X36725D01*
Y34426D01*
X37000D01*
Y34850D01*
D02*
G37*
G36*
X29392Y35565D02*
X29105D01*
Y35278D01*
X29121D01*
X29164Y35289D01*
X30298Y34156D01*
X30303Y34153D01*
X30297Y34125D01*
Y32940D01*
X30309Y32881D01*
X30342Y32832D01*
X31742Y31432D01*
Y30000D01*
X31754Y29941D01*
X31787Y29892D01*
X31836Y29859D01*
X31876Y29851D01*
Y29700D01*
X32172D01*
Y27125D01*
X32184Y27066D01*
X32217Y27017D01*
X33223Y26011D01*
X33217Y25987D01*
Y25975D01*
X33475D01*
Y26233D01*
X33463D01*
X33439Y26227D01*
X32478Y27188D01*
Y29700D01*
X32775D01*
Y29975D01*
X32325D01*
Y30000D01*
X32300D01*
Y30300D01*
X32048D01*
Y31495D01*
X32036Y31554D01*
X32003Y31603D01*
X30603Y33003D01*
Y33149D01*
X31247D01*
Y33283D01*
X31261D01*
X31320Y33295D01*
X31369Y33328D01*
X31558Y33517D01*
X31559Y33518D01*
X31561Y33520D01*
X32011Y33993D01*
X32053Y33976D01*
Y33976D01*
X32747D01*
Y34551D01*
X32053D01*
Y34416D01*
X32026Y34410D01*
X31999Y34405D01*
X31997Y34404D01*
X31995Y34404D01*
X31973Y34387D01*
X31949Y34372D01*
X31948Y34370D01*
X31947Y34369D01*
X31650Y34057D01*
X31600Y34066D01*
X31593Y34085D01*
X31573Y34105D01*
X31559Y34152D01*
X31573Y34170D01*
X32125Y34722D01*
X36400D01*
Y34426D01*
X36675D01*
Y34875D01*
Y35325D01*
X36400D01*
Y35028D01*
X32061D01*
X32003Y35017D01*
X31953Y34983D01*
X31387Y34417D01*
X31247D01*
Y34551D01*
X30925D01*
Y34264D01*
X30875D01*
Y34551D01*
X30553D01*
Y34417D01*
X30470D01*
X29381Y35506D01*
X29392Y35549D01*
Y35565D01*
D02*
G37*
G36*
X28590Y35402D02*
X28507D01*
X28428Y35381D01*
X28357Y35340D01*
X28299Y35282D01*
X28257Y35211D01*
X28236Y35131D01*
Y35049D01*
X28257Y34969D01*
X28299Y34898D01*
X28357Y34840D01*
X28428Y34799D01*
X28507Y34778D01*
X28590D01*
X28669Y34799D01*
X28718Y34827D01*
X28768Y34800D01*
Y34278D01*
X29392D01*
Y34902D01*
X28851D01*
X28826Y34946D01*
X28840Y34969D01*
X28861Y35049D01*
Y35131D01*
X28840Y35211D01*
X28798Y35282D01*
X28740Y35340D01*
X28669Y35381D01*
X28590Y35402D01*
D02*
G37*
G36*
X52845Y34345D02*
X52155D01*
Y33655D01*
X52845D01*
Y34345D01*
D02*
G37*
G36*
X39260Y34353D02*
X35875D01*
X35816Y34341D01*
X35767Y34308D01*
X35592Y34133D01*
X35559Y34084D01*
X35547Y34025D01*
Y33974D01*
X35400D01*
Y33075D01*
X36000D01*
Y33974D01*
X35957D01*
X35933Y34024D01*
X35951Y34047D01*
X39197D01*
X39807Y33437D01*
Y31189D01*
X39757Y31168D01*
X39749Y31177D01*
X39684Y31214D01*
X39612Y31233D01*
X39538D01*
X39466Y31214D01*
X39401Y31177D01*
X39348Y31124D01*
X39311Y31059D01*
X39292Y30987D01*
Y30913D01*
X39311Y30841D01*
X39348Y30776D01*
X39401Y30723D01*
X39466Y30686D01*
X39538Y30667D01*
X39612D01*
X39684Y30686D01*
X39749Y30723D01*
X39757Y30732D01*
X39807Y30711D01*
Y30189D01*
X39757Y30168D01*
X39749Y30177D01*
X39684Y30214D01*
X39612Y30233D01*
X39538D01*
X39466Y30214D01*
X39401Y30177D01*
X39348Y30124D01*
X39311Y30059D01*
X39292Y29987D01*
Y29913D01*
X39311Y29841D01*
X39348Y29776D01*
X39401Y29723D01*
X39466Y29686D01*
X39538Y29667D01*
X39612D01*
X39684Y29686D01*
X39749Y29723D01*
X39757Y29732D01*
X39807Y29711D01*
Y29189D01*
X39757Y29168D01*
X39749Y29177D01*
X39684Y29214D01*
X39612Y29233D01*
X39538D01*
X39466Y29214D01*
X39401Y29177D01*
X39348Y29124D01*
X39311Y29059D01*
X39292Y28987D01*
Y28913D01*
X39311Y28841D01*
X39348Y28776D01*
X39401Y28723D01*
X39466Y28686D01*
X39538Y28667D01*
X39612D01*
X39684Y28686D01*
X39749Y28723D01*
X39757Y28732D01*
X39807Y28711D01*
Y28189D01*
X39757Y28168D01*
X39749Y28177D01*
X39684Y28214D01*
X39612Y28233D01*
X39538D01*
X39466Y28214D01*
X39401Y28177D01*
X39348Y28124D01*
X39311Y28059D01*
X39292Y27987D01*
Y27913D01*
X39311Y27841D01*
X39348Y27776D01*
X39401Y27723D01*
X39466Y27686D01*
X39538Y27667D01*
X39612D01*
X39684Y27686D01*
X39749Y27723D01*
X39757Y27732D01*
X39807Y27711D01*
Y27189D01*
X39757Y27168D01*
X39749Y27177D01*
X39684Y27214D01*
X39612Y27233D01*
X39538D01*
X39466Y27214D01*
X39401Y27177D01*
X39348Y27124D01*
X39311Y27059D01*
X39292Y26987D01*
Y26913D01*
X39311Y26841D01*
X39348Y26776D01*
X39401Y26723D01*
X39466Y26686D01*
X39538Y26667D01*
X39612D01*
X39684Y26686D01*
X39749Y26723D01*
X39757Y26732D01*
X39807Y26711D01*
Y26189D01*
X39757Y26168D01*
X39749Y26177D01*
X39684Y26214D01*
X39612Y26233D01*
X39538D01*
X39466Y26214D01*
X39401Y26177D01*
X39348Y26124D01*
X39311Y26059D01*
X39292Y25987D01*
Y25913D01*
X39311Y25841D01*
X39348Y25776D01*
X39401Y25723D01*
X39466Y25686D01*
X39538Y25667D01*
X39612D01*
X39684Y25686D01*
X39749Y25723D01*
X39757Y25732D01*
X39807Y25711D01*
Y25399D01*
X39635Y25227D01*
X39612Y25233D01*
X39538D01*
X39466Y25214D01*
X39401Y25177D01*
X39348Y25124D01*
X39311Y25059D01*
X39292Y24987D01*
Y24913D01*
X39311Y24841D01*
X39348Y24776D01*
X39401Y24723D01*
X39466Y24686D01*
X39538Y24667D01*
X39612D01*
X39684Y24686D01*
X39749Y24723D01*
X39801Y24776D01*
X39839Y24841D01*
X39858Y24913D01*
Y24987D01*
X39852Y25011D01*
X40068Y25227D01*
X40101Y25277D01*
X40113Y25335D01*
Y33500D01*
X40101Y33559D01*
X40068Y33608D01*
X39368Y34308D01*
X39319Y34341D01*
X39260Y34353D01*
D02*
G37*
G36*
X44449Y31325D02*
X44425D01*
Y30975D01*
X44775D01*
Y30999D01*
X44749Y31095D01*
X44700Y31180D01*
X44630Y31250D01*
X44545Y31299D01*
X44449Y31325D01*
D02*
G37*
G36*
X44375D02*
X44351D01*
X44255Y31299D01*
X44170Y31250D01*
X44100Y31180D01*
X44051Y31095D01*
X44025Y30999D01*
Y30975D01*
X44375D01*
Y31325D01*
D02*
G37*
G36*
X32747Y33724D02*
X32053D01*
Y33149D01*
X32747D01*
Y33283D01*
X32937D01*
X33347Y32873D01*
Y31233D01*
X33217D01*
Y30667D01*
X33783D01*
Y31233D01*
X33653D01*
Y32936D01*
X33641Y32995D01*
X33608Y33044D01*
X33108Y33544D01*
X33059Y33578D01*
X33000Y33589D01*
X32747D01*
Y33724D01*
D02*
G37*
G36*
X45449Y31325D02*
X45351D01*
X45255Y31299D01*
X45170Y31250D01*
X45100Y31180D01*
X45051Y31095D01*
X45025Y30999D01*
Y30901D01*
X45051Y30805D01*
X45100Y30720D01*
X45170Y30650D01*
X45255Y30601D01*
X45351Y30575D01*
X45449D01*
X45545Y30601D01*
X45630Y30650D01*
X45700Y30720D01*
X45749Y30805D01*
X45775Y30901D01*
Y30999D01*
X45749Y31095D01*
X45700Y31180D01*
X45630Y31250D01*
X45545Y31299D01*
X45449Y31325D01*
D02*
G37*
G36*
X44775Y30925D02*
X44425D01*
Y30575D01*
X44449D01*
X44545Y30601D01*
X44630Y30650D01*
X44700Y30720D01*
X44749Y30805D01*
X44775Y30901D01*
Y30925D01*
D02*
G37*
G36*
X44375D02*
X44025D01*
Y30901D01*
X44051Y30805D01*
X44100Y30720D01*
X44170Y30650D01*
X44255Y30601D01*
X44351Y30575D01*
X44375D01*
Y30925D01*
D02*
G37*
G36*
X15107Y31034D02*
X14993D01*
X14883Y31004D01*
X14784Y30947D01*
X14703Y30866D01*
X14646Y30767D01*
X14616Y30657D01*
Y30543D01*
X14646Y30433D01*
X14703Y30334D01*
X14784Y30253D01*
X14883Y30196D01*
X14993Y30166D01*
X15107D01*
X15217Y30196D01*
X15316Y30253D01*
X15397Y30334D01*
X15454Y30433D01*
X15484Y30543D01*
Y30657D01*
X15454Y30767D01*
X15397Y30866D01*
X15316Y30947D01*
X15217Y31004D01*
X15107Y31034D01*
D02*
G37*
G36*
X52545Y30408D02*
X52525D01*
Y30088D01*
X52845D01*
Y30108D01*
X52822Y30196D01*
X52776Y30275D01*
X52712Y30339D01*
X52633Y30385D01*
X52545Y30408D01*
D02*
G37*
G36*
X52475D02*
X52455D01*
X52367Y30385D01*
X52288Y30339D01*
X52224Y30275D01*
X52178Y30196D01*
X52155Y30108D01*
Y30088D01*
X52475D01*
Y30408D01*
D02*
G37*
G36*
X32775Y30300D02*
X32350D01*
Y30025D01*
X32775D01*
Y30300D01*
D02*
G37*
G36*
X26175Y29987D02*
X25853D01*
Y29853D01*
X25147D01*
Y29987D01*
X24825D01*
Y29700D01*
Y29413D01*
X25147D01*
Y29547D01*
X25853D01*
Y29413D01*
X26175D01*
Y29700D01*
Y29987D01*
D02*
G37*
G36*
X52845Y30038D02*
X52525D01*
Y29718D01*
X52545D01*
X52633Y29741D01*
X52712Y29787D01*
X52776Y29851D01*
X52822Y29930D01*
X52845Y30018D01*
Y30038D01*
D02*
G37*
G36*
X52475D02*
X52155D01*
Y30018D01*
X52178Y29930D01*
X52224Y29851D01*
X52288Y29787D01*
X52367Y29741D01*
X52455Y29718D01*
X52475D01*
Y30038D01*
D02*
G37*
G36*
X29351Y29997D02*
X29089D01*
Y29675D01*
X29351D01*
Y29997D01*
D02*
G37*
G36*
X29039D02*
X28776D01*
Y29675D01*
X29039D01*
Y29997D01*
D02*
G37*
G36*
X45449Y30325D02*
X45351D01*
X45255Y30299D01*
X45170Y30250D01*
X45100Y30180D01*
X45051Y30095D01*
X45025Y29999D01*
Y29901D01*
X45051Y29805D01*
X45100Y29720D01*
X45170Y29650D01*
X45255Y29601D01*
X45351Y29575D01*
X45449D01*
X45545Y29601D01*
X45630Y29650D01*
X45700Y29720D01*
X45749Y29805D01*
X45775Y29901D01*
Y29999D01*
X45749Y30095D01*
X45700Y30180D01*
X45630Y30250D01*
X45545Y30299D01*
X45449Y30325D01*
D02*
G37*
G36*
X44449D02*
X44351D01*
X44255Y30299D01*
X44170Y30250D01*
X44100Y30180D01*
X44051Y30095D01*
X44025Y29999D01*
Y29901D01*
X44051Y29805D01*
X44100Y29720D01*
X44170Y29650D01*
X44255Y29601D01*
X44351Y29575D01*
X44449D01*
X44545Y29601D01*
X44630Y29650D01*
X44700Y29720D01*
X44749Y29805D01*
X44775Y29901D01*
Y29999D01*
X44749Y30095D01*
X44700Y30180D01*
X44630Y30250D01*
X44545Y30299D01*
X44449Y30325D01*
D02*
G37*
G36*
X24775Y29987D02*
X24453D01*
Y29853D01*
X22250D01*
X22191Y29841D01*
X22142Y29808D01*
X21824Y29490D01*
X21814Y29496D01*
X21706Y29525D01*
X21675D01*
Y29125D01*
X22075D01*
Y29156D01*
X22046Y29264D01*
X22040Y29274D01*
X22313Y29547D01*
X24453D01*
Y29413D01*
X24775D01*
Y29700D01*
Y29987D01*
D02*
G37*
G36*
X28188Y30978D02*
X27812D01*
Y30622D01*
X27847D01*
Y30336D01*
X27859Y30278D01*
X27892Y30228D01*
X28073Y30047D01*
X28059Y29997D01*
X27949D01*
Y29303D01*
X28524D01*
Y29997D01*
X28389D01*
Y30100D01*
X28378Y30159D01*
X28344Y30208D01*
X28153Y30400D01*
Y30622D01*
X28188D01*
Y30978D01*
D02*
G37*
G36*
X45449Y29325D02*
X45351D01*
X45255Y29299D01*
X45170Y29250D01*
X45100Y29180D01*
X45051Y29095D01*
X45025Y28999D01*
Y28901D01*
X45051Y28805D01*
X45100Y28720D01*
X45170Y28650D01*
X45200Y28633D01*
X45186Y28583D01*
X44614D01*
X44600Y28633D01*
X44630Y28650D01*
X44700Y28720D01*
X44749Y28805D01*
X44775Y28901D01*
Y28999D01*
X44749Y29095D01*
X44700Y29180D01*
X44630Y29250D01*
X44545Y29299D01*
X44449Y29325D01*
X44351D01*
X44255Y29299D01*
X44170Y29250D01*
X44100Y29180D01*
X44051Y29095D01*
X44025Y28999D01*
Y28901D01*
X44051Y28805D01*
X44100Y28720D01*
X44170Y28650D01*
X44200Y28633D01*
X44186Y28583D01*
X41280D01*
X41221Y28571D01*
X41172Y28538D01*
X40792Y28158D01*
X40759Y28109D01*
X40747Y28050D01*
Y23247D01*
X40613D01*
Y22683D01*
X39776D01*
X39769Y22694D01*
X39758Y22733D01*
X39801Y22776D01*
X39839Y22841D01*
X39858Y22913D01*
Y22925D01*
X39292D01*
Y22913D01*
X39311Y22841D01*
X39348Y22776D01*
X39392Y22733D01*
X39381Y22694D01*
X39374Y22683D01*
X33983D01*
X33777Y22889D01*
X33783Y22913D01*
Y22987D01*
X33764Y23059D01*
X33727Y23124D01*
X33674Y23177D01*
X33609Y23214D01*
X33537Y23233D01*
X33463D01*
X33391Y23214D01*
X33326Y23177D01*
X33273Y23124D01*
X33236Y23059D01*
X33217Y22987D01*
Y22913D01*
X33236Y22841D01*
X33273Y22776D01*
X33326Y22723D01*
X33391Y22686D01*
X33463Y22667D01*
X33537D01*
X33561Y22673D01*
X33812Y22422D01*
X33861Y22389D01*
X33920Y22377D01*
X40900D01*
X40959Y22389D01*
X41008Y22422D01*
X41041Y22471D01*
X41053Y22530D01*
Y22553D01*
X41188D01*
Y23247D01*
X41053D01*
Y27987D01*
X41343Y28277D01*
X44126D01*
X44147Y28227D01*
X44100Y28180D01*
X44051Y28095D01*
X44025Y27999D01*
Y27901D01*
X44051Y27805D01*
X44100Y27720D01*
X44170Y27650D01*
X44255Y27601D01*
X44351Y27575D01*
X44449D01*
X44535Y27598D01*
X44802Y27332D01*
X44851Y27299D01*
X44910Y27287D01*
X45025D01*
Y26575D01*
X45247D01*
Y24563D01*
X44987Y24303D01*
X44701D01*
Y24497D01*
X44126D01*
Y23803D01*
X44261D01*
Y22740D01*
X44272Y22681D01*
X44306Y22632D01*
X44813Y22125D01*
Y21435D01*
X44767Y21415D01*
X44414Y21768D01*
X44364Y21801D01*
X44306Y21813D01*
X40285D01*
X40226Y21801D01*
X40177Y21768D01*
X39635Y21227D01*
X39612Y21233D01*
X39538D01*
X39466Y21214D01*
X39401Y21177D01*
X39348Y21124D01*
X39311Y21059D01*
X39292Y20987D01*
Y20913D01*
X39311Y20841D01*
X39348Y20776D01*
X39401Y20723D01*
X39466Y20686D01*
X39538Y20667D01*
X39612D01*
X39684Y20686D01*
X39720Y20707D01*
X39751Y20667D01*
X39467Y20383D01*
X39434Y20333D01*
X39422Y20275D01*
Y20189D01*
X39401Y20177D01*
X39348Y20124D01*
X39311Y20059D01*
X39292Y19987D01*
Y19913D01*
X39311Y19841D01*
X39348Y19776D01*
X39401Y19723D01*
X39466Y19686D01*
X39538Y19667D01*
X39612D01*
X39684Y19686D01*
X39749Y19723D01*
X39801Y19776D01*
X39839Y19841D01*
X39858Y19913D01*
Y19987D01*
X39839Y20059D01*
X39801Y20124D01*
X39749Y20177D01*
X39749Y20232D01*
X40566Y21050D01*
X40613Y21031D01*
Y20453D01*
X40747D01*
Y20193D01*
X40157Y19603D01*
X39500D01*
X39441Y19591D01*
X39392Y19558D01*
X39082Y19248D01*
X39049Y19199D01*
X39037Y19140D01*
Y18750D01*
X39049Y18691D01*
X39082Y18642D01*
X39352Y18372D01*
X39401Y18339D01*
X39460Y18327D01*
X40570D01*
X40629Y18339D01*
X40678Y18372D01*
X40773Y18467D01*
X40805Y18453D01*
Y18453D01*
X41555D01*
Y18927D01*
X42057D01*
X42392Y18592D01*
X42441Y18559D01*
X42500Y18547D01*
X42675D01*
Y18453D01*
X43425D01*
Y18947D01*
X42675D01*
Y18853D01*
X42563D01*
X42228Y19188D01*
X42179Y19221D01*
X42120Y19233D01*
X41602D01*
X41555Y19241D01*
Y19334D01*
X42090D01*
X42149Y19346D01*
X42198Y19379D01*
X43246Y20427D01*
X44500D01*
X44559Y20439D01*
X44608Y20472D01*
X44767Y20630D01*
X44813Y20611D01*
Y20398D01*
X44055Y19640D01*
X43425D01*
Y19734D01*
X42675D01*
Y19241D01*
X43425D01*
Y19334D01*
X44118D01*
X44177Y19346D01*
X44226Y19379D01*
X45074Y20227D01*
X45107Y20276D01*
X45119Y20335D01*
Y22188D01*
X45107Y22246D01*
X45074Y22296D01*
X44567Y22803D01*
Y23803D01*
X44701D01*
Y23997D01*
X45050D01*
X45109Y24009D01*
X45158Y24042D01*
X45508Y24392D01*
X45541Y24441D01*
X45553Y24500D01*
Y26575D01*
X45775D01*
Y26797D01*
X45900D01*
X45959Y26809D01*
X46008Y26842D01*
X46150Y26983D01*
X46253D01*
Y26849D01*
X46447D01*
Y26558D01*
X46459Y26499D01*
X46492Y26450D01*
X46971Y25971D01*
X46964Y25946D01*
Y25870D01*
X46983Y25797D01*
X47021Y25732D01*
X47074Y25679D01*
X47140Y25641D01*
X47212Y25622D01*
X47288D01*
X47360Y25641D01*
X47426Y25679D01*
X47479Y25732D01*
X47517Y25797D01*
X47536Y25870D01*
Y25946D01*
X47517Y26018D01*
X47479Y26084D01*
X47426Y26137D01*
X47360Y26175D01*
X47288Y26194D01*
X47212D01*
X47187Y26187D01*
X46753Y26621D01*
Y26849D01*
X46947D01*
Y27424D01*
X46253D01*
Y27289D01*
X46086D01*
X46028Y27278D01*
X45978Y27244D01*
X45837Y27103D01*
X45775D01*
Y27296D01*
X45789Y27299D01*
X45838Y27332D01*
X46207Y27701D01*
X46253Y27681D01*
Y27676D01*
X46947D01*
Y28251D01*
X46986Y28277D01*
X48227D01*
X49020Y27484D01*
Y25897D01*
X48885D01*
Y25203D01*
X49460D01*
Y25897D01*
X49325D01*
Y27547D01*
X49314Y27606D01*
X49281Y27656D01*
X48398Y28538D01*
X48349Y28571D01*
X48290Y28583D01*
X45614D01*
X45600Y28633D01*
X45630Y28650D01*
X45700Y28720D01*
X45749Y28805D01*
X45775Y28901D01*
Y28999D01*
X45749Y29095D01*
X45700Y29180D01*
X45630Y29250D01*
X45545Y29299D01*
X45449Y29325D01*
D02*
G37*
G36*
X27947Y28052D02*
X27625D01*
Y27790D01*
X27947D01*
Y28052D01*
D02*
G37*
G36*
X44449Y27325D02*
X44351D01*
X44255Y27299D01*
X44170Y27250D01*
X44100Y27180D01*
X44051Y27095D01*
X44025Y26999D01*
Y26901D01*
X44048Y26815D01*
X43478Y26244D01*
X43445Y26195D01*
X43433Y26136D01*
Y24497D01*
X43299D01*
Y23803D01*
X43874D01*
Y24497D01*
X43739D01*
Y26073D01*
X44265Y26598D01*
X44351Y26575D01*
X44449D01*
X44545Y26601D01*
X44630Y26650D01*
X44700Y26720D01*
X44749Y26805D01*
X44775Y26901D01*
Y26999D01*
X44749Y27095D01*
X44700Y27180D01*
X44630Y27250D01*
X44545Y27299D01*
X44449Y27325D01*
D02*
G37*
G36*
X15107Y25782D02*
X14993D01*
X14883Y25752D01*
X14784Y25695D01*
X14703Y25614D01*
X14646Y25515D01*
X14616Y25405D01*
Y25291D01*
X14646Y25181D01*
X14703Y25082D01*
X14784Y25001D01*
X14883Y24944D01*
X14993Y24914D01*
X15107D01*
X15217Y24944D01*
X15316Y25001D01*
X15397Y25082D01*
X15454Y25181D01*
X15484Y25291D01*
Y25405D01*
X15454Y25515D01*
X15397Y25614D01*
X15316Y25695D01*
X15217Y25752D01*
X15107Y25782D01*
D02*
G37*
G36*
X33537Y25233D02*
X33463D01*
X33391Y25214D01*
X33326Y25177D01*
X33273Y25124D01*
X33236Y25059D01*
X33217Y24987D01*
Y24913D01*
X33236Y24841D01*
X33273Y24776D01*
X33326Y24723D01*
X33391Y24686D01*
X33463Y24667D01*
X33537D01*
X33609Y24686D01*
X33674Y24723D01*
X33727Y24776D01*
X33764Y24841D01*
X33783Y24913D01*
Y24987D01*
X33764Y25059D01*
X33727Y25124D01*
X33674Y25177D01*
X33609Y25214D01*
X33537Y25233D01*
D02*
G37*
G36*
X32249Y25325D02*
X32151D01*
X32055Y25299D01*
X31970Y25250D01*
X31900Y25180D01*
X31851Y25095D01*
X31825Y24999D01*
Y24901D01*
X31851Y24805D01*
X31900Y24720D01*
X31970Y24650D01*
X32055Y24601D01*
X32151Y24575D01*
X32249D01*
X32345Y24601D01*
X32430Y24650D01*
X32500Y24720D01*
X32549Y24805D01*
X32575Y24901D01*
Y24999D01*
X32549Y25095D01*
X32500Y25180D01*
X32430Y25250D01*
X32345Y25299D01*
X32249Y25325D01*
D02*
G37*
G36*
X47288Y24226D02*
X47275D01*
Y23964D01*
X47536D01*
Y23977D01*
X47517Y24050D01*
X47479Y24115D01*
X47426Y24168D01*
X47360Y24206D01*
X47288Y24226D01*
D02*
G37*
G36*
X47225D02*
X47212D01*
X47140Y24206D01*
X47074Y24168D01*
X47021Y24115D01*
X46983Y24050D01*
X46964Y23977D01*
Y23964D01*
X47225D01*
Y24226D01*
D02*
G37*
G36*
X50287Y25897D02*
X49713D01*
Y25203D01*
X49744D01*
X49763Y25157D01*
X49303Y24697D01*
X48885D01*
Y24003D01*
X49020D01*
Y23436D01*
X48607Y23023D01*
X48587Y23028D01*
X48513D01*
X48443Y23009D01*
X48379Y22973D01*
X48327Y22921D01*
X48291Y22857D01*
X48272Y22787D01*
Y22713D01*
X48291Y22643D01*
X48327Y22579D01*
X48379Y22527D01*
X48443Y22491D01*
X48513Y22472D01*
X48587D01*
X48657Y22491D01*
X48721Y22527D01*
X48773Y22579D01*
X48809Y22643D01*
X48828Y22713D01*
Y22787D01*
X48823Y22807D01*
X49281Y23264D01*
X49314Y23314D01*
X49325Y23373D01*
Y24003D01*
X49460D01*
Y24421D01*
X49666Y24627D01*
X49713Y24608D01*
Y24003D01*
X49847D01*
Y23263D01*
X49612Y23028D01*
X49272D01*
Y22472D01*
X49828D01*
Y22812D01*
X50108Y23092D01*
X50141Y23141D01*
X50153Y23200D01*
Y24003D01*
X50287D01*
Y24697D01*
X49801D01*
X49782Y24743D01*
X49986Y24947D01*
X51403D01*
Y24813D01*
X52047D01*
Y24560D01*
X51403D01*
Y23985D01*
X52097D01*
Y24120D01*
X52307D01*
X52421Y24006D01*
X52470Y23972D01*
X52529Y23961D01*
X52803D01*
Y23826D01*
X53497D01*
Y24401D01*
X52803D01*
Y24267D01*
X52592D01*
X52478Y24381D01*
X52429Y24414D01*
X52370Y24425D01*
X52353D01*
Y25550D01*
X52341Y25609D01*
X52308Y25658D01*
X52259Y25691D01*
X52200Y25703D01*
X50287D01*
Y25897D01*
D02*
G37*
G36*
X38000Y33974D02*
X37400D01*
Y33075D01*
X37547D01*
Y25825D01*
X37559Y25766D01*
X37592Y25717D01*
X39298Y24011D01*
X39292Y23987D01*
Y23913D01*
X39311Y23841D01*
X39348Y23776D01*
X39401Y23723D01*
X39466Y23686D01*
X39538Y23667D01*
X39612D01*
X39684Y23686D01*
X39749Y23723D01*
X39801Y23776D01*
X39839Y23841D01*
X39858Y23913D01*
Y23987D01*
X39839Y24059D01*
X39801Y24124D01*
X39749Y24177D01*
X39684Y24214D01*
X39612Y24233D01*
X39538D01*
X39514Y24227D01*
X37853Y25888D01*
Y33075D01*
X38000D01*
Y33974D01*
D02*
G37*
G36*
X33537Y24233D02*
X33463D01*
X33391Y24214D01*
X33326Y24177D01*
X33273Y24124D01*
X33236Y24059D01*
X33217Y23987D01*
Y23913D01*
X33236Y23841D01*
X33273Y23776D01*
X33326Y23723D01*
X33391Y23686D01*
X33463Y23667D01*
X33537D01*
X33609Y23686D01*
X33674Y23723D01*
X33727Y23776D01*
X33764Y23841D01*
X33783Y23913D01*
Y23987D01*
X33764Y24059D01*
X33727Y24124D01*
X33674Y24177D01*
X33609Y24214D01*
X33537Y24233D01*
D02*
G37*
G36*
X32575Y24325D02*
X31825D01*
Y23575D01*
X32575D01*
Y24325D01*
D02*
G37*
G36*
X53497Y23574D02*
X52803D01*
Y23439D01*
X52466D01*
X52408Y23428D01*
X52371Y23403D01*
X52097D01*
Y23537D01*
X51403D01*
Y23403D01*
X51400D01*
X51341Y23391D01*
X51292Y23358D01*
X50187Y22253D01*
X48263D01*
X47823Y22693D01*
X47828Y22713D01*
Y22787D01*
X47809Y22857D01*
X47773Y22921D01*
X47721Y22973D01*
X47657Y23009D01*
X47587Y23028D01*
X47513D01*
X47443Y23009D01*
X47379Y22973D01*
X47327Y22921D01*
X47291Y22857D01*
X47272Y22787D01*
Y22713D01*
X47291Y22643D01*
X47327Y22579D01*
X47379Y22527D01*
X47443Y22491D01*
X47513Y22472D01*
X47587D01*
X47607Y22477D01*
X48092Y21992D01*
X48141Y21959D01*
X48200Y21947D01*
X50250D01*
X50309Y21959D01*
X50358Y21992D01*
X51357Y22991D01*
X51403Y22971D01*
Y22963D01*
X52097D01*
Y23097D01*
X52430D01*
X52489Y23109D01*
X52525Y23133D01*
X52803D01*
Y22999D01*
X53497D01*
Y23574D01*
D02*
G37*
G36*
X47536Y23914D02*
X47250D01*
X46964D01*
Y23902D01*
X46983Y23829D01*
X47021Y23764D01*
X47074Y23710D01*
X47097Y23697D01*
Y23513D01*
X46607Y23023D01*
X46587Y23028D01*
X46575D01*
Y22775D01*
X46828D01*
Y22787D01*
X46823Y22807D01*
X47358Y23342D01*
X47391Y23391D01*
X47403Y23450D01*
Y23697D01*
X47426Y23710D01*
X47479Y23764D01*
X47517Y23829D01*
X47536Y23902D01*
Y23914D01*
D02*
G37*
G36*
X18142Y26303D02*
X18064Y26292D01*
X17991Y26262D01*
X17928Y26214D01*
X17880Y26151D01*
X17850Y26078D01*
X17840Y26000D01*
Y23674D01*
X17850Y23595D01*
X17880Y23522D01*
X17928Y23460D01*
X18106Y23282D01*
X18126Y23209D01*
X18174Y23126D01*
X18242Y23058D01*
X18325Y23010D01*
X18418Y22985D01*
X18514D01*
X18607Y23010D01*
X18690Y23058D01*
X18758Y23126D01*
X18806Y23209D01*
X18831Y23302D01*
Y23398D01*
X18806Y23491D01*
X18758Y23574D01*
X18690Y23642D01*
X18607Y23690D01*
X18534Y23709D01*
X18445Y23799D01*
Y26000D01*
X18434Y26078D01*
X18404Y26151D01*
X18356Y26214D01*
X18293Y26262D01*
X18220Y26292D01*
X18142Y26303D01*
D02*
G37*
G36*
X39612Y23233D02*
X39600D01*
Y22975D01*
X39858D01*
Y22987D01*
X39839Y23059D01*
X39801Y23124D01*
X39749Y23177D01*
X39684Y23214D01*
X39612Y23233D01*
D02*
G37*
G36*
X39550D02*
X39538D01*
X39466Y23214D01*
X39401Y23177D01*
X39348Y23124D01*
X39311Y23059D01*
X39292Y22987D01*
Y22975D01*
X39550D01*
Y23233D01*
D02*
G37*
G36*
X46525Y23028D02*
X46513D01*
X46443Y23009D01*
X46379Y22973D01*
X46327Y22921D01*
X46291Y22857D01*
X46272Y22787D01*
Y22775D01*
X46525D01*
Y23028D01*
D02*
G37*
G36*
X46828Y22725D02*
X46575D01*
Y22472D01*
X46587D01*
X46657Y22491D01*
X46721Y22527D01*
X46773Y22579D01*
X46809Y22643D01*
X46828Y22713D01*
Y22725D01*
D02*
G37*
G36*
X42015Y23247D02*
X41440D01*
Y22553D01*
X41575D01*
Y22200D01*
X41559Y22163D01*
Y22097D01*
X41585Y22035D01*
X41632Y21987D01*
X41694Y21962D01*
X41761D01*
X41823Y21987D01*
X41870Y22035D01*
X41896Y22097D01*
Y22163D01*
X41880Y22200D01*
Y22553D01*
X42015D01*
Y23247D01*
D02*
G37*
G36*
X39612Y22233D02*
X39538D01*
X39466Y22214D01*
X39401Y22177D01*
X39348Y22124D01*
X39311Y22059D01*
X39292Y21987D01*
Y21913D01*
X39311Y21841D01*
X39348Y21776D01*
X39401Y21723D01*
X39466Y21686D01*
X39538Y21667D01*
X39612D01*
X39684Y21686D01*
X39749Y21723D01*
X39801Y21776D01*
X39839Y21841D01*
X39858Y21913D01*
Y21987D01*
X39839Y22059D01*
X39801Y22124D01*
X39749Y22177D01*
X39684Y22214D01*
X39612Y22233D01*
D02*
G37*
G36*
X33537D02*
X33463D01*
X33391Y22214D01*
X33326Y22177D01*
X33273Y22124D01*
X33236Y22059D01*
X33217Y21987D01*
Y21913D01*
X33236Y21841D01*
X33273Y21776D01*
X33326Y21723D01*
X33391Y21686D01*
X33463Y21667D01*
X33537D01*
X33609Y21686D01*
X33674Y21723D01*
X33727Y21776D01*
X33764Y21841D01*
X33783Y21913D01*
Y21987D01*
X33764Y22059D01*
X33727Y22124D01*
X33674Y22177D01*
X33609Y22214D01*
X33537Y22233D01*
D02*
G37*
G36*
X23973Y21111D02*
X23838D01*
X23708Y21076D01*
X23592Y21009D01*
X23497Y20914D01*
X23430Y20797D01*
X23395Y20667D01*
Y20533D01*
X23430Y20403D01*
X23497Y20286D01*
X23592Y20191D01*
X23708Y20124D01*
X23838Y20089D01*
X23973D01*
X24103Y20124D01*
X24219Y20191D01*
X24314Y20286D01*
X24381Y20403D01*
X24416Y20533D01*
Y20667D01*
X24381Y20797D01*
X24314Y20914D01*
X24219Y21009D01*
X24103Y21076D01*
X23973Y21111D01*
D02*
G37*
G36*
X33537Y20233D02*
X33463D01*
X33391Y20214D01*
X33326Y20177D01*
X33273Y20124D01*
X33236Y20059D01*
X33217Y19987D01*
Y19913D01*
X33236Y19841D01*
X33273Y19776D01*
X33326Y19723D01*
X33391Y19686D01*
X33463Y19667D01*
X33537D01*
X33609Y19686D01*
X33674Y19723D01*
X33727Y19776D01*
X33764Y19841D01*
X33783Y19913D01*
Y19987D01*
X33764Y20059D01*
X33727Y20124D01*
X33674Y20177D01*
X33609Y20214D01*
X33537Y20233D01*
D02*
G37*
G36*
X32725Y20325D02*
X31975D01*
Y19575D01*
X32725D01*
Y20325D01*
D02*
G37*
G36*
X21020Y21111D02*
X20886D01*
X20756Y21076D01*
X20639Y21009D01*
X20544Y20914D01*
X20477Y20797D01*
X20442Y20667D01*
Y20533D01*
X20477Y20403D01*
X20544Y20286D01*
X20639Y20191D01*
X20756Y20124D01*
X20886Y20089D01*
X21020D01*
X21032Y20093D01*
X21257Y19867D01*
Y19492D01*
X21268Y19414D01*
X21298Y19341D01*
X21346Y19278D01*
X21397Y19227D01*
Y18784D01*
X21347Y18772D01*
X21261Y18859D01*
X21144Y18926D01*
X21014Y18961D01*
X20880D01*
X20750Y18926D01*
X20634Y18859D01*
X20539Y18764D01*
X20471Y18647D01*
X20437Y18517D01*
Y18383D01*
X20440Y18371D01*
X19744Y17675D01*
X19696Y17612D01*
X19666Y17539D01*
X19655Y17461D01*
Y16275D01*
X19603Y16222D01*
X19544Y16121D01*
X19514Y16008D01*
Y15892D01*
X19544Y15779D01*
X19603Y15678D01*
X19685Y15595D01*
X19787Y15537D01*
X19899Y15506D01*
X20016D01*
X20129Y15537D01*
X20230Y15595D01*
X20313Y15678D01*
X20371Y15779D01*
X20402Y15892D01*
Y16008D01*
X20371Y16121D01*
X20313Y16222D01*
X20260Y16275D01*
Y17335D01*
X20868Y17943D01*
X20880Y17939D01*
X21014D01*
X21144Y17974D01*
X21261Y18041D01*
X21355Y18136D01*
X21367Y18136D01*
X21405Y18125D01*
Y18033D01*
X20836Y17464D01*
X20788Y17401D01*
X20758Y17328D01*
X20747Y17250D01*
Y13905D01*
X20758Y13827D01*
X20788Y13754D01*
X20836Y13691D01*
X21514Y13013D01*
Y12939D01*
X21544Y12826D01*
X21603Y12725D01*
X21685Y12642D01*
X21787Y12584D01*
X21899Y12554D01*
X22016D01*
X22129Y12584D01*
X22230Y12642D01*
X22313Y12725D01*
X22371Y12826D01*
X22402Y12939D01*
Y13056D01*
X22371Y13168D01*
X22313Y13270D01*
X22230Y13352D01*
X22129Y13411D01*
X22016Y13441D01*
X21942D01*
X21353Y14030D01*
Y17125D01*
X21922Y17694D01*
X21970Y17757D01*
X22000Y17830D01*
X22010Y17908D01*
X22010Y17908D01*
Y18631D01*
X22003Y18690D01*
Y19352D01*
X21992Y19430D01*
X21962Y19503D01*
X21914Y19566D01*
X21863Y19617D01*
Y19993D01*
X21852Y20071D01*
X21822Y20144D01*
X21774Y20207D01*
X21460Y20521D01*
X21463Y20533D01*
Y20667D01*
X21429Y20797D01*
X21361Y20914D01*
X21266Y21009D01*
X21150Y21076D01*
X21020Y21111D01*
D02*
G37*
G36*
X33537Y19233D02*
X33463D01*
X33391Y19214D01*
X33326Y19177D01*
X33273Y19124D01*
X33236Y19059D01*
X33217Y18987D01*
Y18913D01*
X33236Y18841D01*
X33273Y18776D01*
X33326Y18723D01*
X33391Y18686D01*
X33463Y18667D01*
X33537D01*
X33609Y18686D01*
X33674Y18723D01*
X33727Y18776D01*
X33764Y18841D01*
X33783Y18913D01*
Y18987D01*
X33764Y19059D01*
X33727Y19124D01*
X33674Y19177D01*
X33609Y19214D01*
X33537Y19233D01*
D02*
G37*
G36*
X32399Y19325D02*
X32301D01*
X32205Y19299D01*
X32120Y19250D01*
X32050Y19180D01*
X32001Y19095D01*
X31975Y18999D01*
Y18901D01*
X32001Y18805D01*
X32050Y18720D01*
X32120Y18650D01*
X32205Y18601D01*
X32301Y18575D01*
X32399D01*
X32495Y18601D01*
X32580Y18650D01*
X32650Y18720D01*
X32699Y18805D01*
X32725Y18901D01*
Y18999D01*
X32699Y19095D01*
X32650Y19180D01*
X32580Y19250D01*
X32495Y19299D01*
X32399Y19325D01*
D02*
G37*
G36*
X23967Y18961D02*
X23833D01*
X23703Y18926D01*
X23586Y18859D01*
X23491Y18764D01*
X23424Y18647D01*
X23389Y18517D01*
Y18383D01*
X23424Y18253D01*
X23491Y18136D01*
X23586Y18041D01*
X23703Y17974D01*
X23833Y17939D01*
X23967D01*
X24097Y17974D01*
X24214Y18041D01*
X24309Y18136D01*
X24376Y18253D01*
X24411Y18383D01*
Y18517D01*
X24376Y18647D01*
X24309Y18764D01*
X24214Y18859D01*
X24097Y18926D01*
X23967Y18961D01*
D02*
G37*
G36*
X43025Y18159D02*
X42675D01*
Y17938D01*
X43025D01*
Y18159D01*
D02*
G37*
G36*
X33537Y18233D02*
X33463D01*
X33391Y18214D01*
X33326Y18177D01*
X33273Y18124D01*
X33236Y18059D01*
X33217Y17987D01*
Y17913D01*
X33236Y17841D01*
X33273Y17776D01*
X33326Y17723D01*
X33391Y17686D01*
X33463Y17667D01*
X33537D01*
X33609Y17686D01*
X33674Y17723D01*
X33727Y17776D01*
X33764Y17841D01*
X33783Y17913D01*
Y17987D01*
X33764Y18059D01*
X33727Y18124D01*
X33674Y18177D01*
X33609Y18214D01*
X33537Y18233D01*
D02*
G37*
G36*
X43025Y17888D02*
X42675D01*
Y17666D01*
X43025D01*
Y17888D01*
D02*
G37*
G36*
X39612Y18233D02*
X39538D01*
X39466Y18214D01*
X39401Y18177D01*
X39348Y18124D01*
X39311Y18059D01*
X39292Y17987D01*
Y17913D01*
X39311Y17841D01*
X39348Y17776D01*
X39401Y17723D01*
X39466Y17686D01*
X39538Y17667D01*
X39612D01*
X39684Y17686D01*
X39749Y17723D01*
X39801Y17776D01*
X39813Y17797D01*
X40290D01*
X40329Y17771D01*
X40387Y17760D01*
X40805D01*
Y17666D01*
X41555D01*
Y18159D01*
X40805D01*
Y18066D01*
X40447D01*
X40409Y18091D01*
X40350Y18103D01*
X39813D01*
X39801Y18124D01*
X39749Y18177D01*
X39684Y18214D01*
X39612Y18233D01*
D02*
G37*
G36*
X32399Y18325D02*
X32301D01*
X32205Y18299D01*
X32120Y18250D01*
X32050Y18180D01*
X32001Y18095D01*
X31975Y17999D01*
Y17901D01*
X32001Y17805D01*
X32050Y17720D01*
X32120Y17650D01*
X32205Y17601D01*
X32301Y17575D01*
X32399D01*
X32495Y17601D01*
X32580Y17650D01*
X32650Y17720D01*
X32699Y17805D01*
X32725Y17901D01*
Y17999D01*
X32699Y18095D01*
X32650Y18180D01*
X32580Y18250D01*
X32495Y18299D01*
X32399Y18325D01*
D02*
G37*
G36*
X39612Y17233D02*
X39538D01*
X39466Y17214D01*
X39401Y17177D01*
X39348Y17124D01*
X39311Y17059D01*
X39292Y16987D01*
Y16913D01*
X39311Y16841D01*
X39348Y16776D01*
X39401Y16723D01*
X39466Y16686D01*
X39538Y16667D01*
X39612D01*
X39684Y16686D01*
X39749Y16723D01*
X39801Y16776D01*
X39839Y16841D01*
X39858Y16913D01*
Y16987D01*
X39839Y17059D01*
X39801Y17124D01*
X39749Y17177D01*
X39684Y17214D01*
X39612Y17233D01*
D02*
G37*
G36*
X33537D02*
X33463D01*
X33391Y17214D01*
X33326Y17177D01*
X33273Y17124D01*
X33236Y17059D01*
X33217Y16987D01*
Y16913D01*
X33236Y16841D01*
X33273Y16776D01*
X33326Y16723D01*
X33391Y16686D01*
X33463Y16667D01*
X33537D01*
X33609Y16686D01*
X33674Y16723D01*
X33727Y16776D01*
X33764Y16841D01*
X33783Y16913D01*
Y16987D01*
X33764Y17059D01*
X33727Y17124D01*
X33674Y17177D01*
X33609Y17214D01*
X33537Y17233D01*
D02*
G37*
G36*
X32399Y17325D02*
X32301D01*
X32205Y17299D01*
X32120Y17250D01*
X32050Y17180D01*
X32001Y17095D01*
X31975Y16999D01*
Y16901D01*
X32001Y16805D01*
X32050Y16720D01*
X32120Y16650D01*
X32205Y16601D01*
X32301Y16575D01*
X32399D01*
X32495Y16601D01*
X32580Y16650D01*
X32650Y16720D01*
X32699Y16805D01*
X32725Y16901D01*
Y16999D01*
X32699Y17095D01*
X32650Y17180D01*
X32580Y17250D01*
X32495Y17299D01*
X32399Y17325D01*
D02*
G37*
G36*
X46887Y16475D02*
X46625D01*
Y16153D01*
X46887D01*
Y16475D01*
D02*
G37*
G36*
X46575D02*
X46312D01*
Y16153D01*
X46575D01*
Y16475D01*
D02*
G37*
G36*
X41149Y16725D02*
X41051D01*
X40955Y16699D01*
X40870Y16650D01*
X40800Y16580D01*
X40751Y16495D01*
X40725Y16399D01*
Y16301D01*
X40751Y16205D01*
X40800Y16120D01*
X40870Y16050D01*
X40955Y16001D01*
X41051Y15975D01*
X41149D01*
X41245Y16001D01*
X41330Y16050D01*
X41400Y16120D01*
X41449Y16205D01*
X41475Y16301D01*
Y16399D01*
X41449Y16495D01*
X41400Y16580D01*
X41330Y16650D01*
X41245Y16699D01*
X41149Y16725D01*
D02*
G37*
G36*
X15107Y16834D02*
X14993D01*
X14883Y16804D01*
X14784Y16747D01*
X14703Y16666D01*
X14646Y16567D01*
X14616Y16457D01*
Y16343D01*
X14646Y16233D01*
X14703Y16134D01*
X14784Y16053D01*
X14883Y15996D01*
X14993Y15966D01*
X15107D01*
X15217Y15996D01*
X15316Y16053D01*
X15397Y16134D01*
X15454Y16233D01*
X15484Y16343D01*
Y16457D01*
X15454Y16567D01*
X15397Y16666D01*
X15316Y16747D01*
X15217Y16804D01*
X15107Y16834D01*
D02*
G37*
G36*
X51825Y15998D02*
X51503D01*
Y15735D01*
X51825D01*
Y15998D01*
D02*
G37*
G36*
X39612Y16233D02*
X39538D01*
X39466Y16214D01*
X39401Y16177D01*
X39348Y16124D01*
X39311Y16059D01*
X39292Y15987D01*
Y15913D01*
X39311Y15841D01*
X39348Y15776D01*
X39401Y15723D01*
X39466Y15686D01*
X39538Y15667D01*
X39612D01*
X39684Y15686D01*
X39749Y15723D01*
X39801Y15776D01*
X39839Y15841D01*
X39858Y15913D01*
Y15987D01*
X39839Y16059D01*
X39801Y16124D01*
X39749Y16177D01*
X39684Y16214D01*
X39612Y16233D01*
D02*
G37*
G36*
X33537D02*
X33463D01*
X33391Y16214D01*
X33326Y16177D01*
X33273Y16124D01*
X33236Y16059D01*
X33217Y15987D01*
Y15913D01*
X33236Y15841D01*
X33273Y15776D01*
X33326Y15723D01*
X33391Y15686D01*
X33463Y15667D01*
X33537D01*
X33609Y15686D01*
X33674Y15723D01*
X33727Y15776D01*
X33764Y15841D01*
X33783Y15913D01*
Y15987D01*
X33764Y16059D01*
X33727Y16124D01*
X33674Y16177D01*
X33609Y16214D01*
X33537Y16233D01*
D02*
G37*
G36*
X32399Y16325D02*
X32301D01*
X32205Y16299D01*
X32120Y16250D01*
X32050Y16180D01*
X32001Y16095D01*
X31975Y15999D01*
Y15901D01*
X32001Y15805D01*
X32050Y15720D01*
X32120Y15650D01*
X32205Y15601D01*
X32301Y15575D01*
X32399D01*
X32495Y15601D01*
X32580Y15650D01*
X32650Y15720D01*
X32699Y15805D01*
X32725Y15901D01*
Y15999D01*
X32699Y16095D01*
X32650Y16180D01*
X32580Y16250D01*
X32495Y16299D01*
X32399Y16325D01*
D02*
G37*
G36*
X22016Y16394D02*
X21899D01*
X21787Y16363D01*
X21685Y16305D01*
X21603Y16222D01*
X21544Y16121D01*
X21514Y16008D01*
Y15892D01*
X21544Y15779D01*
X21603Y15678D01*
X21685Y15595D01*
X21787Y15537D01*
X21899Y15506D01*
X22016D01*
X22129Y15537D01*
X22230Y15595D01*
X22313Y15678D01*
X22371Y15779D01*
X22402Y15892D01*
Y16008D01*
X22371Y16121D01*
X22313Y16222D01*
X22230Y16305D01*
X22129Y16363D01*
X22016Y16394D01*
D02*
G37*
G36*
X18016D02*
X17899D01*
X17787Y16363D01*
X17685Y16305D01*
X17603Y16222D01*
X17544Y16121D01*
X17514Y16008D01*
Y15892D01*
X17544Y15779D01*
X17603Y15678D01*
X17685Y15595D01*
X17787Y15537D01*
X17899Y15506D01*
X18016D01*
X18129Y15537D01*
X18230Y15595D01*
X18313Y15678D01*
X18371Y15779D01*
X18402Y15892D01*
Y16008D01*
X18371Y16121D01*
X18313Y16222D01*
X18230Y16305D01*
X18129Y16363D01*
X18016Y16394D01*
D02*
G37*
G36*
X41149Y15725D02*
X41051D01*
X40955Y15699D01*
X40870Y15650D01*
X40800Y15580D01*
X40751Y15495D01*
X40725Y15399D01*
Y15301D01*
X40751Y15205D01*
X40800Y15120D01*
X40870Y15050D01*
X40955Y15001D01*
X41051Y14975D01*
X41149D01*
X41245Y15001D01*
X41330Y15050D01*
X41400Y15120D01*
X41449Y15205D01*
X41475Y15301D01*
Y15399D01*
X41449Y15495D01*
X41400Y15580D01*
X41330Y15650D01*
X41245Y15699D01*
X41149Y15725D01*
D02*
G37*
G36*
X39612Y15233D02*
X39538D01*
X39466Y15214D01*
X39401Y15177D01*
X39348Y15124D01*
X39311Y15059D01*
X39292Y14987D01*
Y14913D01*
X39311Y14841D01*
X39348Y14776D01*
X39401Y14723D01*
X39466Y14686D01*
X39538Y14667D01*
X39612D01*
X39684Y14686D01*
X39749Y14723D01*
X39801Y14776D01*
X39839Y14841D01*
X39858Y14913D01*
Y14987D01*
X39839Y15059D01*
X39801Y15124D01*
X39749Y15177D01*
X39684Y15214D01*
X39612Y15233D01*
D02*
G37*
G36*
X33537D02*
X33463D01*
X33391Y15214D01*
X33326Y15177D01*
X33273Y15124D01*
X33236Y15059D01*
X33217Y14987D01*
Y14913D01*
X33236Y14841D01*
X33273Y14776D01*
X33326Y14723D01*
X33391Y14686D01*
X33463Y14667D01*
X33537D01*
X33609Y14686D01*
X33674Y14723D01*
X33727Y14776D01*
X33764Y14841D01*
X33783Y14913D01*
Y14987D01*
X33764Y15059D01*
X33727Y15124D01*
X33674Y15177D01*
X33609Y15214D01*
X33537Y15233D01*
D02*
G37*
G36*
X30197Y15410D02*
X30103D01*
X30011Y15386D01*
X29929Y15338D01*
X29862Y15271D01*
X29815Y15189D01*
X29790Y15097D01*
Y15003D01*
X29815Y14911D01*
X29862Y14829D01*
X29929Y14762D01*
X30011Y14714D01*
X30103Y14690D01*
X30197D01*
X30273Y14710D01*
X30597Y14387D01*
Y14260D01*
X30560Y14246D01*
X30547Y14245D01*
X30492Y14300D01*
X30421Y14341D01*
X30341Y14362D01*
X30325D01*
Y14050D01*
Y13738D01*
X30341D01*
X30421Y13759D01*
X30492Y13800D01*
X30547Y13855D01*
X30560Y13854D01*
X30597Y13840D01*
Y13463D01*
X30396Y13262D01*
X29988D01*
Y12653D01*
X29932D01*
X29771Y12813D01*
Y13228D01*
X29810Y13250D01*
X29868Y13308D01*
X29910Y13379D01*
X29931Y13459D01*
Y13541D01*
X29910Y13621D01*
X29868Y13692D01*
X29810Y13750D01*
X29739Y13791D01*
X29660Y13812D01*
X29577D01*
X29498Y13791D01*
X29427Y13750D01*
X29369Y13692D01*
X29327Y13621D01*
X29306Y13541D01*
Y13459D01*
X29327Y13379D01*
X29369Y13308D01*
X29427Y13250D01*
X29466Y13228D01*
Y12750D01*
X29477Y12691D01*
X29510Y12642D01*
X29760Y12392D01*
X29810Y12359D01*
X29869Y12347D01*
X31575D01*
X31634Y12359D01*
X31683Y12392D01*
X31808Y12517D01*
X31841Y12566D01*
X31849Y12603D01*
X31988D01*
Y13297D01*
X31853D01*
Y13510D01*
X31841Y13569D01*
X31839Y13572D01*
Y13753D01*
X31974D01*
Y14447D01*
X31399D01*
Y13753D01*
X31533D01*
Y13524D01*
X31545Y13465D01*
X31547Y13462D01*
Y13297D01*
X31412D01*
Y12653D01*
X30612D01*
Y13046D01*
X30858Y13292D01*
X30891Y13341D01*
X30903Y13400D01*
Y14450D01*
X30891Y14509D01*
X30858Y14558D01*
X30490Y14927D01*
X30510Y15003D01*
Y15097D01*
X30485Y15189D01*
X30438Y15271D01*
X30371Y15338D01*
X30289Y15386D01*
X30197Y15410D01*
D02*
G37*
G36*
X32489Y14447D02*
X32226D01*
Y14125D01*
X32489D01*
Y14447D01*
D02*
G37*
G36*
X30275Y14362D02*
X30259D01*
X30179Y14341D01*
X30108Y14300D01*
X30050Y14242D01*
X30009Y14171D01*
X29988Y14091D01*
Y14075D01*
X30275D01*
Y14362D01*
D02*
G37*
G36*
X33537Y14233D02*
X33525D01*
Y13975D01*
X33783D01*
Y13987D01*
X33764Y14059D01*
X33727Y14124D01*
X33674Y14177D01*
X33609Y14214D01*
X33537Y14233D01*
D02*
G37*
G36*
X32489Y14075D02*
X32226D01*
Y13753D01*
X32489D01*
Y14075D01*
D02*
G37*
G36*
X46525Y22725D02*
X46272D01*
Y22713D01*
X46277Y22693D01*
X45678Y22094D01*
X45645Y22045D01*
X45633Y21986D01*
Y18947D01*
X45499D01*
Y18753D01*
X44757D01*
X44699Y18741D01*
X44649Y18708D01*
X44007Y18066D01*
X43425D01*
Y18159D01*
X43075D01*
Y17913D01*
Y17666D01*
X43081D01*
X43977Y16769D01*
Y13950D01*
X43125D01*
Y13803D01*
X42374D01*
X42209Y13968D01*
X42159Y14001D01*
X42101Y14013D01*
X41361D01*
X41343Y14063D01*
X41400Y14120D01*
X41449Y14205D01*
X41475Y14301D01*
Y14399D01*
X41449Y14495D01*
X41400Y14580D01*
X41330Y14650D01*
X41245Y14699D01*
X41149Y14725D01*
X41051D01*
X40955Y14699D01*
X40870Y14650D01*
X40800Y14580D01*
X40751Y14495D01*
X40725Y14399D01*
Y14301D01*
X40751Y14205D01*
X40800Y14120D01*
X40857Y14063D01*
X40839Y14013D01*
X40485D01*
X40426Y14001D01*
X40377Y13968D01*
X39635Y13227D01*
X39612Y13233D01*
X39538D01*
X39466Y13214D01*
X39401Y13177D01*
X39348Y13124D01*
X39311Y13059D01*
X39292Y12987D01*
Y12913D01*
X39311Y12841D01*
X39348Y12776D01*
X39401Y12723D01*
X39466Y12686D01*
X39538Y12667D01*
X39612D01*
X39684Y12686D01*
X39749Y12723D01*
X39801Y12776D01*
X39839Y12841D01*
X39858Y12913D01*
Y12987D01*
X39852Y13011D01*
X40548Y13707D01*
X40869D01*
X40882Y13657D01*
X40870Y13650D01*
X40800Y13580D01*
X40751Y13495D01*
X40725Y13399D01*
Y13375D01*
X41100D01*
Y13350D01*
X41125D01*
Y12975D01*
X41149D01*
X41245Y13001D01*
X41330Y13050D01*
X41400Y13120D01*
X41444Y13197D01*
X41587D01*
X41742Y13042D01*
X41791Y13009D01*
X41850Y12997D01*
X44000D01*
X44059Y13009D01*
X44108Y13042D01*
X44238Y13172D01*
X44271Y13221D01*
X44283Y13280D01*
Y16833D01*
X44271Y16891D01*
X44238Y16941D01*
X43469Y17710D01*
X43490Y17760D01*
X44064D01*
X44075Y17746D01*
X44087Y17712D01*
X44047Y17672D01*
X44006Y17600D01*
X43984Y17520D01*
Y17437D01*
X44006Y17356D01*
X44047Y17284D01*
X44106Y17226D01*
X44178Y17184D01*
X44258Y17163D01*
X44342D01*
X44422Y17184D01*
X44494Y17226D01*
X44553Y17284D01*
X44576Y17325D01*
X45437D01*
X45620Y17142D01*
Y16847D01*
X45485D01*
Y16153D01*
X46060D01*
Y16847D01*
X45925D01*
Y17206D01*
X45914Y17264D01*
X45881Y17314D01*
X45608Y17586D01*
X45559Y17620D01*
X45500Y17631D01*
X44576D01*
X44553Y17672D01*
X44494Y17731D01*
X44422Y17773D01*
X44342Y17794D01*
X44258D01*
X44231Y17787D01*
X44205Y17832D01*
X44821Y18447D01*
X45499D01*
Y18253D01*
X45633D01*
Y17750D01*
X45645Y17691D01*
X45678Y17642D01*
X45878Y17442D01*
X45928Y17409D01*
X45986Y17397D01*
X45987D01*
X46447Y16937D01*
Y16847D01*
X46312D01*
Y16525D01*
X46887D01*
Y16847D01*
X46937Y16847D01*
X47399D01*
X47449Y16847D01*
Y16153D01*
X47583D01*
Y14500D01*
X47595Y14441D01*
X47628Y14392D01*
X48228Y13792D01*
X48278Y13759D01*
X48336Y13747D01*
X54060D01*
X54119Y13759D01*
X54168Y13792D01*
X55648Y15272D01*
X55681Y15321D01*
X55693Y15380D01*
Y19250D01*
X55681Y19309D01*
X55648Y19358D01*
X53548Y21458D01*
X53499Y21491D01*
X53440Y21503D01*
X52147D01*
Y21637D01*
X51503D01*
Y22135D01*
X52097D01*
Y22710D01*
X51403D01*
Y22576D01*
X51350D01*
X51291Y22564D01*
X51242Y22531D01*
X51209Y22481D01*
X51197Y22423D01*
Y17986D01*
X51209Y17928D01*
X51242Y17878D01*
X51392Y17728D01*
X51441Y17695D01*
X51500Y17683D01*
X51503D01*
Y17549D01*
X51697D01*
Y17138D01*
X51503D01*
Y16562D01*
X51715D01*
X51733Y16534D01*
X51738Y16513D01*
X51709Y16469D01*
X51697Y16410D01*
Y16310D01*
X51503D01*
Y16048D01*
X51850D01*
Y16023D01*
X51875D01*
Y15735D01*
X52033D01*
X52053Y15689D01*
X51937Y15573D01*
X51000D01*
X50941Y15561D01*
X50892Y15528D01*
X50392Y15028D01*
X50359Y14979D01*
X50347Y14920D01*
Y14697D01*
X50212D01*
Y14053D01*
X49960D01*
Y14697D01*
X49826D01*
Y15102D01*
X50636Y15912D01*
X50669Y15961D01*
X50680Y16020D01*
Y16153D01*
X50815D01*
Y16631D01*
X51018Y16834D01*
X51051Y16884D01*
X51063Y16943D01*
Y19500D01*
X51051Y19559D01*
X51018Y19608D01*
X50408Y20218D01*
X50359Y20251D01*
X50300Y20263D01*
X46880D01*
X46821Y20251D01*
X46772Y20218D01*
X46727Y20173D01*
X46550D01*
X46491Y20161D01*
X46442Y20128D01*
X46409Y20079D01*
X46397Y20020D01*
Y19908D01*
X46379Y19898D01*
X46327Y19846D01*
X46291Y19783D01*
X46272Y19712D01*
Y19639D01*
X46291Y19568D01*
X46327Y19504D01*
X46379Y19453D01*
X46443Y19416D01*
X46513Y19397D01*
X46587D01*
X46657Y19416D01*
X46721Y19453D01*
X46773Y19504D01*
X46809Y19568D01*
X46828Y19639D01*
Y19712D01*
X46809Y19783D01*
X46789Y19817D01*
X46789Y19824D01*
X46815Y19872D01*
X46849Y19879D01*
X46898Y19912D01*
X46943Y19957D01*
X47382D01*
X47395Y19907D01*
X47379Y19898D01*
X47327Y19846D01*
X47291Y19783D01*
X47272Y19712D01*
Y19639D01*
X47291Y19568D01*
X47327Y19504D01*
X47379Y19453D01*
X47443Y19416D01*
X47513Y19397D01*
X47587D01*
X47607Y19402D01*
X48007Y19002D01*
Y18947D01*
X47435D01*
Y18753D01*
X47048D01*
X47029Y18799D01*
X47158Y18928D01*
X47191Y18978D01*
X47203Y19036D01*
Y19610D01*
X47218Y19647D01*
Y19713D01*
X47193Y19775D01*
X47145Y19823D01*
X47083Y19848D01*
X47017D01*
X46955Y19823D01*
X46907Y19775D01*
X46882Y19713D01*
Y19647D01*
X46897Y19610D01*
Y19100D01*
X46744Y18947D01*
X46326D01*
Y18253D01*
X46901D01*
Y18447D01*
X47435D01*
Y18253D01*
X48007D01*
Y17660D01*
X48019Y17601D01*
X48052Y17552D01*
X48502Y17102D01*
X48551Y17069D01*
X48610Y17057D01*
X49687D01*
X49851Y16893D01*
X49831Y16847D01*
X49725D01*
Y16500D01*
X49675D01*
Y16847D01*
X49412D01*
Y16653D01*
X48851D01*
Y16847D01*
X48589D01*
Y16500D01*
X48539D01*
Y16847D01*
X48433D01*
X48172Y17108D01*
X48122Y17141D01*
X48064Y17153D01*
X46725D01*
X46674Y17143D01*
X46158Y17658D01*
X46109Y17691D01*
X46050Y17703D01*
X46050D01*
X45939Y17813D01*
Y18253D01*
X46074D01*
Y18575D01*
X45786D01*
Y18625D01*
X46074D01*
Y18947D01*
X45939D01*
Y21923D01*
X46493Y22477D01*
X46513Y22472D01*
X46525D01*
Y22725D01*
D02*
G37*
G36*
X30275Y14025D02*
X29988D01*
Y14009D01*
X30009Y13929D01*
X30050Y13858D01*
X30108Y13800D01*
X30179Y13759D01*
X30259Y13738D01*
X30275D01*
Y14025D01*
D02*
G37*
G36*
X39612Y14233D02*
X39538D01*
X39466Y14214D01*
X39401Y14177D01*
X39348Y14124D01*
X39311Y14059D01*
X39292Y13987D01*
Y13913D01*
X39311Y13841D01*
X39348Y13776D01*
X39401Y13723D01*
X39466Y13686D01*
X39538Y13667D01*
X39612D01*
X39684Y13686D01*
X39749Y13723D01*
X39801Y13776D01*
X39839Y13841D01*
X39858Y13913D01*
Y13987D01*
X39839Y14059D01*
X39801Y14124D01*
X39749Y14177D01*
X39684Y14214D01*
X39612Y14233D01*
D02*
G37*
G36*
X33783Y13925D02*
X33525D01*
Y13667D01*
X33537D01*
X33609Y13686D01*
X33674Y13723D01*
X33727Y13776D01*
X33764Y13841D01*
X33783Y13913D01*
Y13925D01*
D02*
G37*
G36*
X32801Y14447D02*
X32539D01*
Y14100D01*
Y13753D01*
X32801D01*
Y13947D01*
X32867D01*
X32972Y13842D01*
X33021Y13809D01*
X33080Y13797D01*
X33261D01*
X33273Y13776D01*
X33326Y13723D01*
X33391Y13686D01*
X33463Y13667D01*
X33475D01*
Y13950D01*
Y14233D01*
X33463D01*
X33391Y14214D01*
X33326Y14177D01*
X33273Y14124D01*
X33261Y14103D01*
X33143D01*
X33038Y14208D01*
X32989Y14241D01*
X32930Y14253D01*
X32801D01*
Y14447D01*
D02*
G37*
G36*
X55057Y13436D02*
X55025D01*
Y13027D01*
X55434D01*
Y13059D01*
X55404Y13169D01*
X55347Y13268D01*
X55266Y13349D01*
X55167Y13406D01*
X55057Y13436D01*
D02*
G37*
G36*
X54975D02*
X54943D01*
X54833Y13406D01*
X54734Y13349D01*
X54653Y13268D01*
X54596Y13169D01*
X54566Y13059D01*
Y13027D01*
X54975D01*
Y13436D01*
D02*
G37*
G36*
X41075Y13325D02*
X40725D01*
Y13301D01*
X40751Y13205D01*
X40800Y13120D01*
X40870Y13050D01*
X40955Y13001D01*
X41051Y12975D01*
X41075D01*
Y13325D01*
D02*
G37*
G36*
X32815Y13297D02*
X32240D01*
Y12603D01*
X32815D01*
Y12797D01*
X33261D01*
X33273Y12776D01*
X33326Y12723D01*
X33391Y12686D01*
X33463Y12667D01*
X33537D01*
X33609Y12686D01*
X33674Y12723D01*
X33727Y12776D01*
X33764Y12841D01*
X33783Y12913D01*
Y12987D01*
X33764Y13059D01*
X33727Y13124D01*
X33674Y13177D01*
X33609Y13214D01*
X33537Y13233D01*
X33463D01*
X33391Y13214D01*
X33326Y13177D01*
X33273Y13124D01*
X33261Y13103D01*
X32815D01*
Y13297D01*
D02*
G37*
G36*
X55434Y12977D02*
X55025D01*
Y12568D01*
X55057D01*
X55167Y12598D01*
X55266Y12655D01*
X55347Y12736D01*
X55404Y12835D01*
X55434Y12945D01*
Y12977D01*
D02*
G37*
G36*
X54975D02*
X54566D01*
Y12945D01*
X54596Y12835D01*
X54653Y12736D01*
X54734Y12655D01*
X54833Y12598D01*
X54943Y12568D01*
X54975D01*
Y12977D01*
D02*
G37*
G36*
X28008Y13441D02*
X27892D01*
X27779Y13411D01*
X27678Y13352D01*
X27595Y13270D01*
X27537Y13168D01*
X27506Y13056D01*
Y12939D01*
X27537Y12826D01*
X27595Y12725D01*
X27678Y12642D01*
X27779Y12584D01*
X27892Y12554D01*
X28008D01*
X28121Y12584D01*
X28222Y12642D01*
X28305Y12725D01*
X28363Y12826D01*
X28394Y12939D01*
Y13056D01*
X28363Y13168D01*
X28305Y13270D01*
X28222Y13352D01*
X28121Y13411D01*
X28008Y13441D01*
D02*
G37*
G36*
X20016D02*
X19899D01*
X19787Y13411D01*
X19685Y13352D01*
X19603Y13270D01*
X19544Y13168D01*
X19514Y13056D01*
Y12939D01*
X19544Y12826D01*
X19603Y12725D01*
X19685Y12642D01*
X19787Y12584D01*
X19899Y12554D01*
X20016D01*
X20129Y12584D01*
X20230Y12642D01*
X20313Y12725D01*
X20371Y12826D01*
X20402Y12939D01*
Y13056D01*
X20371Y13168D01*
X20313Y13270D01*
X20230Y13352D01*
X20129Y13411D01*
X20016Y13441D01*
D02*
G37*
G36*
X15107Y22034D02*
X14993D01*
X14883Y22004D01*
X14784Y21947D01*
X14703Y21866D01*
X14646Y21767D01*
X14616Y21657D01*
Y21543D01*
X14646Y21433D01*
X14703Y21334D01*
X14784Y21253D01*
X14883Y21196D01*
X14993Y21166D01*
X15056D01*
X16187Y20035D01*
Y14465D01*
X16198Y14387D01*
X16228Y14314D01*
X16276Y14251D01*
X17514Y13013D01*
Y12939D01*
X17544Y12826D01*
X17603Y12725D01*
X17685Y12642D01*
X17787Y12584D01*
X17899Y12554D01*
X18016D01*
X18129Y12584D01*
X18230Y12642D01*
X18313Y12725D01*
X18371Y12826D01*
X18402Y12939D01*
Y13056D01*
X18371Y13168D01*
X18313Y13270D01*
X18230Y13352D01*
X18129Y13411D01*
X18016Y13441D01*
X17942D01*
X16793Y14590D01*
Y20160D01*
X16793Y20160D01*
X16782Y20238D01*
X16752Y20311D01*
X16704Y20374D01*
X16704Y20374D01*
X15484Y21594D01*
Y21657D01*
X15454Y21767D01*
X15397Y21866D01*
X15316Y21947D01*
X15217Y22004D01*
X15107Y22034D01*
D02*
G37*
G36*
Y13086D02*
X14993D01*
X14883Y13056D01*
X14784Y12999D01*
X14703Y12918D01*
X14646Y12819D01*
X14616Y12709D01*
Y12595D01*
X14646Y12485D01*
X14703Y12386D01*
X14784Y12305D01*
X14883Y12248D01*
X14993Y12218D01*
X15107D01*
X15217Y12248D01*
X15316Y12305D01*
X15397Y12386D01*
X15454Y12485D01*
X15484Y12595D01*
Y12709D01*
X15454Y12819D01*
X15397Y12918D01*
X15316Y12999D01*
X15217Y13056D01*
X15107Y13086D01*
D02*
G37*
G36*
X41475Y12725D02*
X40725D01*
Y11975D01*
X41475D01*
Y12725D01*
D02*
G37*
G36*
X45375Y12950D02*
X44476D01*
Y12798D01*
X44441Y12791D01*
X44392Y12758D01*
X44092Y12458D01*
X44059Y12409D01*
X44047Y12350D01*
Y11991D01*
X44024Y11950D01*
X43125D01*
Y11803D01*
X40683D01*
X39948Y12538D01*
X39899Y12571D01*
X39840Y12583D01*
X33980D01*
X33921Y12571D01*
X33872Y12538D01*
X33561Y12227D01*
X33537Y12233D01*
X33463D01*
X33391Y12214D01*
X33326Y12177D01*
X33273Y12124D01*
X33236Y12059D01*
X33217Y11987D01*
Y11913D01*
X33236Y11841D01*
X33273Y11776D01*
X33326Y11723D01*
X33391Y11686D01*
X33463Y11667D01*
X33537D01*
X33609Y11686D01*
X33674Y11723D01*
X33727Y11776D01*
X33764Y11841D01*
X33783Y11913D01*
Y11987D01*
X33777Y12011D01*
X34043Y12277D01*
X39509D01*
X39515Y12227D01*
X39466Y12214D01*
X39401Y12177D01*
X39348Y12124D01*
X39311Y12059D01*
X39292Y11987D01*
Y11913D01*
X39311Y11841D01*
X39348Y11776D01*
X39401Y11723D01*
X39466Y11686D01*
X39538Y11667D01*
X39612D01*
X39635Y11673D01*
X40167Y11142D01*
X40216Y11109D01*
X40275Y11097D01*
X44075D01*
X44134Y11109D01*
X44183Y11142D01*
X44308Y11267D01*
X44341Y11316D01*
X44353Y11375D01*
Y12287D01*
X44434Y12367D01*
X44476Y12350D01*
Y12350D01*
X45375D01*
Y12950D01*
D02*
G37*
G36*
X50079Y11800D02*
X49921D01*
X49767Y11769D01*
X49621Y11709D01*
X49490Y11621D01*
X49379Y11510D01*
X49291Y11379D01*
X49231Y11233D01*
X49200Y11079D01*
Y10921D01*
X49231Y10767D01*
X49291Y10621D01*
X49379Y10490D01*
X49490Y10379D01*
X49621Y10291D01*
X49767Y10231D01*
X49921Y10200D01*
X50079D01*
X50233Y10231D01*
X50379Y10291D01*
X50510Y10379D01*
X50621Y10490D01*
X50709Y10621D01*
X50769Y10767D01*
X50800Y10921D01*
Y11079D01*
X50769Y11233D01*
X50709Y11379D01*
X50621Y11510D01*
X50510Y11621D01*
X50379Y11709D01*
X50233Y11769D01*
X50079Y11800D01*
D02*
G37*
G36*
X20079D02*
X19921D01*
X19767Y11769D01*
X19621Y11709D01*
X19490Y11621D01*
X19379Y11510D01*
X19291Y11379D01*
X19231Y11233D01*
X19200Y11079D01*
Y10921D01*
X19231Y10767D01*
X19291Y10621D01*
X19379Y10490D01*
X19490Y10379D01*
X19621Y10291D01*
X19767Y10231D01*
X19921Y10200D01*
X20079D01*
X20233Y10231D01*
X20379Y10291D01*
X20510Y10379D01*
X20621Y10490D01*
X20709Y10621D01*
X20769Y10767D01*
X20800Y10921D01*
Y11079D01*
X20769Y11233D01*
X20709Y11379D01*
X20621Y11510D01*
X20510Y11621D01*
X20379Y11709D01*
X20233Y11769D01*
X20079Y11800D01*
D02*
G37*
%LPD*%
G36*
X22547Y35032D02*
Y34827D01*
X22499Y34815D01*
X22442Y34913D01*
X22363Y34992D01*
X22265Y35049D01*
X22156Y35078D01*
X22044D01*
X21935Y35049D01*
X21837Y34992D01*
X21758Y34913D01*
X21701Y34815D01*
X21672Y34706D01*
Y34609D01*
X21208Y34145D01*
X21160Y34082D01*
X21130Y34009D01*
X21122Y33950D01*
X20673Y33501D01*
X20623Y33521D01*
Y33965D01*
X21805Y35147D01*
X22432D01*
X22547Y35032D01*
D02*
G37*
G36*
X31247Y29995D02*
X31202Y29979D01*
X31197Y29979D01*
X30526Y30650D01*
X30547Y30700D01*
X31247D01*
Y29995D01*
D02*
G37*
G36*
X28668Y28820D02*
X28480Y28633D01*
X27357D01*
X27355Y28823D01*
X27390Y28858D01*
X28648Y28866D01*
X28668Y28820D01*
D02*
G37*
G36*
X26892Y27142D02*
X26941Y27109D01*
X27000Y27097D01*
X27253D01*
Y26962D01*
X27207Y26953D01*
X26063D01*
X25248Y27768D01*
X25199Y27801D01*
X25147Y27812D01*
Y27897D01*
X26137D01*
X26892Y27142D01*
D02*
G37*
G36*
X30132Y27042D02*
X30181Y27009D01*
X30240Y26997D01*
X30392D01*
Y26706D01*
X30535D01*
Y24742D01*
X27362Y21568D01*
X27329Y21519D01*
X27317Y21460D01*
Y21111D01*
X27011D01*
Y21685D01*
X28408Y23082D01*
X28441Y23131D01*
X28453Y23190D01*
Y25000D01*
X28441Y25059D01*
X28408Y25108D01*
X27688Y25828D01*
X27639Y25861D01*
X27580Y25873D01*
X26476D01*
X25147Y27202D01*
Y27371D01*
X25193Y27391D01*
X25892Y26692D01*
X25941Y26659D01*
X26000Y26647D01*
X29059D01*
Y25799D01*
X29071Y25740D01*
X29104Y25691D01*
X29771Y25024D01*
X29764Y24998D01*
Y24986D01*
X30025D01*
Y25247D01*
X30012D01*
X29987Y25240D01*
X29365Y25862D01*
Y26706D01*
X29508D01*
Y27125D01*
X29212D01*
Y27175D01*
X29508D01*
Y27577D01*
X29597D01*
X30132Y27042D01*
D02*
G37*
G36*
X28147Y23253D02*
X27462Y22568D01*
X27419Y22596D01*
X27435Y22635D01*
X27446Y22713D01*
Y23427D01*
X28147D01*
Y23253D01*
D02*
G37*
G36*
X27317Y18961D02*
X26770D01*
X26400Y19330D01*
Y20089D01*
X27317D01*
Y18961D01*
D02*
G37*
G36*
X30937Y24543D02*
X29942Y23548D01*
X29909Y23499D01*
X29897Y23440D01*
Y23234D01*
X29874Y23221D01*
X29821Y23168D01*
X29783Y23103D01*
X29764Y23030D01*
Y22954D01*
X29783Y22882D01*
X29821Y22816D01*
X29874Y22763D01*
X29897Y22750D01*
Y21840D01*
X29909Y21781D01*
X29942Y21732D01*
X29997Y21677D01*
Y20961D01*
X29790D01*
Y20669D01*
X27736Y18615D01*
X27688Y18552D01*
X27673Y18516D01*
X27623Y18526D01*
Y21397D01*
X30796Y24570D01*
X30829Y24620D01*
X30841Y24678D01*
Y26706D01*
X30937D01*
Y24543D01*
D02*
G37*
%LPC*%
G36*
X30088Y25247D02*
X30075D01*
Y24986D01*
X30336D01*
Y24998D01*
X30317Y25071D01*
X30279Y25136D01*
X30226Y25190D01*
X30160Y25227D01*
X30088Y25247D01*
D02*
G37*
G36*
X30336Y24936D02*
X30075D01*
Y24674D01*
X30088D01*
X30160Y24694D01*
X30226Y24732D01*
X30279Y24785D01*
X30317Y24850D01*
X30336Y24923D01*
Y24936D01*
D02*
G37*
G36*
X30025D02*
X29764D01*
Y24923D01*
X29783Y24850D01*
X29821Y24785D01*
X29874Y24732D01*
X29940Y24694D01*
X30012Y24674D01*
X30025D01*
Y24936D01*
D02*
G37*
%LPD*%
G36*
X44367Y21382D02*
X44342Y21338D01*
X44341Y21337D01*
X44258D01*
X44178Y21316D01*
X44106Y21274D01*
X44047Y21216D01*
X44024Y21175D01*
X43122D01*
X43063Y21163D01*
X43014Y21130D01*
X42837Y20953D01*
X42015D01*
Y21147D01*
X41597D01*
X41283Y21461D01*
X41302Y21507D01*
X44242D01*
X44367Y21382D01*
D02*
G37*
G36*
X41440Y20871D02*
Y20453D01*
X42015D01*
Y20647D01*
X42900D01*
X42959Y20659D01*
X43008Y20692D01*
X43042Y20656D01*
X42027Y19640D01*
X41555D01*
Y19734D01*
X40805D01*
Y19241D01*
X40758Y19233D01*
X40075D01*
X40016Y19221D01*
X39967Y19188D01*
X39881Y19103D01*
X39813D01*
X39801Y19124D01*
X39749Y19177D01*
X39684Y19214D01*
X39612Y19233D01*
X39588Y19283D01*
X39598Y19297D01*
X40220D01*
X40279Y19309D01*
X40328Y19342D01*
X41008Y20022D01*
X41041Y20071D01*
X41053Y20130D01*
Y20453D01*
X41188D01*
Y21058D01*
X41234Y21077D01*
X41440Y20871D01*
D02*
G37*
G36*
X50757Y19437D02*
Y18947D01*
X50667D01*
Y19100D01*
X50682Y19137D01*
Y19203D01*
X50656Y19265D01*
X50609Y19313D01*
X50547Y19338D01*
X50480D01*
X50418Y19313D01*
X50371Y19265D01*
X50346Y19203D01*
Y19137D01*
X50361Y19100D01*
Y18947D01*
X50226D01*
Y18253D01*
X50757D01*
Y17006D01*
X50598Y16847D01*
X50243D01*
Y16870D01*
X50231Y16929D01*
X50198Y16978D01*
X49858Y17318D01*
X49809Y17351D01*
X49750Y17363D01*
X48673D01*
X48313Y17723D01*
Y18253D01*
X48837D01*
Y18447D01*
X49399D01*
Y18253D01*
X49974D01*
Y18947D01*
X49399D01*
Y18753D01*
X48837D01*
Y18947D01*
X48703D01*
Y19442D01*
X48721Y19453D01*
X48773Y19504D01*
X48809Y19568D01*
X48828Y19639D01*
Y19712D01*
X48809Y19783D01*
X48773Y19846D01*
X48721Y19898D01*
X48705Y19907D01*
X48718Y19957D01*
X49382D01*
X49395Y19907D01*
X49379Y19898D01*
X49327Y19846D01*
X49291Y19783D01*
X49272Y19712D01*
Y19639D01*
X49291Y19568D01*
X49327Y19504D01*
X49379Y19453D01*
X49443Y19416D01*
X49513Y19397D01*
X49587D01*
X49657Y19416D01*
X49721Y19453D01*
X49773Y19504D01*
X49809Y19568D01*
X49828Y19639D01*
Y19712D01*
X49809Y19783D01*
X49773Y19846D01*
X49721Y19898D01*
X49705Y19907D01*
X49718Y19957D01*
X50237D01*
X50757Y19437D01*
D02*
G37*
G36*
X55387Y19187D02*
Y17041D01*
X55337Y17027D01*
X55266Y17097D01*
X55167Y17154D01*
X55057Y17184D01*
X54943D01*
X54833Y17154D01*
X54734Y17097D01*
X54653Y17016D01*
X54596Y16917D01*
X54592Y16903D01*
X53525D01*
X52389Y16971D01*
X52359Y16991D01*
X52300Y17003D01*
X52197D01*
Y17138D01*
X52003D01*
Y17549D01*
X52197D01*
Y18124D01*
X52057D01*
X52030Y18174D01*
X52048Y18217D01*
Y18283D01*
X52033Y18320D01*
Y18376D01*
X52197D01*
Y18951D01*
X51503D01*
X51503Y19001D01*
Y20235D01*
X51727D01*
Y19240D01*
X51712Y19203D01*
Y19137D01*
X51737Y19075D01*
X51785Y19027D01*
X51847Y19002D01*
X51913D01*
X51975Y19027D01*
X52023Y19075D01*
X52048Y19137D01*
Y19203D01*
X52033Y19240D01*
Y20235D01*
X52147D01*
Y20810D01*
X51503D01*
Y21063D01*
X52147D01*
Y21197D01*
X53377D01*
X55387Y19187D01*
D02*
G37*
G36*
X48395Y19907D02*
X48379Y19898D01*
X48327Y19846D01*
X48291Y19783D01*
X48272Y19712D01*
Y19639D01*
X48291Y19568D01*
X48327Y19504D01*
X48379Y19453D01*
X48397Y19442D01*
Y18947D01*
X48313D01*
Y19065D01*
X48301Y19124D01*
X48268Y19173D01*
X47823Y19619D01*
X47828Y19639D01*
Y19712D01*
X47809Y19783D01*
X47773Y19846D01*
X47721Y19898D01*
X47705Y19907D01*
X47718Y19957D01*
X48382D01*
X48395Y19907D01*
D02*
G37*
G36*
X53511Y16597D02*
X53515Y16598D01*
X53520Y16597D01*
X54592D01*
X54596Y16583D01*
X54653Y16484D01*
X54734Y16403D01*
X54833Y16346D01*
X54943Y16316D01*
X55057D01*
X55167Y16346D01*
X55266Y16403D01*
X55337Y16473D01*
X55387Y16459D01*
Y15443D01*
X53997Y14053D01*
X50788D01*
Y14697D01*
X50653D01*
Y14857D01*
X51063Y15267D01*
X52000D01*
X52059Y15279D01*
X52108Y15312D01*
X52408Y15612D01*
X52441Y15661D01*
X52453Y15720D01*
Y16624D01*
X52489Y16659D01*
X53511Y16597D01*
D02*
G37*
G36*
X50149Y15858D02*
X49564Y15273D01*
X49531Y15224D01*
X49520Y15165D01*
Y14697D01*
X49385D01*
Y14053D01*
X48400D01*
X47889Y14563D01*
Y15897D01*
X50090D01*
X50124Y15904D01*
X50149Y15858D01*
D02*
G37*
G36*
X42203Y13542D02*
X42252Y13509D01*
X42311Y13497D01*
X43125D01*
Y13350D01*
X43125D01*
X43118Y13303D01*
X41913D01*
X41758Y13458D01*
X41709Y13491D01*
X41650Y13503D01*
X41444D01*
X41400Y13580D01*
X41330Y13650D01*
X41318Y13657D01*
X41331Y13707D01*
X42037D01*
X42203Y13542D01*
D02*
G37*
G36*
X40512Y11542D02*
X40561Y11509D01*
X40620Y11497D01*
X43125D01*
Y11403D01*
X40338D01*
X39852Y11889D01*
X39858Y11913D01*
Y11987D01*
X39839Y12059D01*
X39801Y12124D01*
X39749Y12177D01*
X39684Y12214D01*
X39634Y12227D01*
X39641Y12277D01*
X39777D01*
X40512Y11542D01*
D02*
G37*
D16*
X70950Y25886D02*
D03*
Y26714D02*
D03*
X74550Y25900D02*
D03*
Y26727D02*
D03*
X78250Y25886D02*
D03*
Y26714D02*
D03*
X79750Y24264D02*
D03*
Y23436D02*
D03*
X53150Y24114D02*
D03*
Y23286D02*
D03*
X29050Y31777D02*
D03*
Y30950D02*
D03*
X30900Y34264D02*
D03*
Y33436D02*
D03*
X32400Y34264D02*
D03*
Y33436D02*
D03*
X24800Y29700D02*
D03*
Y30527D02*
D03*
Y27223D02*
D03*
Y28050D02*
D03*
X27600Y28077D02*
D03*
Y27250D02*
D03*
X26200Y29700D02*
D03*
Y30527D02*
D03*
X23450Y27956D02*
D03*
Y28784D02*
D03*
X51850Y16850D02*
D03*
Y16023D02*
D03*
Y18664D02*
D03*
Y17836D02*
D03*
X51750Y25100D02*
D03*
Y24273D02*
D03*
Y23250D02*
D03*
Y22423D02*
D03*
X51800Y20523D02*
D03*
Y21350D02*
D03*
X78300Y24277D02*
D03*
Y23450D02*
D03*
X79750Y26714D02*
D03*
Y25886D02*
D03*
X72350Y26714D02*
D03*
Y25886D02*
D03*
X76050Y26714D02*
D03*
Y25886D02*
D03*
X46600Y27136D02*
D03*
Y27964D02*
D03*
D17*
X24724Y35583D02*
D03*
X23976D02*
D03*
X24350Y34717D02*
D03*
D18*
X28000Y30800D02*
D03*
Y31332D02*
D03*
D19*
X30975Y29000D02*
D03*
X32325Y30000D02*
D03*
X30975Y31000D02*
D03*
X43575Y13650D02*
D03*
X44925Y12650D02*
D03*
X43575Y11650D02*
D03*
D20*
X24264Y32700D02*
D03*
X23436D02*
D03*
X29064Y29650D02*
D03*
X28236D02*
D03*
X49673Y14350D02*
D03*
X50500D02*
D03*
X45773Y16500D02*
D03*
X46600D02*
D03*
X49173Y25550D02*
D03*
X50000D02*
D03*
X50527Y16500D02*
D03*
X49700D02*
D03*
X50000Y24350D02*
D03*
X49173D02*
D03*
X47723Y18600D02*
D03*
X48550D02*
D03*
X49686D02*
D03*
X50514D02*
D03*
X46614D02*
D03*
X45786D02*
D03*
X47736Y16500D02*
D03*
X48564D02*
D03*
X31686Y14100D02*
D03*
X32514D02*
D03*
X31700Y12950D02*
D03*
X32527D02*
D03*
X43586Y24150D02*
D03*
X44414D02*
D03*
X40900Y20800D02*
D03*
X41727D02*
D03*
Y22900D02*
D03*
X40900D02*
D03*
D21*
X30688Y27150D02*
D03*
X29212D02*
D03*
D22*
X27143Y23900D02*
D03*
X23757D02*
D03*
D23*
X41180Y19487D02*
D03*
X43050D02*
D03*
X41180Y18700D02*
D03*
X43050D02*
D03*
X41180Y17913D02*
D03*
X43050D02*
D03*
D24*
X37700Y33525D02*
D03*
X36700Y34875D02*
D03*
X35700Y33525D02*
D03*
D52*
X21958Y12997D02*
D03*
X19958D02*
D03*
X17958D02*
D03*
Y15950D02*
D03*
X21958D02*
D03*
X19958D02*
D03*
X27950Y12997D02*
D03*
D53*
Y15950D02*
D03*
D62*
Y18401D02*
X30150Y20601D01*
X27950Y15950D02*
Y18401D01*
X21050Y13905D02*
Y17250D01*
X21708Y17908D01*
X21050Y13905D02*
X21958Y12997D01*
X19958Y15950D02*
Y17461D01*
X20947Y18450D01*
X21708Y17908D02*
Y18631D01*
X21700Y18639D02*
Y19352D01*
Y18639D02*
X21708Y18631D01*
X21560Y19492D02*
Y19993D01*
Y19492D02*
X21700Y19352D01*
X26098Y19205D02*
Y21185D01*
X26200Y21770D02*
X27143Y22713D01*
X26200Y21287D02*
Y21770D01*
X26098Y21185D02*
X26200Y21287D01*
X26098Y19205D02*
X26853Y18450D01*
X21348Y27956D02*
X23450D01*
X19514Y30108D02*
X20320Y30914D01*
X19514Y29964D02*
Y30108D01*
X20837Y28467D02*
X21348Y27956D01*
X20720Y28584D02*
Y30536D01*
X20870Y30686D02*
Y33270D01*
X20720Y28584D02*
X20837Y28467D01*
X20320Y30914D02*
Y34090D01*
X18650Y29100D02*
X19514Y29964D01*
X20720Y30536D02*
X20870Y30686D01*
X20320Y34090D02*
X21680Y35450D01*
X20870Y33270D02*
X21422Y33822D01*
X22100Y34609D02*
Y34650D01*
X21422Y33931D02*
X22100Y34609D01*
X21422Y33822D02*
Y33931D01*
X21680Y35450D02*
X22557D01*
X22850Y34400D02*
Y35157D01*
X22557Y35450D02*
X22850Y35157D01*
X22100Y33650D02*
X22850Y34400D01*
X20474Y23350D02*
X21974Y24850D01*
X24800D02*
X25750Y23900D01*
X21974Y24850D02*
X24800D01*
X19450Y23350D02*
X20200Y22600D01*
X21340D02*
X22640Y23900D01*
X20200Y22600D02*
X21340D01*
X18142Y23674D02*
Y26000D01*
Y23674D02*
X18466Y23350D01*
X20953Y20600D02*
X21560Y19993D01*
X22640Y23900D02*
X23757D01*
X20111Y24011D02*
Y26000D01*
X19450Y23350D02*
X20111Y24011D01*
X18000Y20600D02*
X19450Y22050D01*
Y23350D01*
X25750Y23900D02*
X27143D01*
Y22713D02*
Y23900D01*
X15050Y33700D02*
Y34348D01*
Y33700D02*
X18650Y30100D01*
X16490Y14465D02*
X17958Y12997D01*
X16490Y14465D02*
Y20160D01*
X15050Y21600D02*
X16490Y20160D01*
X18000Y19526D02*
Y20600D01*
X17994Y18450D02*
Y19520D01*
X22790Y32700D02*
X23436D01*
X22100Y32650D02*
X22740D01*
D63*
X27470Y17850D02*
Y21460D01*
X30688Y24678D01*
X27400Y17780D02*
X27470Y17850D01*
X21120Y28750D02*
Y30370D01*
X23000Y32250D01*
X24599D01*
X51880Y18250D02*
Y18664D01*
X31090Y29000D02*
Y29870D01*
Y24032D02*
Y24480D01*
Y29000D01*
X46600Y16875D02*
Y17000D01*
Y16500D02*
Y16875D01*
X31895Y30000D02*
Y31495D01*
X30406Y34264D02*
X30589D01*
X29064Y29000D02*
Y29334D01*
X27200Y29010D02*
X27206Y28480D01*
X27210Y28077D01*
X27206Y28480D02*
X28544D01*
X24350D02*
X27206D01*
X26000Y26800D02*
X29212D01*
Y27150D01*
Y25799D02*
Y26800D01*
X33920Y22530D02*
X40900D01*
X52200Y24273D02*
X52370D01*
X72070Y26714D02*
Y29630D01*
X47736Y14500D02*
Y16189D01*
X31400Y29560D02*
Y31000D01*
X52300Y16823D02*
X53520Y16750D01*
X51850Y16850D02*
X52300Y16823D01*
Y16850D01*
Y15720D02*
Y16823D01*
X51880Y19170D02*
Y20523D01*
X73464Y25900D02*
X74550D01*
X72350Y25886D02*
X73464Y25900D01*
X75314Y25886D02*
X76050D01*
X74550Y25900D02*
X75314Y25886D01*
X51850Y18664D02*
X51880D01*
X46600Y26558D02*
Y27136D01*
Y26558D02*
X47250Y25908D01*
X84900Y24528D02*
Y29253D01*
X83916Y23544D02*
X84900Y24528D01*
X45786Y18600D02*
Y21986D01*
X46550Y22750D01*
X47250Y23450D02*
Y23939D01*
X46550Y22750D02*
X47250Y23450D01*
X22250Y29700D02*
X24800D01*
X21650Y29100D02*
X22250Y29700D01*
X27200Y29010D02*
X28750Y29020D01*
X29064Y29334D01*
Y29650D01*
X32325Y27125D02*
Y30000D01*
Y27125D02*
X33500Y25950D01*
X29212Y25799D02*
X30050Y24961D01*
X28544Y28480D02*
X29064Y29000D01*
X24350Y27660D02*
Y28480D01*
Y27660D02*
X25140D01*
X26000Y26800D01*
X26200Y29700D02*
X26510D01*
X27200Y29010D01*
X27210Y28077D02*
X27600D01*
X40900Y22530D02*
Y22900D01*
X33500Y22950D02*
X33920Y22530D01*
X51400Y23250D02*
X51750D01*
X50250Y22100D02*
X51400Y23250D01*
X48200Y22100D02*
X50250D01*
X47550Y22750D02*
X48200Y22100D01*
X30688Y24678D02*
Y27150D01*
X27400Y15500D02*
Y17780D01*
Y15500D02*
X27730Y15170D01*
X29360D01*
X30740Y16550D01*
Y19670D01*
X32020Y20950D01*
X33500D01*
X27000Y27250D02*
X27600D01*
X26200Y28050D02*
X27000Y27250D01*
X24800Y28050D02*
X26200D01*
X41727Y22130D02*
Y22900D01*
X50000Y23200D02*
Y24350D01*
X49550Y22750D02*
X50000Y23200D01*
X49173Y23373D02*
Y24350D01*
X48550Y22750D02*
X49173Y23373D01*
X44500Y12650D02*
X44925D01*
X44200Y12350D02*
X44500Y12650D01*
X44200Y11375D02*
Y12350D01*
X44075Y11250D02*
X44200Y11375D01*
X40275Y11250D02*
X44075D01*
X39575Y11950D02*
X40275Y11250D01*
X43586Y24150D02*
Y26136D01*
X44400Y26950D01*
X53520Y16750D02*
X55000D01*
X70500Y20900D02*
Y31480D01*
X69740Y32240D02*
X70500Y31480D01*
X65760Y32240D02*
X69740D01*
X65603Y32083D02*
X65760Y32240D01*
X65603Y29234D02*
Y32083D01*
Y29234D02*
X65987Y28850D01*
X68190Y31270D02*
X69250D01*
X69500Y31020D01*
Y20900D02*
Y31020D01*
X65603Y27466D02*
X65987Y27850D01*
X65603Y15094D02*
Y27466D01*
Y15094D02*
X66225Y14472D01*
X66750D01*
X67000Y14722D01*
Y15080D01*
X67250Y15330D01*
X69070D01*
X69500Y14900D01*
X23204Y28784D02*
X23450D01*
X22910Y28490D02*
X23204Y28784D01*
X21380Y28490D02*
X22910D01*
X21120Y28750D02*
X21380Y28490D01*
X24599Y32250D02*
X24724Y32375D01*
Y35583D01*
X25227Y35080D02*
X26060D01*
X24724Y35583D02*
X25227Y35080D01*
X31450Y33625D02*
Y33990D01*
X30900Y33436D02*
X31261D01*
X31450Y33625D01*
X32057Y34264D01*
X32400D01*
X47050Y19036D02*
Y19680D01*
X46614Y18600D02*
X47050Y19036D01*
X30300Y12950D02*
X30750Y13400D01*
Y14450D01*
X30150Y15050D02*
X30750Y14450D01*
X39575Y24950D02*
X39960Y25335D01*
Y33500D01*
X39260Y34200D02*
X39960Y33500D01*
X35875Y34200D02*
X39260D01*
X35700Y34025D02*
X35875Y34200D01*
X35700Y33525D02*
Y34025D01*
X51750Y24273D02*
X52200D01*
Y25550D01*
X50000D02*
X52200D01*
X40900Y22900D02*
Y28050D01*
X41280Y28430D01*
X48290D01*
X49173Y27547D01*
Y25550D02*
Y27547D01*
X51850Y16023D02*
Y16410D01*
X51880Y16440D01*
X30050Y22992D02*
X31090Y24032D01*
X30010Y30950D02*
X31090Y29870D01*
X29050Y30950D02*
X30010D01*
X26858Y20600D02*
Y21748D01*
X28300Y23190D01*
Y25000D01*
X27580Y25720D02*
X28300Y25000D01*
X26413Y25720D02*
X27580D01*
X24910Y27223D02*
X26413Y25720D01*
X24800Y27223D02*
X24910D01*
X32061Y34875D02*
X36700D01*
X31450Y34264D02*
X32061Y34875D01*
X30900Y34264D02*
X31450D01*
X50514Y18600D02*
Y19170D01*
X51800Y20523D02*
X51880D01*
X74400Y20950D02*
Y24920D01*
X74370Y24950D02*
X74400Y24920D01*
X43050Y19487D02*
X44118D01*
X44966Y20335D01*
Y22188D01*
X44414Y22740D02*
X44966Y22188D01*
X44414Y22740D02*
Y24150D01*
X39575Y20950D02*
X40285Y21660D01*
X44306D01*
X44716Y21250D01*
Y20796D02*
Y21250D01*
X44500Y20580D02*
X44716Y20796D01*
X43183Y20580D02*
X44500D01*
X42090Y19487D02*
X43183Y20580D01*
X41180Y19487D02*
X42090D01*
X30975Y31000D02*
X31400D01*
Y29560D02*
X31920Y29040D01*
Y26000D02*
Y29040D01*
Y26000D02*
X32440Y25480D01*
X33620D01*
X33890Y25750D01*
Y29560D01*
X33500Y29950D02*
X33890Y29560D01*
X49673Y14350D02*
Y15165D01*
X50527Y16020D01*
Y16500D01*
X47736Y16189D02*
Y16500D01*
Y16189D02*
X47875Y16050D01*
X50090D01*
Y16870D01*
X49750Y17210D02*
X50090Y16870D01*
X48610Y17210D02*
X49750D01*
X48160Y17660D02*
X48610Y17210D01*
X48160Y17660D02*
Y19065D01*
X47550Y19675D02*
X48160Y19065D01*
X46550Y19675D02*
Y20020D01*
X46790D01*
X46880Y20110D01*
X50300D01*
X50910Y19500D01*
Y16943D02*
Y19500D01*
X50527Y16560D02*
X50910Y16943D01*
X50527Y16500D02*
Y16560D01*
X67500Y20900D02*
Y30850D01*
X66500Y14900D02*
Y17900D01*
X66930Y18330D01*
Y30907D01*
X65987Y31850D02*
X66930Y30907D01*
X23976Y35583D02*
Y35818D01*
X24500Y36342D01*
X28328D01*
X29080Y35590D01*
X67292Y14692D02*
X67500Y14900D01*
X67292Y14500D02*
Y14692D01*
X67014Y14222D02*
X67292Y14500D01*
X65822Y14222D02*
X67014D01*
X65353Y14691D02*
X65822Y14222D01*
X65353Y14691D02*
Y32216D01*
X65987Y32850D01*
X75950Y15400D02*
X76400Y14950D01*
X71000Y15400D02*
X75950D01*
X70500Y14900D02*
X71000Y15400D01*
X76400Y14950D02*
X77920Y16470D01*
X80730D01*
X82300Y14900D01*
X73400Y14950D02*
X76270Y12080D01*
X76480D01*
X79300Y14900D01*
X80910Y19510D02*
X82300Y20900D01*
X77840Y19510D02*
X80910D01*
X76400Y20950D02*
X77840Y19510D01*
X75400Y20950D02*
X75840Y21390D01*
X80810D01*
X81300Y20900D01*
X81730Y21330D01*
X86770D01*
X87200Y20900D01*
X74880Y19430D02*
X76400Y20950D01*
X71970Y19430D02*
X74880D01*
X70500Y20900D02*
X71970Y19430D01*
X33500Y11950D02*
X33980Y12430D01*
X39840D01*
X40620Y11650D01*
X43575D01*
X47736Y14500D02*
X48336Y13900D01*
X54060D01*
X55540Y15380D01*
Y19250D01*
X53440Y21350D02*
X55540Y19250D01*
X51800Y21350D02*
X53440D01*
X26172Y36000D02*
X26591Y35580D01*
X24600Y36000D02*
X26172D01*
X24350Y35750D02*
X24600Y36000D01*
X24350Y34717D02*
Y35750D01*
X29618Y12750D02*
Y13500D01*
Y12750D02*
X29869Y12500D01*
X31575D01*
X31700Y12625D01*
Y12950D01*
X46254Y27964D02*
X46600D01*
X45730Y27440D02*
X46254Y27964D01*
X44910Y27440D02*
X45730D01*
X44400Y27950D02*
X44910Y27440D01*
X29080Y35590D02*
X30406Y34264D01*
X45786Y17750D02*
Y18600D01*
Y17750D02*
X45986Y17550D01*
X46050D01*
X46600Y17000D01*
X75050Y29150D02*
X75550D01*
X75050D02*
Y29330D01*
X74750Y29630D02*
X75050Y29330D01*
X72070Y29630D02*
X74750D01*
X72070Y26714D02*
X72350D01*
X41100Y13350D02*
X41650D01*
X41850Y13150D01*
X44000D01*
X44130Y13280D01*
Y16833D01*
X43050Y17913D02*
X44130Y16833D01*
X44300Y17478D02*
X45500D01*
X45773Y17206D01*
Y16500D02*
Y17206D01*
X75304Y26714D02*
X76050D01*
X75290Y26727D02*
X75304Y26714D01*
X74550Y26727D02*
X75290D01*
X76986Y26714D02*
X78250D01*
X74550Y29150D02*
X76986Y26714D01*
X83916Y28500D02*
Y29253D01*
X83406Y27990D02*
X83916Y28500D01*
X81026Y27990D02*
X83406D01*
X79750Y26714D02*
X81026Y27990D01*
X50500Y14350D02*
Y14920D01*
X51000Y15420D01*
X52000D01*
X52300Y15720D01*
X51850Y16850D02*
X52300D01*
X27004Y31332D02*
X28000D01*
X26200Y30527D02*
X27004Y31332D01*
X33500Y30950D02*
Y32936D01*
X33000Y33436D02*
X33500Y32936D01*
X32400Y33436D02*
X33000D01*
X42311Y13650D02*
X43575D01*
X42101Y13860D02*
X42311Y13650D01*
X40485Y13860D02*
X42101D01*
X39575Y12950D02*
X40485Y13860D01*
X73550Y27000D02*
Y29150D01*
Y27000D02*
X73823Y26727D01*
X74550D01*
X39575Y19950D02*
Y20275D01*
X40710Y21410D01*
X41117D01*
X41727Y20800D01*
X44414Y24150D02*
X45050D01*
X45400Y24500D01*
Y26950D01*
X30589Y34264D02*
X30900D01*
X30450Y34125D02*
X30589Y34264D01*
X30450Y32940D02*
Y34125D01*
Y32940D02*
X31895Y31495D01*
Y30000D02*
X32325D01*
X49923Y25100D02*
X51750D01*
X49173Y24350D02*
X49923Y25100D01*
X37700Y25825D02*
Y33525D01*
Y25825D02*
X39575Y23950D01*
X30050Y22992D02*
Y23440D01*
X31090Y24480D01*
X30975Y29000D02*
X31090D01*
X42500Y18700D02*
X43050D01*
X42120Y19080D02*
X42500Y18700D01*
X40075Y19080D02*
X42120D01*
X39945Y18950D02*
X40075Y19080D01*
X39575Y18950D02*
X39945D01*
X40790Y18700D02*
X41180D01*
X40570Y18480D02*
X40790Y18700D01*
X39460Y18480D02*
X40570D01*
X39190Y18750D02*
X39460Y18480D01*
X39190Y18750D02*
Y19140D01*
X39500Y19450D01*
X40220D01*
X40900Y20130D01*
Y20800D01*
X68500Y20900D02*
Y28300D01*
X69050Y28850D01*
X72550Y28140D02*
Y29150D01*
Y28140D02*
X72800Y27890D01*
Y26336D02*
Y27890D01*
X72350Y25886D02*
X72800Y26336D01*
X30240Y27150D02*
X30688D01*
X29660Y27730D02*
X30240Y27150D01*
X28880Y27730D02*
X29660D01*
X28400Y27250D02*
X28880Y27730D01*
X27600Y27250D02*
X28400D01*
X24140Y27223D02*
X24800D01*
X24053Y27310D02*
X24140Y27223D01*
X24053Y27310D02*
Y27653D01*
X23750Y27956D02*
X24053Y27653D01*
X23450Y27956D02*
X23750D01*
X66500Y20900D02*
Y25337D01*
X65987Y25850D02*
X66500Y25337D01*
X51350Y22423D02*
X51750D01*
X51350Y17986D02*
Y22423D01*
Y17986D02*
X51500Y17836D01*
X51850D01*
X46600Y16875D02*
X46725Y17000D01*
X48064D01*
X48564Y16500D01*
X70950Y25886D02*
X72350D01*
X79024Y24264D02*
X79750D01*
X79010Y24277D02*
X79024Y24264D01*
X78300Y24277D02*
X79010D01*
X76050Y25886D02*
X78250D01*
X79750Y24264D02*
Y25886D01*
X78250D02*
X79750D01*
X46086Y27136D02*
X46600D01*
X45900Y26950D02*
X46086Y27136D01*
X45400Y26950D02*
X45900D01*
X30050Y21840D02*
Y22992D01*
Y21840D02*
X30150Y21740D01*
Y20601D02*
Y21740D01*
X28712Y30950D02*
X29050D01*
X28330Y31332D02*
X28712Y30950D01*
X28000Y31332D02*
X28330D01*
X24800Y30527D02*
X26200D01*
X81878Y23544D02*
X83916D01*
X81770Y23436D02*
X81878Y23544D01*
X79750Y23436D02*
X81770D01*
X79024D02*
X79750D01*
X79010Y23450D02*
X79024Y23436D01*
X78300Y23450D02*
X79010D01*
X33080Y13950D02*
X33500D01*
X32930Y14100D02*
X33080Y13950D01*
X32514Y14100D02*
X32930D01*
X44757Y18600D02*
X45786D01*
X44070Y17913D02*
X44757Y18600D01*
X43050Y17913D02*
X44070D01*
X48564Y16500D02*
X49700D01*
X24800Y29700D02*
X26200D01*
X17994Y19520D02*
X18000Y19526D01*
X52529Y24114D02*
X53150D01*
X52370Y24273D02*
X52529Y24114D01*
X52466Y23286D02*
X53150D01*
X52430Y23250D02*
X52466Y23286D01*
X51750Y23250D02*
X52430D01*
X43122Y21022D02*
X44300D01*
X42900Y20800D02*
X43122Y21022D01*
X41727Y20800D02*
X42900D01*
X70950Y26714D02*
X72070D01*
X78250D02*
X79750D01*
X48550Y18600D02*
X49686D01*
X48550D02*
Y19675D01*
X30397Y31000D02*
X30975D01*
X29620Y31777D02*
X30397Y31000D01*
X29050Y31777D02*
X29620D01*
X32527Y12950D02*
X33500D01*
X40387Y17913D02*
X41180D01*
X40350Y17950D02*
X40387Y17913D01*
X39575Y17950D02*
X40350D01*
X51850Y16850D02*
Y17836D01*
X31686Y13524D02*
Y14100D01*
Y13524D02*
X31700Y13510D01*
Y12950D02*
Y13510D01*
X24350Y33746D02*
Y34717D01*
X24264Y33660D02*
X24350Y33746D01*
X24264Y32700D02*
Y33660D01*
X22740Y32650D02*
X22790Y32700D01*
X46614Y18600D02*
X47723D01*
X28000Y30336D02*
Y30800D01*
Y30336D02*
X28236Y30100D01*
Y29650D02*
Y30100D01*
D64*
X20000Y11000D02*
D03*
X88000Y38000D02*
D03*
Y11000D02*
D03*
X65000D02*
D03*
Y38000D02*
D03*
X50000D02*
D03*
Y11000D02*
D03*
X20000Y38000D02*
D03*
D65*
X52500Y30063D02*
D03*
X84900Y29253D02*
D03*
X83916D02*
D03*
X85884D02*
D03*
X83916Y23544D02*
D03*
X85884D02*
D03*
D66*
X52500Y34000D02*
D03*
D67*
X30300Y14050D02*
D03*
X29618Y13500D02*
D03*
X29080Y35590D02*
D03*
X28549Y35090D02*
D03*
X26060Y35080D02*
D03*
X26591Y35580D02*
D03*
D68*
X30300Y12950D02*
D03*
X29080Y34590D02*
D03*
X26591Y34580D02*
D03*
D69*
X33500Y30950D02*
D03*
D70*
Y29950D02*
D03*
Y28950D02*
D03*
Y27950D02*
D03*
Y26950D02*
D03*
Y25950D02*
D03*
Y24950D02*
D03*
Y23950D02*
D03*
Y22950D02*
D03*
Y21950D02*
D03*
Y20950D02*
D03*
Y19950D02*
D03*
Y18950D02*
D03*
Y17950D02*
D03*
Y16950D02*
D03*
Y15950D02*
D03*
Y14950D02*
D03*
Y13950D02*
D03*
Y12950D02*
D03*
Y11950D02*
D03*
X39575D02*
D03*
Y12950D02*
D03*
Y13950D02*
D03*
Y14950D02*
D03*
Y15950D02*
D03*
Y16950D02*
D03*
Y17950D02*
D03*
Y18950D02*
D03*
Y19950D02*
D03*
Y20950D02*
D03*
Y21950D02*
D03*
Y22950D02*
D03*
Y23950D02*
D03*
Y24950D02*
D03*
Y25950D02*
D03*
Y26950D02*
D03*
Y27950D02*
D03*
Y28950D02*
D03*
Y29950D02*
D03*
Y30950D02*
D03*
D71*
X22100Y34650D02*
D03*
Y33650D02*
D03*
D72*
Y32650D02*
D03*
D73*
X30050Y22992D02*
D03*
Y24961D02*
D03*
X18142Y26000D02*
D03*
X20111D02*
D03*
X47250Y25908D02*
D03*
Y23939D02*
D03*
D74*
X32200Y24950D02*
D03*
X44400Y26950D02*
D03*
X45400Y27950D02*
D03*
X44400D02*
D03*
X45400Y28950D02*
D03*
X44400D02*
D03*
X45400Y29950D02*
D03*
X44400D02*
D03*
X45400Y30950D02*
D03*
X44400D02*
D03*
X72550Y30150D02*
D03*
X73550Y29150D02*
D03*
Y30150D02*
D03*
X74550Y29150D02*
D03*
Y30150D02*
D03*
X75550Y29150D02*
D03*
Y30150D02*
D03*
X76550Y29150D02*
D03*
Y30150D02*
D03*
X41100Y16350D02*
D03*
Y15350D02*
D03*
Y14350D02*
D03*
Y13350D02*
D03*
X32350Y18950D02*
D03*
Y17950D02*
D03*
Y16950D02*
D03*
Y15950D02*
D03*
D75*
X32200Y23950D02*
D03*
X45400Y26950D02*
D03*
X41100Y12350D02*
D03*
X32350Y19950D02*
D03*
D76*
X49550Y19675D02*
D03*
X48550D02*
D03*
X47550D02*
D03*
X46550D02*
D03*
Y22750D02*
D03*
X47550D02*
D03*
X48550D02*
D03*
D77*
X49550D02*
D03*
D78*
X55000Y16750D02*
D03*
Y13002D02*
D03*
X15050Y12652D02*
D03*
Y16400D02*
D03*
Y30600D02*
D03*
Y34348D02*
D03*
Y21600D02*
D03*
Y25348D02*
D03*
D79*
X18000Y20600D02*
D03*
X20953D02*
D03*
X23906D02*
D03*
X17994Y18450D02*
D03*
X20947D02*
D03*
X23900D02*
D03*
D80*
X26858Y20600D02*
D03*
X26853Y18450D02*
D03*
D81*
X72550Y29150D02*
D03*
D82*
X30150Y15050D02*
D03*
D83*
Y20601D02*
D03*
D84*
X88200Y20900D02*
D03*
X87200D02*
D03*
X86200D02*
D03*
X85200D02*
D03*
X84200D02*
D03*
Y14900D02*
D03*
X85200D02*
D03*
X86200D02*
D03*
X87200D02*
D03*
X88200D02*
D03*
X82300Y20900D02*
D03*
X81300D02*
D03*
X80300D02*
D03*
X79300D02*
D03*
X78300D02*
D03*
Y14900D02*
D03*
X79300D02*
D03*
X80300D02*
D03*
X81300D02*
D03*
X82300D02*
D03*
X76400Y20950D02*
D03*
X75400D02*
D03*
X74400D02*
D03*
X73400D02*
D03*
X72400D02*
D03*
Y14950D02*
D03*
X73400D02*
D03*
X74400D02*
D03*
X75400D02*
D03*
X76400D02*
D03*
X70500Y20900D02*
D03*
X69500D02*
D03*
X68500D02*
D03*
X67500D02*
D03*
X66500D02*
D03*
Y14900D02*
D03*
X67500D02*
D03*
X68500D02*
D03*
X69500D02*
D03*
X70500D02*
D03*
D85*
X21650Y29100D02*
D03*
Y30100D02*
D03*
X18650D02*
D03*
Y29100D02*
D03*
D86*
X20474Y23350D02*
D03*
X18466D02*
D03*
X19450D02*
D03*
D87*
X44300Y21022D02*
D03*
Y17478D02*
D03*
D88*
X69050Y33850D02*
D03*
Y32850D02*
D03*
Y31850D02*
D03*
Y30850D02*
D03*
Y29850D02*
D03*
Y28850D02*
D03*
Y27850D02*
D03*
Y26850D02*
D03*
Y25850D02*
D03*
Y24850D02*
D03*
X65987D02*
D03*
Y25850D02*
D03*
Y26850D02*
D03*
Y27850D02*
D03*
Y28850D02*
D03*
Y29850D02*
D03*
Y30850D02*
D03*
Y31850D02*
D03*
Y32850D02*
D03*
D89*
Y33850D02*
D03*
D90*
X86731Y26300D02*
D03*
X83069D02*
D03*
D91*
X51880Y18250D02*
D03*
X41727Y22130D02*
D03*
X68190Y31270D02*
D03*
X31450Y33990D02*
D03*
X47050Y19680D02*
D03*
X51880Y16440D02*
D03*
X50514Y19170D02*
D03*
X51880D02*
D03*
X74370Y24950D02*
D03*
X67500Y30850D02*
D03*
M02*
