G04*
G04 #@! TF.GenerationSoftware,Altium Limited,Altium Designer,22.4.2 (48)*
G04*
G04 Layer_Physical_Order=2*
G04 Layer_Color=16711680*
%FSLAX24Y24*%
%MOIN*%
G70*
G04*
G04 #@! TF.SameCoordinates,A9630A7D-A4A5-49CB-BB12-AA859E33B044*
G04*
G04*
G04 #@! TF.FilePolarity,Positive*
G04*
G01*
G75*
%ADD52C,0.0787*%
%ADD53R,0.0787X0.0787*%
%ADD62C,0.0500*%
%ADD63C,0.0200*%
%ADD64C,0.1500*%
%ADD65C,0.0591*%
%ADD66R,0.0591X0.0591*%
%ADD67C,0.0525*%
%ADD68R,0.0525X0.0525*%
%ADD69R,0.0466X0.0466*%
%ADD70C,0.0466*%
%ADD71C,0.0756*%
%ADD72R,0.0756X0.0756*%
%ADD73C,0.0472*%
%ADD74C,0.0650*%
%ADD75R,0.0650X0.0650*%
%ADD76C,0.0456*%
%ADD77R,0.0456X0.0456*%
%ADD78C,0.0768*%
%ADD79C,0.0921*%
%ADD80R,0.0921X0.0921*%
%ADD81R,0.0650X0.0650*%
%ADD82C,0.0620*%
%ADD83R,0.0620X0.0620*%
%ADD84C,0.0557*%
%ADD85C,0.0750*%
%ADD86C,0.0630*%
%ADD87C,0.0531*%
%ADD88C,0.0469*%
%ADD89R,0.0469X0.0469*%
G04:AMPARAMS|DCode=90|XSize=153.5mil|YSize=106.3mil|CornerRadius=26.6mil|HoleSize=0mil|Usage=FLASHONLY|Rotation=90.000|XOffset=0mil|YOffset=0mil|HoleType=Round|Shape=RoundedRectangle|*
%AMROUNDEDRECTD90*
21,1,0.1535,0.0531,0,0,90.0*
21,1,0.1004,0.1063,0,0,90.0*
1,1,0.0531,0.0266,0.0502*
1,1,0.0531,0.0266,-0.0502*
1,1,0.0531,-0.0266,-0.0502*
1,1,0.0531,-0.0266,0.0502*
%
%ADD90ROUNDEDRECTD90*%
%ADD91C,0.0236*%
G36*
X89500Y9500D02*
X63000D01*
Y39000D01*
X89500D01*
Y9500D01*
D02*
G37*
G36*
X60000D02*
X10000D01*
Y39000D01*
X60000D01*
Y9500D01*
D02*
G37*
%LPC*%
G36*
X88079Y38800D02*
X87921D01*
X87767Y38769D01*
X87621Y38709D01*
X87490Y38621D01*
X87379Y38510D01*
X87291Y38379D01*
X87231Y38233D01*
X87200Y38079D01*
Y37921D01*
X87231Y37767D01*
X87291Y37621D01*
X87379Y37490D01*
X87490Y37379D01*
X87621Y37291D01*
X87767Y37231D01*
X87921Y37200D01*
X88079D01*
X88233Y37231D01*
X88379Y37291D01*
X88510Y37379D01*
X88621Y37490D01*
X88709Y37621D01*
X88769Y37767D01*
X88800Y37921D01*
Y38079D01*
X88769Y38233D01*
X88709Y38379D01*
X88621Y38510D01*
X88510Y38621D01*
X88379Y38709D01*
X88233Y38769D01*
X88079Y38800D01*
D02*
G37*
G36*
X65079D02*
X64921D01*
X64767Y38769D01*
X64621Y38709D01*
X64490Y38621D01*
X64379Y38510D01*
X64291Y38379D01*
X64231Y38233D01*
X64200Y38079D01*
Y37921D01*
X64231Y37767D01*
X64291Y37621D01*
X64379Y37490D01*
X64490Y37379D01*
X64621Y37291D01*
X64767Y37231D01*
X64921Y37200D01*
X65079D01*
X65233Y37231D01*
X65379Y37291D01*
X65510Y37379D01*
X65621Y37490D01*
X65709Y37621D01*
X65769Y37767D01*
X65800Y37921D01*
Y38079D01*
X65769Y38233D01*
X65709Y38379D01*
X65621Y38510D01*
X65510Y38621D01*
X65379Y38709D01*
X65233Y38769D01*
X65079Y38800D01*
D02*
G37*
G36*
X66271Y34134D02*
X66012D01*
Y33875D01*
X66271D01*
Y34134D01*
D02*
G37*
G36*
X65962D02*
X65703D01*
Y33875D01*
X65962D01*
Y34134D01*
D02*
G37*
G36*
X69087D02*
X69013D01*
X68940Y34115D01*
X68875Y34077D01*
X68823Y34025D01*
X68785Y33960D01*
X68766Y33887D01*
Y33813D01*
X68785Y33740D01*
X68823Y33675D01*
X68875Y33623D01*
X68940Y33585D01*
X69013Y33566D01*
X69087D01*
X69160Y33585D01*
X69225Y33623D01*
X69277Y33675D01*
X69315Y33740D01*
X69334Y33813D01*
Y33887D01*
X69315Y33960D01*
X69277Y34025D01*
X69225Y34077D01*
X69160Y34115D01*
X69087Y34134D01*
D02*
G37*
G36*
X65962Y33825D02*
X65703D01*
Y33566D01*
X65962D01*
Y33825D01*
D02*
G37*
G36*
X69087Y33134D02*
X69013D01*
X68940Y33115D01*
X68875Y33077D01*
X68823Y33025D01*
X68785Y32960D01*
X68766Y32887D01*
Y32813D01*
X68785Y32740D01*
X68823Y32675D01*
X68875Y32623D01*
X68940Y32585D01*
X69013Y32566D01*
X69087D01*
X69160Y32585D01*
X69225Y32623D01*
X69277Y32675D01*
X69315Y32740D01*
X69334Y32813D01*
Y32887D01*
X69315Y32960D01*
X69277Y33025D01*
X69225Y33077D01*
X69160Y33115D01*
X69087Y33134D01*
D02*
G37*
G36*
X66024D02*
X65950D01*
X65877Y33115D01*
X65812Y33077D01*
X65760Y33025D01*
X65722Y32960D01*
X65703Y32887D01*
Y32813D01*
X65722Y32740D01*
X65760Y32675D01*
X65812Y32623D01*
X65877Y32585D01*
X65950Y32566D01*
X66024D01*
X66097Y32585D01*
X66162Y32623D01*
X66214Y32675D01*
X66252Y32740D01*
X66271Y32813D01*
Y32887D01*
X66252Y32960D01*
X66214Y33025D01*
X66162Y33077D01*
X66097Y33115D01*
X66024Y33134D01*
D02*
G37*
G36*
X69087Y32134D02*
X69013D01*
X68940Y32115D01*
X68875Y32077D01*
X68823Y32025D01*
X68785Y31960D01*
X68766Y31887D01*
Y31813D01*
X68772Y31788D01*
X68558Y31574D01*
X68524Y31524D01*
X68513Y31466D01*
Y30625D01*
X68524Y30566D01*
X68558Y30517D01*
X68753Y30322D01*
X68802Y30289D01*
X68861Y30277D01*
X72155D01*
X72185Y30237D01*
X72175Y30199D01*
Y30101D01*
X72201Y30005D01*
X72250Y29920D01*
X72320Y29850D01*
X72405Y29801D01*
X72501Y29775D01*
X72599D01*
X72695Y29801D01*
X72780Y29850D01*
X72850Y29920D01*
X72899Y30005D01*
X72925Y30101D01*
Y30199D01*
X72899Y30295D01*
X72850Y30380D01*
X72780Y30450D01*
X72695Y30499D01*
X72599Y30525D01*
X72501D01*
X72415Y30502D01*
X72378Y30538D01*
X72329Y30571D01*
X72270Y30583D01*
X69252D01*
X69248Y30590D01*
X69235Y30633D01*
X69277Y30675D01*
X69290Y30697D01*
X72787D01*
X73198Y30285D01*
X73175Y30199D01*
Y30101D01*
X73201Y30005D01*
X73250Y29920D01*
X73317Y29853D01*
X73315Y29834D01*
X73307Y29803D01*
X73220D01*
X73161Y29791D01*
X73112Y29758D01*
X72962Y29608D01*
X72929Y29559D01*
X72922Y29525D01*
X72175D01*
Y29303D01*
X69813D01*
X69328Y29788D01*
X69334Y29813D01*
Y29887D01*
X69315Y29960D01*
X69277Y30025D01*
X69225Y30077D01*
X69160Y30115D01*
X69087Y30134D01*
X69013D01*
X68940Y30115D01*
X68875Y30077D01*
X68823Y30025D01*
X68785Y29960D01*
X68766Y29887D01*
Y29813D01*
X68772Y29788D01*
X66412Y27428D01*
X66379Y27379D01*
X66367Y27320D01*
X66379Y27261D01*
X66412Y27212D01*
X66461Y27179D01*
X66520Y27167D01*
X66579Y27179D01*
X66628Y27212D01*
X68988Y29572D01*
X69013Y29566D01*
X69087D01*
X69112Y29572D01*
X69642Y29042D01*
X69691Y29009D01*
X69750Y28997D01*
X72175D01*
Y28775D01*
X72917D01*
Y28530D01*
X72929Y28471D01*
X72962Y28422D01*
X76472Y24912D01*
X76521Y24879D01*
X76580Y24867D01*
X84345D01*
X85557Y23655D01*
X85539Y23590D01*
Y23499D01*
X85563Y23411D01*
X85608Y23332D01*
X85672Y23268D01*
X85751Y23222D01*
X85839Y23199D01*
X85930D01*
X86018Y23222D01*
X86096Y23268D01*
X86161Y23332D01*
X86206Y23411D01*
X86230Y23499D01*
Y23590D01*
X86206Y23677D01*
X86161Y23756D01*
X86096Y23820D01*
X86018Y23866D01*
X85930Y23889D01*
X85839D01*
X85773Y23872D01*
X84516Y25128D01*
X84467Y25161D01*
X84408Y25173D01*
X76643D01*
X73223Y28593D01*
Y28876D01*
X73273Y28897D01*
X73320Y28850D01*
X73405Y28801D01*
X73501Y28775D01*
X73599D01*
X73685Y28798D01*
X73922Y28562D01*
X73971Y28529D01*
X74030Y28517D01*
X85302D01*
X85360Y28529D01*
X85410Y28562D01*
X85773Y28925D01*
X85839Y28907D01*
X85930D01*
X86018Y28931D01*
X86096Y28976D01*
X86161Y29041D01*
X86206Y29119D01*
X86230Y29207D01*
Y29298D01*
X86206Y29386D01*
X86161Y29465D01*
X86096Y29529D01*
X86018Y29574D01*
X85930Y29598D01*
X85839D01*
X85751Y29574D01*
X85672Y29529D01*
X85608Y29465D01*
X85563Y29386D01*
X85539Y29298D01*
Y29207D01*
X85557Y29141D01*
X85238Y28823D01*
X76824D01*
X76803Y28873D01*
X76850Y28920D01*
X76899Y29005D01*
X76925Y29101D01*
Y29199D01*
X76899Y29295D01*
X76850Y29380D01*
X76780Y29450D01*
X76695Y29499D01*
X76599Y29525D01*
X76501D01*
X76405Y29499D01*
X76320Y29450D01*
X76250Y29380D01*
X76201Y29295D01*
X76175Y29199D01*
Y29101D01*
X76201Y29005D01*
X76250Y28920D01*
X76297Y28873D01*
X76276Y28823D01*
X75824D01*
X75803Y28873D01*
X75850Y28920D01*
X75899Y29005D01*
X75925Y29101D01*
Y29199D01*
X75899Y29295D01*
X75850Y29380D01*
X75780Y29450D01*
X75695Y29499D01*
X75599Y29525D01*
X75501D01*
X75415Y29502D01*
X75158Y29758D01*
X75109Y29791D01*
X75050Y29803D01*
X74793D01*
X74785Y29834D01*
X74783Y29853D01*
X74850Y29920D01*
X74899Y30005D01*
X74925Y30101D01*
Y30199D01*
X74899Y30295D01*
X74850Y30380D01*
X74780Y30450D01*
X74695Y30499D01*
X74599Y30525D01*
X74501D01*
X74405Y30499D01*
X74320Y30450D01*
X74250Y30380D01*
X74201Y30295D01*
X74175Y30199D01*
Y30101D01*
X74201Y30005D01*
X74250Y29920D01*
X74317Y29853D01*
X74315Y29834D01*
X74307Y29803D01*
X73793D01*
X73785Y29834D01*
X73783Y29853D01*
X73850Y29920D01*
X73899Y30005D01*
X73925Y30101D01*
Y30199D01*
X73899Y30295D01*
X73850Y30380D01*
X73780Y30450D01*
X73695Y30499D01*
X73599Y30525D01*
X73501D01*
X73415Y30502D01*
X72958Y30958D01*
X72909Y30991D01*
X72850Y31003D01*
X69290D01*
X69277Y31025D01*
X69225Y31077D01*
X69160Y31115D01*
X69087Y31134D01*
X69013D01*
X68940Y31115D01*
X68875Y31077D01*
X68869Y31071D01*
X68819Y31091D01*
Y31402D01*
X68988Y31572D01*
X69013Y31566D01*
X69087D01*
X69160Y31585D01*
X69225Y31623D01*
X69277Y31675D01*
X69315Y31740D01*
X69334Y31813D01*
Y31887D01*
X69315Y31960D01*
X69277Y32025D01*
X69225Y32077D01*
X69160Y32115D01*
X69087Y32134D01*
D02*
G37*
G36*
X66024D02*
X65950D01*
X65877Y32115D01*
X65812Y32077D01*
X65760Y32025D01*
X65722Y31960D01*
X65703Y31887D01*
Y31813D01*
X65722Y31740D01*
X65760Y31675D01*
X65812Y31623D01*
X65877Y31585D01*
X65950Y31566D01*
X66024D01*
X66097Y31585D01*
X66162Y31623D01*
X66214Y31675D01*
X66252Y31740D01*
X66271Y31813D01*
Y31887D01*
X66252Y31960D01*
X66214Y32025D01*
X66162Y32077D01*
X66097Y32115D01*
X66024Y32134D01*
D02*
G37*
G36*
Y31134D02*
X65950D01*
X65877Y31115D01*
X65812Y31077D01*
X65760Y31025D01*
X65722Y30960D01*
X65703Y30887D01*
Y30813D01*
X65722Y30740D01*
X65760Y30675D01*
X65812Y30623D01*
X65877Y30585D01*
X65950Y30566D01*
X66024D01*
X66097Y30585D01*
X66162Y30623D01*
X66214Y30675D01*
X66227Y30697D01*
X67430D01*
X67467Y30682D01*
X67533D01*
X67595Y30707D01*
X67643Y30755D01*
X67668Y30817D01*
Y30883D01*
X67643Y30945D01*
X67595Y30993D01*
X67533Y31018D01*
X67467D01*
X67430Y31003D01*
X66227D01*
X66214Y31025D01*
X66162Y31077D01*
X66097Y31115D01*
X66024Y31134D01*
D02*
G37*
G36*
X66271Y33825D02*
X66012D01*
Y33566D01*
X66055D01*
X66379Y33242D01*
X66428Y33209D01*
X66487Y33197D01*
X73287D01*
X76198Y30285D01*
X76175Y30199D01*
Y30175D01*
X76525D01*
Y30525D01*
X76501D01*
X76415Y30502D01*
X73458Y33458D01*
X73409Y33491D01*
X73350Y33503D01*
X66550D01*
X66271Y33782D01*
Y33825D01*
D02*
G37*
G36*
X68223Y31438D02*
X68157D01*
X68095Y31413D01*
X68047Y31365D01*
X68022Y31303D01*
Y31237D01*
X68037Y31200D01*
Y30833D01*
X67207Y30003D01*
X66227D01*
X66214Y30025D01*
X66162Y30077D01*
X66097Y30115D01*
X66024Y30134D01*
X65950D01*
X65877Y30115D01*
X65812Y30077D01*
X65760Y30025D01*
X65722Y29960D01*
X65703Y29887D01*
Y29813D01*
X65722Y29740D01*
X65760Y29675D01*
X65812Y29623D01*
X65877Y29585D01*
X65950Y29566D01*
X66024D01*
X66097Y29585D01*
X66162Y29623D01*
X66214Y29675D01*
X66227Y29697D01*
X67270D01*
X67329Y29709D01*
X67378Y29742D01*
X68298Y30662D01*
X68331Y30711D01*
X68343Y30770D01*
Y31200D01*
X68358Y31237D01*
Y31303D01*
X68333Y31365D01*
X68285Y31413D01*
X68223Y31438D01*
D02*
G37*
G36*
X76525Y30125D02*
X76175D01*
Y30101D01*
X76201Y30005D01*
X76250Y29920D01*
X76320Y29850D01*
X76405Y29801D01*
X76501Y29775D01*
X76525D01*
Y30125D01*
D02*
G37*
G36*
X75599Y30525D02*
X75501D01*
X75405Y30499D01*
X75320Y30450D01*
X75250Y30380D01*
X75201Y30295D01*
X75175Y30199D01*
Y30101D01*
X75201Y30005D01*
X75250Y29920D01*
X75320Y29850D01*
X75405Y29801D01*
X75501Y29775D01*
X75599D01*
X75695Y29801D01*
X75780Y29850D01*
X75850Y29920D01*
X75899Y30005D01*
X75925Y30101D01*
Y30199D01*
X75899Y30295D01*
X75850Y30380D01*
X75780Y30450D01*
X75695Y30499D01*
X75599Y30525D01*
D02*
G37*
G36*
X84945Y29598D02*
X84925D01*
Y29278D01*
X85245D01*
Y29298D01*
X85222Y29386D01*
X85176Y29465D01*
X85112Y29529D01*
X85033Y29574D01*
X84945Y29598D01*
D02*
G37*
G36*
X76599Y30525D02*
X76575D01*
Y30150D01*
Y29775D01*
X76599D01*
X76695Y29801D01*
X76780Y29850D01*
X76850Y29920D01*
X76894Y29997D01*
X83939D01*
X84572Y29364D01*
X84555Y29298D01*
Y29278D01*
X84875D01*
Y29598D01*
X84855D01*
X84789Y29580D01*
X84111Y30258D01*
X84061Y30291D01*
X84003Y30303D01*
X76894D01*
X76850Y30380D01*
X76780Y30450D01*
X76695Y30499D01*
X76599Y30525D01*
D02*
G37*
G36*
X85245Y29228D02*
X84925D01*
Y28907D01*
X84945D01*
X85033Y28931D01*
X85112Y28976D01*
X85176Y29041D01*
X85222Y29119D01*
X85245Y29207D01*
Y29228D01*
D02*
G37*
G36*
X84875D02*
X84555D01*
Y29207D01*
X84578Y29119D01*
X84624Y29041D01*
X84688Y28976D01*
X84767Y28931D01*
X84855Y28907D01*
X84875D01*
Y29228D01*
D02*
G37*
G36*
X83961Y29598D02*
X83870D01*
X83782Y29574D01*
X83704Y29529D01*
X83639Y29465D01*
X83594Y29386D01*
X83570Y29298D01*
Y29207D01*
X83594Y29119D01*
X83639Y29041D01*
X83704Y28976D01*
X83782Y28931D01*
X83870Y28907D01*
X83961D01*
X84049Y28931D01*
X84128Y28976D01*
X84192Y29041D01*
X84237Y29119D01*
X84261Y29207D01*
Y29298D01*
X84237Y29386D01*
X84192Y29465D01*
X84128Y29529D01*
X84049Y29574D01*
X83961Y29598D01*
D02*
G37*
G36*
X69087Y29134D02*
X69013D01*
X68940Y29115D01*
X68875Y29077D01*
X68823Y29025D01*
X68785Y28960D01*
X68766Y28887D01*
Y28813D01*
X68785Y28740D01*
X68823Y28675D01*
X68875Y28623D01*
X68940Y28585D01*
X69013Y28566D01*
X69087D01*
X69160Y28585D01*
X69225Y28623D01*
X69277Y28675D01*
X69315Y28740D01*
X69334Y28813D01*
Y28887D01*
X69315Y28960D01*
X69277Y29025D01*
X69225Y29077D01*
X69160Y29115D01*
X69087Y29134D01*
D02*
G37*
G36*
X66024D02*
X65950D01*
X65877Y29115D01*
X65812Y29077D01*
X65760Y29025D01*
X65722Y28960D01*
X65703Y28887D01*
Y28813D01*
X65722Y28740D01*
X65760Y28675D01*
X65812Y28623D01*
X65877Y28585D01*
X65950Y28566D01*
X66024D01*
X66097Y28585D01*
X66162Y28623D01*
X66214Y28675D01*
X66252Y28740D01*
X66271Y28813D01*
Y28887D01*
X66252Y28960D01*
X66214Y29025D01*
X66162Y29077D01*
X66097Y29115D01*
X66024Y29134D01*
D02*
G37*
G36*
Y28134D02*
X65950D01*
X65877Y28115D01*
X65812Y28077D01*
X65760Y28025D01*
X65722Y27960D01*
X65703Y27887D01*
Y27813D01*
X65722Y27740D01*
X65760Y27675D01*
X65812Y27623D01*
X65877Y27585D01*
X65950Y27566D01*
X66024D01*
X66097Y27585D01*
X66162Y27623D01*
X66214Y27675D01*
X66252Y27740D01*
X66271Y27813D01*
Y27887D01*
X66252Y27960D01*
X66214Y28025D01*
X66162Y28077D01*
X66097Y28115D01*
X66024Y28134D01*
D02*
G37*
G36*
X69087Y27134D02*
X69013D01*
X68940Y27115D01*
X68875Y27077D01*
X68823Y27025D01*
X68785Y26960D01*
X68766Y26887D01*
Y26813D01*
X68772Y26788D01*
X68552Y26568D01*
X68519Y26519D01*
X68507Y26460D01*
Y25690D01*
X68519Y25631D01*
X68552Y25582D01*
X68892Y25242D01*
X68941Y25209D01*
X69000Y25197D01*
X69447D01*
X71552Y23092D01*
X71601Y23059D01*
X71660Y23047D01*
X77567D01*
X78882Y21732D01*
X78931Y21699D01*
X78990Y21687D01*
X79800D01*
X79821Y21637D01*
X79398Y21214D01*
X79343Y21228D01*
X79257D01*
X79202Y21214D01*
X78428Y21988D01*
X78379Y22021D01*
X78320Y22033D01*
X66450D01*
X66391Y22021D01*
X66342Y21988D01*
X65962Y21608D01*
X65929Y21559D01*
X65917Y21500D01*
Y20530D01*
X65929Y20471D01*
X65962Y20422D01*
X66242Y20142D01*
X66291Y20109D01*
X66350Y20097D01*
X66850D01*
X66909Y20109D01*
X66958Y20142D01*
X67402Y20586D01*
X67457Y20572D01*
X67543D01*
X67627Y20594D01*
X67702Y20637D01*
X67763Y20698D01*
X67806Y20773D01*
X67828Y20857D01*
Y20943D01*
X67814Y20998D01*
X67992Y21175D01*
X68240D01*
X68261Y21125D01*
X68237Y21102D01*
X68194Y21027D01*
X68172Y20943D01*
Y20857D01*
X68194Y20773D01*
X68237Y20698D01*
X68298Y20637D01*
X68373Y20594D01*
X68457Y20572D01*
X68543D01*
X68627Y20594D01*
X68702Y20637D01*
X68763Y20698D01*
X68806Y20773D01*
X68828Y20857D01*
Y20943D01*
X68806Y21027D01*
X68763Y21102D01*
X68739Y21125D01*
X68760Y21175D01*
X69240D01*
X69261Y21125D01*
X69237Y21102D01*
X69194Y21027D01*
X69172Y20943D01*
Y20857D01*
X69194Y20773D01*
X69237Y20698D01*
X69298Y20637D01*
X69373Y20594D01*
X69457Y20572D01*
X69543D01*
X69598Y20586D01*
X71792Y18392D01*
X71841Y18359D01*
X71900Y18347D01*
X72950D01*
X73009Y18359D01*
X73058Y18392D01*
X75302Y20636D01*
X75357Y20622D01*
X75443D01*
X75527Y20644D01*
X75602Y20687D01*
X75663Y20748D01*
X75706Y20823D01*
X75728Y20907D01*
Y20993D01*
X75706Y21077D01*
X75663Y21152D01*
X75627Y21187D01*
X75648Y21237D01*
X76152D01*
X76173Y21187D01*
X76137Y21152D01*
X76094Y21077D01*
X76072Y20993D01*
Y20907D01*
X76094Y20823D01*
X76137Y20748D01*
X76198Y20687D01*
X76273Y20644D01*
X76357Y20622D01*
X76443D01*
X76498Y20636D01*
X77612Y19522D01*
X77661Y19489D01*
X77720Y19477D01*
X86930D01*
X86989Y19489D01*
X87038Y19522D01*
X88102Y20586D01*
X88157Y20572D01*
X88243D01*
X88327Y20594D01*
X88402Y20637D01*
X88463Y20698D01*
X88506Y20773D01*
X88528Y20857D01*
Y20943D01*
X88506Y21027D01*
X88463Y21102D01*
X88402Y21163D01*
X88327Y21206D01*
X88243Y21228D01*
X88157D01*
X88073Y21206D01*
X87998Y21163D01*
X87937Y21102D01*
X87894Y21027D01*
X87872Y20943D01*
Y20857D01*
X87886Y20802D01*
X86867Y19783D01*
X77783D01*
X76714Y20852D01*
X76728Y20907D01*
Y20993D01*
X76706Y21077D01*
X76663Y21152D01*
X76627Y21187D01*
X76648Y21237D01*
X77747D01*
X77986Y20998D01*
X77972Y20943D01*
Y20857D01*
X77994Y20773D01*
X78037Y20698D01*
X78098Y20637D01*
X78173Y20594D01*
X78257Y20572D01*
X78343D01*
X78398Y20586D01*
X78870Y20113D01*
X78920Y20080D01*
X78978Y20069D01*
X83522D01*
X83580Y20080D01*
X83630Y20113D01*
X84102Y20586D01*
X84157Y20572D01*
X84243D01*
X84327Y20594D01*
X84402Y20637D01*
X84441Y20677D01*
X84445Y20678D01*
X84501Y20670D01*
X84501Y20670D01*
X84520Y20642D01*
X84800Y20362D01*
X84850Y20329D01*
X84908Y20317D01*
X85500D01*
X85559Y20329D01*
X85608Y20362D01*
X85738Y20492D01*
X85771Y20541D01*
X85783Y20600D01*
Y21330D01*
X85771Y21389D01*
X85738Y21438D01*
X85228Y21948D01*
X85179Y21981D01*
X85120Y21993D01*
X79053D01*
X77738Y23308D01*
X77689Y23341D01*
X77630Y23353D01*
X71723D01*
X69618Y25458D01*
X69569Y25491D01*
X69510Y25503D01*
X69099D01*
X69090Y25517D01*
X69090Y25522D01*
X69113Y25573D01*
X69160Y25585D01*
X69225Y25623D01*
X69277Y25675D01*
X69290Y25697D01*
X69727D01*
X71532Y23892D01*
X71581Y23859D01*
X71640Y23847D01*
X78966D01*
X80572Y22242D01*
X80621Y22209D01*
X80680Y22197D01*
X85144D01*
X86047Y21294D01*
Y21191D01*
X85998Y21163D01*
X85937Y21102D01*
X85894Y21027D01*
X85872Y20943D01*
Y20857D01*
X85894Y20773D01*
X85937Y20698D01*
X85998Y20637D01*
X86073Y20594D01*
X86157Y20572D01*
X86243D01*
X86327Y20594D01*
X86402Y20637D01*
X86463Y20698D01*
X86506Y20773D01*
X86528Y20857D01*
Y20943D01*
X86506Y21027D01*
X86463Y21102D01*
X86402Y21163D01*
X86353Y21191D01*
Y21357D01*
X86341Y21416D01*
X86308Y21465D01*
X85315Y22458D01*
X85266Y22491D01*
X85207Y22503D01*
X80743D01*
X79138Y24108D01*
X79088Y24141D01*
X79030Y24153D01*
X71703D01*
X69898Y25958D01*
X69849Y25991D01*
X69790Y26003D01*
X69290D01*
X69277Y26025D01*
X69225Y26077D01*
X69160Y26115D01*
X69087Y26134D01*
X69013D01*
X68940Y26115D01*
X68875Y26077D01*
X68863Y26065D01*
X68813Y26086D01*
Y26397D01*
X68988Y26572D01*
X69013Y26566D01*
X69087D01*
X69160Y26585D01*
X69225Y26623D01*
X69277Y26675D01*
X69315Y26740D01*
X69334Y26813D01*
Y26887D01*
X69315Y26960D01*
X69277Y27025D01*
X69225Y27077D01*
X69160Y27115D01*
X69087Y27134D01*
D02*
G37*
G36*
X66024D02*
X65950D01*
X65877Y27115D01*
X65812Y27077D01*
X65760Y27025D01*
X65722Y26960D01*
X65703Y26887D01*
Y26813D01*
X65709Y26788D01*
X65492Y26571D01*
X65459Y26522D01*
X65447Y26463D01*
Y15000D01*
X65459Y14941D01*
X65492Y14892D01*
X66022Y14362D01*
X66071Y14329D01*
X66130Y14317D01*
X68790D01*
X68849Y14329D01*
X68898Y14362D01*
X69178Y14642D01*
X69197Y14671D01*
X69199Y14672D01*
X69253Y14679D01*
X69258Y14678D01*
X69298Y14637D01*
X69373Y14594D01*
X69457Y14572D01*
X69543D01*
X69598Y14586D01*
X71792Y12392D01*
X71841Y12359D01*
X71900Y12347D01*
X72950D01*
X73009Y12359D01*
X73058Y12392D01*
X75302Y14636D01*
X75357Y14622D01*
X75443D01*
X75498Y14636D01*
X76242Y13892D01*
X76259Y13880D01*
X76270Y13864D01*
X76320Y13830D01*
X76378Y13819D01*
X86272D01*
X86330Y13830D01*
X86380Y13864D01*
X87102Y14586D01*
X87157Y14572D01*
X87243D01*
X87327Y14594D01*
X87402Y14637D01*
X87463Y14698D01*
X87506Y14773D01*
X87528Y14857D01*
Y14943D01*
X87506Y15027D01*
X87463Y15102D01*
X87402Y15163D01*
X87394Y15167D01*
X87408Y15217D01*
X87667D01*
X87886Y14998D01*
X87872Y14943D01*
Y14857D01*
X87894Y14773D01*
X87937Y14698D01*
X87998Y14637D01*
X88073Y14594D01*
X88157Y14572D01*
X88243D01*
X88327Y14594D01*
X88402Y14637D01*
X88463Y14698D01*
X88506Y14773D01*
X88528Y14857D01*
Y14943D01*
X88506Y15027D01*
X88463Y15102D01*
X88402Y15163D01*
X88327Y15206D01*
X88243Y15228D01*
X88157D01*
X88102Y15214D01*
X87838Y15478D01*
X87789Y15511D01*
X87730Y15523D01*
X84875D01*
X84816Y15511D01*
X84767Y15478D01*
X84522Y15233D01*
X84489Y15184D01*
X84483Y15153D01*
X84428Y15136D01*
X84402Y15163D01*
X84327Y15206D01*
X84243Y15228D01*
X84157D01*
X84102Y15214D01*
X83630Y15687D01*
X83580Y15720D01*
X83522Y15731D01*
X78832D01*
X78774Y15720D01*
X78724Y15687D01*
X78396Y15358D01*
X78363Y15309D01*
X78356Y15277D01*
X78343Y15228D01*
X78257D01*
X78202Y15214D01*
X77928Y15488D01*
X77879Y15521D01*
X77820Y15533D01*
X72830D01*
X72771Y15521D01*
X72722Y15488D01*
X72498Y15264D01*
X72443Y15278D01*
X72357D01*
X72302Y15264D01*
X71630Y15936D01*
X71580Y15970D01*
X71522Y15981D01*
X67428D01*
X67370Y15970D01*
X67320Y15936D01*
X66598Y15214D01*
X66543Y15228D01*
X66457D01*
X66373Y15206D01*
X66298Y15163D01*
X66237Y15102D01*
X66194Y15027D01*
X66172Y14943D01*
Y14857D01*
X66194Y14773D01*
X66237Y14698D01*
X66263Y14673D01*
X66242Y14623D01*
X66193D01*
X65753Y15063D01*
Y24611D01*
X65803Y24632D01*
X65812Y24623D01*
X65877Y24585D01*
X65950Y24566D01*
X66024D01*
X66097Y24585D01*
X66162Y24623D01*
X66214Y24675D01*
X66252Y24740D01*
X66271Y24813D01*
Y24887D01*
X66252Y24960D01*
X66214Y25025D01*
X66162Y25077D01*
X66097Y25115D01*
X66024Y25134D01*
X65950D01*
X65877Y25115D01*
X65812Y25077D01*
X65803Y25068D01*
X65753Y25089D01*
Y25611D01*
X65803Y25632D01*
X65812Y25623D01*
X65877Y25585D01*
X65950Y25566D01*
X66024D01*
X66097Y25585D01*
X66162Y25623D01*
X66214Y25675D01*
X66252Y25740D01*
X66271Y25813D01*
Y25887D01*
X66252Y25960D01*
X66214Y26025D01*
X66162Y26077D01*
X66097Y26115D01*
X66024Y26134D01*
X65950D01*
X65877Y26115D01*
X65812Y26077D01*
X65803Y26068D01*
X65753Y26089D01*
Y26400D01*
X65925Y26572D01*
X65950Y26566D01*
X66024D01*
X66097Y26585D01*
X66162Y26623D01*
X66214Y26675D01*
X66252Y26740D01*
X66271Y26813D01*
Y26887D01*
X66252Y26960D01*
X66214Y27025D01*
X66162Y27077D01*
X66097Y27115D01*
X66024Y27134D01*
D02*
G37*
G36*
X86996Y27120D02*
X86465D01*
X86383Y27110D01*
X86306Y27078D01*
X86240Y27027D01*
X86189Y26961D01*
X86157Y26884D01*
X86146Y26802D01*
Y25798D01*
X86157Y25716D01*
X86189Y25639D01*
X86240Y25573D01*
X86306Y25522D01*
X86383Y25490D01*
X86465Y25480D01*
X86996D01*
X87079Y25490D01*
X87156Y25522D01*
X87222Y25573D01*
X87272Y25639D01*
X87304Y25716D01*
X87315Y25798D01*
Y26802D01*
X87304Y26884D01*
X87272Y26961D01*
X87222Y27027D01*
X87156Y27078D01*
X87079Y27110D01*
X86996Y27120D01*
D02*
G37*
G36*
X83335D02*
X82804D01*
X82721Y27110D01*
X82644Y27078D01*
X82578Y27027D01*
X82528Y26961D01*
X82496Y26884D01*
X82485Y26802D01*
Y25798D01*
X82496Y25716D01*
X82528Y25639D01*
X82578Y25573D01*
X82644Y25522D01*
X82721Y25490D01*
X82804Y25480D01*
X83335D01*
X83417Y25490D01*
X83494Y25522D01*
X83560Y25573D01*
X83611Y25639D01*
X83643Y25716D01*
X83654Y25798D01*
Y26802D01*
X83643Y26884D01*
X83611Y26961D01*
X83560Y27027D01*
X83494Y27078D01*
X83417Y27110D01*
X83335Y27120D01*
D02*
G37*
G36*
X69087Y28134D02*
X69013D01*
X68940Y28115D01*
X68875Y28077D01*
X68823Y28025D01*
X68785Y27960D01*
X68766Y27887D01*
Y27813D01*
X68785Y27740D01*
X68823Y27675D01*
X68875Y27623D01*
X68940Y27585D01*
X69013Y27566D01*
X69087D01*
X69112Y27572D01*
X71842Y24842D01*
X71891Y24809D01*
X71950Y24797D01*
X74300D01*
X74337Y24782D01*
X74403D01*
X74465Y24807D01*
X74513Y24855D01*
X74538Y24917D01*
Y24983D01*
X74513Y25045D01*
X74465Y25093D01*
X74403Y25118D01*
X74337D01*
X74300Y25103D01*
X72013D01*
X69328Y27788D01*
X69334Y27813D01*
Y27887D01*
X69315Y27960D01*
X69277Y28025D01*
X69225Y28077D01*
X69160Y28115D01*
X69087Y28134D01*
D02*
G37*
G36*
Y25134D02*
X69013D01*
X68940Y25115D01*
X68875Y25077D01*
X68823Y25025D01*
X68785Y24960D01*
X68766Y24887D01*
Y24813D01*
X68785Y24740D01*
X68823Y24675D01*
X68875Y24623D01*
X68940Y24585D01*
X69013Y24566D01*
X69087D01*
X69160Y24585D01*
X69225Y24623D01*
X69277Y24675D01*
X69315Y24740D01*
X69334Y24813D01*
Y24887D01*
X69315Y24960D01*
X69277Y25025D01*
X69225Y25077D01*
X69160Y25115D01*
X69087Y25134D01*
D02*
G37*
G36*
X83961Y23889D02*
X83941D01*
Y23569D01*
X84261D01*
Y23590D01*
X84237Y23677D01*
X84192Y23756D01*
X84128Y23820D01*
X84049Y23866D01*
X83961Y23889D01*
D02*
G37*
G36*
X83891D02*
X83870D01*
X83782Y23866D01*
X83704Y23820D01*
X83639Y23756D01*
X83594Y23677D01*
X83570Y23590D01*
Y23569D01*
X83891D01*
Y23889D01*
D02*
G37*
G36*
X84261Y23519D02*
X83941D01*
Y23199D01*
X83961D01*
X84049Y23222D01*
X84128Y23268D01*
X84192Y23332D01*
X84237Y23411D01*
X84261Y23499D01*
Y23519D01*
D02*
G37*
G36*
X83891D02*
X83570D01*
Y23499D01*
X83594Y23411D01*
X83639Y23332D01*
X83704Y23268D01*
X83782Y23222D01*
X83870Y23199D01*
X83891D01*
Y23519D01*
D02*
G37*
G36*
X87243Y21228D02*
X87157D01*
X87073Y21206D01*
X86998Y21163D01*
X86937Y21102D01*
X86894Y21027D01*
X86872Y20943D01*
Y20857D01*
X86894Y20773D01*
X86937Y20698D01*
X86998Y20637D01*
X87073Y20594D01*
X87157Y20572D01*
X87243D01*
X87327Y20594D01*
X87402Y20637D01*
X87463Y20698D01*
X87506Y20773D01*
X87528Y20857D01*
Y20943D01*
X87506Y21027D01*
X87463Y21102D01*
X87402Y21163D01*
X87327Y21206D01*
X87243Y21228D01*
D02*
G37*
G36*
X88079Y11800D02*
X87921D01*
X87767Y11769D01*
X87621Y11709D01*
X87490Y11621D01*
X87379Y11510D01*
X87291Y11379D01*
X87231Y11233D01*
X87200Y11079D01*
Y10921D01*
X87231Y10767D01*
X87291Y10621D01*
X87379Y10490D01*
X87490Y10379D01*
X87621Y10291D01*
X87767Y10231D01*
X87921Y10200D01*
X88079D01*
X88233Y10231D01*
X88379Y10291D01*
X88510Y10379D01*
X88621Y10490D01*
X88709Y10621D01*
X88769Y10767D01*
X88800Y10921D01*
Y11079D01*
X88769Y11233D01*
X88709Y11379D01*
X88621Y11510D01*
X88510Y11621D01*
X88379Y11709D01*
X88233Y11769D01*
X88079Y11800D01*
D02*
G37*
G36*
X65079D02*
X64921D01*
X64767Y11769D01*
X64621Y11709D01*
X64490Y11621D01*
X64379Y11510D01*
X64291Y11379D01*
X64231Y11233D01*
X64200Y11079D01*
Y10921D01*
X64231Y10767D01*
X64291Y10621D01*
X64379Y10490D01*
X64490Y10379D01*
X64621Y10291D01*
X64767Y10231D01*
X64921Y10200D01*
X65079D01*
X65233Y10231D01*
X65379Y10291D01*
X65510Y10379D01*
X65621Y10490D01*
X65709Y10621D01*
X65769Y10767D01*
X65800Y10921D01*
Y11079D01*
X65769Y11233D01*
X65709Y11379D01*
X65621Y11510D01*
X65510Y11621D01*
X65379Y11709D01*
X65233Y11769D01*
X65079Y11800D01*
D02*
G37*
%LPD*%
G36*
X78986Y20998D02*
X78972Y20943D01*
Y20857D01*
X78994Y20773D01*
X79037Y20698D01*
X79098Y20637D01*
X79173Y20594D01*
X79257Y20572D01*
X79343D01*
X79427Y20594D01*
X79502Y20637D01*
X79563Y20698D01*
X79606Y20773D01*
X79628Y20857D01*
Y20943D01*
X79614Y20998D01*
X80042Y21425D01*
X80544D01*
X80563Y21379D01*
X80398Y21214D01*
X80343Y21228D01*
X80257D01*
X80173Y21206D01*
X80098Y21163D01*
X80037Y21102D01*
X79994Y21027D01*
X79972Y20943D01*
Y20857D01*
X79994Y20773D01*
X80037Y20698D01*
X80098Y20637D01*
X80173Y20594D01*
X80257Y20572D01*
X80343D01*
X80427Y20594D01*
X80502Y20637D01*
X80563Y20698D01*
X80606Y20773D01*
X80628Y20857D01*
Y20943D01*
X80614Y20998D01*
X80792Y21175D01*
X81040D01*
X81061Y21125D01*
X81037Y21102D01*
X80994Y21027D01*
X80972Y20943D01*
Y20857D01*
X80994Y20773D01*
X81037Y20698D01*
X81098Y20637D01*
X81173Y20594D01*
X81257Y20572D01*
X81343D01*
X81427Y20594D01*
X81502Y20637D01*
X81563Y20698D01*
X81606Y20773D01*
X81628Y20857D01*
Y20943D01*
X81606Y21027D01*
X81563Y21102D01*
X81539Y21125D01*
X81560Y21175D01*
X82040D01*
X82061Y21125D01*
X82037Y21102D01*
X81994Y21027D01*
X81972Y20943D01*
Y20857D01*
X81994Y20773D01*
X82037Y20698D01*
X82098Y20637D01*
X82173Y20594D01*
X82257Y20572D01*
X82343D01*
X82427Y20594D01*
X82502Y20637D01*
X82563Y20698D01*
X82606Y20773D01*
X82628Y20857D01*
Y20943D01*
X82606Y21027D01*
X82563Y21102D01*
X82539Y21125D01*
X82560Y21175D01*
X83940D01*
X83961Y21125D01*
X83937Y21102D01*
X83894Y21027D01*
X83872Y20943D01*
Y20857D01*
X83886Y20802D01*
X83458Y20375D01*
X79042D01*
X78614Y20802D01*
X78628Y20857D01*
Y20943D01*
X78606Y21027D01*
X78563Y21102D01*
X78502Y21163D01*
X78427Y21206D01*
X78343Y21228D01*
X78257D01*
X78202Y21214D01*
X77918Y21498D01*
X77869Y21531D01*
X77810Y21543D01*
X72840D01*
X72781Y21531D01*
X72732Y21498D01*
X72498Y21264D01*
X72443Y21278D01*
X72357D01*
X72302Y21264D01*
X71889Y21677D01*
X71899Y21714D01*
X71908Y21727D01*
X78257D01*
X78986Y20998D01*
D02*
G37*
G36*
X67763Y21379D02*
X67598Y21214D01*
X67543Y21228D01*
X67457D01*
X67373Y21206D01*
X67298Y21163D01*
X67237Y21102D01*
X67194Y21027D01*
X67172Y20943D01*
Y20857D01*
X67186Y20802D01*
X66787Y20403D01*
X66413D01*
X66223Y20593D01*
Y20642D01*
X66273Y20663D01*
X66298Y20637D01*
X66373Y20594D01*
X66457Y20572D01*
X66543D01*
X66627Y20594D01*
X66702Y20637D01*
X66763Y20698D01*
X66806Y20773D01*
X66828Y20857D01*
Y20943D01*
X66814Y20998D01*
X67242Y21425D01*
X67744D01*
X67763Y21379D01*
D02*
G37*
G36*
X67051Y21714D02*
X67061Y21677D01*
X66598Y21214D01*
X66543Y21228D01*
X66457D01*
X66373Y21206D01*
X66298Y21163D01*
X66273Y21137D01*
X66223Y21158D01*
Y21437D01*
X66513Y21727D01*
X67042D01*
X67051Y21714D01*
D02*
G37*
G36*
X72086Y21048D02*
X72072Y20993D01*
Y20907D01*
X72094Y20823D01*
X72137Y20748D01*
X72163Y20723D01*
X72142Y20673D01*
X71622D01*
X70915Y21379D01*
X70935Y21425D01*
X71708D01*
X72086Y21048D01*
D02*
G37*
G36*
X75173Y21187D02*
X75137Y21152D01*
X75094Y21077D01*
X75072Y20993D01*
Y20907D01*
X75086Y20852D01*
X72887Y18653D01*
X71963D01*
X69814Y20802D01*
X69828Y20857D01*
Y20943D01*
X69806Y21027D01*
X69763Y21102D01*
X69739Y21125D01*
X69760Y21175D01*
X70240D01*
X70261Y21125D01*
X70237Y21102D01*
X70194Y21027D01*
X70172Y20943D01*
Y20857D01*
X70194Y20773D01*
X70237Y20698D01*
X70298Y20637D01*
X70373Y20594D01*
X70457Y20572D01*
X70543D01*
X70627Y20594D01*
X70702Y20637D01*
X70763Y20698D01*
X70806Y20773D01*
X70828Y20857D01*
Y20943D01*
X70821Y20970D01*
X70866Y20996D01*
X71450Y20412D01*
X71500Y20379D01*
X71558Y20367D01*
X72970D01*
X73029Y20379D01*
X73078Y20412D01*
X73302Y20636D01*
X73357Y20622D01*
X73443D01*
X73527Y20644D01*
X73602Y20687D01*
X73663Y20748D01*
X73706Y20823D01*
X73728Y20907D01*
Y20993D01*
X73706Y21077D01*
X73663Y21152D01*
X73627Y21187D01*
X73648Y21237D01*
X74152D01*
X74173Y21187D01*
X74137Y21152D01*
X74094Y21077D01*
X74072Y20993D01*
Y20907D01*
X74094Y20823D01*
X74137Y20748D01*
X74198Y20687D01*
X74273Y20644D01*
X74357Y20622D01*
X74443D01*
X74527Y20644D01*
X74602Y20687D01*
X74663Y20748D01*
X74706Y20823D01*
X74728Y20907D01*
Y20993D01*
X74706Y21077D01*
X74663Y21152D01*
X74627Y21187D01*
X74648Y21237D01*
X75152D01*
X75173Y21187D01*
D02*
G37*
G36*
X68013Y15629D02*
X67598Y15214D01*
X67543Y15228D01*
X67457D01*
X67373Y15206D01*
X67298Y15163D01*
X67237Y15102D01*
X67194Y15027D01*
X67172Y14943D01*
Y14857D01*
X67194Y14773D01*
X67237Y14698D01*
X67263Y14673D01*
X67242Y14623D01*
X66758D01*
X66737Y14673D01*
X66763Y14698D01*
X66806Y14773D01*
X66828Y14857D01*
Y14943D01*
X66814Y14998D01*
X67492Y15675D01*
X67994D01*
X68013Y15629D01*
D02*
G37*
G36*
X69085Y15379D02*
X68962Y15257D01*
X68929Y15207D01*
X68917Y15148D01*
Y14813D01*
X68846Y14742D01*
X68806Y14773D01*
X68806Y14773D01*
X68828Y14857D01*
Y14943D01*
X68806Y15027D01*
X68763Y15102D01*
X68702Y15163D01*
X68627Y15206D01*
X68543Y15228D01*
X68457D01*
X68373Y15206D01*
X68298Y15163D01*
X68237Y15102D01*
X68194Y15027D01*
X68172Y14943D01*
Y14857D01*
X68194Y14773D01*
X68237Y14698D01*
X68263Y14673D01*
X68242Y14623D01*
X67758D01*
X67737Y14673D01*
X67763Y14698D01*
X67806Y14773D01*
X67828Y14857D01*
Y14943D01*
X67814Y14998D01*
X68242Y15425D01*
X69065D01*
X69085Y15379D01*
D02*
G37*
G36*
X72086Y15048D02*
X72072Y14993D01*
Y14907D01*
X72094Y14823D01*
X72137Y14748D01*
X72163Y14723D01*
X72142Y14673D01*
X71563D01*
X70607Y15629D01*
X70626Y15675D01*
X71458D01*
X72086Y15048D01*
D02*
G37*
G36*
X83886Y14998D02*
X83872Y14943D01*
Y14857D01*
X83894Y14773D01*
X83937Y14698D01*
X83961Y14675D01*
X83940Y14625D01*
X82792D01*
X82614Y14802D01*
X82628Y14857D01*
Y14943D01*
X82606Y15027D01*
X82563Y15102D01*
X82502Y15163D01*
X82427Y15206D01*
X82343Y15228D01*
X82257D01*
X82173Y15206D01*
X82098Y15163D01*
X82037Y15102D01*
X81994Y15027D01*
X81972Y14943D01*
Y14857D01*
X81994Y14773D01*
X82037Y14698D01*
X82098Y14637D01*
X82173Y14594D01*
X82257Y14572D01*
X82343D01*
X82398Y14586D01*
X82563Y14421D01*
X82544Y14375D01*
X80042D01*
X79614Y14802D01*
X79628Y14857D01*
Y14943D01*
X79606Y15027D01*
X79563Y15102D01*
X79539Y15125D01*
X79560Y15175D01*
X80040D01*
X80061Y15125D01*
X80037Y15102D01*
X79994Y15027D01*
X79972Y14943D01*
Y14857D01*
X79994Y14773D01*
X80037Y14698D01*
X80098Y14637D01*
X80173Y14594D01*
X80257Y14572D01*
X80343D01*
X80427Y14594D01*
X80502Y14637D01*
X80563Y14698D01*
X80606Y14773D01*
X80628Y14857D01*
Y14943D01*
X80606Y15027D01*
X80563Y15102D01*
X80539Y15125D01*
X80560Y15175D01*
X80808D01*
X80986Y14998D01*
X80972Y14943D01*
Y14857D01*
X80994Y14773D01*
X81037Y14698D01*
X81098Y14637D01*
X81173Y14594D01*
X81257Y14572D01*
X81343D01*
X81427Y14594D01*
X81502Y14637D01*
X81563Y14698D01*
X81606Y14773D01*
X81628Y14857D01*
Y14943D01*
X81606Y15027D01*
X81563Y15102D01*
X81502Y15163D01*
X81427Y15206D01*
X81343Y15228D01*
X81257D01*
X81202Y15214D01*
X81037Y15379D01*
X81056Y15425D01*
X83458D01*
X83886Y14998D01*
D02*
G37*
G36*
X77986D02*
X77972Y14943D01*
Y14857D01*
X77994Y14773D01*
X78037Y14698D01*
X78098Y14637D01*
X78173Y14594D01*
X78257Y14572D01*
X78343D01*
X78427Y14594D01*
X78502Y14637D01*
X78563Y14698D01*
X78606Y14773D01*
X78628Y14857D01*
Y14943D01*
X78614Y14998D01*
X78645Y15045D01*
X78657Y15104D01*
Y15147D01*
X78667Y15154D01*
X78717Y15127D01*
Y14563D01*
X78307Y14153D01*
X76413D01*
X75714Y14852D01*
X75728Y14907D01*
Y14993D01*
X75706Y15077D01*
X75663Y15152D01*
X75637Y15177D01*
X75658Y15227D01*
X76142D01*
X76163Y15177D01*
X76137Y15152D01*
X76094Y15077D01*
X76072Y14993D01*
Y14907D01*
X76094Y14823D01*
X76137Y14748D01*
X76198Y14687D01*
X76273Y14644D01*
X76357Y14622D01*
X76443D01*
X76527Y14644D01*
X76602Y14687D01*
X76663Y14748D01*
X76706Y14823D01*
X76728Y14907D01*
Y14993D01*
X76706Y15077D01*
X76663Y15152D01*
X76637Y15177D01*
X76658Y15227D01*
X77757D01*
X77986Y14998D01*
D02*
G37*
G36*
X75163Y15177D02*
X75137Y15152D01*
X75094Y15077D01*
X75072Y14993D01*
Y14907D01*
X75086Y14852D01*
X72887Y12653D01*
X71963D01*
X69814Y14802D01*
X69828Y14857D01*
Y14943D01*
X69806Y15027D01*
X69763Y15102D01*
X69739Y15125D01*
X69760Y15175D01*
X70008D01*
X70186Y14998D01*
X70172Y14943D01*
Y14857D01*
X70194Y14773D01*
X70237Y14698D01*
X70298Y14637D01*
X70373Y14594D01*
X70457Y14572D01*
X70543D01*
X70627Y14594D01*
X70702Y14637D01*
X70763Y14698D01*
X70806Y14773D01*
X70828Y14857D01*
Y14905D01*
X70878Y14925D01*
X71392Y14412D01*
X71441Y14379D01*
X71500Y14367D01*
X72970D01*
X73029Y14379D01*
X73078Y14412D01*
X73302Y14636D01*
X73357Y14622D01*
X73443D01*
X73527Y14644D01*
X73602Y14687D01*
X73663Y14748D01*
X73706Y14823D01*
X73728Y14907D01*
Y14993D01*
X73706Y15077D01*
X73663Y15152D01*
X73637Y15177D01*
X73658Y15227D01*
X74142D01*
X74163Y15177D01*
X74137Y15152D01*
X74094Y15077D01*
X74072Y14993D01*
Y14907D01*
X74094Y14823D01*
X74137Y14748D01*
X74198Y14687D01*
X74273Y14644D01*
X74357Y14622D01*
X74443D01*
X74527Y14644D01*
X74602Y14687D01*
X74663Y14748D01*
X74706Y14823D01*
X74728Y14907D01*
Y14993D01*
X74706Y15077D01*
X74663Y15152D01*
X74637Y15177D01*
X74658Y15227D01*
X75142D01*
X75163Y15177D01*
D02*
G37*
G36*
X87006Y15167D02*
X86998Y15163D01*
X86937Y15102D01*
X86894Y15027D01*
X86872Y14943D01*
Y14857D01*
X86886Y14802D01*
X86208Y14125D01*
X84856D01*
X84837Y14171D01*
X85058Y14392D01*
X85091Y14441D01*
X85103Y14500D01*
Y14545D01*
X85143Y14575D01*
X85157Y14572D01*
X85243D01*
X85327Y14594D01*
X85402Y14637D01*
X85463Y14698D01*
X85506Y14773D01*
X85528Y14857D01*
Y14943D01*
X85506Y15027D01*
X85463Y15102D01*
X85402Y15163D01*
X85394Y15167D01*
X85408Y15217D01*
X85992D01*
X86006Y15167D01*
X85998Y15163D01*
X85937Y15102D01*
X85894Y15027D01*
X85872Y14943D01*
Y14857D01*
X85894Y14773D01*
X85937Y14698D01*
X85998Y14637D01*
X86073Y14594D01*
X86157Y14572D01*
X86243D01*
X86327Y14594D01*
X86402Y14637D01*
X86463Y14698D01*
X86506Y14773D01*
X86528Y14857D01*
Y14943D01*
X86506Y15027D01*
X86463Y15102D01*
X86402Y15163D01*
X86394Y15167D01*
X86408Y15217D01*
X86992D01*
X87006Y15167D01*
D02*
G37*
G36*
X79098Y14637D02*
X79173Y14594D01*
X79257Y14572D01*
X79343D01*
X79398Y14586D01*
X79813Y14171D01*
X79794Y14125D01*
X78776D01*
X78757Y14171D01*
X78978Y14392D01*
X79011Y14441D01*
X79023Y14500D01*
Y14642D01*
X79073Y14663D01*
X79098Y14637D01*
D02*
G37*
%LPC*%
G36*
X50079Y38800D02*
X49921D01*
X49767Y38769D01*
X49621Y38709D01*
X49490Y38621D01*
X49379Y38510D01*
X49291Y38379D01*
X49231Y38233D01*
X49200Y38079D01*
Y37921D01*
X49231Y37767D01*
X49291Y37621D01*
X49379Y37490D01*
X49490Y37379D01*
X49621Y37291D01*
X49767Y37231D01*
X49921Y37200D01*
X50079D01*
X50233Y37231D01*
X50379Y37291D01*
X50510Y37379D01*
X50621Y37490D01*
X50709Y37621D01*
X50769Y37767D01*
X50800Y37921D01*
Y38079D01*
X50769Y38233D01*
X50709Y38379D01*
X50621Y38510D01*
X50510Y38621D01*
X50379Y38709D01*
X50233Y38769D01*
X50079Y38800D01*
D02*
G37*
G36*
X20079D02*
X19921D01*
X19767Y38769D01*
X19621Y38709D01*
X19490Y38621D01*
X19379Y38510D01*
X19291Y38379D01*
X19231Y38233D01*
X19200Y38079D01*
Y37921D01*
X19231Y37767D01*
X19291Y37621D01*
X19379Y37490D01*
X19490Y37379D01*
X19621Y37291D01*
X19767Y37231D01*
X19921Y37200D01*
X20079D01*
X20233Y37231D01*
X20379Y37291D01*
X20510Y37379D01*
X20621Y37490D01*
X20709Y37621D01*
X20769Y37767D01*
X20800Y37921D01*
Y38079D01*
X20769Y38233D01*
X20709Y38379D01*
X20621Y38510D01*
X20510Y38621D01*
X20379Y38709D01*
X20233Y38769D01*
X20079Y38800D01*
D02*
G37*
G36*
X29121Y35902D02*
X29105D01*
Y35615D01*
X29392D01*
Y35631D01*
X29371Y35711D01*
X29330Y35782D01*
X29272Y35840D01*
X29201Y35881D01*
X29121Y35902D01*
D02*
G37*
G36*
X29055D02*
X29039D01*
X28959Y35881D01*
X28888Y35840D01*
X28830Y35782D01*
X28789Y35711D01*
X28768Y35631D01*
Y35615D01*
X29055D01*
Y35902D01*
D02*
G37*
G36*
X26633Y35892D02*
X26550D01*
X26471Y35871D01*
X26400Y35830D01*
X26342Y35772D01*
X26300Y35701D01*
X26279Y35621D01*
Y35539D01*
X26300Y35459D01*
X26342Y35388D01*
X26400Y35330D01*
X26471Y35289D01*
X26493Y35283D01*
X26487Y35233D01*
X26332D01*
X26310Y35272D01*
X26252Y35330D01*
X26181Y35371D01*
X26101Y35392D01*
X26019D01*
X25939Y35371D01*
X25868Y35330D01*
X25810Y35272D01*
X25769Y35201D01*
X25748Y35121D01*
Y35039D01*
X25769Y34959D01*
X25810Y34888D01*
X25868Y34830D01*
X25939Y34789D01*
X25962Y34783D01*
X25955Y34733D01*
X24670D01*
X24630Y34787D01*
X24569Y34837D01*
X24497Y34870D01*
X24419Y34882D01*
X22412Y34943D01*
X22363Y34992D01*
X22265Y35049D01*
X22156Y35078D01*
X22044D01*
X21935Y35049D01*
X21837Y34992D01*
X21758Y34913D01*
X21701Y34815D01*
X21672Y34706D01*
Y34594D01*
X21701Y34485D01*
X21758Y34387D01*
X21837Y34308D01*
X21935Y34251D01*
X22044Y34222D01*
X22156D01*
X22265Y34251D01*
X22363Y34308D01*
X22394Y34338D01*
X24401Y34278D01*
X24479Y34285D01*
X24553Y34313D01*
X24617Y34360D01*
X24667Y34421D01*
X24670Y34427D01*
X26279D01*
Y34268D01*
X26688D01*
X27341Y33614D01*
X27391Y33581D01*
X27450Y33569D01*
X37300D01*
X37359Y33581D01*
X37408Y33614D01*
X37641Y33847D01*
X52155D01*
Y33655D01*
X52845D01*
Y34345D01*
X52155D01*
Y34153D01*
X37578D01*
X37520Y34141D01*
X37470Y34108D01*
X37237Y33875D01*
X31638D01*
X31605Y33925D01*
X31618Y33957D01*
Y34023D01*
X31593Y34085D01*
X31545Y34133D01*
X31509Y34148D01*
X30458Y35198D01*
X30409Y35231D01*
X30350Y35243D01*
X29185D01*
X29178Y35293D01*
X29201Y35299D01*
X29272Y35340D01*
X29330Y35398D01*
X29371Y35469D01*
X29392Y35549D01*
Y35565D01*
X29080D01*
X28768D01*
Y35549D01*
X28789Y35469D01*
X28830Y35398D01*
X28888Y35340D01*
X28959Y35299D01*
X28982Y35293D01*
X28975Y35243D01*
X28821D01*
X28798Y35282D01*
X28740Y35340D01*
X28669Y35381D01*
X28590Y35402D01*
X28507D01*
X28428Y35381D01*
X28357Y35340D01*
X28299Y35282D01*
X28257Y35211D01*
X28236Y35131D01*
Y35049D01*
X28257Y34969D01*
X28299Y34898D01*
X28357Y34840D01*
X28428Y34799D01*
X28450Y34793D01*
X28444Y34743D01*
X28203D01*
X27758Y35188D01*
X27709Y35221D01*
X27650Y35233D01*
X26696D01*
X26690Y35283D01*
X26712Y35289D01*
X26783Y35330D01*
X26841Y35388D01*
X26883Y35459D01*
X26904Y35539D01*
Y35621D01*
X26883Y35701D01*
X26841Y35772D01*
X26783Y35830D01*
X26712Y35871D01*
X26633Y35892D01*
D02*
G37*
G36*
X15107Y34782D02*
X14993D01*
X14883Y34752D01*
X14784Y34695D01*
X14703Y34614D01*
X14646Y34516D01*
X14616Y34405D01*
Y34291D01*
X14646Y34181D01*
X14703Y34082D01*
X14784Y34001D01*
X14883Y33944D01*
X14993Y33914D01*
X15107D01*
X15217Y33944D01*
X15316Y34001D01*
X15397Y34082D01*
X15454Y34181D01*
X15484Y34291D01*
Y34405D01*
X15454Y34516D01*
X15397Y34614D01*
X15316Y34695D01*
X15217Y34752D01*
X15107Y34782D01*
D02*
G37*
G36*
X22156Y34078D02*
X22044D01*
X21935Y34049D01*
X21837Y33992D01*
X21758Y33913D01*
X21701Y33815D01*
X21672Y33706D01*
Y33594D01*
X21701Y33485D01*
X21758Y33387D01*
X21837Y33308D01*
X21935Y33251D01*
X22044Y33222D01*
X22156D01*
X22265Y33251D01*
X22363Y33308D01*
X22442Y33387D01*
X22499Y33485D01*
X22528Y33594D01*
Y33706D01*
X22499Y33815D01*
X22442Y33913D01*
X22363Y33992D01*
X22265Y34049D01*
X22156Y34078D01*
D02*
G37*
G36*
X22528Y33078D02*
X21672D01*
Y32222D01*
X22528D01*
Y33078D01*
D02*
G37*
G36*
X20850Y31203D02*
X15422D01*
X15344Y31192D01*
X15271Y31162D01*
X15208Y31114D01*
X15124Y31029D01*
X15107Y31034D01*
X14993D01*
X14883Y31004D01*
X14784Y30947D01*
X14703Y30866D01*
X14646Y30767D01*
X14616Y30657D01*
Y30543D01*
X14646Y30433D01*
X14703Y30334D01*
X14784Y30253D01*
X14883Y30196D01*
X14993Y30166D01*
X15107D01*
X15217Y30196D01*
X15316Y30253D01*
X15397Y30334D01*
X15454Y30433D01*
X15480Y30530D01*
X15548Y30597D01*
X20725D01*
X21225Y30097D01*
Y30044D01*
X21254Y29936D01*
X21310Y29839D01*
X21389Y29760D01*
X21486Y29704D01*
X21594Y29675D01*
X21706D01*
X21814Y29704D01*
X21911Y29760D01*
X21990Y29839D01*
X22046Y29936D01*
X22075Y30044D01*
Y30156D01*
X22046Y30264D01*
X21990Y30361D01*
X21911Y30440D01*
X21814Y30496D01*
X21706Y30525D01*
X21653D01*
X21064Y31114D01*
X21001Y31162D01*
X20928Y31192D01*
X20850Y31203D01*
D02*
G37*
G36*
X33783Y31233D02*
X33217D01*
Y30667D01*
X33783D01*
Y31233D01*
D02*
G37*
G36*
X52545Y30408D02*
X52525D01*
Y30088D01*
X52845D01*
Y30108D01*
X52822Y30196D01*
X52776Y30275D01*
X52712Y30339D01*
X52633Y30385D01*
X52545Y30408D01*
D02*
G37*
G36*
X52845Y30038D02*
X52525D01*
Y29718D01*
X52545D01*
X52633Y29741D01*
X52712Y29787D01*
X52776Y29851D01*
X52822Y29930D01*
X52845Y30018D01*
Y30038D01*
D02*
G37*
G36*
X44920Y31583D02*
X40055D01*
X39996Y31571D01*
X39947Y31538D01*
X39635Y31227D01*
X39612Y31233D01*
X39538D01*
X39466Y31214D01*
X39401Y31177D01*
X39348Y31124D01*
X39311Y31059D01*
X39292Y30987D01*
Y30913D01*
X39311Y30841D01*
X39348Y30776D01*
X39401Y30723D01*
X39466Y30686D01*
X39538Y30667D01*
X39612D01*
X39684Y30686D01*
X39749Y30723D01*
X39801Y30776D01*
X39839Y30841D01*
X39858Y30913D01*
Y30987D01*
X39852Y31011D01*
X40118Y31277D01*
X44126D01*
X44147Y31227D01*
X44100Y31180D01*
X44051Y31095D01*
X44025Y30999D01*
Y30975D01*
X44400D01*
Y30925D01*
X44025D01*
Y30901D01*
X44051Y30805D01*
X44100Y30720D01*
X44170Y30650D01*
X44200Y30633D01*
X44186Y30583D01*
X40055D01*
X39996Y30571D01*
X39947Y30538D01*
X39635Y30227D01*
X39612Y30233D01*
X39538D01*
X39466Y30214D01*
X39401Y30177D01*
X39348Y30124D01*
X39311Y30059D01*
X39292Y29987D01*
Y29913D01*
X39311Y29841D01*
X39348Y29776D01*
X39401Y29723D01*
X39466Y29686D01*
X39538Y29667D01*
X39612D01*
X39684Y29686D01*
X39749Y29723D01*
X39801Y29776D01*
X39839Y29841D01*
X39858Y29913D01*
Y29987D01*
X39852Y30011D01*
X40118Y30277D01*
X44126D01*
X44147Y30227D01*
X44100Y30180D01*
X44051Y30095D01*
X44025Y29999D01*
Y29901D01*
X44051Y29805D01*
X44100Y29720D01*
X44170Y29650D01*
X44200Y29633D01*
X44186Y29583D01*
X40055D01*
X39996Y29571D01*
X39947Y29538D01*
X39635Y29227D01*
X39612Y29233D01*
X39538D01*
X39466Y29214D01*
X39401Y29177D01*
X39348Y29124D01*
X39311Y29059D01*
X39292Y28987D01*
Y28913D01*
X39311Y28841D01*
X39348Y28776D01*
X39401Y28723D01*
X39466Y28686D01*
X39538Y28667D01*
X39612D01*
X39684Y28686D01*
X39749Y28723D01*
X39801Y28776D01*
X39839Y28841D01*
X39858Y28913D01*
Y28987D01*
X39852Y29011D01*
X40118Y29277D01*
X44126D01*
X44147Y29227D01*
X44100Y29180D01*
X44051Y29095D01*
X44025Y28999D01*
Y28901D01*
X44051Y28805D01*
X44100Y28720D01*
X44170Y28650D01*
X44200Y28633D01*
X44186Y28583D01*
X40055D01*
X39996Y28571D01*
X39947Y28538D01*
X39635Y28227D01*
X39612Y28233D01*
X39538D01*
X39466Y28214D01*
X39401Y28177D01*
X39348Y28124D01*
X39311Y28059D01*
X39292Y27987D01*
Y27913D01*
X39311Y27841D01*
X39348Y27776D01*
X39401Y27723D01*
X39466Y27686D01*
X39538Y27667D01*
X39612D01*
X39684Y27686D01*
X39749Y27723D01*
X39801Y27776D01*
X39839Y27841D01*
X39858Y27913D01*
Y27987D01*
X39852Y28011D01*
X40118Y28277D01*
X44126D01*
X44147Y28227D01*
X44100Y28180D01*
X44051Y28095D01*
X44025Y27999D01*
Y27901D01*
X44051Y27805D01*
X44100Y27720D01*
X44170Y27650D01*
X44255Y27601D01*
X44351Y27575D01*
X44449D01*
X44535Y27598D01*
X44727Y27407D01*
Y27224D01*
X44677Y27203D01*
X44630Y27250D01*
X44545Y27299D01*
X44449Y27325D01*
X44351D01*
X44255Y27299D01*
X44170Y27250D01*
X44100Y27180D01*
X44056Y27103D01*
X39813D01*
X39801Y27124D01*
X39749Y27177D01*
X39684Y27214D01*
X39612Y27233D01*
X39538D01*
X39466Y27214D01*
X39401Y27177D01*
X39348Y27124D01*
X39311Y27059D01*
X39292Y26987D01*
Y26913D01*
X39311Y26841D01*
X39348Y26776D01*
X39401Y26723D01*
X39466Y26686D01*
X39538Y26667D01*
X39612D01*
X39684Y26686D01*
X39749Y26723D01*
X39801Y26776D01*
X39813Y26797D01*
X44056D01*
X44100Y26720D01*
X44170Y26650D01*
X44255Y26601D01*
X44351Y26575D01*
X44418D01*
X44439Y26525D01*
X44017Y26103D01*
X39813D01*
X39801Y26124D01*
X39749Y26177D01*
X39684Y26214D01*
X39612Y26233D01*
X39538D01*
X39466Y26214D01*
X39401Y26177D01*
X39348Y26124D01*
X39311Y26059D01*
X39292Y25987D01*
Y25913D01*
X39311Y25841D01*
X39348Y25776D01*
X39401Y25723D01*
X39466Y25686D01*
X39538Y25667D01*
X39612D01*
X39684Y25686D01*
X39749Y25723D01*
X39801Y25776D01*
X39813Y25797D01*
X44080D01*
X44139Y25809D01*
X44188Y25842D01*
X44975Y26629D01*
X45025Y26611D01*
Y26575D01*
X45775D01*
Y27325D01*
X45033D01*
Y27470D01*
X45021Y27529D01*
X44988Y27578D01*
X44752Y27815D01*
X44775Y27901D01*
Y27999D01*
X44749Y28095D01*
X44700Y28180D01*
X44653Y28227D01*
X44674Y28277D01*
X44857D01*
X45048Y28085D01*
X45025Y27999D01*
Y27901D01*
X45051Y27805D01*
X45100Y27720D01*
X45170Y27650D01*
X45255Y27601D01*
X45351Y27575D01*
X45449D01*
X45545Y27601D01*
X45630Y27650D01*
X45700Y27720D01*
X45749Y27805D01*
X45775Y27901D01*
Y27999D01*
X45749Y28095D01*
X45700Y28180D01*
X45630Y28250D01*
X45545Y28299D01*
X45449Y28325D01*
X45351D01*
X45265Y28302D01*
X45028Y28538D01*
X44979Y28571D01*
X44920Y28583D01*
X44614D01*
X44600Y28633D01*
X44630Y28650D01*
X44700Y28720D01*
X44749Y28805D01*
X44775Y28901D01*
Y28999D01*
X44749Y29095D01*
X44700Y29180D01*
X44653Y29227D01*
X44674Y29277D01*
X44857D01*
X45048Y29085D01*
X45025Y28999D01*
Y28901D01*
X45051Y28805D01*
X45100Y28720D01*
X45170Y28650D01*
X45255Y28601D01*
X45351Y28575D01*
X45449D01*
X45545Y28601D01*
X45630Y28650D01*
X45700Y28720D01*
X45749Y28805D01*
X45775Y28901D01*
Y28999D01*
X45749Y29095D01*
X45700Y29180D01*
X45630Y29250D01*
X45545Y29299D01*
X45449Y29325D01*
X45351D01*
X45265Y29302D01*
X45028Y29538D01*
X44979Y29571D01*
X44920Y29583D01*
X44614D01*
X44600Y29633D01*
X44630Y29650D01*
X44700Y29720D01*
X44749Y29805D01*
X44775Y29901D01*
Y29999D01*
X44764Y30039D01*
X44809Y30065D01*
X45032Y29842D01*
X45043Y29834D01*
X45051Y29805D01*
X45100Y29720D01*
X45170Y29650D01*
X45255Y29601D01*
X45351Y29575D01*
X45449D01*
X45545Y29601D01*
X45630Y29650D01*
X45700Y29720D01*
X45749Y29805D01*
X45775Y29901D01*
Y29999D01*
X45749Y30095D01*
X45700Y30180D01*
X45633Y30247D01*
X45635Y30266D01*
X45643Y30297D01*
X52050D01*
X52085Y30262D01*
X52065Y30216D01*
X48323D01*
X48264Y30204D01*
X48215Y30171D01*
X46752Y28708D01*
X46719Y28659D01*
X46707Y28600D01*
Y24329D01*
X46719Y24271D01*
X46752Y24221D01*
X46971Y24002D01*
X46964Y23977D01*
Y23964D01*
X47225D01*
Y24226D01*
X47212D01*
X47187Y24219D01*
X47013Y24393D01*
Y25669D01*
X47063Y25690D01*
X47074Y25679D01*
X47140Y25641D01*
X47212Y25622D01*
X47288D01*
X47360Y25641D01*
X47426Y25679D01*
X47479Y25732D01*
X47517Y25797D01*
X47536Y25870D01*
Y25946D01*
X47529Y25971D01*
X47905Y26347D01*
X54037D01*
X54064Y26319D01*
Y26281D01*
X49442Y21658D01*
X49409Y21609D01*
X49397Y21550D01*
Y19908D01*
X49379Y19898D01*
X49327Y19846D01*
X49291Y19783D01*
X49272Y19712D01*
Y19639D01*
X49277Y19619D01*
X47290Y17631D01*
X44576D01*
X44553Y17672D01*
X44494Y17731D01*
X44422Y17773D01*
X44342Y17794D01*
X44258D01*
X44178Y17773D01*
X44106Y17731D01*
X44047Y17672D01*
X44006Y17600D01*
X43984Y17520D01*
Y17437D01*
X43996Y17391D01*
X43108Y16503D01*
X41444D01*
X41400Y16580D01*
X41330Y16650D01*
X41245Y16699D01*
X41149Y16725D01*
X41051D01*
X40955Y16699D01*
X40870Y16650D01*
X40803Y16583D01*
X32564D01*
X32550Y16633D01*
X32580Y16650D01*
X32650Y16720D01*
X32694Y16797D01*
X33261D01*
X33273Y16776D01*
X33326Y16723D01*
X33391Y16686D01*
X33463Y16667D01*
X33537D01*
X33609Y16686D01*
X33674Y16723D01*
X33727Y16776D01*
X33764Y16841D01*
X33783Y16913D01*
Y16987D01*
X33764Y17059D01*
X33727Y17124D01*
X33674Y17177D01*
X33609Y17214D01*
X33537Y17233D01*
X33463D01*
X33391Y17214D01*
X33326Y17177D01*
X33273Y17124D01*
X33261Y17103D01*
X32694D01*
X32650Y17180D01*
X32580Y17250D01*
X32495Y17299D01*
X32399Y17325D01*
X32301D01*
X32205Y17299D01*
X32120Y17250D01*
X32050Y17180D01*
X32001Y17095D01*
X31975Y16999D01*
Y16901D01*
X32001Y16805D01*
X32050Y16720D01*
X32120Y16650D01*
X32150Y16633D01*
X32136Y16583D01*
X28430D01*
X28371Y16571D01*
X28322Y16538D01*
X28177Y16394D01*
X27506D01*
Y15506D01*
X28394D01*
Y16177D01*
X28493Y16277D01*
X32076D01*
X32097Y16227D01*
X32050Y16180D01*
X32001Y16095D01*
X31975Y15999D01*
Y15901D01*
X32001Y15805D01*
X32050Y15720D01*
X32120Y15650D01*
X32205Y15601D01*
X32301Y15575D01*
X32399D01*
X32495Y15601D01*
X32580Y15650D01*
X32650Y15720D01*
X32694Y15797D01*
X33261D01*
X33273Y15776D01*
X33326Y15723D01*
X33391Y15686D01*
X33463Y15667D01*
X33537D01*
X33609Y15686D01*
X33674Y15723D01*
X33727Y15776D01*
X33764Y15841D01*
X33783Y15913D01*
Y15987D01*
X33764Y16059D01*
X33727Y16124D01*
X33674Y16177D01*
X33609Y16214D01*
X33560Y16227D01*
X33566Y16277D01*
X39509D01*
X39515Y16227D01*
X39466Y16214D01*
X39401Y16177D01*
X39348Y16124D01*
X39311Y16059D01*
X39292Y15987D01*
Y15913D01*
X39311Y15841D01*
X39348Y15776D01*
X39401Y15723D01*
X39466Y15686D01*
X39538Y15667D01*
X39612D01*
X39684Y15686D01*
X39749Y15723D01*
X39801Y15776D01*
X39839Y15841D01*
X39858Y15913D01*
Y15987D01*
X39839Y16059D01*
X39801Y16124D01*
X39749Y16177D01*
X39684Y16214D01*
X39634Y16227D01*
X39641Y16277D01*
X40732D01*
X40751Y16205D01*
X40800Y16120D01*
X40870Y16050D01*
X40955Y16001D01*
X41051Y15975D01*
X41149D01*
X41245Y16001D01*
X41330Y16050D01*
X41400Y16120D01*
X41444Y16197D01*
X43172D01*
X43230Y16209D01*
X43280Y16242D01*
X44213Y17175D01*
X44258Y17163D01*
X44342D01*
X44422Y17184D01*
X44494Y17226D01*
X44553Y17284D01*
X44576Y17325D01*
X51108D01*
X51167Y17337D01*
X51216Y17370D01*
X51939Y18092D01*
X51975Y18107D01*
X52023Y18155D01*
X52048Y18217D01*
Y18283D01*
X52023Y18345D01*
X51975Y18393D01*
X51913Y18418D01*
X51847D01*
X51785Y18393D01*
X51737Y18345D01*
X51722Y18309D01*
X51045Y17631D01*
X47788D01*
X47769Y17677D01*
X49493Y19402D01*
X49513Y19397D01*
X49587D01*
X49657Y19416D01*
X49721Y19453D01*
X49773Y19504D01*
X49809Y19568D01*
X49828Y19639D01*
Y19712D01*
X49809Y19783D01*
X49773Y19846D01*
X49721Y19898D01*
X49703Y19908D01*
Y21487D01*
X54325Y26109D01*
X54358Y26159D01*
X54370Y26217D01*
Y26383D01*
X54358Y26441D01*
X54325Y26491D01*
X54208Y26608D01*
X54159Y26641D01*
X54100Y26653D01*
X47842D01*
X47784Y26641D01*
X47734Y26608D01*
X47313Y26187D01*
X47288Y26194D01*
X47212D01*
X47140Y26175D01*
X47074Y26137D01*
X47063Y26126D01*
X47013Y26146D01*
Y28537D01*
X48386Y29910D01*
X52190D01*
X52224Y29851D01*
X52288Y29787D01*
X52367Y29741D01*
X52455Y29718D01*
X52475D01*
Y30063D01*
Y30408D01*
X52455D01*
X52389Y30391D01*
X52221Y30558D01*
X52172Y30591D01*
X52113Y30603D01*
X45643D01*
X45635Y30634D01*
X45633Y30653D01*
X45700Y30720D01*
X45749Y30805D01*
X45775Y30901D01*
Y30999D01*
X45749Y31095D01*
X45700Y31180D01*
X45630Y31250D01*
X45545Y31299D01*
X45449Y31325D01*
X45351D01*
X45265Y31302D01*
X45028Y31538D01*
X44979Y31571D01*
X44920Y31583D01*
D02*
G37*
G36*
X18706Y30525D02*
X18594D01*
X18486Y30496D01*
X18389Y30440D01*
X18310Y30361D01*
X18254Y30264D01*
X18225Y30156D01*
Y30044D01*
X18254Y29936D01*
X18310Y29839D01*
X18389Y29760D01*
X18486Y29704D01*
X18594Y29675D01*
X18706D01*
X18814Y29704D01*
X18911Y29760D01*
X18990Y29839D01*
X19046Y29936D01*
X19075Y30044D01*
Y30156D01*
X19046Y30264D01*
X18990Y30361D01*
X18911Y30440D01*
X18814Y30496D01*
X18706Y30525D01*
D02*
G37*
G36*
X33537Y30233D02*
X33463D01*
X33391Y30214D01*
X33326Y30177D01*
X33273Y30124D01*
X33236Y30059D01*
X33217Y29987D01*
Y29913D01*
X33236Y29841D01*
X33273Y29776D01*
X33326Y29723D01*
X33391Y29686D01*
X33463Y29667D01*
X33537D01*
X33609Y29686D01*
X33674Y29723D01*
X33727Y29776D01*
X33764Y29841D01*
X33783Y29913D01*
Y29987D01*
X33764Y30059D01*
X33727Y30124D01*
X33674Y30177D01*
X33609Y30214D01*
X33537Y30233D01*
D02*
G37*
G36*
X21706Y29525D02*
X21675D01*
Y29125D01*
X22075D01*
Y29156D01*
X22046Y29264D01*
X21990Y29361D01*
X21911Y29440D01*
X21814Y29496D01*
X21706Y29525D01*
D02*
G37*
G36*
X21625D02*
X21594D01*
X21486Y29496D01*
X21389Y29440D01*
X21310Y29361D01*
X21254Y29264D01*
X21225Y29156D01*
Y29125D01*
X21625D01*
Y29525D01*
D02*
G37*
G36*
X22075Y29075D02*
X21675D01*
Y28675D01*
X21706D01*
X21814Y28704D01*
X21911Y28760D01*
X21990Y28839D01*
X22046Y28936D01*
X22075Y29044D01*
Y29075D01*
D02*
G37*
G36*
X21625D02*
X21225D01*
Y29044D01*
X21254Y28936D01*
X21310Y28839D01*
X21389Y28760D01*
X21486Y28704D01*
X21594Y28675D01*
X21625D01*
Y29075D01*
D02*
G37*
G36*
X18706Y29525D02*
X18594D01*
X18486Y29496D01*
X18389Y29440D01*
X18310Y29361D01*
X18254Y29264D01*
X18225Y29156D01*
Y29044D01*
X18254Y28936D01*
X18310Y28839D01*
X18389Y28760D01*
X18486Y28704D01*
X18594Y28675D01*
X18706D01*
X18814Y28704D01*
X18911Y28760D01*
X18990Y28839D01*
X19046Y28936D01*
X19075Y29044D01*
Y29156D01*
X19046Y29264D01*
X18990Y29361D01*
X18911Y29440D01*
X18814Y29496D01*
X18706Y29525D01*
D02*
G37*
G36*
X33537Y29233D02*
X33463D01*
X33391Y29214D01*
X33326Y29177D01*
X33273Y29124D01*
X33236Y29059D01*
X33217Y28987D01*
Y28913D01*
X33236Y28841D01*
X33273Y28776D01*
X33326Y28723D01*
X33391Y28686D01*
X33463Y28667D01*
X33537D01*
X33609Y28686D01*
X33674Y28723D01*
X33727Y28776D01*
X33764Y28841D01*
X33783Y28913D01*
Y28987D01*
X33764Y29059D01*
X33727Y29124D01*
X33674Y29177D01*
X33609Y29214D01*
X33537Y29233D01*
D02*
G37*
G36*
Y28233D02*
X33463D01*
X33391Y28214D01*
X33326Y28177D01*
X33273Y28124D01*
X33236Y28059D01*
X33217Y27987D01*
Y27913D01*
X33236Y27841D01*
X33273Y27776D01*
X33326Y27723D01*
X33391Y27686D01*
X33463Y27667D01*
X33537D01*
X33609Y27686D01*
X33674Y27723D01*
X33727Y27776D01*
X33764Y27841D01*
X33783Y27913D01*
Y27987D01*
X33764Y28059D01*
X33727Y28124D01*
X33674Y28177D01*
X33609Y28214D01*
X33537Y28233D01*
D02*
G37*
G36*
Y27233D02*
X33463D01*
X33391Y27214D01*
X33326Y27177D01*
X33273Y27124D01*
X33236Y27059D01*
X33217Y26987D01*
Y26913D01*
X33236Y26841D01*
X33273Y26776D01*
X33326Y26723D01*
X33391Y26686D01*
X33463Y26667D01*
X33537D01*
X33609Y26686D01*
X33674Y26723D01*
X33727Y26776D01*
X33764Y26841D01*
X33783Y26913D01*
Y26987D01*
X33764Y27059D01*
X33727Y27124D01*
X33674Y27177D01*
X33609Y27214D01*
X33537Y27233D01*
D02*
G37*
G36*
Y26233D02*
X33525D01*
Y25975D01*
X33783D01*
Y25987D01*
X33764Y26059D01*
X33727Y26124D01*
X33674Y26177D01*
X33609Y26214D01*
X33537Y26233D01*
D02*
G37*
G36*
X20148Y26286D02*
X20073D01*
X20000Y26267D01*
X19935Y26229D01*
X19882Y26176D01*
X19844Y26110D01*
X19824Y26038D01*
Y25962D01*
X19844Y25890D01*
X19882Y25824D01*
X19935Y25771D01*
X20000Y25733D01*
X20073Y25714D01*
X20148D01*
X20221Y25733D01*
X20286Y25771D01*
X20340Y25824D01*
X20377Y25890D01*
X20397Y25962D01*
Y26038D01*
X20377Y26110D01*
X20340Y26176D01*
X20286Y26229D01*
X20221Y26267D01*
X20148Y26286D01*
D02*
G37*
G36*
X18180D02*
X18104D01*
X18032Y26267D01*
X17966Y26229D01*
X17913Y26176D01*
X17875Y26110D01*
X17856Y26038D01*
Y25962D01*
X17875Y25890D01*
X17913Y25824D01*
X17966Y25771D01*
X18032Y25733D01*
X18104Y25714D01*
X18180D01*
X18253Y25733D01*
X18318Y25771D01*
X18371Y25824D01*
X18409Y25890D01*
X18428Y25962D01*
Y26038D01*
X18409Y26110D01*
X18371Y26176D01*
X18318Y26229D01*
X18253Y26267D01*
X18180Y26286D01*
D02*
G37*
G36*
X33475Y26233D02*
X33463D01*
X33391Y26214D01*
X33326Y26177D01*
X33273Y26124D01*
X33261Y26103D01*
X31039D01*
X30981Y26091D01*
X30931Y26058D01*
X30113Y25240D01*
X30088Y25247D01*
X30075D01*
Y24986D01*
X30336D01*
Y24998D01*
X30329Y25024D01*
X31103Y25797D01*
X33261D01*
X33273Y25776D01*
X33326Y25723D01*
X33391Y25686D01*
X33463Y25667D01*
X33475D01*
Y25950D01*
Y26233D01*
D02*
G37*
G36*
X30025Y25247D02*
X30012D01*
X29940Y25227D01*
X29874Y25190D01*
X29821Y25136D01*
X29783Y25071D01*
X29764Y24998D01*
Y24986D01*
X30025D01*
Y25247D01*
D02*
G37*
G36*
X30336Y24936D02*
X30075D01*
Y24674D01*
X30088D01*
X30160Y24694D01*
X30226Y24732D01*
X30279Y24785D01*
X30317Y24850D01*
X30336Y24923D01*
Y24936D01*
D02*
G37*
G36*
X30025D02*
X29764D01*
Y24923D01*
X29783Y24850D01*
X29821Y24785D01*
X29874Y24732D01*
X29940Y24694D01*
X30012Y24674D01*
X30025D01*
Y24936D01*
D02*
G37*
G36*
X39612Y25233D02*
X39538D01*
X39466Y25214D01*
X39401Y25177D01*
X39348Y25124D01*
X39311Y25059D01*
X39292Y24987D01*
Y24913D01*
X39311Y24841D01*
X39348Y24776D01*
X39401Y24723D01*
X39466Y24686D01*
X39538Y24667D01*
X39612D01*
X39684Y24686D01*
X39749Y24723D01*
X39801Y24776D01*
X39839Y24841D01*
X39858Y24913D01*
Y24987D01*
X39839Y25059D01*
X39801Y25124D01*
X39749Y25177D01*
X39684Y25214D01*
X39612Y25233D01*
D02*
G37*
G36*
X32249Y25325D02*
X32151D01*
X32055Y25299D01*
X31970Y25250D01*
X31900Y25180D01*
X31851Y25095D01*
X31825Y24999D01*
Y24901D01*
X31851Y24805D01*
X31900Y24720D01*
X31970Y24650D01*
X32055Y24601D01*
X32151Y24575D01*
X32249D01*
X32345Y24601D01*
X32430Y24650D01*
X32500Y24720D01*
X32544Y24797D01*
X33261D01*
X33273Y24776D01*
X33326Y24723D01*
X33391Y24686D01*
X33463Y24667D01*
X33537D01*
X33609Y24686D01*
X33674Y24723D01*
X33727Y24776D01*
X33764Y24841D01*
X33783Y24913D01*
Y24987D01*
X33764Y25059D01*
X33727Y25124D01*
X33674Y25177D01*
X33609Y25214D01*
X33537Y25233D01*
X33463D01*
X33391Y25214D01*
X33326Y25177D01*
X33273Y25124D01*
X33261Y25103D01*
X32544D01*
X32500Y25180D01*
X32430Y25250D01*
X32345Y25299D01*
X32249Y25325D01*
D02*
G37*
G36*
X47288Y24226D02*
X47275D01*
Y23964D01*
X47536D01*
Y23977D01*
X47517Y24050D01*
X47479Y24115D01*
X47426Y24168D01*
X47360Y24206D01*
X47288Y24226D01*
D02*
G37*
G36*
X39612Y24233D02*
X39538D01*
X39466Y24214D01*
X39401Y24177D01*
X39348Y24124D01*
X39311Y24059D01*
X39292Y23987D01*
Y23913D01*
X39311Y23841D01*
X39348Y23776D01*
X39401Y23723D01*
X39466Y23686D01*
X39538Y23667D01*
X39612D01*
X39684Y23686D01*
X39749Y23723D01*
X39801Y23776D01*
X39839Y23841D01*
X39858Y23913D01*
Y23987D01*
X39839Y24059D01*
X39801Y24124D01*
X39749Y24177D01*
X39684Y24214D01*
X39612Y24233D01*
D02*
G37*
G36*
X32575Y24325D02*
X31825D01*
Y23575D01*
X32575D01*
Y23797D01*
X33261D01*
X33273Y23776D01*
X33326Y23723D01*
X33391Y23686D01*
X33463Y23667D01*
X33537D01*
X33609Y23686D01*
X33674Y23723D01*
X33727Y23776D01*
X33764Y23841D01*
X33783Y23913D01*
Y23987D01*
X33764Y24059D01*
X33727Y24124D01*
X33674Y24177D01*
X33609Y24214D01*
X33537Y24233D01*
X33463D01*
X33391Y24214D01*
X33326Y24177D01*
X33273Y24124D01*
X33261Y24103D01*
X32575D01*
Y24325D01*
D02*
G37*
G36*
X47536Y23914D02*
X47275D01*
Y23653D01*
X47288D01*
X47360Y23673D01*
X47426Y23710D01*
X47479Y23764D01*
X47517Y23829D01*
X47536Y23902D01*
Y23914D01*
D02*
G37*
G36*
X47225D02*
X46964D01*
Y23902D01*
X46983Y23829D01*
X47021Y23764D01*
X47074Y23710D01*
X47140Y23673D01*
X47212Y23653D01*
X47225D01*
Y23914D01*
D02*
G37*
G36*
X19498Y23715D02*
X19402D01*
X19309Y23690D01*
X19226Y23642D01*
X19158Y23574D01*
X19110Y23491D01*
X19085Y23398D01*
Y23302D01*
X19110Y23209D01*
X19116Y23198D01*
X19076Y23167D01*
X18825Y23418D01*
X18806Y23491D01*
X18758Y23574D01*
X18690Y23642D01*
X18607Y23690D01*
X18514Y23715D01*
X18418D01*
X18325Y23690D01*
X18242Y23642D01*
X18174Y23574D01*
X18126Y23491D01*
X18101Y23398D01*
Y23302D01*
X18126Y23209D01*
X18174Y23126D01*
X18242Y23058D01*
X18325Y23010D01*
X18397Y22991D01*
X19612Y21776D01*
X19612Y21776D01*
X19674Y21728D01*
X19747Y21698D01*
X19826Y21687D01*
X28636D01*
X29790Y20533D01*
Y20241D01*
X30510D01*
Y20961D01*
X30218D01*
X28975Y22204D01*
X28912Y22252D01*
X28839Y22282D01*
X28761Y22293D01*
X19951D01*
X19267Y22976D01*
X19298Y23016D01*
X19309Y23010D01*
X19402Y22985D01*
X19498D01*
X19591Y23010D01*
X19674Y23058D01*
X19742Y23126D01*
X19790Y23209D01*
X19815Y23302D01*
Y23398D01*
X19790Y23491D01*
X19742Y23574D01*
X19674Y23642D01*
X19591Y23690D01*
X19498Y23715D01*
D02*
G37*
G36*
X20522D02*
X20426D01*
X20333Y23690D01*
X20250Y23642D01*
X20182Y23574D01*
X20134Y23491D01*
X20109Y23398D01*
Y23302D01*
X20134Y23209D01*
X20182Y23126D01*
X20250Y23058D01*
X20333Y23010D01*
X20426Y22985D01*
X20522D01*
X20614Y23010D01*
X20698Y23058D01*
X20766Y23126D01*
X20814Y23209D01*
X20839Y23302D01*
Y23398D01*
X20814Y23491D01*
X20766Y23574D01*
X20698Y23642D01*
X20614Y23690D01*
X20522Y23715D01*
D02*
G37*
G36*
X39612Y23233D02*
X39600D01*
Y22975D01*
X39858D01*
Y22987D01*
X39839Y23059D01*
X39801Y23124D01*
X39749Y23177D01*
X39684Y23214D01*
X39612Y23233D01*
D02*
G37*
G36*
X46525Y23028D02*
X46513D01*
X46443Y23009D01*
X46379Y22973D01*
X46327Y22921D01*
X46317Y22903D01*
X39865D01*
X39858Y22913D01*
Y22925D01*
X39600D01*
Y22667D01*
X39612D01*
X39635Y22673D01*
X39667Y22642D01*
X39716Y22609D01*
X39775Y22597D01*
X46317D01*
X46327Y22579D01*
X46379Y22527D01*
X46443Y22491D01*
X46513Y22472D01*
X46525D01*
Y22750D01*
Y23028D01*
D02*
G37*
G36*
X46587D02*
X46575D01*
Y22775D01*
X46828D01*
Y22787D01*
X46809Y22857D01*
X46773Y22921D01*
X46721Y22973D01*
X46657Y23009D01*
X46587Y23028D01*
D02*
G37*
G36*
X30088Y23278D02*
X30012D01*
X29940Y23259D01*
X29874Y23221D01*
X29821Y23168D01*
X29783Y23103D01*
X29764Y23030D01*
Y22954D01*
X29783Y22882D01*
X29821Y22816D01*
X29874Y22763D01*
X29940Y22725D01*
X30012Y22706D01*
X30088D01*
X30160Y22725D01*
X30226Y22763D01*
X30279Y22816D01*
X30317Y22882D01*
X30336Y22954D01*
Y23030D01*
X30317Y23103D01*
X30279Y23168D01*
X30226Y23221D01*
X30160Y23259D01*
X30088Y23278D01*
D02*
G37*
G36*
X33783Y25925D02*
X33525D01*
Y25667D01*
X33537D01*
X33561Y25673D01*
X36392Y22842D01*
X36441Y22809D01*
X36500Y22797D01*
X39336D01*
X39348Y22776D01*
X39401Y22723D01*
X39466Y22686D01*
X39538Y22667D01*
X39550D01*
Y22950D01*
Y23233D01*
X39538D01*
X39466Y23214D01*
X39401Y23177D01*
X39348Y23124D01*
X39336Y23103D01*
X36563D01*
X33777Y25889D01*
X33783Y25913D01*
Y25925D01*
D02*
G37*
G36*
X33537Y23233D02*
X33463D01*
X33391Y23214D01*
X33326Y23177D01*
X33273Y23124D01*
X33236Y23059D01*
X33217Y22987D01*
Y22913D01*
X33236Y22841D01*
X33273Y22776D01*
X33326Y22723D01*
X33391Y22686D01*
X33463Y22667D01*
X33537D01*
X33609Y22686D01*
X33674Y22723D01*
X33727Y22776D01*
X33764Y22841D01*
X33783Y22913D01*
Y22987D01*
X33764Y23059D01*
X33727Y23124D01*
X33674Y23177D01*
X33609Y23214D01*
X33537Y23233D01*
D02*
G37*
G36*
X48587Y23028D02*
X48513D01*
X48443Y23009D01*
X48379Y22973D01*
X48327Y22921D01*
X48291Y22857D01*
X48272Y22787D01*
Y22713D01*
X48291Y22643D01*
X48327Y22579D01*
X48379Y22527D01*
X48443Y22491D01*
X48513Y22472D01*
X48587D01*
X48657Y22491D01*
X48721Y22527D01*
X48773Y22579D01*
X48809Y22643D01*
X48828Y22713D01*
Y22787D01*
X48809Y22857D01*
X48773Y22921D01*
X48721Y22973D01*
X48657Y23009D01*
X48587Y23028D01*
D02*
G37*
G36*
X47587D02*
X47513D01*
X47443Y23009D01*
X47379Y22973D01*
X47327Y22921D01*
X47291Y22857D01*
X47272Y22787D01*
Y22713D01*
X47291Y22643D01*
X47327Y22579D01*
X47379Y22527D01*
X47443Y22491D01*
X47513Y22472D01*
X47587D01*
X47657Y22491D01*
X47721Y22527D01*
X47773Y22579D01*
X47809Y22643D01*
X47828Y22713D01*
Y22787D01*
X47809Y22857D01*
X47773Y22921D01*
X47721Y22973D01*
X47657Y23009D01*
X47587Y23028D01*
D02*
G37*
G36*
X46828Y22725D02*
X46575D01*
Y22472D01*
X46587D01*
X46657Y22491D01*
X46721Y22527D01*
X46773Y22579D01*
X46809Y22643D01*
X46828Y22713D01*
Y22725D01*
D02*
G37*
G36*
X49828Y23028D02*
X49272D01*
Y22688D01*
X48867Y22283D01*
X41797D01*
X41761Y22298D01*
X41694D01*
X41632Y22273D01*
X41585Y22225D01*
X41559Y22163D01*
Y22097D01*
X41585Y22035D01*
X41632Y21987D01*
X41694Y21962D01*
X41761D01*
X41797Y21977D01*
X48930D01*
X48989Y21989D01*
X49038Y22022D01*
X49488Y22472D01*
X49828D01*
Y23028D01*
D02*
G37*
G36*
X39612Y22233D02*
X39538D01*
X39466Y22214D01*
X39401Y22177D01*
X39348Y22124D01*
X39311Y22059D01*
X39292Y21987D01*
Y21913D01*
X39311Y21841D01*
X39348Y21776D01*
X39401Y21723D01*
X39466Y21686D01*
X39538Y21667D01*
X39612D01*
X39684Y21686D01*
X39749Y21723D01*
X39801Y21776D01*
X39839Y21841D01*
X39858Y21913D01*
Y21987D01*
X39839Y22059D01*
X39801Y22124D01*
X39749Y22177D01*
X39684Y22214D01*
X39612Y22233D01*
D02*
G37*
G36*
X15107Y22034D02*
X14993D01*
X14883Y22004D01*
X14784Y21947D01*
X14703Y21866D01*
X14646Y21767D01*
X14616Y21657D01*
Y21543D01*
X14646Y21433D01*
X14703Y21334D01*
X14784Y21253D01*
X14883Y21196D01*
X14993Y21166D01*
X15107D01*
X15217Y21196D01*
X15316Y21253D01*
X15397Y21334D01*
X15454Y21433D01*
X15484Y21543D01*
Y21657D01*
X15454Y21767D01*
X15397Y21866D01*
X15316Y21947D01*
X15217Y22004D01*
X15107Y22034D01*
D02*
G37*
G36*
X44342Y21337D02*
X44258D01*
X44178Y21316D01*
X44106Y21274D01*
X44047Y21216D01*
X44006Y21144D01*
X43984Y21063D01*
Y20980D01*
X44006Y20900D01*
X44047Y20828D01*
X44106Y20769D01*
X44178Y20727D01*
X44258Y20706D01*
X44342D01*
X44422Y20727D01*
X44494Y20769D01*
X44553Y20828D01*
X44594Y20900D01*
X44616Y20980D01*
Y21063D01*
X44594Y21144D01*
X44553Y21216D01*
X44494Y21274D01*
X44422Y21316D01*
X44342Y21337D01*
D02*
G37*
G36*
X39612Y21233D02*
X39538D01*
X39466Y21214D01*
X39401Y21177D01*
X39348Y21124D01*
X39311Y21059D01*
X39292Y20987D01*
Y20913D01*
X39311Y20841D01*
X39348Y20776D01*
X39401Y20723D01*
X39466Y20686D01*
X39538Y20667D01*
X39612D01*
X39684Y20686D01*
X39749Y20723D01*
X39801Y20776D01*
X39839Y20841D01*
X39858Y20913D01*
Y20987D01*
X39839Y21059D01*
X39801Y21124D01*
X39749Y21177D01*
X39684Y21214D01*
X39612Y21233D01*
D02*
G37*
G36*
X33537D02*
X33463D01*
X33391Y21214D01*
X33326Y21177D01*
X33273Y21124D01*
X33236Y21059D01*
X33217Y20987D01*
Y20913D01*
X33236Y20841D01*
X33273Y20776D01*
X33326Y20723D01*
X33391Y20686D01*
X33463Y20667D01*
X33537D01*
X33609Y20686D01*
X33674Y20723D01*
X33727Y20776D01*
X33764Y20841D01*
X33783Y20913D01*
Y20987D01*
X33764Y21059D01*
X33727Y21124D01*
X33674Y21177D01*
X33609Y21214D01*
X33537Y21233D01*
D02*
G37*
G36*
X27369Y21111D02*
X26348D01*
Y20089D01*
X27369D01*
Y21111D01*
D02*
G37*
G36*
X23973D02*
X23838D01*
X23708Y21076D01*
X23592Y21009D01*
X23497Y20914D01*
X23491Y20903D01*
X23097D01*
X23019Y20892D01*
X22946Y20862D01*
X22883Y20814D01*
X21027Y18957D01*
X21014Y18961D01*
X20880D01*
X20750Y18926D01*
X20634Y18859D01*
X20539Y18764D01*
X20471Y18647D01*
X20437Y18517D01*
Y18383D01*
X20471Y18253D01*
X20539Y18136D01*
X20634Y18041D01*
X20750Y17974D01*
X20880Y17939D01*
X21014D01*
X21144Y17974D01*
X21261Y18041D01*
X21356Y18136D01*
X21423Y18253D01*
X21458Y18383D01*
Y18517D01*
X21455Y18529D01*
X23223Y20297D01*
X23491D01*
X23497Y20286D01*
X23592Y20191D01*
X23708Y20124D01*
X23838Y20089D01*
X23973D01*
X24103Y20124D01*
X24219Y20191D01*
X24314Y20286D01*
X24381Y20403D01*
X24416Y20533D01*
Y20667D01*
X24381Y20797D01*
X24314Y20914D01*
X24219Y21009D01*
X24103Y21076D01*
X23973Y21111D01*
D02*
G37*
G36*
X15107Y25782D02*
X14993D01*
X14883Y25752D01*
X14784Y25695D01*
X14703Y25614D01*
X14646Y25515D01*
X14616Y25405D01*
Y25291D01*
X14646Y25181D01*
X14703Y25082D01*
X14784Y25001D01*
X14883Y24944D01*
X14993Y24914D01*
X15056D01*
X19584Y20386D01*
X19584Y20386D01*
X19647Y20338D01*
X19720Y20308D01*
X19798Y20297D01*
X19798Y20297D01*
X20538D01*
X20544Y20286D01*
X20639Y20191D01*
X20756Y20124D01*
X20886Y20089D01*
X21020D01*
X21150Y20124D01*
X21266Y20191D01*
X21361Y20286D01*
X21429Y20403D01*
X21463Y20533D01*
Y20667D01*
X21429Y20797D01*
X21361Y20914D01*
X21266Y21009D01*
X21150Y21076D01*
X21020Y21111D01*
X20886D01*
X20756Y21076D01*
X20639Y21009D01*
X20544Y20914D01*
X20538Y20903D01*
X19923D01*
X15484Y25342D01*
Y25405D01*
X15454Y25515D01*
X15397Y25614D01*
X15316Y25695D01*
X15217Y25752D01*
X15107Y25782D01*
D02*
G37*
G36*
X18067Y21111D02*
X17933D01*
X17803Y21076D01*
X17686Y21009D01*
X17591Y20914D01*
X17524Y20797D01*
X17489Y20667D01*
Y20533D01*
X17524Y20403D01*
X17591Y20286D01*
X17686Y20191D01*
X17803Y20124D01*
X17933Y20089D01*
X18067D01*
X18197Y20124D01*
X18314Y20191D01*
X18409Y20286D01*
X18476Y20403D01*
X18511Y20533D01*
Y20667D01*
X18476Y20797D01*
X18409Y20914D01*
X18314Y21009D01*
X18197Y21076D01*
X18067Y21111D01*
D02*
G37*
G36*
X39612Y20233D02*
X39538D01*
X39466Y20214D01*
X39401Y20177D01*
X39348Y20124D01*
X39311Y20059D01*
X39292Y19987D01*
Y19913D01*
X39311Y19841D01*
X39348Y19776D01*
X39401Y19723D01*
X39466Y19686D01*
X39538Y19667D01*
X39612D01*
X39684Y19686D01*
X39749Y19723D01*
X39801Y19776D01*
X39839Y19841D01*
X39858Y19913D01*
Y19987D01*
X39839Y20059D01*
X39801Y20124D01*
X39749Y20177D01*
X39684Y20214D01*
X39612Y20233D01*
D02*
G37*
G36*
X32725Y20325D02*
X31975D01*
Y19575D01*
X32725D01*
Y19797D01*
X33261D01*
X33273Y19776D01*
X33326Y19723D01*
X33391Y19686D01*
X33463Y19667D01*
X33537D01*
X33609Y19686D01*
X33674Y19723D01*
X33727Y19776D01*
X33764Y19841D01*
X33783Y19913D01*
Y19987D01*
X33764Y20059D01*
X33727Y20124D01*
X33674Y20177D01*
X33609Y20214D01*
X33537Y20233D01*
X33463D01*
X33391Y20214D01*
X33326Y20177D01*
X33273Y20124D01*
X33261Y20103D01*
X32725D01*
Y20325D01*
D02*
G37*
G36*
X33537Y22233D02*
X33463D01*
X33391Y22214D01*
X33326Y22177D01*
X33273Y22124D01*
X33236Y22059D01*
X33217Y21987D01*
Y21913D01*
X33236Y21841D01*
X33273Y21776D01*
X33326Y21723D01*
X33391Y21686D01*
X33463Y21667D01*
X33537D01*
X33609Y21686D01*
X33674Y21723D01*
X33727Y21776D01*
X33739Y21797D01*
X34967D01*
X36422Y20342D01*
X36471Y20309D01*
X36530Y20297D01*
X46597D01*
X46897Y19997D01*
Y19750D01*
X46882Y19713D01*
Y19647D01*
X46907Y19585D01*
X46955Y19537D01*
X47017Y19512D01*
X47083D01*
X47145Y19537D01*
X47193Y19585D01*
X47218Y19647D01*
Y19713D01*
X47203Y19750D01*
Y20060D01*
X47191Y20119D01*
X47158Y20168D01*
X46768Y20558D01*
X46719Y20591D01*
X46660Y20603D01*
X36593D01*
X35138Y22058D01*
X35089Y22091D01*
X35030Y22103D01*
X33739D01*
X33727Y22124D01*
X33674Y22177D01*
X33609Y22214D01*
X33537Y22233D01*
D02*
G37*
G36*
X48587Y19953D02*
X48513D01*
X48443Y19934D01*
X48379Y19898D01*
X48327Y19846D01*
X48291Y19783D01*
X48272Y19712D01*
Y19639D01*
X48291Y19568D01*
X48327Y19504D01*
X48379Y19453D01*
X48443Y19416D01*
X48513Y19397D01*
X48587D01*
X48657Y19416D01*
X48721Y19453D01*
X48773Y19504D01*
X48809Y19568D01*
X48828Y19639D01*
Y19712D01*
X48809Y19783D01*
X48773Y19846D01*
X48721Y19898D01*
X48657Y19934D01*
X48587Y19953D01*
D02*
G37*
G36*
X47587D02*
X47513D01*
X47443Y19934D01*
X47379Y19898D01*
X47327Y19846D01*
X47291Y19783D01*
X47272Y19712D01*
Y19639D01*
X47291Y19568D01*
X47327Y19504D01*
X47379Y19453D01*
X47443Y19416D01*
X47513Y19397D01*
X47587D01*
X47657Y19416D01*
X47721Y19453D01*
X47773Y19504D01*
X47809Y19568D01*
X47828Y19639D01*
Y19712D01*
X47809Y19783D01*
X47773Y19846D01*
X47721Y19898D01*
X47657Y19934D01*
X47587Y19953D01*
D02*
G37*
G36*
X46587D02*
X46513D01*
X46443Y19934D01*
X46379Y19898D01*
X46327Y19846D01*
X46291Y19783D01*
X46272Y19712D01*
Y19639D01*
X46291Y19568D01*
X46327Y19504D01*
X46379Y19453D01*
X46443Y19416D01*
X46513Y19397D01*
X46587D01*
X46657Y19416D01*
X46721Y19453D01*
X46773Y19504D01*
X46809Y19568D01*
X46828Y19639D01*
Y19712D01*
X46809Y19783D01*
X46773Y19846D01*
X46721Y19898D01*
X46657Y19934D01*
X46587Y19953D01*
D02*
G37*
G36*
X51913Y19338D02*
X51847D01*
X51810Y19323D01*
X50584D01*
X50547Y19338D01*
X50480D01*
X50418Y19313D01*
X50371Y19265D01*
X50346Y19203D01*
Y19137D01*
X50371Y19075D01*
X50418Y19027D01*
X50480Y19002D01*
X50547D01*
X50584Y19017D01*
X51810D01*
X51847Y19002D01*
X51913D01*
X51975Y19027D01*
X52023Y19075D01*
X52048Y19137D01*
Y19203D01*
X52023Y19265D01*
X51975Y19313D01*
X51913Y19338D01*
D02*
G37*
G36*
X39612Y19233D02*
X39538D01*
X39466Y19214D01*
X39401Y19177D01*
X39348Y19124D01*
X39311Y19059D01*
X39292Y18987D01*
Y18913D01*
X39311Y18841D01*
X39348Y18776D01*
X39401Y18723D01*
X39466Y18686D01*
X39538Y18667D01*
X39612D01*
X39684Y18686D01*
X39749Y18723D01*
X39801Y18776D01*
X39839Y18841D01*
X39858Y18913D01*
Y18987D01*
X39839Y19059D01*
X39801Y19124D01*
X39749Y19177D01*
X39684Y19214D01*
X39612Y19233D01*
D02*
G37*
G36*
X32399Y19325D02*
X32301D01*
X32205Y19299D01*
X32120Y19250D01*
X32050Y19180D01*
X32001Y19095D01*
X31975Y18999D01*
Y18901D01*
X32001Y18805D01*
X32050Y18720D01*
X32120Y18650D01*
X32205Y18601D01*
X32301Y18575D01*
X32399D01*
X32495Y18601D01*
X32580Y18650D01*
X32650Y18720D01*
X32694Y18797D01*
X33261D01*
X33273Y18776D01*
X33326Y18723D01*
X33391Y18686D01*
X33463Y18667D01*
X33537D01*
X33609Y18686D01*
X33674Y18723D01*
X33727Y18776D01*
X33764Y18841D01*
X33783Y18913D01*
Y18987D01*
X33764Y19059D01*
X33727Y19124D01*
X33674Y19177D01*
X33609Y19214D01*
X33537Y19233D01*
X33463D01*
X33391Y19214D01*
X33326Y19177D01*
X33273Y19124D01*
X33261Y19103D01*
X32694D01*
X32650Y19180D01*
X32580Y19250D01*
X32495Y19299D01*
X32399Y19325D01*
D02*
G37*
G36*
X27363Y18961D02*
X26342D01*
Y17939D01*
X27363D01*
Y18961D01*
D02*
G37*
G36*
X23967D02*
X23833D01*
X23703Y18926D01*
X23586Y18859D01*
X23491Y18764D01*
X23485Y18753D01*
X23400D01*
X23322Y18742D01*
X23249Y18712D01*
X23186Y18664D01*
X23186Y18664D01*
X20452Y15930D01*
X20402Y15949D01*
Y16008D01*
X20371Y16121D01*
X20313Y16222D01*
X20230Y16305D01*
X20129Y16363D01*
X20016Y16394D01*
X19942D01*
X19122Y17214D01*
X19059Y17262D01*
X18986Y17292D01*
X18908Y17303D01*
X17050D01*
X16972Y17292D01*
X16899Y17262D01*
X16836Y17214D01*
X16325Y16703D01*
X15361D01*
X15316Y16747D01*
X15217Y16804D01*
X15107Y16834D01*
X14993D01*
X14883Y16804D01*
X14784Y16747D01*
X14703Y16666D01*
X14646Y16567D01*
X14616Y16457D01*
Y16343D01*
X14646Y16233D01*
X14703Y16134D01*
X14784Y16053D01*
X14883Y15996D01*
X14993Y15966D01*
X15107D01*
X15217Y15996D01*
X15316Y16053D01*
X15361Y16097D01*
X16450D01*
X16528Y16108D01*
X16601Y16138D01*
X16664Y16186D01*
X17175Y16697D01*
X18783D01*
X19514Y15966D01*
Y15892D01*
X19544Y15779D01*
X19603Y15678D01*
X19685Y15595D01*
X19787Y15537D01*
X19899Y15506D01*
X19997D01*
X20018Y15457D01*
X19744Y15183D01*
X19696Y15120D01*
X19666Y15047D01*
X19655Y14969D01*
Y13793D01*
X19609Y13774D01*
X19169Y14214D01*
X19106Y14262D01*
X19033Y14292D01*
X18955Y14303D01*
X16398D01*
X16320Y14292D01*
X16247Y14262D01*
X16184Y14214D01*
X16184Y14214D01*
X15056Y13086D01*
X14993D01*
X14883Y13056D01*
X14784Y12999D01*
X14703Y12918D01*
X14646Y12819D01*
X14616Y12709D01*
Y12595D01*
X14646Y12485D01*
X14703Y12386D01*
X14784Y12305D01*
X14883Y12248D01*
X14993Y12218D01*
X15107D01*
X15217Y12248D01*
X15316Y12305D01*
X15397Y12386D01*
X15454Y12485D01*
X15484Y12595D01*
Y12658D01*
X16523Y13697D01*
X18830D01*
X19514Y13013D01*
Y12939D01*
X19544Y12826D01*
X19603Y12725D01*
X19685Y12642D01*
X19787Y12584D01*
X19828Y12573D01*
X19822Y12523D01*
X18860D01*
X18402Y12981D01*
Y13056D01*
X18371Y13168D01*
X18313Y13270D01*
X18230Y13352D01*
X18129Y13411D01*
X18016Y13441D01*
X17899D01*
X17787Y13411D01*
X17685Y13352D01*
X17603Y13270D01*
X17544Y13168D01*
X17514Y13056D01*
Y12939D01*
X17544Y12826D01*
X17603Y12725D01*
X17685Y12642D01*
X17787Y12584D01*
X17899Y12554D01*
X17974D01*
X18521Y12006D01*
X18521Y12006D01*
X18584Y11958D01*
X18657Y11928D01*
X18735Y11917D01*
X20070D01*
X20148Y11928D01*
X20221Y11958D01*
X20284Y12006D01*
X20284Y12006D01*
X20324Y12011D01*
X20397Y12041D01*
X20459Y12090D01*
X20866Y12496D01*
X20914Y12559D01*
X20944Y12632D01*
X20949Y12671D01*
X21542Y13264D01*
X21582Y13233D01*
X21544Y13168D01*
X21514Y13056D01*
Y12939D01*
X21544Y12826D01*
X21603Y12725D01*
X21685Y12642D01*
X21787Y12584D01*
X21899Y12554D01*
X22016D01*
X22129Y12584D01*
X22230Y12642D01*
X22313Y12725D01*
X22371Y12826D01*
X22402Y12939D01*
Y13056D01*
X22371Y13168D01*
X22313Y13270D01*
X22230Y13352D01*
X22129Y13411D01*
X22016Y13441D01*
X21899D01*
X21787Y13411D01*
X21722Y13373D01*
X21691Y13413D01*
X22172Y13894D01*
X22220Y13957D01*
X22250Y14030D01*
X22260Y14108D01*
X22260Y14108D01*
Y15625D01*
X22313Y15678D01*
X22371Y15779D01*
X22402Y15892D01*
Y16008D01*
X22371Y16121D01*
X22313Y16222D01*
X22230Y16305D01*
X22129Y16363D01*
X22016Y16394D01*
X21899D01*
X21821Y16373D01*
X21796Y16418D01*
X23503Y18125D01*
X23586Y18041D01*
X23703Y17974D01*
X23833Y17939D01*
X23967D01*
X24097Y17974D01*
X24214Y18041D01*
X24309Y18136D01*
X24376Y18253D01*
X24411Y18383D01*
Y18517D01*
X24376Y18647D01*
X24309Y18764D01*
X24214Y18859D01*
X24097Y18926D01*
X23967Y18961D01*
D02*
G37*
G36*
X18062D02*
X17927D01*
X17797Y18926D01*
X17681Y18859D01*
X17586Y18764D01*
X17519Y18647D01*
X17484Y18517D01*
Y18383D01*
X17519Y18253D01*
X17586Y18136D01*
X17681Y18041D01*
X17797Y17974D01*
X17927Y17939D01*
X18062D01*
X18192Y17974D01*
X18308Y18041D01*
X18403Y18136D01*
X18470Y18253D01*
X18505Y18383D01*
Y18517D01*
X18470Y18647D01*
X18403Y18764D01*
X18308Y18859D01*
X18192Y18926D01*
X18062Y18961D01*
D02*
G37*
G36*
X39612Y18233D02*
X39538D01*
X39466Y18214D01*
X39401Y18177D01*
X39348Y18124D01*
X39311Y18059D01*
X39292Y17987D01*
Y17913D01*
X39311Y17841D01*
X39348Y17776D01*
X39401Y17723D01*
X39466Y17686D01*
X39538Y17667D01*
X39612D01*
X39684Y17686D01*
X39749Y17723D01*
X39801Y17776D01*
X39839Y17841D01*
X39858Y17913D01*
Y17987D01*
X39839Y18059D01*
X39801Y18124D01*
X39749Y18177D01*
X39684Y18214D01*
X39612Y18233D01*
D02*
G37*
G36*
X32399Y18325D02*
X32301D01*
X32205Y18299D01*
X32120Y18250D01*
X32050Y18180D01*
X32001Y18095D01*
X31975Y17999D01*
Y17901D01*
X32001Y17805D01*
X32050Y17720D01*
X32120Y17650D01*
X32205Y17601D01*
X32301Y17575D01*
X32399D01*
X32495Y17601D01*
X32580Y17650D01*
X32650Y17720D01*
X32694Y17797D01*
X33261D01*
X33273Y17776D01*
X33326Y17723D01*
X33391Y17686D01*
X33463Y17667D01*
X33537D01*
X33609Y17686D01*
X33674Y17723D01*
X33727Y17776D01*
X33764Y17841D01*
X33783Y17913D01*
Y17987D01*
X33764Y18059D01*
X33727Y18124D01*
X33674Y18177D01*
X33609Y18214D01*
X33537Y18233D01*
X33463D01*
X33391Y18214D01*
X33326Y18177D01*
X33273Y18124D01*
X33261Y18103D01*
X32694D01*
X32650Y18180D01*
X32580Y18250D01*
X32495Y18299D01*
X32399Y18325D01*
D02*
G37*
G36*
X39612Y17233D02*
X39538D01*
X39466Y17214D01*
X39401Y17177D01*
X39348Y17124D01*
X39311Y17059D01*
X39292Y16987D01*
Y16913D01*
X39311Y16841D01*
X39348Y16776D01*
X39401Y16723D01*
X39466Y16686D01*
X39538Y16667D01*
X39612D01*
X39684Y16686D01*
X39749Y16723D01*
X39801Y16776D01*
X39839Y16841D01*
X39858Y16913D01*
Y16987D01*
X39839Y17059D01*
X39801Y17124D01*
X39749Y17177D01*
X39684Y17214D01*
X39612Y17233D01*
D02*
G37*
G36*
X55057Y17184D02*
X54943D01*
X54833Y17154D01*
X54734Y17097D01*
X54653Y17016D01*
X54596Y16917D01*
X54566Y16807D01*
Y16693D01*
X54596Y16583D01*
X54653Y16484D01*
X54734Y16403D01*
X54833Y16346D01*
X54943Y16316D01*
X55057D01*
X55167Y16346D01*
X55266Y16403D01*
X55347Y16484D01*
X55404Y16583D01*
X55434Y16693D01*
Y16807D01*
X55404Y16917D01*
X55347Y17016D01*
X55266Y17097D01*
X55167Y17154D01*
X55057Y17184D01*
D02*
G37*
G36*
X18016Y16394D02*
X17899D01*
X17787Y16363D01*
X17685Y16305D01*
X17603Y16222D01*
X17544Y16121D01*
X17514Y16008D01*
Y15892D01*
X17544Y15779D01*
X17603Y15678D01*
X17685Y15595D01*
X17787Y15537D01*
X17899Y15506D01*
X18016D01*
X18129Y15537D01*
X18230Y15595D01*
X18313Y15678D01*
X18371Y15779D01*
X18402Y15892D01*
Y16008D01*
X18371Y16121D01*
X18313Y16222D01*
X18230Y16305D01*
X18129Y16363D01*
X18016Y16394D01*
D02*
G37*
G36*
X41149Y15725D02*
X41051D01*
X40955Y15699D01*
X40870Y15650D01*
X40800Y15580D01*
X40756Y15503D01*
X39975D01*
X39916Y15491D01*
X39867Y15458D01*
X39635Y15227D01*
X39612Y15233D01*
X39538D01*
X39466Y15214D01*
X39401Y15177D01*
X39348Y15124D01*
X39311Y15059D01*
X39292Y14987D01*
Y14913D01*
X39311Y14841D01*
X39348Y14776D01*
X39401Y14723D01*
X39466Y14686D01*
X39538Y14667D01*
X39612D01*
X39684Y14686D01*
X39749Y14723D01*
X39801Y14776D01*
X39839Y14841D01*
X39858Y14913D01*
Y14987D01*
X39852Y15011D01*
X40038Y15197D01*
X40756D01*
X40800Y15120D01*
X40870Y15050D01*
X40955Y15001D01*
X41051Y14975D01*
X41149D01*
X41245Y15001D01*
X41330Y15050D01*
X41400Y15120D01*
X41449Y15205D01*
X41475Y15301D01*
Y15399D01*
X41449Y15495D01*
X41400Y15580D01*
X41330Y15650D01*
X41245Y15699D01*
X41149Y15725D01*
D02*
G37*
G36*
X30197Y15410D02*
X30103D01*
X30011Y15386D01*
X29929Y15338D01*
X29862Y15271D01*
X29815Y15189D01*
X29790Y15097D01*
Y15003D01*
X29815Y14911D01*
X29862Y14829D01*
X29929Y14762D01*
X30011Y14714D01*
X30103Y14690D01*
X30197D01*
X30289Y14714D01*
X30371Y14762D01*
X30438Y14829D01*
X30485Y14911D01*
X30510Y15003D01*
Y15097D01*
X30485Y15189D01*
X30438Y15271D01*
X30371Y15338D01*
X30289Y15386D01*
X30197Y15410D01*
D02*
G37*
G36*
X33537Y15233D02*
X33463D01*
X33391Y15214D01*
X33326Y15177D01*
X33273Y15124D01*
X33236Y15059D01*
X33217Y14987D01*
Y14913D01*
X33236Y14841D01*
X33273Y14776D01*
X33326Y14723D01*
X33391Y14686D01*
X33463Y14667D01*
X33537D01*
X33609Y14686D01*
X33674Y14723D01*
X33727Y14776D01*
X33764Y14841D01*
X33783Y14913D01*
Y14987D01*
X33764Y15059D01*
X33727Y15124D01*
X33674Y15177D01*
X33609Y15214D01*
X33537Y15233D01*
D02*
G37*
G36*
X41149Y14725D02*
X41051D01*
X40955Y14699D01*
X40870Y14650D01*
X40800Y14580D01*
X40756Y14503D01*
X39975D01*
X39916Y14491D01*
X39867Y14458D01*
X39635Y14227D01*
X39612Y14233D01*
X39538D01*
X39466Y14214D01*
X39401Y14177D01*
X39348Y14124D01*
X39311Y14059D01*
X39292Y13987D01*
Y13913D01*
X39311Y13841D01*
X39348Y13776D01*
X39401Y13723D01*
X39466Y13686D01*
X39538Y13667D01*
X39612D01*
X39684Y13686D01*
X39749Y13723D01*
X39801Y13776D01*
X39839Y13841D01*
X39858Y13913D01*
Y13987D01*
X39852Y14011D01*
X40038Y14197D01*
X40756D01*
X40800Y14120D01*
X40870Y14050D01*
X40955Y14001D01*
X41051Y13975D01*
X41149D01*
X41245Y14001D01*
X41330Y14050D01*
X41400Y14120D01*
X41449Y14205D01*
X41475Y14301D01*
Y14399D01*
X41449Y14495D01*
X41400Y14580D01*
X41330Y14650D01*
X41245Y14699D01*
X41149Y14725D01*
D02*
G37*
G36*
X30275Y14362D02*
X30259D01*
X30179Y14341D01*
X30108Y14300D01*
X30050Y14242D01*
X30009Y14171D01*
X29988Y14091D01*
Y14075D01*
X30275D01*
Y14362D01*
D02*
G37*
G36*
X33537Y14233D02*
X33525D01*
Y13975D01*
X33783D01*
Y13987D01*
X33764Y14059D01*
X33727Y14124D01*
X33674Y14177D01*
X33609Y14214D01*
X33537Y14233D01*
D02*
G37*
G36*
X30275Y14025D02*
X29988D01*
Y14009D01*
X30009Y13929D01*
X30050Y13858D01*
X30108Y13800D01*
X30179Y13759D01*
X30259Y13738D01*
X30275D01*
Y14025D01*
D02*
G37*
G36*
X30341Y14362D02*
X30325D01*
Y14050D01*
Y13738D01*
X30341D01*
X30421Y13759D01*
X30492Y13800D01*
X30550Y13858D01*
X30572Y13897D01*
X32547D01*
X32602Y13842D01*
X32651Y13809D01*
X32710Y13797D01*
X33261D01*
X33273Y13776D01*
X33326Y13723D01*
X33391Y13686D01*
X33463Y13667D01*
X33475D01*
Y13950D01*
Y14233D01*
X33463D01*
X33391Y14214D01*
X33326Y14177D01*
X33273Y14124D01*
X33261Y14103D01*
X32773D01*
X32718Y14158D01*
X32669Y14191D01*
X32610Y14203D01*
X30572D01*
X30550Y14242D01*
X30492Y14300D01*
X30421Y14341D01*
X30341Y14362D01*
D02*
G37*
G36*
X51880Y16593D02*
X51821Y16581D01*
X51772Y16548D01*
X51739Y16499D01*
X51727Y16440D01*
Y14063D01*
X51167Y13503D01*
X41444D01*
X41400Y13580D01*
X41330Y13650D01*
X41245Y13699D01*
X41149Y13725D01*
X41125D01*
Y13350D01*
Y12975D01*
X41149D01*
X41245Y13001D01*
X41330Y13050D01*
X41400Y13120D01*
X41444Y13197D01*
X54554D01*
X54562Y13192D01*
X54590Y13148D01*
X54566Y13059D01*
Y13027D01*
X54975D01*
Y13436D01*
X54943D01*
X54833Y13406D01*
X54820Y13399D01*
X54760Y13458D01*
X54710Y13491D01*
X54652Y13503D01*
X51665D01*
X51645Y13549D01*
X51988Y13892D01*
X52021Y13941D01*
X52033Y14000D01*
Y16440D01*
X52021Y16499D01*
X51988Y16548D01*
X51939Y16581D01*
X51880Y16593D01*
D02*
G37*
G36*
X29660Y13812D02*
X29577D01*
X29498Y13791D01*
X29427Y13750D01*
X29369Y13692D01*
X29327Y13621D01*
X29306Y13541D01*
Y13459D01*
X29327Y13379D01*
X29369Y13308D01*
X29427Y13250D01*
X29498Y13209D01*
X29521Y13203D01*
X29515Y13153D01*
X28368D01*
X28363Y13168D01*
X28305Y13270D01*
X28222Y13352D01*
X28121Y13411D01*
X28008Y13441D01*
X27892D01*
X27779Y13411D01*
X27678Y13352D01*
X27595Y13270D01*
X27537Y13168D01*
X27506Y13056D01*
Y12939D01*
X27537Y12826D01*
X27595Y12725D01*
X27678Y12642D01*
X27779Y12584D01*
X27892Y12554D01*
X28008D01*
X28068Y12570D01*
X28097Y12558D01*
X28136Y12553D01*
X28175Y12547D01*
X28175Y12547D01*
X30200D01*
X30278Y12558D01*
X30351Y12588D01*
X30414Y12636D01*
X30416Y12638D01*
X30612D01*
Y13262D01*
X29988D01*
Y13153D01*
X29722D01*
X29716Y13203D01*
X29739Y13209D01*
X29810Y13250D01*
X29868Y13308D01*
X29910Y13379D01*
X29931Y13459D01*
Y13541D01*
X29910Y13621D01*
X29868Y13692D01*
X29810Y13750D01*
X29739Y13791D01*
X29660Y13812D01*
D02*
G37*
G36*
X55057Y13436D02*
X55025D01*
Y13027D01*
X55434D01*
Y13059D01*
X55404Y13169D01*
X55347Y13268D01*
X55266Y13349D01*
X55167Y13406D01*
X55057Y13436D01*
D02*
G37*
G36*
X33783Y13925D02*
X33525D01*
Y13667D01*
X33537D01*
X33561Y13673D01*
X33992Y13242D01*
X34041Y13209D01*
X34100Y13197D01*
X39351D01*
X39372Y13147D01*
X39348Y13124D01*
X39311Y13059D01*
X39292Y12987D01*
Y12913D01*
X39311Y12841D01*
X39348Y12776D01*
X39401Y12723D01*
X39466Y12686D01*
X39538Y12667D01*
X39612D01*
X39684Y12686D01*
X39749Y12723D01*
X39801Y12776D01*
X39839Y12841D01*
X39858Y12913D01*
Y12987D01*
X39839Y13059D01*
X39801Y13124D01*
X39778Y13147D01*
X39799Y13197D01*
X40756D01*
X40800Y13120D01*
X40870Y13050D01*
X40955Y13001D01*
X41051Y12975D01*
X41075D01*
Y13350D01*
Y13725D01*
X41051D01*
X40955Y13699D01*
X40870Y13650D01*
X40800Y13580D01*
X40756Y13503D01*
X34163D01*
X33777Y13889D01*
X33783Y13913D01*
Y13925D01*
D02*
G37*
G36*
X33537Y13233D02*
X33463D01*
X33391Y13214D01*
X33326Y13177D01*
X33273Y13124D01*
X33236Y13059D01*
X33217Y12987D01*
Y12913D01*
X33236Y12841D01*
X33273Y12776D01*
X33326Y12723D01*
X33391Y12686D01*
X33463Y12667D01*
X33537D01*
X33609Y12686D01*
X33674Y12723D01*
X33727Y12776D01*
X33764Y12841D01*
X33783Y12913D01*
Y12987D01*
X33764Y13059D01*
X33727Y13124D01*
X33674Y13177D01*
X33609Y13214D01*
X33537Y13233D01*
D02*
G37*
G36*
X55434Y12977D02*
X55025D01*
Y12568D01*
X55057D01*
X55167Y12598D01*
X55266Y12655D01*
X55347Y12736D01*
X55404Y12835D01*
X55434Y12945D01*
Y12977D01*
D02*
G37*
G36*
X54975D02*
X54566D01*
Y12945D01*
X54596Y12835D01*
X54653Y12736D01*
X54734Y12655D01*
X54833Y12598D01*
X54943Y12568D01*
X54975D01*
Y12977D01*
D02*
G37*
G36*
X41475Y12725D02*
X40725D01*
Y11975D01*
X41475D01*
Y12725D01*
D02*
G37*
G36*
X39612Y12233D02*
X39538D01*
X39466Y12214D01*
X39401Y12177D01*
X39348Y12124D01*
X39311Y12059D01*
X39292Y11987D01*
Y11913D01*
X39311Y11841D01*
X39348Y11776D01*
X39401Y11723D01*
X39466Y11686D01*
X39538Y11667D01*
X39612D01*
X39684Y11686D01*
X39749Y11723D01*
X39801Y11776D01*
X39839Y11841D01*
X39858Y11913D01*
Y11987D01*
X39839Y12059D01*
X39801Y12124D01*
X39749Y12177D01*
X39684Y12214D01*
X39612Y12233D01*
D02*
G37*
G36*
X33537D02*
X33463D01*
X33391Y12214D01*
X33326Y12177D01*
X33273Y12124D01*
X33236Y12059D01*
X33217Y11987D01*
Y11913D01*
X33236Y11841D01*
X33273Y11776D01*
X33326Y11723D01*
X33391Y11686D01*
X33463Y11667D01*
X33537D01*
X33609Y11686D01*
X33674Y11723D01*
X33727Y11776D01*
X33764Y11841D01*
X33783Y11913D01*
Y11987D01*
X33764Y12059D01*
X33727Y12124D01*
X33674Y12177D01*
X33609Y12214D01*
X33537Y12233D01*
D02*
G37*
G36*
X50079Y11800D02*
X49921D01*
X49767Y11769D01*
X49621Y11709D01*
X49490Y11621D01*
X49379Y11510D01*
X49291Y11379D01*
X49231Y11233D01*
X49200Y11079D01*
Y10921D01*
X49231Y10767D01*
X49291Y10621D01*
X49379Y10490D01*
X49490Y10379D01*
X49621Y10291D01*
X49767Y10231D01*
X49921Y10200D01*
X50079D01*
X50233Y10231D01*
X50379Y10291D01*
X50510Y10379D01*
X50621Y10490D01*
X50709Y10621D01*
X50769Y10767D01*
X50800Y10921D01*
Y11079D01*
X50769Y11233D01*
X50709Y11379D01*
X50621Y11510D01*
X50510Y11621D01*
X50379Y11709D01*
X50233Y11769D01*
X50079Y11800D01*
D02*
G37*
G36*
X20079D02*
X19921D01*
X19767Y11769D01*
X19621Y11709D01*
X19490Y11621D01*
X19379Y11510D01*
X19291Y11379D01*
X19231Y11233D01*
X19200Y11079D01*
Y10921D01*
X19231Y10767D01*
X19291Y10621D01*
X19379Y10490D01*
X19490Y10379D01*
X19621Y10291D01*
X19767Y10231D01*
X19921Y10200D01*
X20079D01*
X20233Y10231D01*
X20379Y10291D01*
X20510Y10379D01*
X20621Y10490D01*
X20709Y10621D01*
X20769Y10767D01*
X20800Y10921D01*
Y11079D01*
X20769Y11233D01*
X20709Y11379D01*
X20621Y11510D01*
X20510Y11621D01*
X20379Y11709D01*
X20233Y11769D01*
X20079Y11800D01*
D02*
G37*
%LPD*%
G36*
X31292Y33931D02*
X31295Y33925D01*
X31262Y33875D01*
X27513D01*
X26904Y34484D01*
Y34892D01*
X26940Y34927D01*
X27587D01*
X28032Y34482D01*
X28081Y34449D01*
X28140Y34437D01*
X28768D01*
Y34278D01*
X29392D01*
Y34902D01*
X29428Y34937D01*
X30287D01*
X31292Y33931D01*
D02*
G37*
G36*
X21535Y16086D02*
X21514Y16008D01*
Y15892D01*
X21544Y15779D01*
X21603Y15678D01*
X21655Y15625D01*
Y14233D01*
X20452Y13030D01*
X20402Y13049D01*
Y13056D01*
X20371Y13168D01*
X20313Y13270D01*
X20260Y13322D01*
Y14844D01*
X20866Y15449D01*
X20866Y15449D01*
X20914Y15511D01*
X20931Y15553D01*
X21490Y16112D01*
X21535Y16086D01*
D02*
G37*
D52*
X21958Y12997D02*
D03*
X19958D02*
D03*
X17958D02*
D03*
Y15950D02*
D03*
X21958D02*
D03*
X19958D02*
D03*
X27950Y12997D02*
D03*
D53*
Y15950D02*
D03*
D62*
X15122Y30600D02*
X15422Y30900D01*
X20850D02*
X21650Y30100D01*
X15422Y30900D02*
X20850D01*
X15050Y30600D02*
X15122D01*
X28175Y12850D02*
X30200D01*
X30300Y12950D01*
X27950Y12997D02*
X28028D01*
X28175Y12850D01*
X20652Y15702D02*
X23400Y18450D01*
X19958Y12997D02*
Y14969D01*
X20652Y15663D02*
Y15702D01*
X23400Y18450D02*
X23900D01*
X19958Y14969D02*
X20652Y15663D01*
X20070Y12220D02*
X20154Y12304D01*
X20245D01*
X20652Y12710D02*
Y12802D01*
X18735Y12220D02*
X20070D01*
X21958Y14108D02*
Y15950D01*
X20652Y12802D02*
X21958Y14108D01*
X20245Y12304D02*
X20652Y12710D01*
X17050Y17000D02*
X18908D01*
X16450Y16400D02*
X17050Y17000D01*
X18908D02*
X19958Y15950D01*
X18955Y14000D02*
X19958Y12997D01*
X15050Y12652D02*
X16398Y14000D01*
X18955D01*
X18466Y23350D02*
X19826Y21990D01*
X28761D01*
X30150Y20601D01*
X15050Y16400D02*
X16450D01*
X15050Y25348D02*
X19798Y20600D01*
X20953D01*
X22100Y34650D02*
X24410Y34580D01*
X17958Y12997D02*
X18735Y12220D01*
X20947Y18450D02*
X23097Y20600D01*
X23906D01*
D63*
X49550Y19675D02*
Y21550D01*
X54217Y26217D02*
Y26383D01*
X47842Y26500D02*
X54100D01*
X54217Y26383D01*
X49550Y21550D02*
X54217Y26217D01*
X47250Y25908D02*
X47842Y26500D01*
X47353Y17478D02*
X51108D01*
X44300D02*
X47353D01*
X28430Y16430D02*
X41100D01*
X51230Y13350D02*
X54652D01*
X41100D02*
X51230D01*
X76378Y14000D02*
X78370D01*
X76350D02*
X76378D01*
X69750Y29150D02*
X72550D01*
X69050Y29850D02*
X69750Y29150D01*
X51108Y17478D02*
X51880Y18250D01*
X47353Y17478D02*
X49550Y19675D01*
X43172Y16350D02*
X44300Y17478D01*
X41100Y16350D02*
X43172D01*
X66520Y27320D02*
X69050Y29850D01*
X73350Y33350D02*
X76550Y30150D01*
X66487Y33350D02*
X73350D01*
X65987Y33850D02*
X66487Y33350D01*
X44400Y30950D02*
X44728D01*
X45229Y30450D01*
X52113D01*
X52500Y30063D01*
X34100Y13350D02*
X41100D01*
X33500Y13950D02*
X34100Y13350D01*
X39775Y22750D02*
X46550D01*
X39575Y22950D02*
X39775Y22750D01*
X30050Y24961D02*
X31039Y25950D01*
X33500D01*
X84408Y25020D02*
X85884Y23544D01*
X76580Y25020D02*
X84408D01*
X73070Y28530D02*
X76580Y25020D01*
X73070Y28530D02*
Y29500D01*
X73220Y29650D01*
X75050D01*
X75550Y29150D01*
X48930Y22130D02*
X49550Y22750D01*
X41727Y22130D02*
X48930D01*
X39975Y14350D02*
X41100D01*
X39575Y13950D02*
X39975Y14350D01*
Y15350D02*
X41100D01*
X39575Y14950D02*
X39975Y15350D01*
X44920Y28430D02*
X45400Y27950D01*
X40055Y28430D02*
X44920D01*
X39575Y27950D02*
X40055Y28430D01*
X44920Y29430D02*
X45400Y28950D01*
X40055Y29430D02*
X44920D01*
X39575Y28950D02*
X40055Y29430D01*
X45140Y29950D02*
X45400D01*
X44660Y30430D02*
X45140Y29950D01*
X40055Y30430D02*
X44660D01*
X39575Y29950D02*
X40055Y30430D01*
X44920Y31430D02*
X45400Y30950D01*
X40055Y31430D02*
X44920D01*
X39575Y30950D02*
X40055Y31430D01*
X68666Y31466D02*
X69050Y31850D01*
X68666Y30625D02*
Y31466D01*
Y30625D02*
X68861Y30430D01*
X72270D01*
X72550Y30150D01*
X69050Y30850D02*
X72850D01*
X73550Y30150D01*
X65987Y29850D02*
X67270D01*
X68190Y30770D01*
Y31270D01*
X66850Y20250D02*
X67500Y20900D01*
X66350Y20250D02*
X66850D01*
X66070Y20530D02*
X66350Y20250D01*
X66070Y20530D02*
Y21500D01*
X66450Y21880D01*
X78320D01*
X79300Y20900D01*
X83522Y20222D02*
X84200Y20900D01*
X78978Y20222D02*
X83522D01*
X78300Y20900D02*
X78978Y20222D01*
X76378Y13972D02*
Y14000D01*
Y13972D02*
X86272D01*
X87200Y14900D01*
X75400Y14950D02*
X76350Y14000D01*
X78370D02*
X78870Y14500D01*
Y15198D01*
X79000Y15328D01*
X80872D01*
X81300Y14900D01*
X87730Y15370D02*
X88200Y14900D01*
X84875Y15370D02*
X87730D01*
X84630Y15125D02*
X84875Y15370D01*
X84630Y14602D02*
Y15125D01*
X84500Y14472D02*
X84630Y14602D01*
X82728Y14472D02*
X84500D01*
X82300Y14900D02*
X82728Y14472D01*
X68660Y26460D02*
X69050Y26850D01*
X68660Y25690D02*
Y26460D01*
Y25690D02*
X69000Y25350D01*
X69510D01*
X71660Y23200D01*
X77630D01*
X78990Y21840D01*
X85120D01*
X85630Y21330D01*
Y20600D02*
Y21330D01*
X85500Y20470D02*
X85630Y20600D01*
X84908Y20470D02*
X85500D01*
X84628Y20750D02*
X84908Y20470D01*
X84628Y20750D02*
Y21200D01*
X84500Y21328D02*
X84628Y21200D01*
X80728Y21328D02*
X84500D01*
X80300Y20900D02*
X80728Y21328D01*
X28549Y35090D02*
X30350D01*
X31450Y33990D01*
X24410Y34580D02*
X26591D01*
X33500Y21950D02*
X35030D01*
X36530Y20450D01*
X46660D01*
X47050Y20060D01*
Y19680D02*
Y20060D01*
X48323Y30063D02*
X52500D01*
X46860Y28600D02*
X48323Y30063D01*
X46860Y24329D02*
Y28600D01*
Y24329D02*
X47250Y23939D01*
X51880Y14000D02*
Y16440D01*
X51230Y13350D02*
X51880Y14000D01*
X44400Y27950D02*
X44880Y27470D01*
Y26750D02*
Y27470D01*
X44080Y25950D02*
X44880Y26750D01*
X39575Y25950D02*
X44080D01*
X73550Y29150D02*
X74030Y28670D01*
X85302D01*
X85884Y29253D01*
X37578Y34000D02*
X52500D01*
X37300Y33722D02*
X37578Y34000D01*
X27450Y33722D02*
X37300D01*
X26591Y34580D02*
X27450Y33722D01*
X50514Y19170D02*
X51880D01*
X69050Y25850D02*
X69790D01*
X71640Y24000D01*
X79030D01*
X80680Y22350D01*
X85207D01*
X86200Y21357D01*
Y20900D02*
Y21357D01*
X84900Y21200D02*
X85200Y20900D01*
X84900Y21200D02*
Y21428D01*
X84750Y21578D02*
X84900Y21428D01*
X79978Y21578D02*
X84750D01*
X79300Y20900D02*
X79978Y21578D01*
X71950Y24950D02*
X74370D01*
X69050Y27850D02*
X71950Y24950D01*
X54652Y13350D02*
X55000Y13002D01*
X84003Y30150D02*
X84900Y29253D01*
X76550Y30150D02*
X84003D01*
X72970Y14520D02*
X73400Y14950D01*
X71500Y14520D02*
X72970D01*
X70442Y15578D02*
X71500Y14520D01*
X68178Y15578D02*
X70442D01*
X67500Y14900D02*
X68178Y15578D01*
X71522Y15828D02*
X72400Y14950D01*
X67428Y15828D02*
X71522D01*
X66500Y14900D02*
X67428Y15828D01*
X72950Y12500D02*
X75400Y14950D01*
X71900Y12500D02*
X72950D01*
X69500Y14900D02*
X71900Y12500D01*
X65600Y26463D02*
X65987Y26850D01*
X65600Y15000D02*
Y26463D01*
Y15000D02*
X66130Y14470D01*
X68790D01*
X69070Y14750D01*
Y15148D01*
X69250Y15328D01*
X70072D01*
X70500Y14900D01*
X65987Y30850D02*
X67500D01*
X78300Y14900D02*
X78504Y15104D01*
Y15250D01*
X78832Y15578D01*
X83522D01*
X84200Y14900D01*
X84950Y14650D02*
X85200Y14900D01*
X84950Y14500D02*
Y14650D01*
X84672Y14222D02*
X84950Y14500D01*
X79978Y14222D02*
X84672D01*
X79300Y14900D02*
X79978Y14222D01*
X71772Y21578D02*
X72400Y20950D01*
X67178Y21578D02*
X71772D01*
X66500Y20900D02*
X67178Y21578D01*
X76400Y20950D02*
X77720Y19630D01*
X86930D01*
X88200Y20900D01*
X30300Y14050D02*
X32610D01*
X32710Y13950D01*
X33500D01*
X36500Y22950D02*
X39575D01*
X33500Y25950D02*
X36500Y22950D01*
X26060Y35080D02*
X27650D01*
X28140Y34590D01*
X29080D01*
X41100Y16350D02*
Y16430D01*
X27950Y15950D02*
X28430Y16430D01*
X72400Y14950D02*
X72830Y15380D01*
X77820D01*
X78300Y14900D01*
X69500Y20900D02*
X71900Y18500D01*
X72950D01*
X75400Y20950D01*
X72400D02*
X72840Y21390D01*
X77810D01*
X78300Y20900D01*
X72970Y20520D02*
X73400Y20950D01*
X71558Y20520D02*
X72970D01*
X70750Y21328D02*
X71558Y20520D01*
X67928Y21328D02*
X70750D01*
X67500Y20900D02*
X67928Y21328D01*
X32200Y24950D02*
X33500D01*
X32200Y23950D02*
X33500D01*
X32350Y19950D02*
X33500D01*
X32350Y18950D02*
X33500D01*
X32350Y17950D02*
X33500D01*
X32350Y16950D02*
X33500D01*
X32350Y15950D02*
X33500D01*
X39575Y26950D02*
X44400D01*
D64*
X20000Y11000D02*
D03*
X88000Y38000D02*
D03*
Y11000D02*
D03*
X65000D02*
D03*
Y38000D02*
D03*
X50000D02*
D03*
Y11000D02*
D03*
X20000Y38000D02*
D03*
D65*
X52500Y30063D02*
D03*
X84900Y29253D02*
D03*
X83916D02*
D03*
X85884D02*
D03*
X83916Y23544D02*
D03*
X85884D02*
D03*
D66*
X52500Y34000D02*
D03*
D67*
X30300Y14050D02*
D03*
X29618Y13500D02*
D03*
X29080Y35590D02*
D03*
X28549Y35090D02*
D03*
X26060Y35080D02*
D03*
X26591Y35580D02*
D03*
D68*
X30300Y12950D02*
D03*
X29080Y34590D02*
D03*
X26591Y34580D02*
D03*
D69*
X33500Y30950D02*
D03*
D70*
Y29950D02*
D03*
Y28950D02*
D03*
Y27950D02*
D03*
Y26950D02*
D03*
Y25950D02*
D03*
Y24950D02*
D03*
Y23950D02*
D03*
Y22950D02*
D03*
Y21950D02*
D03*
Y20950D02*
D03*
Y19950D02*
D03*
Y18950D02*
D03*
Y17950D02*
D03*
Y16950D02*
D03*
Y15950D02*
D03*
Y14950D02*
D03*
Y13950D02*
D03*
Y12950D02*
D03*
Y11950D02*
D03*
X39575D02*
D03*
Y12950D02*
D03*
Y13950D02*
D03*
Y14950D02*
D03*
Y15950D02*
D03*
Y16950D02*
D03*
Y17950D02*
D03*
Y18950D02*
D03*
Y19950D02*
D03*
Y20950D02*
D03*
Y21950D02*
D03*
Y22950D02*
D03*
Y23950D02*
D03*
Y24950D02*
D03*
Y25950D02*
D03*
Y26950D02*
D03*
Y27950D02*
D03*
Y28950D02*
D03*
Y29950D02*
D03*
Y30950D02*
D03*
D71*
X22100Y34650D02*
D03*
Y33650D02*
D03*
D72*
Y32650D02*
D03*
D73*
X30050Y22992D02*
D03*
Y24961D02*
D03*
X18142Y26000D02*
D03*
X20111D02*
D03*
X47250Y25908D02*
D03*
Y23939D02*
D03*
D74*
X32200Y24950D02*
D03*
X44400Y26950D02*
D03*
X45400Y27950D02*
D03*
X44400D02*
D03*
X45400Y28950D02*
D03*
X44400D02*
D03*
X45400Y29950D02*
D03*
X44400D02*
D03*
X45400Y30950D02*
D03*
X44400D02*
D03*
X72550Y30150D02*
D03*
X73550Y29150D02*
D03*
Y30150D02*
D03*
X74550Y29150D02*
D03*
Y30150D02*
D03*
X75550Y29150D02*
D03*
Y30150D02*
D03*
X76550Y29150D02*
D03*
Y30150D02*
D03*
X41100Y16350D02*
D03*
Y15350D02*
D03*
Y14350D02*
D03*
Y13350D02*
D03*
X32350Y18950D02*
D03*
Y17950D02*
D03*
Y16950D02*
D03*
Y15950D02*
D03*
D75*
X32200Y23950D02*
D03*
X45400Y26950D02*
D03*
X41100Y12350D02*
D03*
X32350Y19950D02*
D03*
D76*
X49550Y19675D02*
D03*
X48550D02*
D03*
X47550D02*
D03*
X46550D02*
D03*
Y22750D02*
D03*
X47550D02*
D03*
X48550D02*
D03*
D77*
X49550D02*
D03*
D78*
X55000Y16750D02*
D03*
Y13002D02*
D03*
X15050Y12652D02*
D03*
Y16400D02*
D03*
Y30600D02*
D03*
Y34348D02*
D03*
Y21600D02*
D03*
Y25348D02*
D03*
D79*
X18000Y20600D02*
D03*
X20953D02*
D03*
X23906D02*
D03*
X17994Y18450D02*
D03*
X20947D02*
D03*
X23900D02*
D03*
D80*
X26858Y20600D02*
D03*
X26853Y18450D02*
D03*
D81*
X72550Y29150D02*
D03*
D82*
X30150Y15050D02*
D03*
D83*
Y20601D02*
D03*
D84*
X88200Y20900D02*
D03*
X87200D02*
D03*
X86200D02*
D03*
X85200D02*
D03*
X84200D02*
D03*
Y14900D02*
D03*
X85200D02*
D03*
X86200D02*
D03*
X87200D02*
D03*
X88200D02*
D03*
X82300Y20900D02*
D03*
X81300D02*
D03*
X80300D02*
D03*
X79300D02*
D03*
X78300D02*
D03*
Y14900D02*
D03*
X79300D02*
D03*
X80300D02*
D03*
X81300D02*
D03*
X82300D02*
D03*
X76400Y20950D02*
D03*
X75400D02*
D03*
X74400D02*
D03*
X73400D02*
D03*
X72400D02*
D03*
Y14950D02*
D03*
X73400D02*
D03*
X74400D02*
D03*
X75400D02*
D03*
X76400D02*
D03*
X70500Y20900D02*
D03*
X69500D02*
D03*
X68500D02*
D03*
X67500D02*
D03*
X66500D02*
D03*
Y14900D02*
D03*
X67500D02*
D03*
X68500D02*
D03*
X69500D02*
D03*
X70500D02*
D03*
D85*
X21650Y29100D02*
D03*
Y30100D02*
D03*
X18650D02*
D03*
Y29100D02*
D03*
D86*
X20474Y23350D02*
D03*
X18466D02*
D03*
X19450D02*
D03*
D87*
X44300Y21022D02*
D03*
Y17478D02*
D03*
D88*
X69050Y33850D02*
D03*
Y32850D02*
D03*
Y31850D02*
D03*
Y30850D02*
D03*
Y29850D02*
D03*
Y28850D02*
D03*
Y27850D02*
D03*
Y26850D02*
D03*
Y25850D02*
D03*
Y24850D02*
D03*
X65987D02*
D03*
Y25850D02*
D03*
Y26850D02*
D03*
Y27850D02*
D03*
Y28850D02*
D03*
Y29850D02*
D03*
Y30850D02*
D03*
Y31850D02*
D03*
Y32850D02*
D03*
D89*
Y33850D02*
D03*
D90*
X86731Y26300D02*
D03*
X83069D02*
D03*
D91*
X51880Y18250D02*
D03*
X41727Y22130D02*
D03*
X68190Y31270D02*
D03*
X31450Y33990D02*
D03*
X47050Y19680D02*
D03*
X51880Y16440D02*
D03*
X50514Y19170D02*
D03*
X51880D02*
D03*
X74370Y24950D02*
D03*
X67500Y30850D02*
D03*
M02*
