G04*
G04 #@! TF.GenerationSoftware,Altium Limited,Altium Designer,22.4.2 (48)*
G04*
G04 Layer_Color=8421504*
%FSLAX24Y24*%
%MOIN*%
G70*
G04*
G04 #@! TF.SameCoordinates,A9630A7D-A4A5-49CB-BB12-AA859E33B044*
G04*
G04*
G04 #@! TF.FilePolarity,Positive*
G04*
G01*
G75*
%ADD16R,0.0594X0.0475*%
%ADD17R,0.0236X0.0413*%
%ADD18R,0.0276X0.0256*%
%ADD19R,0.0799X0.0500*%
%ADD20R,0.0475X0.0594*%
%ADD21R,0.0492X0.0787*%
%ADD22R,0.2008X0.0846*%
%ADD23R,0.0650X0.0394*%
%ADD24R,0.0500X0.0799*%
D16*
X70950Y25886D02*
D03*
Y26714D02*
D03*
X74550Y25900D02*
D03*
Y26727D02*
D03*
X78250Y25886D02*
D03*
Y26714D02*
D03*
X79750Y24264D02*
D03*
Y23436D02*
D03*
X53150Y24114D02*
D03*
Y23286D02*
D03*
X29050Y31777D02*
D03*
Y30950D02*
D03*
X30900Y34264D02*
D03*
Y33436D02*
D03*
X32400Y34264D02*
D03*
Y33436D02*
D03*
X24800Y29700D02*
D03*
Y30527D02*
D03*
Y27223D02*
D03*
Y28050D02*
D03*
X27600Y28077D02*
D03*
Y27250D02*
D03*
X26200Y29700D02*
D03*
Y30527D02*
D03*
X23450Y27956D02*
D03*
Y28784D02*
D03*
X51850Y16850D02*
D03*
Y16023D02*
D03*
Y18664D02*
D03*
Y17836D02*
D03*
X51750Y25100D02*
D03*
Y24273D02*
D03*
Y23250D02*
D03*
Y22423D02*
D03*
X51800Y20523D02*
D03*
Y21350D02*
D03*
X78300Y24277D02*
D03*
Y23450D02*
D03*
X79750Y26714D02*
D03*
Y25886D02*
D03*
X72350Y26714D02*
D03*
Y25886D02*
D03*
X76050Y26714D02*
D03*
Y25886D02*
D03*
X46600Y27136D02*
D03*
Y27964D02*
D03*
D17*
X24724Y35583D02*
D03*
X23976D02*
D03*
X24350Y34717D02*
D03*
D18*
X28000Y30800D02*
D03*
Y31332D02*
D03*
D19*
X30975Y29000D02*
D03*
X32325Y30000D02*
D03*
X30975Y31000D02*
D03*
X43575Y13650D02*
D03*
X44925Y12650D02*
D03*
X43575Y11650D02*
D03*
D20*
X24264Y32700D02*
D03*
X23436D02*
D03*
X29064Y29650D02*
D03*
X28236D02*
D03*
X49673Y14350D02*
D03*
X50500D02*
D03*
X45773Y16500D02*
D03*
X46600D02*
D03*
X49173Y25550D02*
D03*
X50000D02*
D03*
X50527Y16500D02*
D03*
X49700D02*
D03*
X50000Y24350D02*
D03*
X49173D02*
D03*
X47723Y18600D02*
D03*
X48550D02*
D03*
X49686D02*
D03*
X50514D02*
D03*
X46614D02*
D03*
X45786D02*
D03*
X47736Y16500D02*
D03*
X48564D02*
D03*
X31686Y14100D02*
D03*
X32514D02*
D03*
X31700Y12950D02*
D03*
X32527D02*
D03*
X43586Y24150D02*
D03*
X44414D02*
D03*
X40900Y20800D02*
D03*
X41727D02*
D03*
Y22900D02*
D03*
X40900D02*
D03*
D21*
X30688Y27150D02*
D03*
X29212D02*
D03*
D22*
X27143Y23900D02*
D03*
X23757D02*
D03*
D23*
X41180Y19487D02*
D03*
X43050D02*
D03*
X41180Y18700D02*
D03*
X43050D02*
D03*
X41180Y17913D02*
D03*
X43050D02*
D03*
D24*
X37700Y33525D02*
D03*
X36700Y34875D02*
D03*
X35700Y33525D02*
D03*
M02*
